# Blender v3.0.0 OBJ File: ''
# www.blender.org
mtllib chevron_moving1.mtl
o cube.002
v 0.257730 5.025000 0.200014
v 0.252322 4.365625 0.200014
v 0.004620 4.365625 0.200014
v 0.505433 5.025000 0.200014
v 0.419063 4.800000 0.250002
v 0.395072 4.737500 0.250002
v 0.099386 4.612500 0.343702
v 0.252322 4.365625 0.343702
v 0.347089 4.612500 0.343702
v 0.371080 4.675000 0.343702
v 0.147369 4.737500 0.343702
v 0.123378 4.675000 0.343702
v 0.419063 4.800000 0.343702
v 0.195352 4.862500 0.343702
v 0.171361 4.800000 0.343702
v 0.467046 4.925000 0.343702
v 0.257730 5.025000 0.343702
v 0.219344 4.925000 0.343702
v 0.004620 4.365625 0.343702
v 0.099386 4.612500 0.250002
v 0.505433 5.025000 0.343702
v 0.443055 4.862500 0.250002
v 0.219344 4.925000 0.250002
v 0.195352 4.862500 0.250002
v 0.467046 4.925000 0.250002
v 0.443055 4.862500 0.343702
v 0.171361 4.800000 0.250002
v 0.147369 4.737500 0.250002
v 0.395072 4.737500 0.343702
v 0.347089 4.612500 0.250002
v 0.123378 4.675000 0.250002
v 0.371080 4.675000 0.250002
vt 0.553124 0.277620
vt 0.531252 0.143516
vt 0.553124 0.124236
vt 0.843748 0.296900
vt 0.735044 0.244560
vt 0.735044 0.230020
vt 0.540624 0.181664
vt 0.562500 0.143516
vt 0.562500 0.200944
vt 0.562500 0.215480
vt 0.540624 0.210744
vt 0.540624 0.196204
vt 0.562500 0.244560
vt 0.540624 0.239820
vt 0.540624 0.225284
vt 0.562500 0.273636
vt 0.540624 0.277620
vt 0.540624 0.254360
vt 0.851532 0.124236
vt 0.851532 0.181664
vt 0.647768 0.181664
vt 0.840596 0.275936
vt 0.528232 0.296040
vt 0.840596 0.296040
vt 0.632068 0.288244
vt 0.736656 0.250228
vt 0.632068 0.250228
vt 0.556944 0.150000
vt 0.780656 0.212500
vt 0.804648 0.150000
vt 0.835796 0.181300
vt 0.588092 0.275000
vt 0.835796 0.275000
vt 0.811804 0.150000
vt 0.564104 0.243700
vt 0.811804 0.243700
vt 0.604928 0.150000
vt 0.828640 0.212500
vt 0.852632 0.150000
vt 0.850312 0.275000
vt 0.602612 0.181300
vt 0.602612 0.275000
vt 0.826320 0.150000
vt 0.578620 0.243700
vt 0.826320 0.243700
vt 0.590412 0.150000
vt 0.814124 0.212500
vt 0.838112 0.150000
vt 0.802332 0.275000
vt 0.554628 0.181300
vt 0.554628 0.275000
vt 0.530636 0.150000
vt 0.778340 0.243700
vt 0.778340 0.150000
vt 0.531252 0.296900
vt 0.593780 0.200944
vt 0.593780 0.143516
vt 0.797544 0.200944
vt 0.531280 0.143516
vt 0.843748 0.143516
vt 0.735044 0.200944
vt 0.531280 0.296900
vt 0.735044 0.273636
vt 0.531280 0.273636
vt 0.531280 0.230020
vt 0.531280 0.215484
vt 0.735044 0.215480
vt 0.735044 0.259100
vt 0.531280 0.259100
vt 0.531280 0.244560
vt 0.540624 0.124236
vt 0.562500 0.230020
vt 0.562500 0.259100
vt 0.562500 0.296900
vt 0.851532 0.196204
vt 0.851532 0.210744
vt 0.647768 0.210744
vt 0.647768 0.225280
vt 0.851532 0.225284
vt 0.851532 0.239820
vt 0.647768 0.196204
vt 0.647768 0.239820
vt 0.539064 0.124236
vt 0.539064 0.277620
vt 0.647768 0.254360
vt 0.851532 0.254360
vt 0.851532 0.277620
vt 0.528232 0.275940
vt 0.736656 0.288244
vt 0.532952 0.212500
vt 0.588092 0.181300
vt 0.564104 0.150000
vt 0.580936 0.212500
vt 0.850312 0.181300
vt 0.578620 0.150000
vt 0.566420 0.212500
vt 0.802332 0.181300
vt 0.530636 0.243700
vn 0.0000 0.0000 -1.0000
vn 0.9336 -0.3584 0.0000
vn 0.0000 -0.0000 1.0000
vn -0.9336 0.3584 0.0000
vn 0.0000 1.0000 0.0000
vn 0.0000 -1.0000 0.0000
vn -0.9336 0.3584 -0.0001
usemtl m_a87f4cc5-cbf6-3029-5a40-e45e94b49978.002
s 1
f 1/1/1 2/2/1 3/3/1
f 4/4/2 5/5/2 6/6/2
f 7/7/3 8/8/3 9/9/3
f 10/10/3 11/11/3 12/12/3
f 13/13/3 14/14/3 15/15/3
f 16/16/3 17/17/3 18/18/3
f 19/19/4 7/20/4 20/21/4
f 1/22/5 21/23/5 4/24/5
f 2/25/6 19/26/6 3/27/6
f 22/28/3 23/29/3 24/30/3
f 16/31/6 23/32/6 25/33/6
f 22/34/5 14/35/5 26/36/5
f 6/37/3 27/38/3 28/39/3
f 5/40/6 15/41/6 27/42/6
f 6/43/5 11/44/5 29/45/5
f 30/46/3 31/47/3 20/48/3
f 32/49/6 12/50/6 31/51/6
f 20/52/5 9/53/5 30/54/5
f 1/1/1 4/55/1 2/2/1
f 9/56/2 8/57/2 30/58/2
f 8/59/2 2/60/2 30/61/2
f 4/4/2 21/62/2 25/63/2
f 21/62/2 16/64/2 25/63/2
f 29/65/2 10/66/2 32/67/2
f 32/67/2 30/61/2 2/60/2
f 2/60/2 4/4/2 32/67/2
f 4/4/2 25/63/2 22/68/2
f 22/68/2 26/69/2 13/70/2
f 4/4/2 22/68/2 5/5/2
f 6/6/2 29/65/2 32/67/2
f 22/68/2 13/70/2 5/5/2
f 6/6/2 32/67/2 4/4/2
f 7/7/3 19/71/3 8/8/3
f 10/10/3 29/72/3 11/11/3
f 13/13/3 26/73/3 14/14/3
f 16/16/3 21/74/3 17/17/3
f 12/75/4 11/76/4 28/77/7
f 27/78/4 15/79/4 14/80/4
f 31/81/4 12/75/4 28/77/7
f 27/78/4 14/80/4 24/82/4
f 20/21/4 31/81/4 3/83/4
f 31/81/4 28/77/7 1/84/4
f 27/78/4 24/82/4 1/84/4
f 24/82/4 23/85/4 1/84/4
f 31/81/4 1/84/4 3/83/4
f 28/77/7 27/78/4 1/84/4
f 23/85/4 18/86/4 17/87/4
f 23/85/4 17/87/4 1/84/4
f 3/83/4 19/19/4 20/21/4
f 1/22/5 17/88/5 21/23/5
f 2/25/6 8/89/6 19/26/6
f 22/28/3 25/90/3 23/29/3
f 16/31/6 18/91/6 23/32/6
f 22/34/5 24/92/5 14/35/5
f 6/37/3 5/93/3 27/38/3
f 5/40/6 13/94/6 15/41/6
f 6/43/5 28/95/5 11/44/5
f 30/46/3 32/96/3 31/47/3
f 32/49/6 10/97/6 12/50/6
f 20/52/5 7/98/5 9/53/5
o cube.003
v -0.263395 5.025000 0.200014
v -0.257986 4.365625 0.200014
v -0.511097 5.025000 0.200014
v -0.177025 4.800000 0.250002
v -0.153034 4.737500 0.250002
v -0.263395 5.025000 0.343702
v -0.472710 4.925000 0.343702
v -0.225008 4.925000 0.343702
v -0.201017 4.862500 0.343702
v -0.424727 4.800000 0.343702
v -0.177025 4.800000 0.343702
v -0.153034 4.737500 0.343702
v -0.376744 4.675000 0.343702
v -0.129042 4.675000 0.343702
v -0.257986 4.365625 0.343702
v -0.105051 4.612500 0.343702
v -0.352753 4.612500 0.343702
v -0.424727 4.800000 0.250002
v -0.448719 4.862500 0.250002
v -0.010284 4.365625 0.200014
v -0.225008 4.925000 0.250002
v -0.201017 4.862500 0.250002
v -0.472710 4.925000 0.250002
v -0.448719 4.862500 0.343702
v -0.400736 4.737500 0.250002
v -0.129042 4.675000 0.250002
v -0.352753 4.612500 0.250002
v -0.105051 4.612500 0.250002
v -0.376744 4.675000 0.250002
v -0.010284 4.365625 0.343702
v -0.511097 5.025000 0.343702
v -0.400736 4.737500 0.343702
vt 0.593752 0.276348
vt 0.615624 0.135604
vt 0.615624 0.296580
vt 0.781248 0.213848
vt 0.672544 0.158916
vt 0.672544 0.143660
vt 0.750000 0.151348
vt 0.728124 0.147164
vt 0.750000 0.126932
vt 0.687500 0.174176
vt 0.665624 0.179148
vt 0.687500 0.158916
vt 0.750000 0.143660
vt 0.728124 0.148632
vt 0.750000 0.128400
vt 0.728124 0.135604
vt 0.750000 0.175644
vt 0.728124 0.195876
vt 0.772768 0.116648
vt 0.772768 0.131908
vt 0.664064 0.171580
vt 0.840596 0.151048
vt 0.528232 0.171148
vt 0.840596 0.171148
vt 0.632068 0.185444
vt 0.736656 0.147428
vt 0.632068 0.147428
vt 0.600008 0.212500
vt 0.823720 0.150000
vt 0.576016 0.150000
vt 0.831240 0.118800
vt 0.583540 0.212500
vt 0.831240 0.212500
vt 0.792732 0.243700
vt 0.545032 0.150000
vt 0.545032 0.243700
vt 0.614524 0.212500
vt 0.838236 0.150000
vt 0.590532 0.150000
vt 0.816724 0.118800
vt 0.569024 0.212500
vt 0.816724 0.212500
vt 0.593016 0.150000
vt 0.840716 0.243700
vt 0.840716 0.150000
vt 0.566544 0.212500
vt 0.790252 0.150000
vt 0.542552 0.150000
vt 0.802208 0.118800
vt 0.554504 0.212500
vt 0.802208 0.212500
vt 0.578496 0.150000
vt 0.826200 0.243700
vt 0.826200 0.150000
vt 0.593752 0.115372
vt 0.797544 0.175644
vt 0.593780 0.175644
vt 0.593780 0.115372
vt 0.843748 0.151348
vt 0.531280 0.151348
vt 0.735044 0.126932
vt 0.656280 0.213848
vt 0.656280 0.189432
vt 0.860044 0.189432
vt 0.735044 0.175644
vt 0.531280 0.115372
vt 0.843748 0.115372
vt 0.593780 0.143660
vt 0.593780 0.128400
vt 0.797544 0.128400
vt 0.672544 0.190900
vt 0.672544 0.175644
vt 0.781248 0.115372
vt 0.781248 0.276348
vt 0.718748 0.151348
vt 0.610044 0.126932
vt 0.610044 0.111676
vt 0.797544 0.174176
vt 0.593780 0.174176
vt 0.593780 0.158916
vt 0.718748 0.213848
vt 0.610044 0.174176
vt 0.610044 0.158916
vt 0.797544 0.143660
vt 0.797544 0.158916
vt 0.672544 0.128400
vt 0.728124 0.171580
vt 0.750000 0.174176
vt 0.728124 0.194408
vt 0.728124 0.179148
vt 0.687500 0.143660
vt 0.665624 0.163892
vt 0.665624 0.148632
vt 0.750000 0.115372
vt 0.585268 0.148632
vt 0.789032 0.148632
vt 0.789032 0.163892
vt 0.585268 0.163892
vt 0.789032 0.135604
vt 0.789032 0.195876
vt 0.585268 0.195876
vt 0.772768 0.148632
vt 0.772768 0.163892
vt 0.664064 0.234080
vt 0.772768 0.101392
vt 0.539064 0.135604
vt 0.851532 0.135604
vt 0.647768 0.195876
vt 0.772768 0.195876
vt 0.772768 0.211132
vt 0.664064 0.135604
vt 0.601564 0.296580
vt 0.601564 0.135604
vt 0.710268 0.211132
vt 0.789032 0.147164
vt 0.789032 0.171580
vt 0.585268 0.147164
vt 0.851532 0.171580
vt 0.539064 0.171580
vt 0.647768 0.147164
vt 0.647768 0.179148
vt 0.851532 0.179148
vt 0.851532 0.194408
vt 0.772768 0.147164
vt 0.647768 0.116648
vt 0.851532 0.131908
vt 0.647768 0.131908
vt 0.528232 0.151048
vt 0.569568 0.185444
vt 0.674156 0.185440
vt 0.674156 0.147428
vt 0.537508 0.150000
vt 0.785212 0.150000
vt 0.761220 0.087500
vt 0.583540 0.118800
vt 0.792732 0.150000
vt 0.552024 0.212500
vt 0.799728 0.212500
vt 0.775736 0.150000
vt 0.569024 0.118800
vt 0.593016 0.243700
vt 0.566544 0.150000
vt 0.814244 0.150000
vt 0.790252 0.087500
vt 0.554504 0.118800
vt 0.578496 0.087500
vt 0.578496 0.181200
vt 0.826200 0.181200
vn 0.0000 0.0000 -1.0000
vn 0.9336 0.3584 -0.0000
vn 0.0000 0.0000 1.0000
vn -0.9336 -0.3584 0.0000
vn 0.0000 1.0000 0.0000
vn 0.0000 -1.0000 0.0000
usemtl m_a87f4cc5-cbf6-3029-5a40-e45e94b49978.002
s 1
f 33/99/8 34/100/8 35/101/8
f 33/102/9 36/103/9 37/104/9
f 38/105/10 39/106/10 40/107/10
f 41/108/10 42/109/10 43/110/10
f 44/111/10 45/112/10 46/113/10
f 47/114/10 48/115/10 49/116/10
f 50/117/11 51/118/11 35/119/11
f 35/120/12 38/121/12 33/122/12
f 52/123/13 47/124/13 34/125/13
f 53/126/10 51/127/10 54/128/10
f 40/129/13 55/130/13 53/131/13
f 41/132/12 51/133/12 56/134/12
f 36/135/10 57/136/10 37/137/10
f 43/138/13 50/139/13 36/140/13
f 57/141/12 44/142/12 37/143/12
f 58/144/10 59/145/10 60/146/10
f 46/147/13 61/148/13 58/149/13
f 59/150/12 48/151/12 60/152/12
f 33/99/8 52/153/8 34/100/8
f 60/154/9 48/155/9 62/156/9
f 33/157/9 38/158/9 53/159/9
f 38/160/9 40/161/9 53/162/9
f 60/163/9 62/164/9 52/165/9
f 44/166/9 46/167/9 58/168/9
f 58/169/9 60/170/9 52/171/9
f 52/171/9 33/172/9 58/169/9
f 33/173/9 53/174/9 54/175/9
f 54/176/9 41/177/9 43/178/9
f 33/179/9 54/180/9 36/181/9
f 37/182/9 44/166/9 58/168/9
f 54/176/9 43/178/9 36/183/9
f 37/104/9 58/184/9 33/102/9
f 38/105/10 63/185/10 39/106/10
f 41/186/10 56/187/10 42/188/10
f 44/189/10 64/190/10 45/191/10
f 47/114/10 62/192/10 48/115/10
f 61/193/11 45/194/11 64/195/11
f 61/193/11 64/195/11 57/196/11
f 47/197/11 49/198/11 59/199/11
f 61/200/11 57/201/11 35/202/11
f 57/203/11 50/117/11 35/119/11
f 34/204/11 47/205/11 59/206/11
f 59/207/11 61/208/11 34/209/11
f 35/210/11 34/211/11 61/212/11
f 39/213/11 63/214/11 55/215/11
f 63/216/11 35/217/11 55/218/11
f 50/219/11 42/220/11 56/221/11
f 51/118/11 55/222/11 35/119/11
f 50/223/11 56/224/11 51/225/11
f 35/120/12 63/226/12 38/121/12
f 52/227/13 62/228/13 47/229/13
f 53/230/10 55/231/10 51/232/10
f 40/129/13 39/233/13 55/130/13
f 41/132/12 54/234/12 51/133/12
f 36/235/10 50/236/10 57/237/10
f 43/138/13 42/238/13 50/139/13
f 57/141/12 64/239/12 44/142/12
f 58/240/10 61/241/10 59/242/10
f 46/147/13 45/243/13 61/148/13
f 59/244/12 49/245/12 48/246/12
o cube.004
v 0.076594 4.553125 0.200002
v -0.010284 4.365625 0.200002
v -0.082259 4.553125 0.200002
v 0.076594 4.553125 0.343752
v -0.010284 4.365625 0.343752
v 0.004620 4.365625 0.343752
v -0.082259 4.553125 0.343752
v 0.004620 4.365625 0.200002
vt 0.782388 0.212500
vt 0.799220 0.143340
vt 0.813164 0.212500
vt 0.811364 0.212500
vt 0.794532 0.143340
vt 0.797420 0.143340
vt 0.840624 0.110272
vt 0.528124 0.141052
vt 0.528124 0.110272
vt 0.816492 0.161148
vt 0.683504 0.115372
vt 0.683504 0.161148
vt 0.824308 0.167852
vt 0.691320 0.124236
vt 0.691320 0.167852
vt 0.799192 0.185444
vt 0.694556 0.187728
vt 0.799192 0.187728
vt 0.796332 0.143340
vt 0.780584 0.212500
vt 0.840624 0.141052
vt 0.816492 0.115372
vt 0.824308 0.124236
vt 0.799192 0.122944
vt 0.694556 0.122944
vt 0.694556 0.125228
vn 0.0000 0.0000 -1.0000
vn 0.0000 -0.0000 1.0000
vn 0.0000 1.0000 0.0000
vn -0.9336 -0.3584 0.0000
vn 0.9336 -0.3584 0.0000
vn 0.0000 -1.0000 0.0000
usemtl m_a87f4cc5-cbf6-3029-5a40-e45e94b49978.002
s 1
f 65/247/14 66/248/14 67/249/14
f 68/250/15 69/251/15 70/252/15
f 71/253/16 65/254/16 67/255/16
f 67/256/17 69/257/17 71/258/17
f 68/259/18 72/260/18 65/261/18
f 69/262/19 72/263/19 70/264/19
f 65/247/14 72/265/14 66/248/14
f 68/250/15 71/266/15 69/251/15
f 71/253/16 68/267/16 65/254/16
f 67/256/17 66/268/17 69/257/17
f 68/259/18 70/269/18 72/260/18
f 69/270/19 66/271/19 72/272/19
o cube.005
v -0.201017 4.862500 0.249656
v -0.448719 4.862500 0.249656
v -0.472710 4.925000 0.249656
v -0.225008 4.925000 0.249656
v 0.219344 4.925000 0.249656
v 0.467046 4.925000 0.249656
v 0.443055 4.862500 0.249656
v 0.195352 4.862500 0.249656
v -0.225008 4.925000 0.324616
v -0.472710 4.925000 0.324616
v 0.219344 4.925000 0.324616
v 0.467046 4.925000 0.324616
v 0.195352 4.862500 0.324616
v 0.443055 4.862500 0.324616
v -0.448719 4.862500 0.324616
v -0.201017 4.862500 0.324616
vt 0.261220 0.375000
vt 0.037508 0.437500
vt 0.013516 0.375000
vt 0.343156 0.500000
vt 0.119444 0.437500
vt 0.367148 0.437500
vt 0.331240 0.500000
vt 0.083540 0.406300
vt 0.331240 0.406300
vt 0.025592 0.500000
vt 0.273296 0.406300
vt 0.273296 0.500000
vt 0.064104 0.375000
vt 0.311804 0.468700
vt 0.064104 0.468700
vt 0.107532 0.375000
vt 0.355232 0.468700
vt 0.107532 0.468700
vt 0.156280 0.498636
vt 0.360044 0.484100
vt 0.360044 0.498636
vt 0.290624 0.479360
vt 0.312500 0.484100
vt 0.312500 0.498636
vt 0.147768 0.464820
vt 0.351532 0.479360
vt 0.147768 0.479360
vt 0.360044 0.476932
vt 0.156280 0.461676
vt 0.360044 0.461676
vt 0.312500 0.476932
vt 0.290624 0.481908
vt 0.312500 0.461676
vt 0.351532 0.497164
vt 0.147768 0.481908
vt 0.351532 0.481908
vt 0.285212 0.437500
vt 0.095452 0.500000
vt 0.083540 0.500000
vt 0.025592 0.406300
vt 0.311804 0.375000
vt 0.355232 0.375000
vt 0.156280 0.484100
vt 0.290624 0.464820
vt 0.351532 0.464820
vt 0.156280 0.476932
vt 0.290624 0.497164
vt 0.147768 0.497164
vn 0.0000 0.0000 -1.0000
vn 0.0000 1.0000 0.0000
vn 0.0000 -1.0000 0.0000
vn 0.9336 -0.3584 0.0000
vn 0.0000 0.0000 1.0000
vn -0.9336 0.3584 0.0000
vn 0.9336 0.3584 0.0000
vn -0.9336 -0.3584 0.0000
usemtl m_a87f4cc5-cbf6-3029-5a40-e45e94b49978.002
s 1
f 74/273/20 76/274/20 73/275/20
f 77/276/20 79/277/20 80/278/20
f 76/279/21 82/280/21 81/281/21
f 77/282/21 84/283/21 78/284/21
f 80/285/22 86/286/22 85/287/22
f 74/288/22 88/289/22 87/290/22
f 84/291/23 79/292/23 78/293/23
f 83/294/24 86/295/24 84/296/24
f 80/297/25 83/298/25 77/299/25
f 76/300/26 88/301/26 73/302/26
f 81/303/24 87/304/24 88/305/24
f 82/306/27 74/307/27 87/308/27
f 74/273/20 75/309/20 76/274/20
f 77/276/20 78/310/20 79/277/20
f 76/279/21 75/311/21 82/280/21
f 77/282/21 83/312/21 84/283/21
f 80/285/22 79/313/22 86/286/22
f 74/288/22 73/314/22 88/289/22
f 84/291/23 86/315/23 79/292/23
f 83/294/24 85/316/24 86/295/24
f 80/297/25 85/317/25 83/298/25
f 76/300/26 81/318/26 88/301/26
f 81/303/24 82/319/24 87/304/24
f 82/306/27 75/320/27 74/307/27
o cube.006
v -0.400736 4.737500 0.249656
v -0.424727 4.800000 0.249656
v -0.177025 4.800000 0.249656
v -0.153034 4.737500 0.249656
v 0.171361 4.800000 0.249656
v 0.419063 4.800000 0.249656
v 0.395072 4.737500 0.249656
v 0.147369 4.737500 0.249656
v -0.177025 4.800000 0.324616
v -0.424727 4.800000 0.324616
v 0.171361 4.800000 0.324616
v 0.419063 4.800000 0.324616
v 0.395072 4.737500 0.324616
v 0.147369 4.737500 0.324616
v -0.400736 4.737500 0.324616
v -0.153034 4.737500 0.324616
vt 0.338236 0.187500
vt 0.114524 0.250000
vt 0.090532 0.187500
vt 0.266140 0.312500
vt 0.042428 0.250000
vt 0.290132 0.250000
vt 0.316724 0.312500
vt 0.069024 0.218800
vt 0.316724 0.218800
vt 0.040112 0.312500
vt 0.287812 0.218800
vt 0.287812 0.312500
vt 0.016120 0.281200
vt 0.263820 0.187500
vt 0.263820 0.281200
vt 0.030516 0.187500
vt 0.278216 0.281200
vt 0.030516 0.281200
vt 0.031280 0.282060
vt 0.235044 0.267520
vt 0.235044 0.282060
vt 0.290624 0.262784
vt 0.312500 0.267520
vt 0.312500 0.282060
vt 0.085268 0.248244
vt 0.289032 0.262784
vt 0.085268 0.262780
vt 0.093780 0.258916
vt 0.297544 0.243660
vt 0.297544 0.258916
vt 0.250000 0.258916
vt 0.228124 0.263892
vt 0.250000 0.243660
vt 0.289032 0.201392
vt 0.085268 0.216648
vt 0.085268 0.201392
vt 0.362228 0.250000
vt 0.018436 0.312500
vt 0.069024 0.312500
vt 0.040112 0.218800
vt 0.016120 0.187500
vt 0.278216 0.187500
vt 0.031280 0.267520
vt 0.290624 0.248244
vt 0.289032 0.248244
vt 0.093780 0.243660
vt 0.228124 0.279148
vt 0.289032 0.216648
vn 0.0000 0.0000 -1.0000
vn 0.0000 1.0000 0.0000
vn 0.0000 -1.0000 0.0000
vn 0.9336 -0.3584 0.0000
vn 0.0000 0.0000 1.0000
vn -0.9336 0.3584 0.0000
vn 0.9336 0.3584 0.0000
vn -0.9336 -0.3584 0.0000
usemtl m_a87f4cc5-cbf6-3029-5a40-e45e94b49978.002
s 1
f 89/321/28 91/322/28 92/323/28
f 93/324/28 95/325/28 96/326/28
f 91/327/29 98/328/29 97/329/29
f 93/330/29 100/331/29 94/332/29
f 102/333/30 95/334/30 101/335/30
f 89/336/30 104/337/30 103/338/30
f 100/339/31 95/340/31 94/341/31
f 99/342/32 101/343/32 100/344/32
f 96/345/33 99/346/33 93/347/33
f 97/348/34 92/349/34 91/350/34
f 97/351/32 103/352/32 104/353/32
f 103/354/35 90/355/35 89/356/35
f 89/321/28 90/357/28 91/322/28
f 93/324/28 94/358/28 95/325/28
f 91/327/29 90/359/29 98/328/29
f 93/330/29 99/360/29 100/331/29
f 102/333/30 96/361/30 95/334/30
f 89/336/30 92/362/30 104/337/30
f 100/339/31 101/363/31 95/340/31
f 99/342/32 102/364/32 101/343/32
f 96/345/33 102/365/33 99/346/33
f 97/348/34 104/366/34 92/349/34
f 97/351/32 98/367/32 103/352/32
f 103/354/35 98/368/35 90/355/35
o cube.007
v -0.105051 4.612500 0.249656
v -0.352753 4.612500 0.249656
v -0.376744 4.675000 0.249656
v -0.129042 4.675000 0.249656
v 0.123378 4.675000 0.249656
v 0.371080 4.675000 0.249656
v 0.347089 4.612500 0.249656
v 0.099386 4.612500 0.249656
v 0.371080 4.675000 0.324616
v 0.123378 4.675000 0.324616
v -0.129042 4.675000 0.324616
v -0.376744 4.675000 0.324616
v 0.347089 4.612500 0.324616
v 0.099386 4.612500 0.324616
v -0.352753 4.612500 0.324616
v -0.105051 4.612500 0.324616
vt 0.290252 0.062500
vt 0.066544 0.125000
vt 0.042552 0.062500
vt 0.251624 0.062500
vt 0.027912 0.000000
vt 0.275612 0.000000
vt 0.302332 0.125000
vt 0.054628 0.031300
vt 0.302332 0.031300
vt 0.247704 0.125000
vt 0.000000 0.031300
vt 0.247704 0.031300
vt 0.093136 0.093700
vt 0.340840 0.000000
vt 0.340840 0.093700
vt 0.000000 0.000000
vt 0.247704 0.093700
vt 0.000000 0.093700
vt 0.235044 0.065484
vt 0.031280 0.050944
vt 0.235044 0.050944
vt 0.312500 0.050944
vt 0.290624 0.046204
vt 0.290624 0.031664
vt 0.085268 0.031664
vt 0.289032 0.046204
vt 0.085268 0.046204
vt 0.093780 0.040900
vt 0.297544 0.025644
vt 0.297544 0.040900
vt 0.187500 0.040900
vt 0.165624 0.045876
vt 0.187500 0.025644
vt 0.022768 0.045876
vt 0.226532 0.061132
vt 0.022768 0.061132
vt 0.314244 0.125000
vt 0.003920 0.062500
vt 0.054628 0.125000
vt 0.000000 0.125000
vt 0.093136 0.000000
vt 0.247704 0.000000
vt 0.031280 0.065484
vt 0.312500 0.065484
vt 0.289032 0.031664
vt 0.093780 0.025644
vt 0.165624 0.061132
vt 0.226532 0.045876
vn 0.0000 0.0000 -1.0000
vn 0.0000 1.0000 0.0000
vn 0.0000 -1.0000 0.0000
vn 0.9336 -0.3584 0.0000
vn 0.0000 -0.0000 1.0000
vn -0.9336 0.3584 0.0000
vn 0.9336 0.3584 0.0000
vn -0.9336 -0.3584 0.0000
usemtl m_a87f4cc5-cbf6-3029-5a40-e45e94b49978.002
s 1
f 106/369/36 108/370/36 105/371/36
f 109/372/36 111/373/36 112/374/36
f 110/375/37 114/376/37 113/377/37
f 108/378/37 116/379/37 115/380/37
f 118/381/38 111/382/38 117/383/38
f 106/384/38 120/385/38 119/386/38
f 110/387/39 117/388/39 111/389/39
f 117/390/40 114/391/40 118/392/40
f 112/393/41 114/394/41 109/395/41
f 115/396/42 105/397/42 108/398/42
f 115/399/40 119/400/40 120/401/40
f 106/402/43 116/403/43 107/404/43
f 106/369/36 107/405/36 108/370/36
f 109/372/36 110/406/36 111/373/36
f 110/375/37 109/407/37 114/376/37
f 108/378/37 107/408/37 116/379/37
f 118/381/38 112/409/38 111/382/38
f 106/384/38 105/410/38 120/385/38
f 110/387/39 113/411/39 117/388/39
f 117/390/40 113/412/40 114/391/40
f 112/393/41 118/413/41 114/394/41
f 115/396/42 120/414/42 105/397/42
f 115/399/40 116/415/40 119/400/40
f 106/402/43 119/416/43 116/403/43
