# Blender v3.0.0 OBJ File: ''
# www.blender.org
mtllib chevron_frame1.mtl
o cube
v -0.058651 4.829443 -0.281237
v -0.099495 4.813765 -0.281237
v -0.243962 5.190114 -0.281237
v -0.203118 5.205793 -0.281237
v -0.058651 4.829443 0.343701
v -0.203118 5.205793 0.343701
v -0.099495 4.813765 0.343701
v -0.243962 5.190114 0.343701
vt 0.247656 0.785547
vt 0.242188 0.835938
vt 0.242188 0.785547
vt 0.320312 0.785547
vt 0.242195 0.835938
vt 0.242195 0.785547
vt 0.244531 0.785547
vt 0.250000 0.835938
vt 0.244531 0.835938
vt 0.322258 0.785547
vt 0.244141 0.835938
vt 0.244141 0.785547
vt 0.322648 0.833984
vt 0.244531 0.828516
vt 0.322648 0.828516
vt 0.322648 0.835930
vt 0.244531 0.830461
vt 0.322648 0.830461
vt 0.247656 0.835938
vt 0.320312 0.835938
vt 0.250000 0.785547
vt 0.322258 0.835938
vt 0.244531 0.833984
vt 0.244531 0.835930
vn -0.0000 0.0000 -1.0000
vn 0.9336 0.3584 0.0000
vn 0.0000 -0.0000 1.0000
vn -0.9336 -0.3584 0.0000
vn -0.3584 0.9336 0.0000
vn 0.3584 -0.9336 0.0000
usemtl m_3326e610-1839-8a8f-4c19-b835e2dcf0dc
s 1
f 2/1/1 4/2/1 1/3/1
f 1/4/2 6/5/2 5/6/2
f 7/7/3 6/8/3 8/9/3
f 7/10/4 3/11/4 2/12/4
f 6/13/5 3/14/5 8/15/5
f 1/16/6 7/17/6 2/18/6
f 2/1/1 3/19/1 4/2/1
f 1/4/2 4/20/2 6/5/2
f 7/7/3 5/21/3 6/8/3
f 7/10/4 8/22/4 3/11/4
f 6/13/5 4/23/5 3/14/5
f 1/16/6 5/24/6 7/17/6
o cube.000
v 0.093750 4.706250 -0.281249
v -0.100000 4.706250 -0.281249
v -0.100000 4.846875 -0.281249
v 0.093750 4.846875 -0.281249
v 0.093750 4.706250 0.343751
v 0.093750 4.846875 0.343751
v -0.100000 4.706250 0.343751
v -0.100000 4.846875 0.343751
vt 0.274219 0.810547
vt 0.250000 0.828125
vt 0.250000 0.810547
vt 0.320312 0.810547
vt 0.242188 0.828125
vt 0.242188 0.810547
vt 0.273438 0.810547
vt 0.249219 0.828125
vt 0.249219 0.810547
vt 0.322266 0.810547
vt 0.244141 0.828125
vt 0.244141 0.810547
vt 0.319531 0.833984
vt 0.241406 0.809766
vt 0.319531 0.809766
vt 0.319531 0.835938
vt 0.241406 0.811719
vt 0.319531 0.811719
vt 0.274219 0.828125
vt 0.320312 0.828125
vt 0.273438 0.828125
vt 0.322266 0.828125
vt 0.241406 0.833984
vt 0.241406 0.835938
vn 0.0000 0.0000 -1.0000
vn 1.0000 0.0000 0.0000
vn 0.0000 0.0000 1.0000
vn -1.0000 0.0000 0.0000
vn 0.0000 1.0000 0.0000
vn 0.0000 -1.0000 0.0000
usemtl m_3326e610-1839-8a8f-4c19-b835e2dcf0dc
s 1
f 10/25/7 12/26/7 9/27/7
f 9/28/8 14/29/8 13/30/8
f 13/31/9 16/32/9 15/33/9
f 15/34/10 11/35/10 10/36/10
f 14/37/11 11/38/11 16/39/11
f 9/40/12 15/41/12 10/42/12
f 10/25/7 11/43/7 12/26/7
f 9/28/8 12/44/8 14/29/8
f 13/31/9 14/45/9 16/32/9
f 15/34/10 16/46/10 11/35/10
f 14/37/11 12/47/11 11/38/11
f 9/40/12 13/48/12 15/41/12
o cube.001
v 0.094099 4.809648 -0.281237
v 0.053255 4.825326 -0.281237
v 0.197722 5.201676 -0.281237
v 0.238566 5.185997 -0.281237
v 0.094099 4.809648 0.343701
v 0.238566 5.185997 0.343701
v 0.053255 4.825326 0.343701
v 0.197722 5.201676 0.343701
vt 0.250000 0.785547
vt 0.255469 0.835938
vt 0.250000 0.835938
vt 0.320312 0.785547
vt 0.242195 0.835938
vt 0.242195 0.785547
vt 0.250000 0.785547
vt 0.244531 0.835938
vt 0.244531 0.785547
vt 0.322258 0.785547
vt 0.244141 0.835938
vt 0.244141 0.785547
vt 0.322648 0.833984
vt 0.244531 0.828516
vt 0.322648 0.828516
vt 0.322648 0.828117
vt 0.244531 0.822648
vt 0.322648 0.822648
vt 0.255469 0.785547
vt 0.320312 0.835938
vt 0.250000 0.835938
vt 0.322258 0.835938
vt 0.244531 0.833984
vt 0.244531 0.828117
vn 0.0000 0.0000 -1.0000
vn 0.9336 -0.3584 0.0000
vn -0.0000 -0.0000 1.0000
vn -0.9336 0.3584 0.0000
vn 0.3584 0.9336 0.0000
vn -0.3584 -0.9336 0.0000
usemtl m_3326e610-1839-8a8f-4c19-b835e2dcf0dc
s 1
f 17/49/13 19/50/13 20/51/13
f 17/52/14 22/53/14 21/54/14
f 21/55/15 24/56/15 23/57/15
f 23/58/16 19/59/16 18/60/16
f 22/61/17 19/62/17 24/63/17
f 17/64/18 23/65/18 18/66/18
f 17/49/13 18/67/13 19/50/13
f 17/52/14 20/68/14 22/53/14
f 21/55/15 22/69/15 24/56/15
f 23/58/16 24/70/16 19/59/16
f 22/61/17 20/71/17 19/62/17
f 17/64/18 21/72/18 23/65/18
o hlavni.001
v -0.200000 5.059375 -0.084375
v -0.200000 5.228125 -0.084375
v -0.220654 5.228125 -0.084375
v -1.131250 5.059375 -0.084375
v -1.131250 5.067562 -0.246875
v -1.131250 5.059375 -0.246875
v -0.200000 5.228125 -0.246875
v -0.220654 5.228125 -0.246875
v -0.200000 5.059375 -0.246875
v -1.131250 5.067562 -0.084375
vt 0.358593 0.814843
vt 0.358593 0.835938
vt 0.356012 0.835938
vt 0.292969 0.822656
vt 0.272656 0.823680
vt 0.272656 0.822656
vt 0.250000 0.814843
vt 0.270312 0.835938
vt 0.250000 0.835938
vt 0.263281 0.835938
vt 0.265863 0.815625
vt 0.265863 0.835938
vt 0.247656 0.816406
vt 0.364062 0.836718
vt 0.247656 0.836718
vt 0.249965 0.816406
vt 0.365545 0.836718
vt 0.365545 0.816406
vt 0.356012 0.835938
vt 0.358593 0.835938
vt 0.358593 0.814843
vt 0.363824 0.835938
vt 0.250000 0.815867
vt 0.366406 0.814843
vt 0.250000 0.814843
vt 0.355469 0.814843
vt 0.355469 0.815867
vt 0.335156 0.815867
vt 0.270312 0.814843
vt 0.263281 0.815625
vt 0.250000 0.816406
vt 0.366407 0.816406
vt 0.366407 0.836718
vt 0.250000 0.836718
vt 0.365580 0.836718
vt 0.250000 0.814843
vt 0.250000 0.815867
vt 0.366406 0.814843
vt 0.363824 0.835938
vn 0.0000 -0.0000 1.0000
vn -1.0000 0.0000 0.0000
vn 1.0000 -0.0000 0.0000
vn 0.0000 1.0000 0.0000
vn 0.0000 -1.0000 0.0000
vn -0.1736 0.9848 0.0000
vn -0.0000 0.0000 -1.0000
usemtl m_3326e610-1839-8a8f-4c19-b835e2dcf0dc
s 1
f 25/73/19 26/74/19 27/75/19
f 28/76/20 29/77/20 30/78/20
f 25/79/21 31/80/21 26/81/21
f 26/82/22 32/83/22 27/84/22
f 25/85/23 30/86/23 33/87/23
f 27/88/24 29/89/24 34/90/24
f 32/91/25 31/92/25 33/93/25
f 27/94/19 34/95/19 25/96/19
f 34/95/19 28/97/19 25/96/19
f 28/98/20 34/99/20 29/100/20
f 25/79/21 33/101/21 31/80/21
f 26/82/22 31/102/22 32/83/22
f 25/103/23 28/104/23 30/105/23
f 27/88/24 32/106/24 29/107/24
f 30/108/25 29/109/25 33/110/25
f 29/109/25 32/111/25 33/110/25
o hlavni.001.000
v 0.200000 5.059375 -0.246873
v 0.200000 5.228125 -0.246873
v 0.220654 5.228125 -0.246873
v 1.131250 5.059375 -0.246873
v 1.131250 5.067562 -0.084373
v 1.131250 5.059375 -0.084373
v 0.200000 5.228125 -0.084373
v 0.220654 5.228125 -0.084373
v 0.200000 5.059375 -0.084373
v 1.131250 5.067562 -0.246873
vt 0.366406 0.814843
vt 0.366406 0.835938
vt 0.363824 0.835938
vt 0.292969 0.830468
vt 0.272656 0.831492
vt 0.272656 0.830468
vt 0.250000 0.814843
vt 0.270312 0.835938
vt 0.250000 0.835938
vt 0.286718 0.835938
vt 0.289301 0.815625
vt 0.289301 0.835938
vt 0.247656 0.816406
vt 0.364062 0.836718
vt 0.247656 0.836718
vt 0.249965 0.816406
vt 0.365545 0.836718
vt 0.365545 0.816406
vt 0.363824 0.835938
vt 0.366406 0.835938
vt 0.366406 0.814843
vt 0.250000 0.815867
vt 0.250000 0.823680
vt 0.250000 0.822656
vt 0.366406 0.822656
vt 0.347656 0.814843
vt 0.347656 0.815867
vt 0.327343 0.815867
vt 0.343750 0.814843
vt 0.364062 0.814843
vt 0.364062 0.835938
vt 0.263281 0.835938
vt 0.263281 0.815625
vt 0.265863 0.815625
vt 0.364062 0.816406
vt 0.250000 0.836718
vt 0.365580 0.836718
vt 0.250000 0.814843
vt 0.250000 0.815867
vn 0.0000 0.0000 -1.0000
vn 1.0000 0.0000 0.0000
vn -1.0000 -0.0000 0.0000
vn 0.0000 1.0000 0.0000
vn 0.0000 -1.0000 0.0000
vn 0.1736 0.9848 0.0000
vn 0.0000 -0.0000 1.0000
usemtl m_3326e610-1839-8a8f-4c19-b835e2dcf0dc
s 1
f 35/112/26 36/113/26 37/114/26
f 38/115/27 39/116/27 40/117/27
f 35/118/28 41/119/28 36/120/28
f 36/121/29 42/122/29 37/123/29
f 35/124/30 40/125/30 43/126/30
f 37/127/31 39/128/31 44/129/31
f 42/130/32 41/131/32 43/132/32
f 37/114/26 44/133/26 35/112/26
f 44/134/26 38/135/26 35/136/26
f 38/137/27 44/138/27 39/139/27
f 35/140/28 43/141/28 41/142/28
f 36/143/29 41/144/29 42/145/29
f 35/124/30 38/146/30 40/125/30
f 37/127/31 42/147/31 39/148/31
f 40/149/32 39/150/32 43/132/32
f 39/150/32 42/130/32 43/132/32
o hlavni.001.001
v -0.200000 5.059375 0.246875
v -0.200000 5.228125 0.246875
v -0.220654 5.228125 0.246875
v -1.131250 5.059375 0.246875
v -1.131250 5.067562 0.084375
v -1.131250 5.059375 0.084375
v -0.200000 5.228125 0.084375
v -0.220654 5.228125 0.084375
v -0.200000 5.059375 0.084375
v -1.131250 5.067562 0.246875
vt 0.358593 0.814843
vt 0.358593 0.835938
vt 0.356012 0.835938
vt 0.332031 0.830468
vt 0.311718 0.831492
vt 0.311718 0.830468
vt 0.257812 0.814843
vt 0.278125 0.835938
vt 0.257812 0.835938
vt 0.310156 0.835938
vt 0.312738 0.815625
vt 0.312738 0.835938
vt 0.247656 0.816406
vt 0.364062 0.836718
vt 0.247656 0.836718
vt 0.249965 0.816406
vt 0.365545 0.836718
vt 0.365545 0.816406
vt 0.363824 0.835938
vt 0.366406 0.835938
vt 0.366406 0.814843
vt 0.363824 0.835938
vt 0.250000 0.815867
vt 0.366406 0.814843
vt 0.250000 0.814843
vt 0.324219 0.822656
vt 0.324219 0.823680
vt 0.303906 0.823680
vt 0.265625 0.814843
vt 0.285937 0.814843
vt 0.285937 0.835938
vt 0.302343 0.835938
vt 0.302343 0.815625
vt 0.304926 0.815625
vt 0.364062 0.816406
vt 0.249965 0.836718
vt 0.250000 0.814843
vt 0.250000 0.815867
vn -0.0000 -0.0000 1.0000
vn -1.0000 0.0000 0.0000
vn 1.0000 -0.0000 0.0000
vn 0.0000 1.0000 0.0000
vn 0.0000 -1.0000 0.0000
vn -0.1736 0.9848 0.0000
vn 0.0000 0.0000 -1.0000
usemtl m_3326e610-1839-8a8f-4c19-b835e2dcf0dc
s 1
f 45/151/33 46/152/33 47/153/33
f 48/154/34 49/155/34 50/156/34
f 45/157/35 51/158/35 46/159/35
f 46/160/36 52/161/36 47/162/36
f 45/163/37 50/164/37 53/165/37
f 47/166/38 49/167/38 54/168/38
f 52/169/39 51/170/39 53/171/39
f 47/172/33 54/173/33 45/174/33
f 54/173/33 48/175/33 45/174/33
f 48/176/34 54/177/34 49/178/34
f 45/179/35 53/180/35 51/181/35
f 46/182/36 51/183/36 52/184/36
f 45/163/37 48/185/37 50/164/37
f 47/166/38 52/186/38 49/167/38
f 50/187/39 49/188/39 53/171/39
f 49/188/39 52/169/39 53/171/39
o hlavni.001.002
v 0.200000 5.059375 0.084377
v 0.200000 5.228125 0.084377
v 0.220654 5.228125 0.084377
v 1.131250 5.059375 0.084377
v 1.131250 5.067562 0.246877
v 1.131250 5.059375 0.246877
v 0.200000 5.228125 0.246877
v 0.220654 5.228125 0.246877
v 0.200000 5.059375 0.246877
v 1.131250 5.067562 0.084377
vt 0.335156 0.814843
vt 0.335156 0.835938
vt 0.332574 0.835938
vt 0.324219 0.822656
vt 0.303906 0.823680
vt 0.303906 0.822656
vt 0.289062 0.814843
vt 0.309375 0.835938
vt 0.289062 0.835938
vt 0.325781 0.835938
vt 0.328363 0.815625
vt 0.328363 0.835938
vt 0.247656 0.816406
vt 0.364062 0.836718
vt 0.247656 0.836718
vt 0.249965 0.816406
vt 0.365545 0.836718
vt 0.365545 0.816406
vt 0.348199 0.835938
vt 0.350781 0.835938
vt 0.350781 0.814843
vt 0.363824 0.835938
vt 0.250000 0.815867
vt 0.366406 0.814843
vt 0.250000 0.814843
vt 0.308594 0.822656
vt 0.308594 0.823680
vt 0.288281 0.823680
vt 0.309375 0.814843
vt 0.294531 0.835938
vt 0.294531 0.815625
vt 0.297113 0.815625
vt 0.250000 0.816406
vt 0.366407 0.816406
vt 0.366407 0.836718
vt 0.249965 0.836718
vt 0.250000 0.814843
vt 0.250000 0.815867
vt 0.366406 0.814843
vt 0.363824 0.835938
vn 0.0000 0.0000 -1.0000
vn 1.0000 0.0000 0.0000
vn -1.0000 -0.0000 0.0000
vn 0.0000 1.0000 0.0000
vn 0.0000 -1.0000 0.0000
vn 0.1736 0.9848 0.0000
vn 0.0000 -0.0000 1.0000
usemtl m_3326e610-1839-8a8f-4c19-b835e2dcf0dc
s 1
f 55/189/40 56/190/40 57/191/40
f 58/192/41 59/193/41 60/194/41
f 55/195/42 61/196/42 56/197/42
f 56/198/43 62/199/43 57/200/43
f 55/201/44 60/202/44 63/203/44
f 57/204/45 59/205/45 64/206/45
f 62/207/46 61/208/46 63/209/46
f 57/210/40 64/211/40 55/212/40
f 64/211/40 58/213/40 55/212/40
f 58/214/41 64/215/41 59/216/41
f 55/195/42 63/217/42 61/196/42
f 56/218/43 61/219/43 62/220/43
f 55/221/44 58/222/44 60/223/44
f 57/204/45 62/224/45 59/205/45
f 60/225/46 59/226/46 63/227/46
f 59/226/46 62/228/46 63/227/46
