# Blender v3.0.0 OBJ File: ''
# www.blender.org
mtllib 03.mtl
o cube.015
v 1.459521 3.331919 0.187501
v 1.442392 3.339545 0.187501
v 1.462729 3.385222 0.187501
v 1.479858 3.377596 0.187501
v 1.459521 3.331919 0.212501
v 1.479858 3.377596 0.212501
v 1.442392 3.339545 0.212501
v 1.462729 3.385222 0.212501
vt 0.043750 0.968750
vt 0.053125 0.993750
vt 0.043750 0.993750
vt 0.012500 0.968750
vt 0.000000 0.993750
vt 0.000000 0.968750
vt 0.018750 0.968750
vt 0.009375 0.993750
vt 0.009375 0.968750
vt 0.062500 0.968750
vt 0.050000 0.993750
vt 0.050000 0.968750
vt 0.018750 0.937500
vt 0.009375 0.950000
vt 0.009375 0.937500
vt 0.018750 0.987500
vt 0.009375 1.000000
vt 0.009375 0.987500
vt 0.053125 0.968750
vt 0.012500 0.993750
vt 0.018750 0.993750
vt 0.062500 0.993750
vt 0.018750 0.950000
vt 0.018750 1.000000
vn -0.0000 0.0000 -1.0000
vn 0.9135 -0.4067 0.0000
vn 0.0000 -0.0000 1.0000
vn -0.9135 0.4067 0.0000
vn 0.4067 0.9135 0.0000
vn -0.4067 -0.9135 0.0000
usemtl m_ce8b17ab-b566-c445-a077-37938f0c081b.002
s 1
f 1/1/1 3/2/1 4/3/1
f 1/4/2 6/5/2 5/6/2
f 5/7/3 8/8/3 7/9/3
f 7/10/4 3/11/4 2/12/4
f 6/13/5 3/14/5 8/15/5
f 1/16/6 7/17/6 2/18/6
f 1/1/1 2/19/1 3/2/1
f 1/4/2 4/20/2 6/5/2
f 5/7/3 6/21/3 8/8/3
f 7/10/4 8/22/4 3/11/4
f 6/13/5 4/23/5 3/14/5
f 1/16/6 5/24/6 7/17/6
o cube.016
v 1.517989 3.463241 0.187501
v 1.500860 3.470867 0.187501
v 1.521197 3.516545 0.187501
v 1.538326 3.508918 0.187501
v 1.517989 3.463241 0.212501
v 1.538326 3.508918 0.212501
v 1.500860 3.470867 0.212501
v 1.521197 3.516545 0.212501
vt 0.053125 0.968750
vt 0.043750 0.993750
vt 0.043750 0.968750
vt 0.012500 0.968750
vt 0.000000 0.993750
vt 0.000000 0.968750
vt 0.009375 0.968750
vt 0.018750 0.993750
vt 0.009375 0.993750
vt 0.062500 0.968750
vt 0.050000 0.993750
vt 0.050000 0.968750
vt 0.018750 0.937500
vt 0.009375 0.950000
vt 0.009375 0.937500
vt 0.018750 0.987500
vt 0.009375 1.000000
vt 0.009375 0.987500
vt 0.053125 0.993750
vt 0.012500 0.993750
vt 0.018750 0.968750
vt 0.062500 0.993750
vt 0.018750 0.950000
vt 0.018750 1.000000
vn -0.0000 0.0000 -1.0000
vn 0.9135 -0.4067 0.0000
vn 0.0000 0.0000 1.0000
vn -0.9135 0.4067 0.0000
vn 0.4067 0.9135 0.0000
vn -0.4067 -0.9135 0.0000
usemtl m_ce8b17ab-b566-c445-a077-37938f0c081b.002
s 1
f 10/25/7 12/26/7 9/27/7
f 9/28/8 14/29/8 13/30/8
f 15/31/9 14/32/9 16/33/9
f 15/34/10 11/35/10 10/36/10
f 14/37/11 11/38/11 16/39/11
f 9/40/12 15/41/12 10/42/12
f 10/25/7 11/43/7 12/26/7
f 9/28/8 12/44/8 14/29/8
f 15/31/9 13/45/9 14/32/9
f 15/34/10 16/46/10 11/35/10
f 14/37/11 12/47/11 11/38/11
f 9/40/12 13/48/12 15/41/12
o cube.017
v 1.558663 3.554596 0.187501
v 1.541534 3.562222 0.187501
v 1.561871 3.607899 0.187501
v 1.579000 3.600273 0.187501
v 1.558663 3.554596 0.212501
v 1.579000 3.600273 0.212501
v 1.541534 3.562222 0.212501
v 1.561871 3.607899 0.212501
vt 0.043750 0.968750
vt 0.053125 0.993750
vt 0.043750 0.993750
vt 0.012500 0.968750
vt 0.000000 0.993750
vt 0.000000 0.968750
vt 0.018750 0.968750
vt 0.009375 0.993750
vt 0.009375 0.968750
vt 0.062500 0.968750
vt 0.050000 0.993750
vt 0.050000 0.968750
vt 0.018750 0.937500
vt 0.009375 0.950000
vt 0.009375 0.937500
vt 0.018750 0.987500
vt 0.009375 1.000000
vt 0.009375 0.987500
vt 0.053125 0.968750
vt 0.012500 0.993750
vt 0.018750 0.993750
vt 0.062500 0.993750
vt 0.018750 0.950000
vt 0.018750 1.000000
vn -0.0000 0.0000 -1.0000
vn 0.9135 -0.4067 0.0000
vn 0.0000 0.0000 1.0000
vn -0.9135 0.4067 0.0000
vn 0.4067 0.9135 0.0000
vn -0.4067 -0.9135 0.0000
usemtl m_ce8b17ab-b566-c445-a077-37938f0c081b.002
s 1
f 17/49/13 19/50/13 20/51/13
f 17/52/14 22/53/14 21/54/14
f 21/55/15 24/56/15 23/57/15
f 23/58/16 19/59/16 18/60/16
f 22/61/17 19/62/17 24/63/17
f 17/64/18 23/65/18 18/66/18
f 17/49/13 18/67/13 19/50/13
f 17/52/14 20/68/14 22/53/14
f 21/55/15 22/69/15 24/56/15
f 23/58/16 24/70/16 19/59/16
f 22/61/17 20/71/17 19/62/17
f 17/64/18 21/72/18 23/65/18
o kolecko_plne
v 1.547849 3.514941 0.187501
v 1.519300 3.527651 0.187501
v 1.532011 3.556200 0.187501
v 1.560559 3.543489 0.187501
v 1.547849 3.514941 0.212501
v 1.560559 3.543489 0.212501
v 1.519300 3.527651 0.212501
v 1.532011 3.556200 0.212501
vt 0.053125 0.968750
vt 0.037500 0.984375
vt 0.037500 0.968750
vt 0.012500 0.968750
vt 0.000000 0.984375
vt 0.000000 0.968750
vt 0.009375 0.968750
vt 0.025000 0.984375
vt 0.009375 0.984375
vt 0.062500 0.968750
vt 0.050000 0.984375
vt 0.050000 0.968750
vt 0.025000 0.937500
vt 0.009375 0.950000
vt 0.009375 0.937500
vt 0.025000 0.987500
vt 0.009375 1.000000
vt 0.009375 0.987500
vt 0.053125 0.984375
vt 0.012500 0.984375
vt 0.025000 0.968750
vt 0.062500 0.984375
vt 0.025000 0.950000
vt 0.025000 1.000000
vn -0.0000 0.0000 -1.0000
vn 0.9135 -0.4067 0.0000
vn 0.0000 -0.0000 1.0000
vn -0.9135 0.4067 0.0000
vn 0.4067 0.9135 0.0000
vn -0.4067 -0.9135 0.0000
usemtl m_ce8b17ab-b566-c445-a077-37938f0c081b.002
s 1
f 26/73/19 28/74/19 25/75/19
f 25/76/20 30/77/20 29/78/20
f 31/79/21 30/80/21 32/81/21
f 31/82/22 27/83/22 26/84/22
f 30/85/23 27/86/23 32/87/23
f 25/88/24 31/89/24 26/90/24
f 26/73/19 27/91/19 28/74/19
f 25/76/20 28/92/20 30/77/20
f 31/79/21 29/93/21 30/80/21
f 31/82/22 32/94/22 27/83/22
f 30/85/23 28/95/23 27/86/23
f 25/88/24 29/96/24 31/89/24
o kolecko_plne.000
v 1.489380 3.383619 0.187501
v 1.460832 3.396329 0.187501
v 1.473543 3.424877 0.187501
v 1.502091 3.412167 0.187501
v 1.489380 3.383619 0.212501
v 1.502091 3.412167 0.212501
v 1.460832 3.396329 0.212501
v 1.473543 3.424877 0.212501
vt 0.053125 0.968750
vt 0.037500 0.984375
vt 0.037500 0.968750
vt 0.012500 0.968750
vt 0.000000 0.984375
vt 0.000000 0.968750
vt 0.009375 0.968750
vt 0.025000 0.984375
vt 0.009375 0.984375
vt 0.062500 0.968750
vt 0.050000 0.984375
vt 0.050000 0.968750
vt 0.025000 0.937500
vt 0.009375 0.950000
vt 0.009375 0.937500
vt 0.025000 0.987500
vt 0.009375 1.000000
vt 0.009375 0.987500
vt 0.053125 0.984375
vt 0.012500 0.984375
vt 0.025000 0.968750
vt 0.062500 0.984375
vt 0.025000 0.950000
vt 0.025000 1.000000
vn 0.0000 0.0000 -1.0000
vn 0.9135 -0.4067 0.0000
vn -0.0000 0.0000 1.0000
vn -0.9135 0.4067 0.0000
vn 0.4067 0.9135 0.0000
vn -0.4067 -0.9135 0.0000
usemtl m_ce8b17ab-b566-c445-a077-37938f0c081b.002
s 1
f 34/97/25 36/98/25 33/99/25
f 33/100/26 38/101/26 37/102/26
f 39/103/27 38/104/27 40/105/27
f 39/106/28 35/107/28 34/108/28
f 38/109/29 35/110/29 40/111/29
f 33/112/30 39/113/30 34/114/30
f 34/97/25 35/115/25 36/98/25
f 33/100/26 36/116/26 38/101/26
f 39/103/27 37/117/27 38/104/27
f 39/106/28 40/118/28 35/107/28
f 38/109/29 36/119/29 35/110/29
f 33/112/30 37/120/30 39/113/30
o kolecko_plne.001
v 1.505904 3.420731 0.187501
v 1.477356 3.433442 0.187501
v 1.490066 3.461990 0.187501
v 1.518615 3.449280 0.187501
v 1.505904 3.420731 0.212501
v 1.518615 3.449280 0.212501
v 1.477356 3.433442 0.212501
v 1.490066 3.461990 0.212501
vt 0.037500 0.968750
vt 0.053125 0.984375
vt 0.037500 0.984375
vt 0.012500 0.968750
vt 0.000000 0.984375
vt 0.000000 0.968750
vt 0.025000 0.968750
vt 0.009375 0.984375
vt 0.009375 0.968750
vt 0.062500 0.968750
vt 0.050000 0.984375
vt 0.050000 0.968750
vt 0.025000 0.937500
vt 0.009375 0.950000
vt 0.009375 0.937500
vt 0.025000 0.987500
vt 0.009375 1.000000
vt 0.009375 0.987500
vt 0.053125 0.968750
vt 0.012500 0.984375
vt 0.025000 0.984375
vt 0.062500 0.984375
vt 0.025000 0.950000
vt 0.025000 1.000000
vn -0.0000 0.0000 -1.0000
vn 0.9135 -0.4067 0.0000
vn 0.9136 -0.4067 0.0000
vn -0.0000 -0.0000 1.0000
vn -0.9135 0.4067 0.0000
vn 0.4067 0.9135 0.0000
vn -0.4067 -0.9135 0.0000
usemtl m_ce8b17ab-b566-c445-a077-37938f0c081b.002
s 1
f 41/121/31 43/122/31 44/123/31
f 41/124/32 46/125/32 45/126/33
f 45/127/34 48/128/34 47/129/34
f 47/130/35 43/131/35 42/132/35
f 46/133/36 43/134/36 48/135/36
f 41/136/37 47/137/37 42/138/37
f 41/121/31 42/139/31 43/122/31
f 41/124/32 44/140/32 46/125/32
f 45/127/34 46/141/34 48/128/34
f 47/130/35 48/142/35 43/131/35
f 46/133/36 44/143/36 43/134/36
f 41/136/37 45/144/37 47/137/37
