# Blender v3.0.0 OBJ File: ''
# www.blender.org
mtllib 08.mtl
o cara.003
v 3.488373 1.156442 0.187500
v 3.482579 1.174274 0.187500
v 3.512299 1.183931 0.187500
v 3.518094 1.166099 0.187500
v 3.488373 1.156442 0.212500
v 3.518094 1.166099 0.212500
v 3.482579 1.174274 0.212500
v 3.512299 1.183931 0.212500
vt 0.043750 0.968750
vt 0.053125 0.984375
vt 0.043750 0.984375
vt 0.012500 0.968750
vt 0.000000 0.984375
vt 0.000000 0.968750
vt 0.018750 0.968750
vt 0.009375 0.984375
vt 0.009375 0.968750
vt 0.062500 0.968750
vt 0.050000 0.984375
vt 0.050000 0.968750
vt 0.018750 0.937500
vt 0.009375 0.950000
vt 0.009375 0.937500
vt 0.018750 0.987500
vt 0.009375 1.000000
vt 0.009375 0.987500
vt 0.053125 0.968750
vt 0.012500 0.984375
vt 0.018750 0.984375
vt 0.062500 0.984375
vt 0.018750 0.950000
vt 0.018750 1.000000
vn -0.0000 0.0000 -1.0000
vn 0.3090 -0.9511 0.0000
vn 0.0000 0.0000 1.0000
vn -0.3090 0.9511 0.0000
vn 0.9511 0.3090 0.0000
vn -0.9511 -0.3090 0.0000
vn 0.9510 0.3091 0.0000
usemtl m_ce8b17ab-b566-c445-a077-37938f0c081b.007
s 1
f 1/1/1 3/2/1 4/3/1
f 1/4/2 6/5/2 5/6/2
f 5/7/3 8/8/3 7/9/3
f 7/10/4 3/11/4 2/12/4
f 6/13/5 3/14/5 8/15/5
f 1/16/6 7/17/6 2/18/6
f 1/1/1 2/19/1 3/2/1
f 1/4/2 4/20/2 6/5/2
f 5/7/3 6/21/3 8/8/3
f 7/10/4 8/22/4 3/11/4
f 6/13/5 4/23/7 3/14/5
f 1/16/6 5/24/6 7/17/6
o cara.004
v 3.583479 1.187343 0.187500
v 3.577685 1.205176 0.187500
v 3.631181 1.222558 0.187500
v 3.636976 1.204726 0.187500
v 3.583479 1.187343 0.212500
v 3.636976 1.204726 0.212500
v 3.577685 1.205176 0.212500
v 3.631181 1.222558 0.212500
vt 0.053125 0.968750
vt 0.043750 0.996875
vt 0.043750 0.968750
vt 0.012500 0.968750
vt 0.000000 0.996875
vt 0.000000 0.968750
vt 0.009375 0.968750
vt 0.018750 0.996875
vt 0.009375 0.996875
vt 0.062500 0.968750
vt 0.050000 0.996875
vt 0.050000 0.968750
vt 0.018750 0.937500
vt 0.009375 0.950000
vt 0.009375 0.937500
vt 0.018750 0.987500
vt 0.009375 1.000000
vt 0.009375 0.987500
vt 0.053125 0.996875
vt 0.012500 0.996875
vt 0.018750 0.968750
vt 0.062500 0.996875
vt 0.018750 0.950000
vt 0.018750 1.000000
vn -0.0000 0.0000 -1.0000
vn 0.3090 -0.9511 0.0000
vn 0.0000 0.0000 1.0000
vn -0.3090 0.9511 0.0000
vn 0.9511 0.3090 0.0000
vn -0.9511 -0.3090 0.0000
usemtl m_ce8b17ab-b566-c445-a077-37938f0c081b.007
s 1
f 10/25/8 12/26/8 9/27/8
f 9/28/9 14/29/9 13/30/9
f 15/31/10 14/32/10 16/33/10
f 15/34/11 11/35/11 10/36/11
f 14/37/12 11/38/12 16/39/12
f 9/40/13 15/41/13 10/42/13
f 10/25/8 11/43/8 12/26/8
f 9/28/9 12/44/9 14/29/9
f 15/31/10 13/45/10 14/32/10
f 15/34/11 16/46/11 11/35/11
f 14/37/12 12/47/12 11/38/12
f 9/40/13 13/48/13 15/41/13
o kolecko_plne.003
v 3.537857 1.165949 0.187500
v 3.528200 1.195669 0.187500
v 3.557921 1.205326 0.187500
v 3.567578 1.175605 0.187500
v 3.537857 1.165949 0.212500
v 3.567578 1.175605 0.212500
v 3.528200 1.195669 0.212500
v 3.557921 1.205326 0.212500
vt 0.053125 0.968750
vt 0.037500 0.984375
vt 0.037500 0.968750
vt 0.012500 0.968750
vt 0.000000 0.984375
vt 0.000000 0.968750
vt 0.009375 0.968750
vt 0.025000 0.984375
vt 0.009375 0.984375
vt 0.062500 0.968750
vt 0.050000 0.984375
vt 0.050000 0.968750
vt 0.025000 0.937500
vt 0.009375 0.950000
vt 0.009375 0.937500
vt 0.025000 0.987500
vt 0.009375 1.000000
vt 0.009375 0.987500
vt 0.053125 0.984375
vt 0.012500 0.984375
vt 0.025000 0.968750
vt 0.062500 0.984375
vt 0.025000 0.950000
vt 0.025000 1.000000
vn 0.0000 0.0000 -1.0000
vn 0.3090 -0.9511 0.0000
vn 0.0000 0.0000 1.0000
vn -0.3090 0.9511 0.0000
vn 0.9511 0.3090 0.0000
vn -0.9511 -0.3090 0.0000
usemtl m_ce8b17ab-b566-c445-a077-37938f0c081b.007
s 1
f 18/49/14 20/50/14 17/51/14
f 17/52/15 22/53/15 21/54/15
f 23/55/16 22/56/16 24/57/16
f 23/58/17 19/59/17 18/60/17
f 22/61/18 19/62/18 24/63/18
f 17/64/19 23/65/19 18/66/19
f 18/49/14 19/67/14 20/50/14
f 17/52/15 20/68/15 22/53/15
f 23/55/16 21/69/16 22/56/16
f 23/58/17 24/70/17 19/59/17
f 22/61/18 20/71/18 19/62/18
f 17/64/19 21/72/19 23/65/19
o cube.041
v 3.660752 1.212451 0.187500
v 3.654958 1.230283 0.187500
v 3.666846 1.234146 0.187500
v 3.672640 1.216314 0.187500
v 3.660752 1.212451 0.212500
v 3.672640 1.216314 0.212500
v 3.654958 1.230283 0.212500
v 3.666846 1.234146 0.212500
vt 0.040625 0.981250
vt 0.050000 0.987500
vt 0.040625 0.987500
vt 0.012500 0.981250
vt 0.000000 0.987500
vt 0.000000 0.981250
vt 0.021875 0.981250
vt 0.012500 0.987500
vt 0.012500 0.981250
vt 0.062500 0.981250
vt 0.050000 0.981250
vt 0.021875 0.937500
vt 0.012500 0.950000
vt 0.012500 0.937500
vt 0.021875 0.987500
vt 0.012500 1.000000
vt 0.012500 0.987500
vt 0.012500 0.987500
vt 0.021875 0.987500
vt 0.062500 0.987500
vt 0.021875 0.950000
vt 0.021875 1.000000
vn -0.0000 0.0000 -1.0000
vn 0.3090 -0.9511 0.0000
vn -0.0000 0.0000 1.0000
vn -0.3090 0.9511 0.0000
vn 0.9511 0.3090 0.0000
vn -0.9510 -0.3090 0.0000
vn -0.9511 -0.3090 0.0000
usemtl m_ce8b17ab-b566-c445-a077-37938f0c081b.007
s 1
f 25/73/20 27/74/20 28/75/20
f 25/76/21 30/77/21 29/78/21
f 29/79/22 32/80/22 31/81/22
f 31/82/23 27/74/23 26/83/23
f 30/84/24 27/85/24 32/86/24
f 25/87/25 31/88/26 26/89/25
f 25/73/20 26/83/20 27/74/20
f 25/76/21 28/90/21 30/77/21
f 29/79/22 30/91/22 32/80/22
f 31/82/23 32/92/23 27/74/23
f 30/84/24 28/93/24 27/85/24
f 25/87/25 29/94/26 31/88/26
o cube.042
v 3.690472 1.222108 0.187500
v 3.684678 1.239940 0.187500
v 3.696567 1.243803 0.187500
v 3.702361 1.225971 0.187500
v 3.690472 1.222108 0.212500
v 3.702361 1.225971 0.212500
v 3.684678 1.239940 0.212500
v 3.696567 1.243803 0.212500
vt 0.040625 0.981250
vt 0.050000 0.987500
vt 0.040625 0.987500
vt 0.012500 0.981250
vt 0.000000 0.987500
vt 0.000000 0.981250
vt 0.021875 0.981250
vt 0.012500 0.987500
vt 0.012500 0.981250
vt 0.062500 0.981250
vt 0.050000 0.981250
vt 0.021875 0.937500
vt 0.012500 0.950000
vt 0.012500 0.937500
vt 0.021875 0.987500
vt 0.012500 1.000000
vt 0.012500 0.987500
vt 0.012500 0.987500
vt 0.021875 0.987500
vt 0.062500 0.987500
vt 0.021875 0.950000
vt 0.021875 1.000000
vn -0.0000 0.0000 -1.0000
vn 0.3090 -0.9511 0.0000
vn -0.0000 -0.0000 1.0000
vn -0.3090 0.9511 0.0000
vn 0.9511 0.3090 0.0000
vn -0.9511 -0.3090 0.0000
usemtl m_ce8b17ab-b566-c445-a077-37938f0c081b.007
s 1
f 33/95/27 35/96/27 36/97/27
f 33/98/28 38/99/28 37/100/28
f 37/101/29 40/102/29 39/103/29
f 39/104/30 35/96/30 34/105/30
f 38/106/31 35/107/31 40/108/31
f 33/109/32 39/110/32 34/111/32
f 33/95/27 34/105/27 35/96/27
f 33/98/28 36/112/28 38/99/28
f 37/101/29 38/113/29 40/102/29
f 39/104/30 40/114/30 35/96/30
f 38/106/31 36/115/31 35/107/31
f 33/109/32 37/116/32 39/110/32
o cube.043
v 3.654958 1.230283 0.187500
v 3.651095 1.242172 0.187500
v 3.692704 1.255691 0.187500
v 3.696567 1.243803 0.187500
v 3.654958 1.230283 0.212500
v 3.696567 1.243803 0.212500
v 3.651095 1.242172 0.212500
v 3.692704 1.255691 0.212500
vt 0.056250 0.965625
vt 0.050000 0.987500
vt 0.050000 0.965625
vt 0.012500 0.965625
vt 0.000000 0.987500
vt 0.000000 0.965625
vt 0.006250 0.965625
vt 0.012500 0.987500
vt 0.006250 0.987500
vt 0.062500 0.965625
vt 0.050000 0.987500
vt 0.050000 0.965625
vt 0.012500 0.937500
vt 0.006250 0.950000
vt 0.006250 0.937500
vt 0.012500 0.987500
vt 0.006250 1.000000
vt 0.006250 0.987500
vt 0.056250 0.987500
vt 0.012500 0.987500
vt 0.012500 0.965625
vt 0.062500 0.987500
vt 0.012500 0.950000
vt 0.012500 1.000000
vn 0.0000 0.0000 -1.0000
vn 0.3090 -0.9511 0.0000
vn -0.0000 -0.0000 1.0000
vn -0.3090 0.9511 0.0000
vn 0.9511 0.3090 0.0000
vn -0.9511 -0.3090 0.0000
vn -0.9510 -0.3090 0.0000
usemtl m_ce8b17ab-b566-c445-a077-37938f0c081b.007
s 1
f 42/117/33 44/118/33 41/119/33
f 41/120/34 46/121/34 45/122/34
f 47/123/35 46/124/35 48/125/35
f 47/126/36 43/127/36 42/128/36
f 46/129/37 43/130/37 48/131/37
f 41/132/38 47/133/38 42/134/39
f 42/117/33 43/135/33 44/118/33
f 41/120/34 44/136/34 46/121/34
f 47/123/35 45/137/35 46/124/35
f 47/126/36 48/138/36 43/127/36
f 46/129/37 44/139/37 43/130/37
f 41/132/38 45/140/38 47/133/38
o cube.044
v 3.664615 1.200563 0.187500
v 3.660752 1.212451 0.187500
v 3.702361 1.225971 0.187500
v 3.706223 1.214082 0.187500
v 3.664615 1.200563 0.212500
v 3.706223 1.214082 0.212500
v 3.660752 1.212451 0.212500
v 3.702361 1.225971 0.212500
vt 0.034375 0.965625
vt 0.040625 0.987500
vt 0.034375 0.987500
vt 0.012500 0.965625
vt 0.000000 0.987500
vt 0.000000 0.965625
vt 0.028125 0.965625
vt 0.021875 0.987500
vt 0.021875 0.965625
vt 0.062500 0.965625
vt 0.050000 0.987500
vt 0.050000 0.965625
vt 0.028125 0.937500
vt 0.021875 0.950000
vt 0.021875 0.937500
vt 0.028125 0.987500
vt 0.021875 1.000000
vt 0.021875 0.987500
vt 0.040625 0.965625
vt 0.012500 0.987500
vt 0.028125 0.987500
vt 0.062500 0.987500
vt 0.028125 0.950000
vt 0.028125 1.000000
vn 0.0000 0.0000 -1.0000
vn 0.3090 -0.9511 0.0000
vn 0.0000 0.0000 1.0000
vn -0.3090 0.9511 0.0000
vn 0.9511 0.3090 0.0000
vn 0.9510 0.3090 0.0000
vn -0.9511 -0.3090 0.0000
usemtl m_ce8b17ab-b566-c445-a077-37938f0c081b.007
s 1
f 49/141/40 51/142/40 52/143/40
f 49/144/41 54/145/41 53/146/41
f 53/147/42 56/148/42 55/149/42
f 55/150/43 51/151/43 50/152/43
f 54/153/44 51/154/44 56/155/45
f 49/156/46 55/157/46 50/158/46
f 49/141/40 50/159/40 51/142/40
f 49/144/41 52/160/41 54/145/41
f 53/147/42 54/161/42 56/148/42
f 55/150/43 56/162/43 51/151/43
f 54/153/44 52/163/44 51/154/44
f 49/156/46 53/164/46 55/157/46
