# Blender v3.0.0 OBJ File: ''
# www.blender.org
mtllib 10.mtl
o cube.045
v 3.650939 -0.361734 0.187500
v 3.652899 -0.343086 0.187500
v 3.665330 -0.344393 0.187500
v 3.663370 -0.363040 0.187500
v 3.650939 -0.361734 0.212500
v 3.663370 -0.363040 0.212500
v 3.652899 -0.343086 0.212500
v 3.665330 -0.344393 0.212500
vt 0.050000 0.981250
vt 0.040625 0.987500
vt 0.040625 0.981250
vt 0.012500 0.981250
vt 0.000000 0.987500
vt 0.000000 0.981250
vt 0.012500 0.981250
vt 0.021875 0.987500
vt 0.012500 0.987500
vt 0.062500 0.981250
vt 0.050000 0.987500
vt 0.021875 0.937500
vt 0.012500 0.950000
vt 0.012500 0.937500
vt 0.021875 0.987500
vt 0.012500 1.000000
vt 0.012500 0.987500
vt 0.012500 0.987500
vt 0.021875 0.981250
vt 0.062500 0.987500
vt 0.021875 0.950000
vt 0.021875 1.000000
vn 0.0000 0.0000 -1.0000
vn -0.1045 -0.9945 0.0000
vn 0.0000 0.0000 1.0000
vn 0.1045 0.9945 0.0000
vn 0.9945 -0.1045 0.0000
vn -0.9945 0.1045 0.0000
usemtl m_ce8b17ab-b566-c445-a077-37938f0c081b.009
s 1
f 2/1/1 4/2/1 1/3/1
f 1/4/2 6/5/2 5/6/2
f 7/7/3 6/8/3 8/9/3
f 7/10/4 3/11/4 2/1/4
f 6/12/5 3/13/5 8/14/5
f 1/15/6 7/16/6 2/17/6
f 2/1/1 3/11/1 4/2/1
f 1/4/2 4/18/2 6/5/2
f 7/7/3 5/19/3 6/8/3
f 7/10/4 8/20/4 3/11/4
f 6/12/5 4/21/5 3/13/5
f 1/15/6 5/22/6 7/16/6
o cube.046
v 3.682018 -0.365000 0.187500
v 3.683977 -0.346353 0.187500
v 3.696409 -0.347659 0.187500
v 3.694449 -0.366307 0.187500
v 3.682018 -0.365000 0.212500
v 3.694449 -0.366307 0.212500
v 3.683977 -0.346353 0.212500
v 3.696409 -0.347659 0.212500
vt 0.040625 0.981250
vt 0.050000 0.987500
vt 0.040625 0.987500
vt 0.012500 0.981250
vt 0.000000 0.987500
vt 0.000000 0.981250
vt 0.021875 0.981250
vt 0.012500 0.987500
vt 0.012500 0.981250
vt 0.062500 0.981250
vt 0.050000 0.981250
vt 0.021875 0.937500
vt 0.012500 0.950000
vt 0.012500 0.937500
vt 0.021875 0.987500
vt 0.012500 1.000000
vt 0.012500 0.987500
vt 0.012500 0.987500
vt 0.021875 0.987500
vt 0.062500 0.987500
vt 0.021875 0.950000
vt 0.021875 1.000000
vn -0.0000 0.0000 -1.0000
vn -0.1045 -0.9945 0.0000
vn -0.0000 0.0000 1.0000
vn 0.1045 0.9945 0.0000
vn 0.9945 -0.1045 0.0000
vn -0.9945 0.1045 0.0000
usemtl m_ce8b17ab-b566-c445-a077-37938f0c081b.009
s 1
f 9/23/7 11/24/7 12/25/7
f 9/26/8 14/27/8 13/28/8
f 13/29/9 16/30/9 15/31/9
f 15/32/10 11/24/10 10/33/10
f 14/34/11 11/35/11 16/36/11
f 9/37/12 15/38/12 10/39/12
f 9/23/7 10/33/7 11/24/7
f 9/26/8 12/40/8 14/27/8
f 13/29/9 14/41/9 16/30/9
f 15/32/10 16/42/10 11/24/10
f 14/34/11 12/43/11 11/35/11
f 9/37/12 13/44/12 15/38/12
o cube.047
v 3.652899 -0.343086 0.187500
v 3.654205 -0.330655 0.187500
v 3.697716 -0.335228 0.187500
v 3.696409 -0.347659 0.187500
v 3.652899 -0.343086 0.212500
v 3.696409 -0.347659 0.212500
v 3.654205 -0.330655 0.212500
v 3.697716 -0.335228 0.212500
vt 0.050000 0.965625
vt 0.056250 0.965625
vt 0.056250 0.987500
vt 0.050000 0.987500
vt 0.000000 0.965625
vt 0.012500 0.965625
vt 0.012500 0.987500
vt 0.000000 0.987500
vt 0.006250 0.965625
vt 0.012500 0.965625
vt 0.012500 0.987500
vt 0.006250 0.987500
vt 0.050000 0.965625
vt 0.062500 0.965625
vt 0.062500 0.987500
vt 0.050000 0.987500
vt 0.006250 0.937500
vt 0.012500 0.937500
vt 0.012500 0.950000
vt 0.006250 0.950000
vt 0.006250 0.987500
vt 0.012500 0.987500
vt 0.012500 1.000000
vt 0.006250 1.000000
vn 0.0000 0.0000 -1.0000
vn -0.1045 -0.9945 0.0000
vn 0.0000 0.0000 1.0000
vn 0.1045 0.9945 0.0000
vn 0.9945 -0.1045 0.0000
vn -0.9945 0.1045 0.0000
usemtl m_ce8b17ab-b566-c445-a077-37938f0c081b.009
s 1
f 17/45/13 18/46/13 19/47/13 20/48/13
f 21/49/14 17/50/14 20/51/14 22/52/14
f 23/53/15 21/54/15 22/55/15 24/56/15
f 18/57/16 23/58/16 24/59/16 19/60/16
f 24/61/17 22/62/17 20/63/17 19/64/17
f 18/65/18 17/66/18 21/67/18 23/68/18
o cube.048
v 3.649632 -0.374165 0.187500
v 3.650939 -0.361734 0.187500
v 3.694449 -0.366307 0.187500
v 3.693142 -0.378738 0.187500
v 3.649632 -0.374165 0.212500
v 3.693142 -0.378738 0.212500
v 3.650939 -0.361734 0.212500
v 3.694449 -0.366307 0.212500
vt 0.040625 0.965625
vt 0.034375 0.987500
vt 0.034375 0.965625
vt 0.012500 0.965625
vt 0.000000 0.987500
vt 0.000000 0.965625
vt 0.021875 0.965625
vt 0.028125 0.987500
vt 0.021875 0.987500
vt 0.062500 0.965625
vt 0.050000 0.987500
vt 0.050000 0.965625
vt 0.028125 0.937500
vt 0.021875 0.950000
vt 0.021875 0.937500
vt 0.028125 0.987500
vt 0.021875 1.000000
vt 0.021875 0.987500
vt 0.040625 0.987500
vt 0.012500 0.987500
vt 0.028125 0.965625
vt 0.062500 0.987500
vt 0.028125 0.950000
vt 0.028125 1.000000
vn 0.0000 0.0000 -1.0000
vn -0.1045 -0.9945 0.0000
vn 0.0000 0.0000 1.0000
vn 0.1045 0.9945 0.0000
vn 0.9945 -0.1045 0.0000
vn -0.9945 0.1045 0.0000
usemtl m_ce8b17ab-b566-c445-a077-37938f0c081b.009
s 1
f 26/69/19 28/70/19 25/71/19
f 25/72/20 30/73/20 29/74/20
f 31/75/21 30/76/21 32/77/21
f 31/78/22 27/79/22 26/80/22
f 30/81/23 27/82/23 32/83/23
f 25/84/24 31/85/24 26/86/24
f 26/69/19 27/87/19 28/70/19
f 25/72/20 28/88/20 30/73/20
f 31/75/21 29/89/21 30/76/21
f 31/78/22 32/90/22 27/79/22
f 30/81/23 28/91/23 27/82/23
f 25/84/24 29/92/24 31/85/24
o cara.006
v 3.769038 -0.374146 0.187500
v 3.770998 -0.355499 0.187500
v 3.895314 -0.368565 0.187500
v 3.893353 -0.387212 0.187500
v 3.769038 -0.374146 0.212500
v 3.893353 -0.387212 0.212500
v 3.770998 -0.355499 0.212500
v 3.895314 -0.368565 0.212500
vt 0.053125 0.937500
vt 0.043750 1.000000
vt 0.043750 0.937500
vt 0.012500 0.937500
vt 0.000000 1.000000
vt 0.000000 0.937500
vt 0.009375 0.937500
vt 0.018750 1.000000
vt 0.009375 1.000000
vt 0.062500 0.937500
vt 0.050000 1.000000
vt 0.050000 0.937500
vt 0.018750 0.937500
vt 0.009375 0.950000
vt 0.009375 0.937500
vt 0.018750 0.987500
vt 0.009375 1.000000
vt 0.009375 0.987500
vt 0.053125 1.000000
vt 0.012500 1.000000
vt 0.018750 0.937500
vt 0.062500 1.000000
vt 0.018750 0.950000
vt 0.018750 1.000000
vn 0.0000 0.0000 -1.0000
vn -0.1045 -0.9945 0.0000
vn 0.0000 0.0000 1.0000
vn 0.1045 0.9945 0.0000
vn 0.9945 -0.1045 0.0000
vn -0.9945 0.1045 0.0000
usemtl m_ce8b17ab-b566-c445-a077-37938f0c081b.009
s 1
f 34/93/25 36/94/25 33/95/25
f 33/96/26 38/97/26 37/98/26
f 39/99/27 38/100/27 40/101/27
f 39/102/28 35/103/28 34/104/28
f 38/105/29 35/106/29 40/107/29
f 33/108/30 39/109/30 34/110/30
f 34/93/25 35/111/25 36/94/25
f 33/96/26 36/112/26 38/97/26
f 39/99/27 37/113/27 38/100/27
f 39/102/28 40/114/28 35/103/28
f 38/105/29 36/115/29 35/106/29
f 33/108/30 37/116/30 39/109/30
o kolecko_plne.008
v 3.712116 -0.377590 0.187500
v 3.716036 -0.340296 0.187500
v 3.753331 -0.344216 0.187500
v 3.749411 -0.381510 0.187500
v 3.712116 -0.377590 0.212500
v 3.749411 -0.381510 0.212500
v 3.716036 -0.340296 0.212500
v 3.753331 -0.344216 0.212500
vt 0.034375 0.968750
vt 0.053125 0.987500
vt 0.034375 0.987500
vt 0.012500 0.968750
vt 0.000000 0.987500
vt 0.000000 0.968750
vt 0.028125 0.968750
vt 0.009375 0.987500
vt 0.009375 0.968750
vt 0.062500 0.968750
vt 0.050000 0.987500
vt 0.050000 0.968750
vt 0.028125 0.937500
vt 0.009375 0.950000
vt 0.009375 0.937500
vt 0.028125 0.987500
vt 0.009375 1.000000
vt 0.009375 0.987500
vt 0.053125 0.968750
vt 0.012500 0.987500
vt 0.028125 0.987500
vt 0.062500 0.987500
vt 0.028125 0.950000
vt 0.028125 1.000000
vn -0.0000 0.0000 -1.0000
vn -0.1045 -0.9945 0.0000
vn -0.0000 0.0000 1.0000
vn 0.1045 0.9945 0.0000
vn 0.9945 -0.1045 0.0000
vn -0.9945 0.1045 0.0000
usemtl m_ce8b17ab-b566-c445-a077-37938f0c081b.009
s 1
f 41/117/31 43/118/31 44/119/31
f 41/120/32 46/121/32 45/122/32
f 45/123/33 48/124/33 47/125/33
f 47/126/34 43/127/34 42/128/34
f 46/129/35 43/130/35 48/131/35
f 41/132/36 47/133/36 42/134/36
f 41/117/31 42/135/31 43/118/31
f 41/120/32 44/136/32 46/121/32
f 45/123/33 46/137/33 48/124/33
f 47/126/34 48/138/34 43/127/34
f 46/129/35 44/139/35 43/130/35
f 41/132/36 45/140/36 47/133/36
