# Blender v3.0.0 OBJ File: ''
# www.blender.org
mtllib 15.mtl
o cara.012
v 2.158057 -2.943728 0.187500
v 2.173226 -2.932707 0.187500
v 2.232005 -3.013609 0.187500
v 2.216835 -3.024630 0.187500
v 2.158057 -2.943728 0.212500
v 2.216835 -3.024630 0.212500
v 2.173226 -2.932707 0.212500
v 2.232005 -3.013609 0.212500
vt 0.043750 0.946875
vt 0.053125 0.996875
vt 0.043750 0.996875
vt 0.012500 0.946875
vt 0.000000 0.996875
vt 0.000000 0.946875
vt 0.018750 0.946875
vt 0.009375 0.996875
vt 0.009375 0.946875
vt 0.062500 0.946875
vt 0.050000 0.996875
vt 0.050000 0.946875
vt 0.018750 0.937500
vt 0.009375 0.950000
vt 0.009375 0.937500
vt 0.018750 0.987500
vt 0.009375 1.000000
vt 0.009375 0.987500
vt 0.053125 0.946875
vt 0.012500 0.996875
vt 0.018750 0.996875
vt 0.062500 0.996875
vt 0.018750 0.950000
vt 0.018750 1.000000
vn 0.0000 0.0000 -1.0000
vn -0.8090 -0.5878 0.0000
vn 0.0000 -0.0000 1.0000
vn 0.8090 0.5878 0.0000
vn 0.5878 -0.8090 0.0000
vn -0.5878 0.8090 0.0000
usemtl m_ce8b17ab-b566-c445-a077-37938f0c081b.014
s 1
f 1/1/1 3/2/1 4/3/1
f 1/4/2 6/5/2 5/6/2
f 5/7/3 8/8/3 7/9/3
f 7/10/4 3/11/4 2/12/4
f 6/13/5 3/14/5 8/15/5
f 1/16/6 7/17/6 2/18/6
f 1/1/1 2/19/1 3/2/1
f 1/4/2 4/20/2 6/5/2
f 5/7/3 6/21/3 8/8/3
f 7/10/4 8/22/4 3/11/4
f 6/13/5 4/23/5 3/14/5
f 1/16/6 5/24/6 7/17/6
o kolecko_plne.016
v 2.222800 -3.043472 0.187500
v 2.248082 -3.025104 0.187500
v 2.266450 -3.050386 0.187500
v 2.241168 -3.068754 0.187499
v 2.222800 -3.043472 0.212500
v 2.241168 -3.068754 0.212499
v 2.248082 -3.025104 0.212500
v 2.266450 -3.050386 0.212500
vt 0.037500 0.968750
vt 0.053125 0.984375
vt 0.037500 0.984375
vt 0.012500 0.968750
vt 0.000000 0.984375
vt 0.000000 0.968750
vt 0.025000 0.968750
vt 0.009375 0.984375
vt 0.009375 0.968750
vt 0.062500 0.968750
vt 0.050000 0.984375
vt 0.050000 0.968750
vt 0.025000 0.937500
vt 0.009375 0.950000
vt 0.009375 0.937500
vt 0.025000 0.987500
vt 0.009375 1.000000
vt 0.009375 0.987500
vt 0.053125 0.968750
vt 0.012500 0.984375
vt 0.025000 0.984375
vt 0.062500 0.984375
vt 0.025000 0.950000
vt 0.025000 1.000000
vn 0.0000 0.0000 -1.0000
vn -0.8090 -0.5878 0.0000
vn 0.0000 -0.0000 1.0000
vn 0.8090 0.5878 0.0000
vn 0.5878 -0.8090 0.0000
vn -0.5878 0.8090 0.0000
usemtl m_ce8b17ab-b566-c445-a077-37938f0c081b.014
s 1
f 9/25/7 11/26/7 12/27/7
f 9/28/8 14/29/8 13/30/8
f 13/31/9 16/32/9 15/33/9
f 15/34/10 11/35/10 10/36/10
f 14/37/11 11/38/11 16/39/11
f 9/40/12 15/41/12 10/42/12
f 9/25/7 10/43/7 11/26/7
f 9/28/8 12/44/8 14/29/8
f 13/31/9 14/45/9 16/32/9
f 15/34/10 16/46/10 11/35/10
f 14/37/11 12/47/11 11/38/11
f 9/40/12 13/48/12 15/41/12
o kolecko_plne.017
v 2.252189 -3.083923 0.187499
v 2.277471 -3.065555 0.187499
v 2.295840 -3.090837 0.187499
v 2.270558 -3.109205 0.187499
v 2.252189 -3.083923 0.212499
v 2.270558 -3.109205 0.212499
v 2.277471 -3.065555 0.212499
v 2.295840 -3.090837 0.212499
vt 0.053125 0.968750
vt 0.037500 0.984375
vt 0.037500 0.968750
vt 0.012500 0.968750
vt 0.000000 0.984375
vt 0.000000 0.968750
vt 0.025000 0.968750
vt 0.009375 0.984375
vt 0.009375 0.968750
vt 0.062500 0.968750
vt 0.050000 0.984375
vt 0.050000 0.968750
vt 0.025000 0.937500
vt 0.009375 0.950000
vt 0.009375 0.937500
vt 0.025000 0.987500
vt 0.009375 1.000000
vt 0.009375 0.987500
vt 0.053125 0.984375
vt 0.012500 0.984375
vt 0.025000 0.984375
vt 0.062500 0.984375
vt 0.025000 0.950000
vt 0.025000 1.000000
vn 0.0000 0.0000 -1.0000
vn -0.8090 -0.5878 0.0000
vn 0.0000 0.0000 1.0000
vn 0.8090 0.5878 0.0000
vn 0.5878 -0.8090 0.0000
vn -0.5878 0.8090 0.0000
usemtl m_ce8b17ab-b566-c445-a077-37938f0c081b.014
s 1
f 18/49/13 20/50/13 17/51/13
f 17/52/14 22/53/14 21/54/14
f 21/55/15 24/56/15 23/57/15
f 23/58/16 19/59/16 18/60/16
f 22/61/17 19/62/17 24/63/17
f 17/64/18 23/65/18 18/66/18
f 18/49/13 19/67/13 20/50/13
f 17/52/14 20/68/14 22/53/14
f 21/55/15 22/69/15 24/56/15
f 23/58/16 24/70/16 19/59/16
f 22/61/17 20/71/17 19/62/17
f 17/64/18 21/72/18 23/65/18
o kolecko_plne.018
v 2.281579 -3.124374 0.187499
v 2.306860 -3.106006 0.187499
v 2.325229 -3.131288 0.187499
v 2.299947 -3.149656 0.187499
v 2.281579 -3.124374 0.212499
v 2.299947 -3.149656 0.212499
v 2.306860 -3.106006 0.212499
v 2.325229 -3.131288 0.212499
vt 0.037500 0.968750
vt 0.053125 0.984375
vt 0.037500 0.984375
vt 0.012500 0.968750
vt 0.000000 0.984375
vt 0.000000 0.968750
vt 0.025000 0.968750
vt 0.009375 0.984375
vt 0.009375 0.968750
vt 0.062500 0.968750
vt 0.050000 0.984375
vt 0.050000 0.968750
vt 0.025000 0.937500
vt 0.009375 0.950000
vt 0.009375 0.937500
vt 0.025000 0.987500
vt 0.009375 1.000000
vt 0.009375 0.987500
vt 0.053125 0.968750
vt 0.012500 0.984375
vt 0.025000 0.984375
vt 0.062500 0.984375
vt 0.025000 0.950000
vt 0.025000 1.000000
vn 0.0000 0.0000 -1.0000
vn -0.8090 -0.5878 0.0000
vn 0.0000 0.0000 1.0000
vn 0.8090 0.5878 0.0000
vn 0.5878 -0.8090 0.0000
vn -0.5878 0.8090 0.0000
usemtl m_ce8b17ab-b566-c445-a077-37938f0c081b.014
s 1
f 25/73/19 27/74/19 28/75/19
f 25/76/20 30/77/20 29/78/20
f 29/79/21 32/80/21 31/81/21
f 31/82/22 27/83/22 26/84/22
f 30/85/23 27/86/23 32/87/23
f 25/88/24 31/89/24 26/90/24
f 25/73/19 26/91/19 27/74/19
f 25/76/20 28/92/20 30/77/20
f 29/79/21 30/93/21 32/80/21
f 31/82/22 32/94/22 27/83/22
f 30/85/23 28/95/23 27/86/23
f 25/88/24 29/96/24 31/89/24
