# Blender v3.0.0 OBJ File: ''
# www.blender.org
mtllib 16.mtl
o cube.064
v 1.838692 -3.418138 0.187499
v 1.855247 -3.409335 0.187499
v 1.861115 -3.420372 0.187499
v 1.844560 -3.429175 0.187499
v 1.838692 -3.418138 0.212499
v 1.844560 -3.429175 0.212499
v 1.855247 -3.409335 0.212499
v 1.861115 -3.420372 0.212499
vt 0.050000 0.981250
vt 0.040625 0.987500
vt 0.040625 0.981250
vt 0.012500 0.981250
vt 0.000000 0.987500
vt 0.000000 0.981250
vt 0.021875 0.981250
vt 0.012500 0.987500
vt 0.012500 0.981250
vt 0.062500 0.981250
vt 0.050000 0.987500
vt 0.021875 0.937500
vt 0.012500 0.950000
vt 0.012500 0.937500
vt 0.021875 0.987500
vt 0.012500 1.000000
vt 0.012500 0.987500
vt 0.012500 0.987500
vt 0.021875 0.987500
vt 0.062500 0.987500
vt 0.021875 0.950000
vt 0.021875 1.000000
vn 0.0000 0.0000 -1.0000
vn -0.8829 -0.4695 0.0000
vn -0.0000 0.0000 1.0000
vn 0.8829 0.4695 0.0000
vn 0.4695 -0.8829 0.0000
vn -0.4695 0.8829 0.0000
usemtl m_ce8b17ab-b566-c445-a077-37938f0c081b.015
s 1
f 2/1/1 4/2/1 1/3/1
f 1/4/2 6/5/2 5/6/2
f 5/7/3 8/8/3 7/9/3
f 7/10/4 3/11/4 2/1/4
f 6/12/5 3/13/5 8/14/5
f 1/15/6 7/16/6 2/17/6
f 2/1/1 3/11/1 4/2/1
f 1/4/2 4/18/2 6/5/2
f 5/7/3 6/19/3 8/8/3
f 7/10/4 8/20/4 3/11/4
f 6/12/5 4/21/5 3/13/5
f 1/15/6 5/22/6 7/16/6
o cube.065
v 1.853363 -3.445730 0.187499
v 1.869918 -3.436927 0.187499
v 1.875786 -3.447964 0.187499
v 1.859231 -3.456767 0.187499
v 1.853363 -3.445730 0.212499
v 1.859231 -3.456767 0.212499
v 1.869918 -3.436927 0.212499
v 1.875786 -3.447964 0.212499
vt 0.050000 0.981250
vt 0.040625 0.987500
vt 0.040625 0.981250
vt 0.012500 0.981250
vt 0.000000 0.987500
vt 0.000000 0.981250
vt 0.012500 0.981250
vt 0.021875 0.987500
vt 0.012500 0.987500
vt 0.062500 0.981250
vt 0.050000 0.987500
vt 0.021875 0.937500
vt 0.012500 0.950000
vt 0.012500 0.937500
vt 0.021875 0.987500
vt 0.012500 1.000000
vt 0.012500 0.987500
vt 0.012500 0.987500
vt 0.021875 0.981250
vt 0.062500 0.987500
vt 0.021875 0.950000
vt 0.021875 1.000000
vn 0.0000 0.0000 -1.0000
vn -0.8829 -0.4695 0.0000
vn -0.0000 0.0000 1.0000
vn 0.8829 0.4695 0.0000
vn 0.4695 -0.8830 0.0000
vn -0.4695 0.8829 0.0000
usemtl m_ce8b17ab-b566-c445-a077-37938f0c081b.015
s 1
f 10/23/7 12/24/7 9/25/7
f 9/26/8 14/27/8 13/28/8
f 15/29/9 14/30/9 16/31/9
f 15/32/10 11/33/10 10/23/10
f 14/34/11 11/35/11 16/36/11
f 9/37/12 15/38/12 10/39/12
f 10/23/7 11/33/7 12/24/7
f 9/26/8 12/40/8 14/27/8
f 15/29/9 13/41/9 14/30/9
f 15/32/10 16/42/10 11/33/10
f 14/34/11 12/43/11 11/35/11
f 9/37/12 13/44/12 15/38/12
o cube.066
v 1.855247 -3.409335 0.187499
v 1.866284 -3.403467 0.187499
v 1.886823 -3.442096 0.187499
v 1.875786 -3.447964 0.187499
v 1.855247 -3.409335 0.212499
v 1.875786 -3.447964 0.212499
v 1.866284 -3.403467 0.212499
v 1.886823 -3.442096 0.212499
vt 0.050000 0.965625
vt 0.056250 0.987500
vt 0.050000 0.987500
vt 0.012500 0.965625
vt 0.000000 0.987500
vt 0.000000 0.965625
vt 0.012500 0.965625
vt 0.006250 0.987500
vt 0.006250 0.965625
vt 0.062500 0.965625
vt 0.050000 0.987500
vt 0.050000 0.965625
vt 0.012500 0.937500
vt 0.006250 0.950000
vt 0.006250 0.937500
vt 0.012500 0.987500
vt 0.006250 1.000000
vt 0.006250 0.987500
vt 0.056250 0.965625
vt 0.012500 0.987500
vt 0.012500 0.987500
vt 0.062500 0.987500
vt 0.012500 0.950000
vt 0.012500 1.000000
vn -0.0000 0.0000 -1.0000
vn -0.8829 -0.4695 0.0000
vn 0.0000 -0.0000 1.0000
vn 0.8829 0.4695 0.0000
vn 0.4695 -0.8829 0.0000
vn -0.4695 0.8829 0.0000
usemtl m_ce8b17ab-b566-c445-a077-37938f0c081b.015
s 1
f 17/45/13 19/46/13 20/47/13
f 17/48/14 22/49/14 21/50/14
f 21/51/15 24/52/15 23/53/15
f 23/54/16 19/55/16 18/56/16
f 22/57/17 19/58/17 24/59/17
f 17/60/18 23/61/18 18/62/18
f 17/45/13 18/63/13 19/46/13
f 17/48/14 20/64/14 22/49/14
f 21/51/15 22/65/15 24/52/15
f 23/54/16 24/66/16 19/55/16
f 22/57/17 20/67/17 19/58/17
f 17/60/18 21/68/18 23/61/18
o cube.067
v 1.827655 -3.424006 0.187499
v 1.838692 -3.418138 0.187499
v 1.859231 -3.456767 0.187499
v 1.848194 -3.462635 0.187499
v 1.827655 -3.424006 0.212499
v 1.848194 -3.462635 0.212499
v 1.838692 -3.418138 0.212499
v 1.859231 -3.456767 0.212499
vt 0.034375 0.965625
vt 0.040625 0.987500
vt 0.034375 0.987500
vt 0.012500 0.965625
vt 0.000000 0.987500
vt 0.000000 0.965625
vt 0.028125 0.965625
vt 0.021875 0.987500
vt 0.021875 0.965625
vt 0.062500 0.965625
vt 0.050000 0.987500
vt 0.050000 0.965625
vt 0.028125 0.937500
vt 0.021875 0.950000
vt 0.021875 0.937500
vt 0.028125 0.987500
vt 0.021875 1.000000
vt 0.021875 0.987500
vt 0.040625 0.965625
vt 0.012500 0.987500
vt 0.028125 0.987500
vt 0.062500 0.987500
vt 0.028125 0.950000
vt 0.028125 1.000000
vn -0.0000 0.0000 -1.0000
vn -0.8829 -0.4695 0.0000
vn -0.0000 -0.0000 1.0000
vn 0.8829 0.4695 0.0000
vn 0.4695 -0.8829 0.0000
vn -0.4695 0.8829 0.0000
usemtl m_ce8b17ab-b566-c445-a077-37938f0c081b.015
s 1
f 25/69/19 27/70/19 28/71/19
f 25/72/20 30/73/20 29/74/20
f 29/75/21 32/76/21 31/77/21
f 31/78/22 27/79/22 26/80/22
f 30/81/23 27/82/23 32/83/23
f 25/84/24 31/85/24 26/86/24
f 25/69/19 26/87/19 27/70/19
f 25/72/20 28/88/20 30/73/20
f 29/75/21 30/89/21 32/76/21
f 31/78/22 32/90/22 27/79/22
f 30/81/23 28/91/23 27/82/23
f 25/84/24 29/92/24 31/85/24
o cara.013
v 1.803481 -3.351917 0.187499
v 1.820037 -3.343114 0.187499
v 1.846444 -3.392780 0.187499
v 1.829889 -3.401582 0.187499
v 1.803481 -3.351917 0.212499
v 1.829889 -3.401582 0.212499
v 1.820037 -3.343114 0.212499
v 1.846444 -3.392780 0.212499
vt 0.043750 0.965625
vt 0.053125 0.993750
vt 0.043750 0.993750
vt 0.012500 0.965625
vt 0.000000 0.993750
vt 0.000000 0.965625
vt 0.018750 0.965625
vt 0.009375 0.993750
vt 0.009375 0.965625
vt 0.062500 0.965625
vt 0.050000 0.993750
vt 0.050000 0.965625
vt 0.018750 0.937500
vt 0.009375 0.950000
vt 0.009375 0.937500
vt 0.018750 0.987500
vt 0.009375 1.000000
vt 0.009375 0.987500
vt 0.053125 0.965625
vt 0.012500 0.993750
vt 0.018750 0.993750
vt 0.062500 0.993750
vt 0.018750 0.950000
vt 0.018750 1.000000
vn -0.0000 0.0000 -1.0000
vn -0.8829 -0.4695 0.0000
vn -0.0000 0.0000 1.0000
vn 0.8829 0.4695 0.0000
vn 0.4695 -0.8829 0.0000
vn -0.4695 0.8829 0.0000
usemtl m_ce8b17ab-b566-c445-a077-37938f0c081b.015
s 1
f 33/93/25 35/94/25 36/95/25
f 33/96/26 38/97/26 37/98/26
f 37/99/27 40/100/27 39/101/27
f 39/102/28 35/103/28 34/104/28
f 38/105/29 35/106/29 40/107/29
f 33/108/30 39/109/30 34/110/30
f 33/93/25 34/111/25 35/94/25
f 33/96/26 36/112/26 38/97/26
f 37/99/27 38/113/27 40/100/27
f 39/102/28 40/114/28 35/103/28
f 38/105/29 36/115/29 35/106/29
f 33/108/30 37/116/30 39/109/30
o cara.014
v 1.768271 -3.285696 0.187499
v 1.784826 -3.276893 0.187499
v 1.811234 -3.326559 0.187499
v 1.794679 -3.335361 0.187499
v 1.768271 -3.285696 0.212499
v 1.794679 -3.335361 0.212499
v 1.784826 -3.276893 0.212499
v 1.811234 -3.326559 0.212499
vt 0.053125 0.965625
vt 0.043750 0.993750
vt 0.043750 0.965625
vt 0.012500 0.965625
vt 0.000000 0.993750
vt 0.000000 0.965625
vt 0.009375 0.965625
vt 0.018750 0.993750
vt 0.009375 0.993750
vt 0.062500 0.965625
vt 0.050000 0.993750
vt 0.050000 0.965625
vt 0.018750 0.937500
vt 0.009375 0.950000
vt 0.009375 0.937500
vt 0.018750 0.987500
vt 0.009375 1.000000
vt 0.009375 0.987500
vt 0.053125 0.993750
vt 0.012500 0.993750
vt 0.018750 0.965625
vt 0.062500 0.993750
vt 0.018750 0.950000
vt 0.018750 1.000000
vn -0.0000 0.0000 -1.0000
vn -0.8829 -0.4695 0.0000
vn -0.0000 0.0000 1.0000
vn 0.8829 0.4695 0.0000
vn 0.4695 -0.8829 0.0000
vn -0.4695 0.8830 0.0000
usemtl m_ce8b17ab-b566-c445-a077-37938f0c081b.015
s 1
f 42/117/31 44/118/31 41/119/31
f 41/120/32 46/121/32 45/122/32
f 47/123/33 46/124/33 48/125/33
f 47/126/34 43/127/34 42/128/34
f 46/129/35 43/130/35 48/131/35
f 41/132/36 47/133/36 42/134/36
f 42/117/31 43/135/31 44/118/31
f 41/120/32 44/136/32 46/121/32
f 47/123/33 45/137/33 46/124/33
f 47/126/34 48/138/34 43/127/34
f 46/129/35 44/139/35 43/130/35
f 41/132/36 45/140/36 47/133/36
o cara.015
v 1.733061 -3.219475 0.187499
v 1.749616 -3.210672 0.187499
v 1.776024 -3.260338 0.187499
v 1.759468 -3.269140 0.187499
v 1.733061 -3.219475 0.212499
v 1.759468 -3.269140 0.212499
v 1.749616 -3.210672 0.212499
v 1.776024 -3.260338 0.212499
vt 0.053125 0.965625
vt 0.043750 0.993750
vt 0.043750 0.965625
vt 0.012500 0.965625
vt 0.000000 0.993750
vt 0.000000 0.965625
vt 0.009375 0.965625
vt 0.018750 0.993750
vt 0.009375 0.993750
vt 0.062500 0.965625
vt 0.050000 0.993750
vt 0.050000 0.965625
vt 0.018750 0.937500
vt 0.009375 0.950000
vt 0.009375 0.937500
vt 0.018750 0.987500
vt 0.009375 1.000000
vt 0.009375 0.987500
vt 0.053125 0.993750
vt 0.012500 0.993750
vt 0.018750 0.965625
vt 0.062500 0.993750
vt 0.018750 0.950000
vt 0.018750 1.000000
vn -0.0000 0.0000 -1.0000
vn -0.8829 -0.4695 0.0000
vn 0.0000 -0.0000 1.0000
vn 0.8829 0.4695 0.0000
vn 0.4695 -0.8830 0.0000
vn -0.4695 0.8829 0.0000
usemtl m_ce8b17ab-b566-c445-a077-37938f0c081b.015
s 1
f 50/141/37 52/142/37 49/143/37
f 49/144/38 54/145/38 53/146/38
f 55/147/39 54/148/39 56/149/39
f 55/150/40 51/151/40 50/152/40
f 54/153/41 51/154/41 56/155/41
f 49/156/42 55/157/42 50/158/42
f 50/141/37 51/159/37 52/142/37
f 49/144/38 52/160/38 54/145/38
f 55/147/39 53/161/39 54/148/39
f 55/150/40 56/162/40 51/151/40
f 54/153/41 52/163/41 51/154/41
f 49/156/42 53/164/42 55/157/42
