# Blender v3.0.0 OBJ File: ''
# www.blender.org
mtllib 19.mtl
o kolecko_plne.020
v -0.247940 -3.635310 0.187499
v -0.216767 -3.637490 0.187499
v -0.218946 -3.668664 0.187499
v -0.250120 -3.666484 0.187499
v -0.247940 -3.635310 0.212499
v -0.250120 -3.666484 0.212499
v -0.216767 -3.637490 0.212499
v -0.218946 -3.668664 0.212499
vt 0.037500 0.968750
vt 0.053125 0.984375
vt 0.037500 0.984375
vt 0.012500 0.968750
vt 0.000000 0.984375
vt 0.000000 0.968750
vt 0.025000 0.968750
vt 0.009375 0.984375
vt 0.009375 0.968750
vt 0.062500 0.968750
vt 0.050000 0.984375
vt 0.050000 0.968750
vt 0.025000 0.937500
vt 0.009375 0.950000
vt 0.009375 0.937500
vt 0.025000 0.987500
vt 0.009375 1.000000
vt 0.009375 0.987500
vt 0.053125 0.968750
vt 0.012500 0.984375
vt 0.025000 0.984375
vt 0.062500 0.984375
vt 0.025000 0.950000
vt 0.025000 1.000000
vn -0.0000 0.0000 -1.0000
vn -0.9976 0.0698 0.0000
vn -0.0000 0.0000 1.0000
vn 0.9976 -0.0698 0.0000
vn -0.0698 -0.9976 0.0000
vn 0.0698 0.9976 0.0000
usemtl m_ce8b17ab-b566-c445-a077-37938f0c081b.017
s 1
f 1/1/1 3/2/1 4/3/1
f 1/4/2 6/5/2 5/6/2
f 5/7/3 8/8/3 7/9/3
f 7/10/4 3/11/4 2/12/4
f 6/13/5 3/14/5 8/15/5
f 1/16/6 7/17/6 2/18/6
f 1/1/1 2/19/1 3/2/1
f 1/4/2 4/20/2 6/5/2
f 5/7/3 6/21/3 8/8/3
f 7/10/4 8/22/4 3/11/4
f 6/13/5 4/23/5 3/14/5
f 1/16/6 5/24/6 7/17/6
o kolecko_plne.021
v -0.255788 -3.747536 0.187499
v -0.224614 -3.749716 0.187499
v -0.226794 -3.780890 0.187499
v -0.257968 -3.778710 0.187499
v -0.255788 -3.747536 0.212499
v -0.257968 -3.778710 0.212499
v -0.224614 -3.749716 0.212499
v -0.226794 -3.780890 0.212499
vt 0.037500 0.968750
vt 0.053125 0.984375
vt 0.037500 0.984375
vt 0.012500 0.968750
vt 0.000000 0.984375
vt 0.000000 0.968750
vt 0.025000 0.968750
vt 0.009375 0.984375
vt 0.009375 0.968750
vt 0.062500 0.968750
vt 0.050000 0.984375
vt 0.050000 0.968750
vt 0.025000 0.937500
vt 0.009375 0.950000
vt 0.009375 0.937500
vt 0.025000 0.987500
vt 0.009375 1.000000
vt 0.009375 0.987500
vt 0.053125 0.968750
vt 0.012500 0.984375
vt 0.025000 0.984375
vt 0.062500 0.984375
vt 0.025000 0.950000
vt 0.025000 1.000000
vn -0.0000 0.0000 -1.0000
vn -0.9976 0.0698 0.0000
vn -0.0000 0.0000 1.0000
vn 0.9976 -0.0698 0.0000
vn -0.0698 -0.9976 0.0000
vn 0.0698 0.9976 0.0000
usemtl m_ce8b17ab-b566-c445-a077-37938f0c081b.017
s 1
f 9/25/7 11/26/7 12/27/7
f 9/28/8 14/29/8 13/30/8
f 13/31/9 16/32/9 15/33/9
f 15/34/10 11/35/10 10/36/10
f 14/37/11 11/38/11 16/39/11
f 9/40/12 15/41/12 10/42/12
f 9/25/7 10/43/7 11/26/7
f 9/28/8 12/44/8 14/29/8
f 13/31/9 14/45/9 16/32/9
f 15/34/10 16/46/10 11/35/10
f 14/37/11 12/47/11 11/38/11
f 9/40/12 13/48/12 15/41/12
o cube.075
v -0.245193 -3.685624 0.187499
v -0.226489 -3.686932 0.187499
v -0.227361 -3.699402 0.187499
v -0.246065 -3.698094 0.187499
v -0.245193 -3.685624 0.212499
v -0.246065 -3.698094 0.212499
v -0.226489 -3.686932 0.212499
v -0.227361 -3.699402 0.212499
vt 0.050000 0.981250
vt 0.040625 0.987500
vt 0.040625 0.981250
vt 0.012500 0.981250
vt 0.000000 0.987500
vt 0.000000 0.981250
vt 0.012500 0.981250
vt 0.021875 0.987500
vt 0.012500 0.987500
vt 0.062500 0.981250
vt 0.050000 0.987500
vt 0.021875 0.937500
vt 0.012500 0.950000
vt 0.012500 0.937500
vt 0.021875 0.987500
vt 0.012500 1.000000
vt 0.012500 0.987500
vt 0.012500 0.987500
vt 0.021875 0.981250
vt 0.062500 0.987500
vt 0.021875 0.950000
vt 0.021875 1.000000
vn 0.0000 0.0000 -1.0000
vn -0.9976 0.0698 0.0000
vn 0.0000 0.0000 1.0000
vn 0.9976 -0.0698 0.0000
vn -0.0698 -0.9976 0.0000
vn 0.0698 0.9976 0.0000
usemtl m_ce8b17ab-b566-c445-a077-37938f0c081b.017
s 1
f 18/49/13 20/50/13 17/51/13
f 17/52/14 22/53/14 21/54/14
f 23/55/15 22/56/15 24/57/15
f 23/58/16 19/59/16 18/49/16
f 22/60/17 19/61/17 24/62/17
f 17/63/18 23/64/18 18/65/18
f 18/49/13 19/59/13 20/50/13
f 17/52/14 20/66/14 22/53/14
f 23/55/15 21/67/15 22/56/15
f 23/58/16 24/68/16 19/59/16
f 22/60/17 20/69/17 19/61/17
f 17/63/18 21/70/18 23/64/18
o cube.076
v -0.247373 -3.716798 0.187499
v -0.228669 -3.718106 0.187499
v -0.229541 -3.730576 0.187499
v -0.248245 -3.729268 0.187499
v -0.247373 -3.716798 0.212499
v -0.248245 -3.729268 0.212499
v -0.228669 -3.718106 0.212499
v -0.229541 -3.730576 0.212499
vt 0.050000 0.981250
vt 0.040625 0.987500
vt 0.040625 0.981250
vt 0.012500 0.981250
vt 0.000000 0.987500
vt 0.000000 0.981250
vt 0.012500 0.981250
vt 0.021875 0.987500
vt 0.012500 0.987500
vt 0.062500 0.981250
vt 0.050000 0.987500
vt 0.021875 0.937500
vt 0.012500 0.950000
vt 0.012500 0.937500
vt 0.021875 0.987500
vt 0.012500 1.000000
vt 0.012500 0.987500
vt 0.012500 0.987500
vt 0.021875 0.981250
vt 0.062500 0.987500
vt 0.021875 0.950000
vt 0.021875 1.000000
vn -0.0000 0.0000 -1.0000
vn -0.9976 0.0698 0.0000
vn 0.0000 0.0000 1.0000
vn 0.9976 -0.0698 0.0000
vn -0.0698 -0.9976 0.0000
vn 0.0698 0.9976 0.0000
usemtl m_ce8b17ab-b566-c445-a077-37938f0c081b.017
s 1
f 26/71/19 28/72/19 25/73/19
f 25/74/20 30/75/20 29/76/20
f 31/77/21 30/78/21 32/79/21
f 31/80/22 27/81/22 26/71/22
f 30/82/23 27/83/23 32/84/23
f 25/85/24 31/86/24 26/87/24
f 26/71/19 27/81/19 28/72/19
f 25/74/20 28/88/20 30/75/20
f 31/77/21 29/89/21 30/78/21
f 31/80/22 32/90/22 27/81/22
f 30/82/23 28/91/23 27/83/23
f 25/85/24 29/92/24 31/86/24
o cube.077
v -0.226489 -3.686932 0.187499
v -0.214020 -3.687804 0.187499
v -0.217071 -3.731447 0.187499
v -0.229541 -3.730576 0.187499
v -0.226489 -3.686932 0.212499
v -0.229541 -3.730576 0.212499
v -0.214020 -3.687804 0.212499
v -0.217071 -3.731447 0.212499
vt 0.050000 0.965625
vt 0.056250 0.987500
vt 0.050000 0.987500
vt 0.012500 0.965625
vt 0.000000 0.987500
vt 0.000000 0.965625
vt 0.012500 0.965625
vt 0.006250 0.987500
vt 0.006250 0.965625
vt 0.062500 0.965625
vt 0.050000 0.987500
vt 0.050000 0.965625
vt 0.012500 0.937500
vt 0.006250 0.950000
vt 0.006250 0.937500
vt 0.012500 0.987500
vt 0.006250 1.000000
vt 0.006250 0.987500
vt 0.056250 0.965625
vt 0.012500 0.987500
vt 0.012500 0.987500
vt 0.062500 0.987500
vt 0.012500 0.950000
vt 0.012500 1.000000
vn -0.0000 0.0000 -1.0000
vn -0.9976 0.0698 0.0000
vn 0.0000 -0.0000 1.0000
vn 0.9976 -0.0698 0.0000
vn -0.0698 -0.9976 0.0000
vn 0.0698 0.9976 0.0000
usemtl m_ce8b17ab-b566-c445-a077-37938f0c081b.017
s 1
f 33/93/25 35/94/25 36/95/25
f 33/96/26 38/97/26 37/98/26
f 37/99/27 40/100/27 39/101/27
f 39/102/28 35/103/28 34/104/28
f 38/105/29 35/106/29 40/107/29
f 33/108/30 39/109/30 34/110/30
f 33/93/25 34/111/25 35/94/25
f 33/96/26 36/112/26 38/97/26
f 37/99/27 38/113/27 40/100/27
f 39/102/28 40/114/28 35/103/28
f 38/105/29 36/115/29 35/106/29
f 33/108/30 37/116/30 39/109/30
o cube.078
v -0.257663 -3.684752 0.187499
v -0.245193 -3.685624 0.187499
v -0.248245 -3.729268 0.187499
v -0.260715 -3.728396 0.187499
v -0.257663 -3.684752 0.212499
v -0.260715 -3.728396 0.212499
v -0.245193 -3.685624 0.212499
v -0.248245 -3.729268 0.212499
vt 0.034375 0.965625
vt 0.040625 0.987500
vt 0.034375 0.987500
vt 0.012500 0.965625
vt 0.000000 0.987500
vt 0.000000 0.965625
vt 0.028125 0.965625
vt 0.021875 0.987500
vt 0.021875 0.965625
vt 0.062500 0.965625
vt 0.050000 0.987500
vt 0.050000 0.965625
vt 0.028125 0.937500
vt 0.021875 0.950000
vt 0.021875 0.937500
vt 0.028125 0.987500
vt 0.021875 1.000000
vt 0.021875 0.987500
vt 0.040625 0.965625
vt 0.012500 0.987500
vt 0.028125 0.987500
vt 0.062500 0.987500
vt 0.028125 0.950000
vt 0.028125 1.000000
vn -0.0000 0.0000 -1.0000
vn -0.9976 0.0698 0.0000
vn 0.0000 -0.0000 1.0000
vn 0.9976 -0.0698 0.0000
vn -0.0698 -0.9976 0.0000
vn 0.0698 0.9976 0.0000
usemtl m_ce8b17ab-b566-c445-a077-37938f0c081b.017
s 1
f 41/117/31 43/118/31 44/119/31
f 41/120/32 46/121/32 45/122/32
f 45/123/33 48/124/33 47/125/33
f 47/126/34 43/127/34 42/128/34
f 46/129/35 43/130/35 48/131/35
f 41/132/36 47/133/36 42/134/36
f 41/117/31 42/135/31 43/118/31
f 41/120/32 44/136/32 46/121/32
f 45/123/33 46/137/33 48/124/33
f 47/126/34 48/138/34 43/127/34
f 46/129/35 44/139/35 43/130/35
f 41/132/36 45/140/36 47/133/36
o cube.079
v -0.253041 -3.797850 0.187499
v -0.234337 -3.799158 0.187499
v -0.235209 -3.811628 0.187499
v -0.253913 -3.810320 0.187499
v -0.253041 -3.797850 0.212499
v -0.253913 -3.810320 0.212499
v -0.234337 -3.799158 0.212499
v -0.235209 -3.811628 0.212499
vt 0.050000 0.981250
vt 0.040625 0.987500
vt 0.040625 0.981250
vt 0.012500 0.981250
vt 0.000000 0.987500
vt 0.000000 0.981250
vt 0.012500 0.981250
vt 0.021875 0.987500
vt 0.012500 0.987500
vt 0.062500 0.981250
vt 0.050000 0.987500
vt 0.021875 0.937500
vt 0.012500 0.950000
vt 0.012500 0.937500
vt 0.021875 0.987500
vt 0.012500 1.000000
vt 0.012500 0.987500
vt 0.012500 0.987500
vt 0.021875 0.981250
vt 0.062500 0.987500
vt 0.021875 0.950000
vt 0.021875 1.000000
vn -0.0000 0.0000 -1.0000
vn -0.9976 0.0698 0.0000
vn 0.0000 0.0000 1.0000
vn 0.9976 -0.0698 0.0000
vn -0.0698 -0.9976 0.0000
vn 0.0698 0.9976 0.0000
usemtl m_ce8b17ab-b566-c445-a077-37938f0c081b.017
s 1
f 50/141/37 52/142/37 49/143/37
f 49/144/38 54/145/38 53/146/38
f 55/147/39 54/148/39 56/149/39
f 55/150/40 51/151/40 50/141/40
f 54/152/41 51/153/41 56/154/41
f 49/155/42 55/156/42 50/157/42
f 50/141/37 51/151/37 52/142/37
f 49/144/38 52/158/38 54/145/38
f 55/147/39 53/159/39 54/148/39
f 55/150/40 56/160/40 51/151/40
f 54/152/41 52/161/41 51/153/41
f 49/155/42 53/162/42 55/156/42
o cube.080
v -0.255221 -3.829024 0.187499
v -0.236517 -3.830332 0.187499
v -0.237389 -3.842802 0.187499
v -0.256093 -3.841494 0.187499
v -0.255221 -3.829024 0.212499
v -0.256093 -3.841494 0.212499
v -0.236517 -3.830332 0.212499
v -0.237389 -3.842802 0.212499
vt 0.050000 0.981250
vt 0.040625 0.987500
vt 0.040625 0.981250
vt 0.012500 0.981250
vt 0.000000 0.987500
vt 0.000000 0.981250
vt 0.012500 0.981250
vt 0.021875 0.987500
vt 0.012500 0.987500
vt 0.062500 0.981250
vt 0.050000 0.987500
vt 0.021875 0.937500
vt 0.012500 0.950000
vt 0.012500 0.937500
vt 0.021875 0.987500
vt 0.012500 1.000000
vt 0.012500 0.987500
vt 0.012500 0.987500
vt 0.021875 0.981250
vt 0.062500 0.987500
vt 0.021875 0.950000
vt 0.021875 1.000000
vn -0.0000 0.0000 -1.0000
vn -0.9976 0.0698 0.0000
vn 0.0000 0.0000 1.0000
vn 0.9976 -0.0698 0.0000
vn -0.0698 -0.9976 0.0000
vn 0.0698 0.9976 0.0000
usemtl m_ce8b17ab-b566-c445-a077-37938f0c081b.017
s 1
f 58/163/43 60/164/43 57/165/43
f 57/166/44 62/167/44 61/168/44
f 63/169/45 62/170/45 64/171/45
f 63/172/46 59/173/46 58/163/46
f 62/174/47 59/175/47 64/176/47
f 57/177/48 63/178/48 58/179/48
f 58/163/43 59/173/43 60/164/43
f 57/166/44 60/180/44 62/167/44
f 63/169/45 61/181/45 62/170/45
f 63/172/46 64/182/46 59/173/46
f 62/174/47 60/183/47 59/175/47
f 57/177/48 61/184/48 63/178/48
o cube.081
v -0.234337 -3.799158 0.187499
v -0.221867 -3.800030 0.187499
v -0.224919 -3.843673 0.187499
v -0.237389 -3.842802 0.187499
v -0.234337 -3.799158 0.212499
v -0.237389 -3.842802 0.212499
v -0.221867 -3.800030 0.212499
v -0.224919 -3.843673 0.212499
vt 0.050000 0.965625
vt 0.056250 0.987500
vt 0.050000 0.987500
vt 0.012500 0.965625
vt 0.000000 0.987500
vt 0.000000 0.965625
vt 0.012500 0.965625
vt 0.006250 0.987500
vt 0.006250 0.965625
vt 0.062500 0.965625
vt 0.050000 0.987500
vt 0.050000 0.965625
vt 0.012500 0.937500
vt 0.006250 0.950000
vt 0.006250 0.937500
vt 0.012500 0.987500
vt 0.006250 1.000000
vt 0.006250 0.987500
vt 0.056250 0.965625
vt 0.012500 0.987500
vt 0.012500 0.987500
vt 0.062500 0.987500
vt 0.012500 0.950000
vt 0.012500 1.000000
vn -0.0000 0.0000 -1.0000
vn -0.9976 0.0698 0.0000
vn 0.0000 0.0000 1.0000
vn 0.9976 -0.0698 0.0000
vn -0.0698 -0.9976 0.0000
vn 0.0698 0.9976 0.0000
usemtl m_ce8b17ab-b566-c445-a077-37938f0c081b.017
s 1
f 65/185/49 67/186/49 68/187/49
f 65/188/50 70/189/50 69/190/50
f 69/191/51 72/192/51 71/193/51
f 71/194/52 67/195/52 66/196/52
f 70/197/53 67/198/53 72/199/53
f 65/200/54 71/201/54 66/202/54
f 65/185/49 66/203/49 67/186/49
f 65/188/50 68/204/50 70/189/50
f 69/191/51 70/205/51 72/192/51
f 71/194/52 72/206/52 67/195/52
f 70/197/53 68/207/53 67/198/53
f 65/200/54 69/208/54 71/201/54
o cube.082
v -0.265511 -3.796978 0.187499
v -0.253041 -3.797850 0.187499
v -0.256093 -3.841494 0.187499
v -0.268562 -3.840622 0.187499
v -0.265511 -3.796978 0.212499
v -0.268562 -3.840622 0.212499
v -0.253041 -3.797850 0.212499
v -0.256093 -3.841494 0.212499
vt 0.034375 0.965625
vt 0.040625 0.987500
vt 0.034375 0.987500
vt 0.012500 0.965625
vt 0.000000 0.987500
vt 0.000000 0.965625
vt 0.028125 0.965625
vt 0.021875 0.987500
vt 0.021875 0.965625
vt 0.062500 0.965625
vt 0.050000 0.987500
vt 0.050000 0.965625
vt 0.028125 0.937500
vt 0.021875 0.950000
vt 0.021875 0.937500
vt 0.028125 0.987500
vt 0.021875 1.000000
vt 0.021875 0.987500
vt 0.040625 0.965625
vt 0.012500 0.987500
vt 0.028125 0.987500
vt 0.062500 0.987500
vt 0.028125 0.950000
vt 0.028125 1.000000
vn -0.0000 0.0000 -1.0000
vn -0.9976 0.0698 0.0000
vn 0.0000 0.0000 1.0000
vn 0.9976 -0.0698 0.0000
vn -0.0698 -0.9976 0.0000
vn 0.0698 0.9976 0.0000
usemtl m_ce8b17ab-b566-c445-a077-37938f0c081b.017
s 1
f 73/209/55 75/210/55 76/211/55
f 73/212/56 78/213/56 77/214/56
f 77/215/57 80/216/57 79/217/57
f 79/218/58 75/219/58 74/220/58
f 78/221/59 75/222/59 80/223/59
f 73/224/60 79/225/60 74/226/60
f 73/209/55 74/227/55 75/210/55
f 73/212/56 76/228/56 78/213/56
f 77/215/57 78/229/57 80/216/57
f 79/218/58 80/230/58 75/219/58
f 78/221/59 76/231/59 75/222/59
f 73/224/60 77/232/60 79/225/60
o kolecko_plne.022
v -0.263636 -3.859762 0.187499
v -0.232462 -3.861942 0.187499
v -0.234642 -3.893116 0.187499
v -0.265815 -3.890936 0.187499
v -0.263636 -3.859762 0.212499
v -0.265815 -3.890936 0.212499
v -0.232462 -3.861942 0.212499
v -0.234642 -3.893116 0.212499
vt 0.053125 0.968750
vt 0.037500 0.984375
vt 0.037500 0.968750
vt 0.012500 0.968750
vt 0.000000 0.984375
vt 0.000000 0.968750
vt 0.009375 0.968750
vt 0.025000 0.984375
vt 0.009375 0.984375
vt 0.062500 0.968750
vt 0.050000 0.984375
vt 0.050000 0.968750
vt 0.025000 0.937500
vt 0.009375 0.950000
vt 0.009375 0.937500
vt 0.025000 0.987500
vt 0.009375 1.000000
vt 0.009375 0.987500
vt 0.053125 0.984375
vt 0.012500 0.984375
vt 0.025000 0.968750
vt 0.062500 0.984375
vt 0.025000 0.950000
vt 0.025000 1.000000
vn 0.0000 0.0000 -1.0000
vn -0.9976 0.0698 0.0000
vn 0.0000 -0.0000 1.0000
vn 0.9976 -0.0698 0.0000
vn -0.0698 -0.9976 0.0000
vn 0.0698 0.9976 0.0000
usemtl m_ce8b17ab-b566-c445-a077-37938f0c081b.017
s 1
f 82/233/61 84/234/61 81/235/61
f 81/236/62 86/237/62 85/238/62
f 87/239/63 86/240/63 88/241/63
f 87/242/64 83/243/64 82/244/64
f 86/245/65 83/246/65 88/247/65
f 81/248/66 87/249/66 82/250/66
f 82/233/61 83/251/61 84/234/61
f 81/236/62 84/252/62 86/237/62
f 87/239/63 85/253/63 86/240/63
f 87/242/64 88/254/64 83/243/64
f 86/245/65 84/255/65 83/246/65
f 81/248/66 85/256/66 87/249/66
