# Blender v3.0.0 OBJ File: ''
# www.blender.org
mtllib 27.mtl
o kolecko_plne.036
v -3.640803 -0.398375 0.187500
v -3.637537 -0.429454 0.187500
v -3.668616 -0.432720 0.187500
v -3.671882 -0.401641 0.187500
v -3.640803 -0.398375 0.212500
v -3.671882 -0.401641 0.212500
v -3.637537 -0.429454 0.212500
v -3.668616 -0.432720 0.212500
vt 0.053125 0.968750
vt 0.037500 0.984375
vt 0.037500 0.968750
vt 0.012500 0.968750
vt 0.000000 0.984375
vt 0.000000 0.968750
vt 0.009375 0.968750
vt 0.025000 0.984375
vt 0.009375 0.984375
vt 0.062500 0.968750
vt 0.050000 0.984375
vt 0.050000 0.968750
vt 0.025000 0.937500
vt 0.009375 0.950000
vt 0.009375 0.937500
vt 0.025000 0.987500
vt 0.009375 1.000000
vt 0.009375 0.987500
vt 0.053125 0.984375
vt 0.012500 0.984375
vt 0.025000 0.968750
vt 0.062500 0.984375
vt 0.025000 0.950000
vt 0.025000 1.000000
vn 0.0000 0.0000 -1.0000
vn -0.1045 0.9945 0.0000
vn 0.0000 -0.0000 1.0000
vn 0.1045 -0.9945 0.0000
vn -0.9945 -0.1045 0.0000
vn 0.9945 0.1045 0.0000
usemtl m_ce8b17ab-b566-c445-a077-37938f0c081b.025
s 1
f 2/1/1 4/2/1 1/3/1
f 1/4/2 6/5/2 5/6/2
f 7/7/3 6/8/3 8/9/3
f 7/10/4 3/11/4 2/12/4
f 6/13/5 3/14/5 8/15/5
f 1/16/6 7/17/6 2/18/6
f 2/1/1 3/19/1 4/2/1
f 1/4/2 4/20/2 6/5/2
f 7/7/3 5/21/3 6/8/3
f 7/10/4 8/22/4 3/11/4
f 6/13/5 4/23/5 3/14/5
f 1/16/6 5/24/6 7/17/6
o cube.098
v -3.717140 -0.403988 0.187500
v -3.708921 -0.420840 0.187500
v -3.753860 -0.442759 0.187500
v -3.762080 -0.425907 0.187500
v -3.717140 -0.403988 0.212500
v -3.762080 -0.425907 0.212500
v -3.708921 -0.420840 0.212500
v -3.753860 -0.442759 0.212500
vt 0.053125 0.962500
vt 0.043750 0.987500
vt 0.043750 0.962500
vt 0.012500 0.962500
vt 0.000000 0.987500
vt 0.000000 0.962500
vt 0.009375 0.962500
vt 0.018750 0.987500
vt 0.009375 0.987500
vt 0.062500 0.962500
vt 0.050000 0.987500
vt 0.050000 0.962500
vt 0.018750 0.937500
vt 0.009375 0.950000
vt 0.009375 0.937500
vt 0.018750 0.987500
vt 0.009375 1.000000
vt 0.009375 0.987500
vt 0.053125 0.987500
vt 0.012500 0.987500
vt 0.018750 0.962500
vt 0.062500 0.987500
vt 0.018750 0.950000
vt 0.018750 1.000000
vn -0.0000 0.0000 -1.0000
vn -0.4384 0.8988 0.0000
vn 0.0000 -0.0000 1.0000
vn 0.4384 -0.8988 0.0000
vn -0.8988 -0.4384 0.0000
vn -0.8988 -0.4383 0.0000
vn 0.8988 0.4384 0.0000
vn 0.8988 0.4383 0.0000
usemtl m_ce8b17ab-b566-c445-a077-37938f0c081b.025
s 1
f 10/25/7 12/26/7 9/27/7
f 9/28/8 14/29/8 13/30/8
f 15/31/9 14/32/9 16/33/9
f 15/34/10 11/35/10 10/36/10
f 14/37/11 11/38/11 16/39/12
f 9/40/13 15/41/13 10/42/14
f 10/25/7 11/43/7 12/26/7
f 9/28/8 12/44/8 14/29/8
f 15/31/9 13/45/9 14/32/9
f 15/34/10 16/46/10 11/35/10
f 14/37/11 12/47/11 11/38/11
f 9/40/13 13/48/13 15/41/13
o cube.099
v -3.687963 -0.413572 0.187500
v -3.692499 -0.431765 0.187500
v -3.722821 -0.424205 0.187500
v -3.718284 -0.406012 0.187500
v -3.687963 -0.413572 0.212500
v -3.718284 -0.406012 0.212500
v -3.692499 -0.431765 0.212500
v -3.722821 -0.424205 0.212500
vt 0.043750 0.965625
vt 0.053125 0.981250
vt 0.043750 0.981250
vt 0.012500 0.965625
vt 0.000000 0.981250
vt 0.000000 0.965625
vt 0.018750 0.965625
vt 0.009375 0.981250
vt 0.009375 0.965625
vt 0.062500 0.965625
vt 0.050000 0.981250
vt 0.050000 0.965625
vt 0.018750 0.937500
vt 0.009375 0.950000
vt 0.009375 0.937500
vt 0.018750 0.987500
vt 0.009375 1.000000
vt 0.009375 0.987500
vt 0.053125 0.965625
vt 0.012500 0.981250
vt 0.018750 0.981250
vt 0.062500 0.981250
vt 0.018750 0.950000
vt 0.018750 1.000000
vn -0.0000 0.0000 -1.0000
vn 0.2419 0.9703 0.0000
vn 0.0000 -0.0000 1.0000
vn -0.2419 -0.9703 0.0000
vn -0.9703 0.2419 0.0000
vn 0.9703 -0.2419 0.0000
usemtl m_ce8b17ab-b566-c445-a077-37938f0c081b.025
s 1
f 17/49/15 19/50/15 20/51/15
f 17/52/16 22/53/16 21/54/16
f 21/55/17 24/56/17 23/57/17
f 23/58/18 19/59/18 18/60/18
f 22/61/19 19/62/19 24/63/19
f 17/64/20 23/65/20 18/66/20
f 17/49/15 18/67/15 19/50/15
f 17/52/16 20/68/16 22/53/16
f 21/55/17 22/69/17 24/56/17
f 23/58/18 24/70/18 19/59/18
f 22/61/19 20/71/19 19/62/19
f 17/64/20 21/72/20 23/65/20
o cube.100
v -3.749164 -0.421991 0.187500
v -3.753700 -0.440184 0.187500
v -3.777958 -0.434136 0.187500
v -3.773422 -0.415942 0.187500
v -3.749164 -0.421991 0.212500
v -3.773422 -0.415942 0.212500
v -3.753700 -0.440184 0.212500
v -3.777958 -0.434136 0.212500
vt 0.053125 0.971875
vt 0.043750 0.984375
vt 0.043750 0.971875
vt 0.012500 0.971875
vt 0.000000 0.984375
vt 0.000000 0.971875
vt 0.009375 0.971875
vt 0.018750 0.984375
vt 0.009375 0.984375
vt 0.062500 0.971875
vt 0.050000 0.984375
vt 0.050000 0.971875
vt 0.018750 0.937500
vt 0.009375 0.950000
vt 0.009375 0.937500
vt 0.018750 0.987500
vt 0.009375 1.000000
vt 0.009375 0.987500
vt 0.053125 0.984375
vt 0.012500 0.984375
vt 0.018750 0.971875
vt 0.062500 0.984375
vt 0.018750 0.950000
vt 0.018750 1.000000
vn 0.0000 0.0000 -1.0000
vn 0.2419 0.9703 0.0000
vn 0.0000 0.0000 1.0000
vn -0.2419 -0.9703 0.0000
vn -0.9703 0.2419 0.0000
vn 0.9703 -0.2419 0.0000
usemtl m_ce8b17ab-b566-c445-a077-37938f0c081b.025
s 1
f 26/73/21 28/74/21 25/75/21
f 25/76/22 30/77/22 29/78/22
f 31/79/23 30/80/23 32/81/23
f 31/82/24 27/83/24 26/84/24
f 30/85/25 27/86/25 32/87/25
f 25/88/26 31/89/26 26/90/26
f 26/73/21 27/91/21 28/74/21
f 25/76/22 28/92/22 30/77/22
f 31/79/23 29/93/23 30/80/23
f 31/82/24 32/94/24 27/83/24
f 30/85/25 28/95/25 27/86/25
f 25/88/26 29/96/26 31/89/26
o kolecko_plne.037
v -3.796197 -0.414708 0.187500
v -3.792931 -0.445786 0.187500
v -3.824009 -0.449053 0.187500
v -3.827276 -0.417974 0.187500
v -3.796197 -0.414708 0.212500
v -3.827276 -0.417974 0.212500
v -3.792931 -0.445786 0.212500
v -3.824009 -0.449053 0.212500
vt 0.037500 0.968750
vt 0.053125 0.984375
vt 0.037500 0.984375
vt 0.012500 0.968750
vt 0.000000 0.984375
vt 0.000000 0.968750
vt 0.025000 0.968750
vt 0.009375 0.984375
vt 0.009375 0.968750
vt 0.062500 0.968750
vt 0.050000 0.984375
vt 0.050000 0.968750
vt 0.025000 0.937500
vt 0.009375 0.950000
vt 0.009375 0.937500
vt 0.025000 0.987500
vt 0.009375 1.000000
vt 0.009375 0.987500
vt 0.053125 0.968750
vt 0.012500 0.984375
vt 0.025000 0.984375
vt 0.062500 0.984375
vt 0.025000 0.950000
vt 0.025000 1.000000
vn 0.0000 0.0000 -1.0000
vn -0.1045 0.9945 0.0000
vn -0.0000 0.0000 1.0000
vn 0.1045 -0.9945 0.0000
vn -0.9945 -0.1045 0.0000
vn 0.9945 0.1045 0.0000
usemtl m_ce8b17ab-b566-c445-a077-37938f0c081b.025
s 1
f 33/97/27 35/98/27 36/99/27
f 33/100/28 38/101/28 37/102/28
f 37/103/29 40/104/29 39/105/29
f 39/106/30 35/107/30 34/108/30
f 38/109/31 35/110/31 40/111/31
f 33/112/32 39/113/32 34/114/32
f 33/97/27 34/115/27 35/98/27
f 33/100/28 36/116/28 38/101/28
f 37/103/29 38/117/29 40/104/29
f 39/106/30 40/118/30 35/107/30
f 38/109/31 36/119/31 35/110/31
f 33/112/32 37/120/32 39/113/32
o kolecko_plne.038
v -3.839708 -0.419281 0.187500
v -3.836441 -0.450359 0.187500
v -3.867520 -0.453626 0.187500
v -3.870786 -0.422547 0.187500
v -3.839708 -0.419281 0.212500
v -3.870786 -0.422547 0.212500
v -3.836441 -0.450359 0.212500
v -3.867520 -0.453626 0.212500
vt 0.037500 0.968750
vt 0.053125 0.984375
vt 0.037500 0.984375
vt 0.012500 0.968750
vt 0.000000 0.984375
vt 0.000000 0.968750
vt 0.025000 0.968750
vt 0.009375 0.984375
vt 0.009375 0.968750
vt 0.062500 0.968750
vt 0.050000 0.984375
vt 0.050000 0.968750
vt 0.025000 0.937500
vt 0.009375 0.950000
vt 0.009375 0.937500
vt 0.025000 0.987500
vt 0.009375 1.000000
vt 0.009375 0.987500
vt 0.053125 0.968750
vt 0.012500 0.984375
vt 0.025000 0.984375
vt 0.062500 0.984375
vt 0.025000 0.950000
vt 0.025000 1.000000
vn 0.0000 0.0000 -1.0000
vn -0.1045 0.9945 0.0000
vn -0.0000 0.0000 1.0000
vn 0.1045 -0.9945 0.0000
vn -0.9945 -0.1045 0.0000
vn 0.9945 0.1045 0.0000
usemtl m_ce8b17ab-b566-c445-a077-37938f0c081b.025
s 1
f 41/121/33 43/122/33 44/123/33
f 41/124/34 46/125/34 45/126/34
f 45/127/35 48/128/35 47/129/35
f 47/130/36 43/131/36 42/132/36
f 46/133/37 43/134/37 48/135/37
f 41/136/38 47/137/38 42/138/38
f 41/121/33 42/139/33 43/122/33
f 41/124/34 44/140/34 46/125/34
f 45/127/35 46/141/35 48/128/35
f 47/130/36 48/142/36 43/131/36
f 46/133/37 44/143/37 43/134/37
f 41/136/38 45/144/38 47/137/38
