# Blender v3.0.0 OBJ File: ''
# www.blender.org
mtllib 28.mtl
o cara.028
v -3.661032 0.105958 0.187500
v -3.661687 0.087219 0.187500
v -3.699164 0.088528 0.187500
v -3.698509 0.107266 0.187500
v -3.661032 0.105958 0.212500
v -3.698509 0.107266 0.212500
v -3.661687 0.087219 0.212500
v -3.699164 0.088528 0.212500
vt 0.043750 0.975000
vt 0.053125 0.993750
vt 0.043750 0.993750
vt 0.012500 0.975000
vt 0.000000 0.993750
vt 0.000000 0.975000
vt 0.018750 0.975000
vt 0.009375 0.993750
vt 0.009375 0.975000
vt 0.062500 0.975000
vt 0.050000 0.993750
vt 0.050000 0.975000
vt 0.018750 0.937500
vt 0.009375 0.950000
vt 0.009375 0.937500
vt 0.018750 0.987500
vt 0.009375 1.000000
vt 0.009375 0.987500
vt 0.053125 0.975000
vt 0.012500 0.993750
vt 0.018750 0.993750
vt 0.062500 0.993750
vt 0.018750 0.950000
vt 0.018750 1.000000
vn -0.0000 0.0000 -1.0000
vn 0.0349 0.9994 0.0000
vn 0.0000 0.0000 1.0000
vn -0.0349 -0.9994 0.0000
vn -0.9994 0.0349 0.0000
vn 0.9994 -0.0349 -0.0000
usemtl m_ce8b17ab-b566-c445-a077-37938f0c081b.026
s 1
f 1/1/1 3/2/1 4/3/1
f 1/4/2 6/5/2 5/6/2
f 5/7/3 8/8/3 7/9/3
f 7/10/4 3/11/4 2/12/4
f 6/13/5 3/14/5 8/15/5
f 1/16/6 7/17/6 2/18/6
f 1/1/1 2/19/1 3/2/1
f 1/4/2 4/20/2 6/5/2
f 5/7/3 6/21/3 8/8/3
f 7/10/4 8/22/4 3/11/4
f 6/13/5 4/23/5 3/14/5
f 1/16/6 5/24/6 7/17/6
o kolecko_plne.039
v -3.717030 0.114167 0.187500
v -3.718121 0.082936 0.187500
v -3.749352 0.084027 0.187500
v -3.748261 0.115258 0.187500
v -3.717030 0.114167 0.212500
v -3.748261 0.115258 0.212500
v -3.718121 0.082936 0.212500
v -3.749352 0.084027 0.212500
vt 0.037500 0.968750
vt 0.053125 0.984375
vt 0.037500 0.984375
vt 0.012500 0.968750
vt 0.000000 0.984375
vt 0.000000 0.968750
vt 0.025000 0.968750
vt 0.009375 0.984375
vt 0.009375 0.968750
vt 0.062500 0.968750
vt 0.050000 0.984375
vt 0.050000 0.968750
vt 0.025000 0.937500
vt 0.009375 0.950000
vt 0.009375 0.937500
vt 0.025000 0.987500
vt 0.009375 1.000000
vt 0.009375 0.987500
vt 0.053125 0.968750
vt 0.012500 0.984375
vt 0.025000 0.984375
vt 0.062500 0.984375
vt 0.025000 0.950000
vt 0.025000 1.000000
vn -0.0000 0.0000 -1.0000
vn 0.0349 0.9994 0.0000
vn -0.0000 0.0000 1.0000
vn -0.0349 -0.9994 0.0000
vn -0.9994 0.0349 0.0000
vn 0.9994 -0.0349 -0.0000
usemtl m_ce8b17ab-b566-c445-a077-37938f0c081b.026
s 1
f 9/25/7 11/26/7 12/27/7
f 9/28/8 14/29/8 13/30/8
f 13/31/9 16/32/9 15/33/9
f 15/34/10 11/35/10 10/36/10
f 14/37/11 11/38/11 16/39/11
f 9/40/12 15/41/12 10/42/12
f 9/25/7 10/43/7 11/26/7
f 9/28/8 12/44/8 14/29/8
f 13/31/9 14/45/9 16/32/9
f 15/34/10 16/46/10 11/35/10
f 14/37/11 12/47/11 11/38/11
f 9/40/12 13/48/12 15/41/12
o cube.101
v -3.767218 0.109666 0.187500
v -3.767872 0.090927 0.187500
v -3.780364 0.091363 0.187500
v -3.779710 0.110102 0.187500
v -3.767218 0.109666 0.212500
v -3.779710 0.110102 0.212500
v -3.767872 0.090927 0.212500
v -3.780364 0.091363 0.212500
vt 0.040625 0.981250
vt 0.050000 0.987500
vt 0.040625 0.987500
vt 0.012500 0.981250
vt 0.000000 0.987500
vt 0.000000 0.981250
vt 0.021875 0.981250
vt 0.012500 0.987500
vt 0.012500 0.981250
vt 0.062500 0.981250
vt 0.050000 0.981250
vt 0.021875 0.937500
vt 0.012500 0.950000
vt 0.012500 0.937500
vt 0.021875 0.987500
vt 0.012500 1.000000
vt 0.012500 0.987500
vt 0.012500 0.987500
vt 0.021875 0.987500
vt 0.062500 0.987500
vt 0.021875 0.950000
vt 0.021875 1.000000
vn -0.0000 0.0000 -1.0000
vn 0.0349 0.9994 0.0000
vn 0.0000 0.0000 1.0000
vn -0.0349 -0.9994 -0.0000
vn -0.9994 0.0349 0.0000
vn 0.9994 -0.0349 0.0000
usemtl m_ce8b17ab-b566-c445-a077-37938f0c081b.026
s 1
f 17/49/13 19/50/13 20/51/13
f 17/52/14 22/53/14 21/54/14
f 21/55/15 24/56/15 23/57/15
f 23/58/16 19/50/16 18/59/16
f 22/60/17 19/61/17 24/62/17
f 17/63/18 23/64/18 18/65/18
f 17/49/13 18/59/13 19/50/13
f 17/52/14 20/66/14 22/53/14
f 21/55/15 22/67/15 24/56/15
f 23/58/16 24/68/16 19/50/16
f 22/60/17 20/69/17 19/61/17
f 17/63/18 21/70/18 23/64/18
o cube.102
v -3.798449 0.110756 0.187500
v -3.799103 0.092018 0.187500
v -3.811595 0.092454 0.187500
v -3.810941 0.111193 0.187500
v -3.798449 0.110756 0.212500
v -3.810941 0.111193 0.212500
v -3.799103 0.092018 0.212500
v -3.811595 0.092454 0.212500
vt 0.040625 0.981250
vt 0.050000 0.987500
vt 0.040625 0.987500
vt 0.012500 0.981250
vt 0.000000 0.987500
vt 0.000000 0.981250
vt 0.021875 0.981250
vt 0.012500 0.987500
vt 0.012500 0.981250
vt 0.062500 0.981250
vt 0.050000 0.981250
vt 0.021875 0.937500
vt 0.012500 0.950000
vt 0.012500 0.937500
vt 0.021875 0.987500
vt 0.012500 1.000000
vt 0.012500 0.987500
vt 0.012500 0.987500
vt 0.021875 0.987500
vt 0.062500 0.987500
vt 0.021875 0.950000
vt 0.021875 1.000000
vn -0.0000 0.0000 -1.0000
vn 0.0349 0.9994 0.0000
vn 0.0000 0.0000 1.0000
vn -0.0349 -0.9994 0.0000
vn -0.9994 0.0349 0.0000
vn 0.9994 -0.0349 -0.0000
usemtl m_ce8b17ab-b566-c445-a077-37938f0c081b.026
s 1
f 25/71/19 27/72/19 28/73/19
f 25/74/20 30/75/20 29/76/20
f 29/77/21 32/78/21 31/79/21
f 31/80/22 27/72/22 26/81/22
f 30/82/23 27/83/23 32/84/23
f 25/85/24 31/86/24 26/87/24
f 25/71/19 26/81/19 27/72/19
f 25/74/20 28/88/20 30/75/20
f 29/77/21 30/89/21 32/78/21
f 31/80/22 32/90/22 27/72/22
f 30/82/23 28/91/23 27/83/23
f 25/85/24 29/92/24 31/86/24
o cube.103
v -3.767872 0.090927 0.187500
v -3.768308 0.078435 0.187500
v -3.812032 0.079962 0.187500
v -3.811595 0.092454 0.187500
v -3.767872 0.090927 0.212500
v -3.811595 0.092454 0.212500
v -3.768308 0.078435 0.212500
v -3.812032 0.079962 0.212500
vt 0.056250 0.965625
vt 0.050000 0.987500
vt 0.050000 0.965625
vt 0.012500 0.965625
vt 0.000000 0.987500
vt 0.000000 0.965625
vt 0.006250 0.965625
vt 0.012500 0.987500
vt 0.006250 0.987500
vt 0.062500 0.965625
vt 0.050000 0.987500
vt 0.050000 0.965625
vt 0.012500 0.937500
vt 0.006250 0.950000
vt 0.006250 0.937500
vt 0.012500 0.987500
vt 0.006250 1.000000
vt 0.006250 0.987500
vt 0.056250 0.987500
vt 0.012500 0.987500
vt 0.012500 0.965625
vt 0.062500 0.987500
vt 0.012500 0.950000
vt 0.012500 1.000000
vn 0.0000 0.0000 -1.0000
vn 0.0349 0.9994 0.0000
vn -0.0000 0.0000 1.0000
vn -0.0349 -0.9994 -0.0000
vn -0.9994 0.0349 0.0000
vn 0.9994 -0.0349 -0.0000
usemtl m_ce8b17ab-b566-c445-a077-37938f0c081b.026
s 1
f 34/93/25 36/94/25 33/95/25
f 33/96/26 38/97/26 37/98/26
f 39/99/27 38/100/27 40/101/27
f 39/102/28 35/103/28 34/104/28
f 38/105/29 35/106/29 40/107/29
f 33/108/30 39/109/30 34/110/30
f 34/93/25 35/111/25 36/94/25
f 33/96/26 36/112/26 38/97/26
f 39/99/27 37/113/27 38/100/27
f 39/102/28 40/114/28 35/103/28
f 38/105/29 36/115/29 35/106/29
f 33/108/30 37/116/30 39/109/30
o cube.104
v -3.766781 0.122158 0.187500
v -3.767218 0.109666 0.187500
v -3.810941 0.111193 0.187500
v -3.810505 0.123685 0.187500
v -3.766781 0.122158 0.212500
v -3.810505 0.123685 0.212500
v -3.767218 0.109666 0.212500
v -3.810941 0.111193 0.212500
vt 0.040625 0.965625
vt 0.034375 0.987500
vt 0.034375 0.965625
vt 0.012500 0.965625
vt 0.000000 0.987500
vt 0.000000 0.965625
vt 0.021875 0.965625
vt 0.028125 0.987500
vt 0.021875 0.987500
vt 0.062500 0.965625
vt 0.050000 0.987500
vt 0.050000 0.965625
vt 0.028125 0.937500
vt 0.021875 0.950000
vt 0.021875 0.937500
vt 0.028125 0.987500
vt 0.021875 1.000000
vt 0.021875 0.987500
vt 0.040625 0.987500
vt 0.012500 0.987500
vt 0.028125 0.965625
vt 0.062500 0.987500
vt 0.028125 0.950000
vt 0.028125 1.000000
vn 0.0000 0.0000 -1.0000
vn 0.0349 0.9994 0.0000
vn -0.0000 0.0000 1.0000
vn -0.0349 -0.9994 0.0000
vn -0.9994 0.0349 0.0000
vn 0.9994 -0.0349 -0.0000
usemtl m_ce8b17ab-b566-c445-a077-37938f0c081b.026
s 1
f 42/117/31 44/118/31 41/119/31
f 41/120/32 46/121/32 45/122/32
f 47/123/33 46/124/33 48/125/33
f 47/126/34 43/127/34 42/128/34
f 46/129/35 43/130/35 48/131/35
f 41/132/36 47/133/36 42/134/36
f 42/117/31 43/135/31 44/118/31
f 41/120/32 44/136/32 46/121/32
f 47/123/33 45/137/33 46/124/33
f 47/126/34 48/138/34 43/127/34
f 46/129/35 44/139/35 43/130/35
f 41/132/36 45/140/36 47/133/36
o kolecko_plne.040
v -3.823215 0.117875 0.187500
v -3.824306 0.086644 0.187500
v -3.855537 0.087735 0.187500
v -3.854446 0.118966 0.187500
v -3.823215 0.117875 0.212500
v -3.854446 0.118966 0.212500
v -3.824306 0.086644 0.212500
v -3.855537 0.087735 0.212500
vt 0.037500 0.968750
vt 0.053125 0.984375
vt 0.037500 0.984375
vt 0.012500 0.968750
vt 0.000000 0.984375
vt 0.000000 0.968750
vt 0.025000 0.968750
vt 0.009375 0.984375
vt 0.009375 0.968750
vt 0.062500 0.968750
vt 0.050000 0.984375
vt 0.050000 0.968750
vt 0.025000 0.937500
vt 0.009375 0.950000
vt 0.009375 0.937500
vt 0.025000 0.987500
vt 0.009375 1.000000
vt 0.009375 0.987500
vt 0.053125 0.968750
vt 0.012500 0.984375
vt 0.025000 0.984375
vt 0.062500 0.984375
vt 0.025000 0.950000
vt 0.025000 1.000000
vn -0.0000 0.0000 -1.0000
vn 0.0349 0.9994 0.0000
vn -0.0000 0.0000 1.0000
vn -0.0349 -0.9994 -0.0000
vn -0.9994 0.0349 0.0000
vn 0.9994 -0.0349 0.0000
usemtl m_ce8b17ab-b566-c445-a077-37938f0c081b.026
s 1
f 49/141/37 51/142/37 52/143/37
f 49/144/38 54/145/38 53/146/38
f 53/147/39 56/148/39 55/149/39
f 55/150/40 51/151/40 50/152/40
f 54/153/41 51/154/41 56/155/41
f 49/156/42 55/157/42 50/158/42
f 49/141/37 50/159/37 51/142/37
f 49/144/38 52/160/38 54/145/38
f 53/147/39 54/161/39 56/148/39
f 55/150/40 56/162/40 51/151/40
f 54/153/41 52/163/41 51/154/41
f 49/156/42 53/164/42 55/157/42
o cara.029
v -3.873403 0.113374 0.187500
v -3.874057 0.094635 0.187500
v -3.911534 0.095944 0.187500
v -3.910880 0.114683 0.187500
v -3.873403 0.113374 0.212500
v -3.910880 0.114683 0.212500
v -3.874057 0.094635 0.212500
v -3.911534 0.095944 0.212500
vt 0.043750 0.975000
vt 0.053125 0.993750
vt 0.043750 0.993750
vt 0.012500 0.975000
vt 0.000000 0.993750
vt 0.000000 0.975000
vt 0.018750 0.975000
vt 0.009375 0.993750
vt 0.009375 0.975000
vt 0.062500 0.975000
vt 0.050000 0.993750
vt 0.050000 0.975000
vt 0.018750 0.937500
vt 0.009375 0.950000
vt 0.009375 0.937500
vt 0.018750 0.987500
vt 0.009375 1.000000
vt 0.009375 0.987500
vt 0.053125 0.975000
vt 0.012500 0.993750
vt 0.018750 0.993750
vt 0.062500 0.993750
vt 0.018750 0.950000
vt 0.018750 1.000000
vn -0.0000 0.0000 -1.0000
vn 0.0349 0.9994 0.0000
vn 0.0000 0.0000 1.0000
vn -0.0349 -0.9994 0.0000
vn -0.9994 0.0349 0.0000
vn 0.9994 -0.0349 -0.0000
usemtl m_ce8b17ab-b566-c445-a077-37938f0c081b.026
s 1
f 57/165/43 59/166/43 60/167/43
f 57/168/44 62/169/44 61/170/44
f 61/171/45 64/172/45 63/173/45
f 63/174/46 59/175/46 58/176/46
f 62/177/47 59/178/47 64/179/47
f 57/180/48 63/181/48 58/182/48
f 57/165/43 58/183/43 59/166/43
f 57/168/44 60/184/44 62/169/44
f 61/171/45 62/185/45 64/172/45
f 63/174/46 64/186/46 59/175/46
f 62/177/47 60/187/47 59/178/47
f 57/180/48 61/188/48 63/181/48
