# Blender v3.0.0 OBJ File: ''
# www.blender.org
mtllib 34.mtl
o cube.109
v -1.502696 3.367428 0.187501
v -1.514116 3.362344 0.187501
v -1.531910 3.402311 0.187501
v -1.520491 3.407395 0.187501
v -1.502696 3.367428 0.212501
v -1.520491 3.407395 0.212501
v -1.514116 3.362344 0.212501
v -1.531910 3.402311 0.212501
vt 0.040625 0.965625
vt 0.034375 0.987500
vt 0.034375 0.965625
vt 0.012500 0.965625
vt 0.000000 0.987500
vt 0.000000 0.965625
vt 0.021875 0.965625
vt 0.028125 0.987500
vt 0.021875 0.987500
vt 0.062500 0.965625
vt 0.050000 0.987500
vt 0.050000 0.965625
vt 0.028125 0.937500
vt 0.021875 0.950000
vt 0.021875 0.937500
vt 0.028125 0.987500
vt 0.021875 1.000000
vt 0.021875 0.987500
vt 0.040625 0.987500
vt 0.012500 0.987500
vt 0.028125 0.965625
vt 0.062500 0.987500
vt 0.028125 0.950000
vt 0.028125 1.000000
vn -0.0000 0.0000 -1.0000
vn 0.9135 0.4067 0.0000
vn 0.0000 0.0000 1.0000
vn -0.9135 -0.4067 0.0000
vn -0.4067 0.9136 0.0000
vn 0.4067 -0.9135 0.0000
usemtl m_ce8b17ab-b566-c445-a077-37938f0c081b.032
s 1
f 2/1/1 4/2/1 1/3/1
f 1/4/2 6/5/2 5/6/2
f 7/7/3 6/8/3 8/9/3
f 7/10/4 3/11/4 2/12/4
f 6/13/5 3/14/5 8/15/5
f 1/16/6 7/17/6 2/18/6
f 2/1/1 3/19/1 4/2/1
f 1/4/2 4/20/2 6/5/2
f 7/7/3 5/21/3 6/8/3
f 7/10/4 8/22/4 3/11/4
f 6/13/5 4/23/5 3/14/5
f 1/16/6 5/24/6 7/17/6
o cube.110
v -1.514116 3.362344 0.187501
v -1.531245 3.354717 0.187501
v -1.536329 3.366137 0.187501
v -1.519200 3.373763 0.187501
v -1.514116 3.362344 0.212501
v -1.519200 3.373763 0.212501
v -1.531245 3.354717 0.212501
v -1.536329 3.366137 0.212501
vt 0.040625 0.981250
vt 0.050000 0.987500
vt 0.040625 0.987500
vt 0.012500 0.981250
vt 0.000000 0.987500
vt 0.000000 0.981250
vt 0.021875 0.981250
vt 0.012500 0.987500
vt 0.012500 0.981250
vt 0.062500 0.981250
vt 0.050000 0.981250
vt 0.021875 0.937500
vt 0.012500 0.950000
vt 0.012500 0.937500
vt 0.021875 0.987500
vt 0.012500 1.000000
vt 0.012500 0.987500
vt 0.012500 0.987500
vt 0.021875 0.987500
vt 0.062500 0.987500
vt 0.021875 0.950000
vt 0.021875 1.000000
vn 0.0000 0.0000 -1.0000
vn 0.9135 0.4067 0.0000
vn 0.9136 0.4067 0.0000
vn 0.0000 0.0000 1.0000
vn -0.9135 -0.4067 0.0000
vn -0.4067 0.9135 0.0000
vn 0.4067 -0.9135 0.0000
usemtl m_ce8b17ab-b566-c445-a077-37938f0c081b.032
s 1
f 9/25/7 11/26/7 12/27/7
f 9/28/8 14/29/8 13/30/9
f 13/31/10 16/32/10 15/33/10
f 15/34/11 11/26/11 10/35/11
f 14/36/12 11/37/12 16/38/12
f 9/39/13 15/40/13 10/41/13
f 9/25/7 10/35/7 11/26/7
f 9/28/8 12/42/8 14/29/8
f 13/31/10 14/43/10 16/32/10
f 15/34/11 16/44/11 11/26/11
f 14/36/12 12/45/12 11/37/12
f 9/39/13 13/46/13 15/40/13
o cube.111
v -1.526826 3.390892 0.187501
v -1.543955 3.383265 0.187501
v -1.549039 3.394685 0.187501
v -1.531910 3.402311 0.187501
v -1.526826 3.390892 0.212501
v -1.531910 3.402311 0.212501
v -1.543955 3.383265 0.212501
v -1.549039 3.394685 0.212501
vt 0.040625 0.981250
vt 0.050000 0.987500
vt 0.040625 0.987500
vt 0.012500 0.981250
vt 0.000000 0.987500
vt 0.000000 0.981250
vt 0.021875 0.981250
vt 0.012500 0.987500
vt 0.012500 0.981250
vt 0.062500 0.981250
vt 0.050000 0.981250
vt 0.021875 0.937500
vt 0.012500 0.950000
vt 0.012500 0.937500
vt 0.021875 0.987500
vt 0.012500 1.000000
vt 0.012500 0.987500
vt 0.012500 0.987500
vt 0.021875 0.987500
vt 0.062500 0.987500
vt 0.021875 0.950000
vt 0.021875 1.000000
vn 0.0000 0.0000 -1.0000
vn 0.9135 0.4067 0.0000
vn 0.0000 0.0000 1.0000
vn -0.9135 -0.4067 0.0000
vn -0.4067 0.9135 0.0000
vn 0.4067 -0.9135 0.0000
usemtl m_ce8b17ab-b566-c445-a077-37938f0c081b.032
s 1
f 17/47/14 19/48/14 20/49/14
f 17/50/15 22/51/15 21/52/15
f 21/53/16 24/54/16 23/55/16
f 23/56/17 19/48/17 18/57/17
f 22/58/18 19/59/18 24/60/18
f 17/61/19 23/62/19 18/63/19
f 17/47/14 18/57/14 19/48/14
f 17/50/15 20/64/15 22/51/15
f 21/53/16 22/65/16 24/54/16
f 23/56/17 24/66/17 19/48/17
f 22/58/18 20/67/18 19/59/18
f 17/61/19 21/68/19 23/62/19
o cube.112
v -1.531245 3.354717 0.187501
v -1.542664 3.349633 0.187501
v -1.560459 3.389601 0.187501
v -1.549039 3.394685 0.187501
v -1.531245 3.354717 0.212501
v -1.549039 3.394685 0.212501
v -1.542664 3.349633 0.212501
v -1.560459 3.389601 0.212501
vt 0.050000 0.965625
vt 0.056250 0.987500
vt 0.050000 0.987500
vt 0.012500 0.965625
vt 0.000000 0.987500
vt 0.000000 0.965625
vt 0.012500 0.965625
vt 0.006250 0.987500
vt 0.006250 0.965625
vt 0.062500 0.965625
vt 0.050000 0.987500
vt 0.050000 0.965625
vt 0.012500 0.937500
vt 0.006250 0.950000
vt 0.006250 0.937500
vt 0.012500 0.987500
vt 0.006250 1.000000
vt 0.006250 0.987500
vt 0.056250 0.965625
vt 0.012500 0.987500
vt 0.012500 0.987500
vt 0.062500 0.987500
vt 0.012500 0.950000
vt 0.012500 1.000000
vn 0.0000 0.0000 -1.0000
vn 0.9135 0.4067 0.0000
vn 0.0000 0.0000 1.0000
vn -0.9135 -0.4067 0.0000
vn -0.4067 0.9135 0.0000
vn 0.4067 -0.9135 0.0000
usemtl m_ce8b17ab-b566-c445-a077-37938f0c081b.032
s 1
f 25/69/20 27/70/20 28/71/20
f 25/72/21 30/73/21 29/74/21
f 29/75/22 32/76/22 31/77/22
f 31/78/23 27/79/23 26/80/23
f 30/81/24 27/82/24 32/83/24
f 25/84/25 31/85/25 26/86/25
f 25/69/20 26/87/20 27/70/20
f 25/72/21 28/88/21 30/73/21
f 29/75/22 30/89/22 32/76/22
f 31/78/23 32/90/23 27/79/23
f 30/81/24 28/91/24 27/82/24
f 25/84/25 29/92/25 31/85/25
o cara.040
v -1.539537 3.419440 0.187501
v -1.556666 3.411814 0.187501
v -1.587171 3.480330 0.187501
v -1.570042 3.487956 0.187501
v -1.539537 3.419440 0.212501
v -1.570042 3.487956 0.212501
v -1.556666 3.411814 0.212501
v -1.587171 3.480330 0.212501
vt 0.053125 0.956250
vt 0.043750 0.993750
vt 0.043750 0.956250
vt 0.012500 0.956250
vt 0.000000 0.993750
vt 0.000000 0.956250
vt 0.009375 0.956250
vt 0.018750 0.993750
vt 0.009375 0.993750
vt 0.062500 0.956250
vt 0.050000 0.993750
vt 0.050000 0.956250
vt 0.018750 0.937500
vt 0.009375 0.950000
vt 0.009375 0.937500
vt 0.018750 0.987500
vt 0.009375 1.000000
vt 0.009375 0.987500
vt 0.053125 0.993750
vt 0.012500 0.993750
vt 0.018750 0.956250
vt 0.062500 0.993750
vt 0.018750 0.950000
vt 0.018750 1.000000
vn -0.0000 0.0000 -1.0000
vn 0.9135 0.4067 0.0000
vn 0.0000 -0.0000 1.0000
vn -0.9135 -0.4067 0.0000
vn -0.4067 0.9135 0.0000
vn 0.4067 -0.9135 0.0000
usemtl m_ce8b17ab-b566-c445-a077-37938f0c081b.032
s 1
f 34/93/26 36/94/26 33/95/26
f 33/96/27 38/97/27 37/98/27
f 39/99/28 38/100/28 40/101/28
f 39/102/29 35/103/29 34/104/29
f 38/105/30 35/106/30 40/107/30
f 33/108/31 39/109/31 34/110/31
f 34/93/26 35/111/26 36/94/26
f 33/96/27 36/112/27 38/97/27
f 39/99/28 37/113/28 38/100/28
f 39/102/29 40/114/29 35/103/29
f 38/105/30 36/115/30 35/106/30
f 33/108/31 37/116/31 39/109/31
o cube.113
v -1.594797 3.497459 0.187501
v -1.606216 3.492375 0.187501
v -1.624011 3.532342 0.187501
v -1.612592 3.537426 0.187501
v -1.594797 3.497459 0.212501
v -1.612592 3.537426 0.212501
v -1.606216 3.492375 0.212501
v -1.624011 3.532342 0.212501
vt 0.056250 0.965625
vt 0.050000 0.987500
vt 0.050000 0.965625
vt 0.012500 0.965625
vt 0.000000 0.987500
vt 0.000000 0.965625
vt 0.006250 0.965625
vt 0.012500 0.987500
vt 0.006250 0.987500
vt 0.062500 0.965625
vt 0.050000 0.987500
vt 0.050000 0.965625
vt 0.012500 0.937500
vt 0.006250 0.950000
vt 0.006250 0.937500
vt 0.012500 0.987500
vt 0.006250 1.000000
vt 0.006250 0.987500
vt 0.056250 0.987500
vt 0.012500 0.987500
vt 0.012500 0.965625
vt 0.062500 0.987500
vt 0.012500 0.950000
vt 0.012500 1.000000
vn 0.0000 0.0000 -1.0000
vn 0.9135 0.4067 0.0000
vn 0.0000 -0.0000 1.0000
vn -0.9135 -0.4067 0.0000
vn -0.4067 0.9135 0.0000
vn 0.4067 -0.9136 0.0000
usemtl m_ce8b17ab-b566-c445-a077-37938f0c081b.032
s 1
f 42/117/32 44/118/32 41/119/32
f 41/120/33 46/121/33 45/122/33
f 47/123/34 46/124/34 48/125/34
f 47/126/35 43/127/35 42/128/35
f 46/129/36 43/130/36 48/131/36
f 41/132/37 47/133/37 42/134/37
f 42/117/32 43/135/32 44/118/32
f 41/120/33 44/136/33 46/121/33
f 47/123/34 45/137/34 46/124/34
f 47/126/35 48/138/35 43/127/35
f 46/129/36 44/139/36 43/130/36
f 41/132/37 45/140/37 47/133/37
o cube.114
v -1.590379 3.533633 0.187501
v -1.607508 3.526007 0.187501
v -1.612592 3.537426 0.187501
v -1.595463 3.545053 0.187501
v -1.590379 3.533633 0.212501
v -1.595463 3.545053 0.212501
v -1.607508 3.526007 0.212501
v -1.612592 3.537426 0.212501
vt 0.050000 0.981250
vt 0.040625 0.987500
vt 0.040625 0.981250
vt 0.012500 0.981250
vt 0.000000 0.987500
vt 0.000000 0.981250
vt 0.012500 0.981250
vt 0.021875 0.987500
vt 0.012500 0.987500
vt 0.062500 0.981250
vt 0.050000 0.987500
vt 0.021875 0.937500
vt 0.012500 0.950000
vt 0.012500 0.937500
vt 0.021875 0.987500
vt 0.012500 1.000000
vt 0.012500 0.987500
vt 0.012500 0.987500
vt 0.021875 0.981250
vt 0.062500 0.987500
vt 0.021875 0.950000
vt 0.021875 1.000000
vn 0.0000 0.0000 -1.0000
vn 0.9135 0.4067 0.0000
vn 0.0000 0.0000 1.0000
vn -0.9135 -0.4067 0.0000
vn -0.4067 0.9135 0.0000
vn 0.4067 -0.9135 0.0000
vn 0.9136 0.4067 0.0000
usemtl m_ce8b17ab-b566-c445-a077-37938f0c081b.032
s 1
f 50/141/38 52/142/38 49/143/38
f 49/144/39 54/145/39 53/146/39
f 55/147/40 54/148/40 56/149/40
f 55/150/41 51/151/41 50/141/41
f 54/152/42 51/153/42 56/154/42
f 49/155/43 55/156/43 50/157/43
f 50/141/38 51/151/38 52/142/38
f 49/144/39 52/158/44 54/145/39
f 55/147/40 53/159/40 54/148/40
f 55/150/41 56/160/41 51/151/41
f 54/152/42 52/161/42 51/153/42
f 49/155/43 53/162/43 55/156/43
o cube.115
v -1.577668 3.505085 0.187501
v -1.594797 3.497459 0.187501
v -1.599881 3.508878 0.187501
v -1.582752 3.516505 0.187501
v -1.577668 3.505085 0.212501
v -1.582752 3.516505 0.212501
v -1.594797 3.497459 0.212501
v -1.599881 3.508878 0.212501
vt 0.040625 0.981250
vt 0.050000 0.987500
vt 0.040625 0.987500
vt 0.012500 0.981250
vt 0.000000 0.987500
vt 0.000000 0.981250
vt 0.021875 0.981250
vt 0.012500 0.987500
vt 0.012500 0.981250
vt 0.062500 0.981250
vt 0.050000 0.981250
vt 0.021875 0.937500
vt 0.012500 0.950000
vt 0.012500 0.937500
vt 0.021875 0.987500
vt 0.012500 1.000000
vt 0.012500 0.987500
vt 0.012500 0.987500
vt 0.021875 0.987500
vt 0.062500 0.987500
vt 0.021875 0.950000
vt 0.021875 1.000000
vn 0.0000 0.0000 -1.0000
vn 0.9135 0.4067 0.0000
vn 0.0000 0.0000 1.0000
vn -0.9135 -0.4067 0.0000
vn -0.9136 -0.4067 0.0000
vn -0.4067 0.9135 0.0000
vn 0.4067 -0.9135 0.0000
usemtl m_ce8b17ab-b566-c445-a077-37938f0c081b.032
s 1
f 57/163/45 59/164/45 60/165/45
f 57/166/46 62/167/46 61/168/46
f 61/169/47 64/170/47 63/171/47
f 63/172/48 59/164/48 58/173/49
f 62/174/50 59/175/50 64/176/50
f 57/177/51 63/178/51 58/179/51
f 57/163/45 58/173/45 59/164/45
f 57/166/46 60/180/46 62/167/46
f 61/169/47 62/181/47 64/170/47
f 63/172/48 64/182/48 59/164/48
f 62/174/50 60/183/50 59/175/50
f 57/177/51 61/184/51 63/178/51
o cube.116
v -1.566249 3.510169 0.187501
v -1.577668 3.505085 0.187501
v -1.595463 3.545053 0.187501
v -1.584044 3.550137 0.187501
v -1.566249 3.510169 0.212501
v -1.584044 3.550137 0.212501
v -1.577668 3.505085 0.212501
v -1.595463 3.545053 0.212501
vt 0.040625 0.965625
vt 0.034375 0.987500
vt 0.034375 0.965625
vt 0.012500 0.965625
vt 0.000000 0.987500
vt 0.000000 0.965625
vt 0.021875 0.965625
vt 0.028125 0.987500
vt 0.021875 0.987500
vt 0.062500 0.965625
vt 0.050000 0.987500
vt 0.050000 0.965625
vt 0.028125 0.937500
vt 0.021875 0.950000
vt 0.021875 0.937500
vt 0.028125 0.987500
vt 0.021875 1.000000
vt 0.021875 0.987500
vt 0.040625 0.987500
vt 0.012500 0.987500
vt 0.028125 0.965625
vt 0.062500 0.987500
vt 0.028125 0.950000
vt 0.028125 1.000000
vn 0.0000 0.0000 -1.0000
vn 0.9135 0.4067 0.0000
vn -0.0000 -0.0000 1.0000
vn -0.9135 -0.4067 0.0000
vn -0.4067 0.9135 0.0000
vn -0.4067 0.9136 0.0000
vn 0.4067 -0.9135 0.0000
usemtl m_ce8b17ab-b566-c445-a077-37938f0c081b.032
s 1
f 66/185/52 68/186/52 65/187/52
f 65/188/53 70/189/53 69/190/53
f 71/191/54 70/192/54 72/193/54
f 71/194/55 67/195/55 66/196/55
f 70/197/56 67/198/56 72/199/57
f 65/200/58 71/201/58 66/202/58
f 66/185/52 67/203/52 68/186/52
f 65/188/53 68/204/53 70/189/53
f 71/191/54 69/205/54 70/192/54
f 71/194/55 72/206/55 67/195/55
f 70/197/56 68/207/56 67/198/56
f 65/200/58 69/208/58 71/201/58
