# Made in Blockbench 5.1.4
mtllib stargate1.mtl

o abydos
v -0.114428 4.116609 0.159377
v 0.283649 3.948211 0.159377
v -0.291351 3.948211 0.159377
v -0.114428 4.339908 0.159377
v -0.291351 4.466961 0.159377
v -0.022601 4.454461 0.159377
v 0.283649 4.466961 0.184377
v 0.283649 3.948211 0.184377
v 0.168913 4.152722 0.184377
v 0.129138 4.112947 0.184377
v -0.291351 4.466961 0.184377
v -0.114428 4.339908 0.184377
v -0.022601 4.454461 0.184377
v -0.291351 3.948211 0.184377
v -0.154203 4.156383 0.159377
v -0.114428 4.116609 0.184377
v -0.055975 4.254611 0.159377
v -0.022601 4.287985 0.159377
v -0.041176 4.26941 0.184377
v 0.005524 4.236561 0.184377
v 0.005524 4.236561 0.159377
v 0.129138 4.112947 0.159377
v 0.168913 4.152722 0.159377
v 0.058131 4.263504 0.184377
v 0.033649 4.454461 0.184377
v 0.033649 4.287985 0.159377
v 0.033649 4.287985 0.184377
v -0.074653 4.300133 0.159377
v -0.114428 4.260358 0.159377
v -0.154203 4.300133 0.184377
v -0.114428 4.260358 0.184377
v -0.131546 4.32279 0.159377
v -0.089726 4.28506 0.159377
v -0.074653 4.300133 0.184377
v 0.129152 4.327578 0.184377
v 0.116822 4.339908 0.184377
v 0.117816 4.338914 0.159377
v 0.077047 4.300133 0.159377
v 0.077047 4.300133 0.184377
v 0.087332 4.289848 0.184377
v 0.116822 4.260358 0.159377
v 0.156597 4.300133 0.184377
v 0.156597 4.300133 0.159377
v -0.154203 4.300133 0.159377
v 0.283649 4.466961 0.159377
v 0.116822 4.339908 0.159377
v 0.033649 4.454461 0.159377
v -0.154203 4.156383 0.184377
v 0.116822 4.260358 0.184377
v -0.022601 4.287985 0.184377
vt 0.152885 0.530425
vt 0.103125 0.509375
vt 0.175 0.509375
vt 0.152885 0.558337
vt 0.175 0.574219
vt 0.141406 0.572656
vt 0.015625 0.509375
vt 0.0125 0.574219
vt 0.0125 0.509375
vt 0.096094 0.509375
vt 0.081752 0.534939
vt 0.07678 0.529967
vt 0.024219 0.574219
vt 0.046334 0.558337
vt 0.057813 0.572656
vt 0.182812 0.509375
vt 0.179688 0.574219
vt 0.179688 0.509375
vt 0.182031 0.559375
vt 0.110156 0.5625
vt 0.110156 0.559375
vt 0.174219 0.5625
vt 0.102344 0.565625
vt 0.102344 0.5625
vt 0.30507850000000003 0.48046900000000003
vt 0.30820349999999996 0.473437
vt 0.30507850000000003 0.473437
vt 0.268927 0.45273399999999997
vt 0.274827 0.45273399999999997
vt 0.271543 0.44960900000000004
vt 0.251563 0.43789100000000003
vt 0.272767 0.44101599999999996
vt 0.272767 0.43789100000000003
vt 0.31992149999999997 0.473437
vt 0.31679650000000004 0.48046900000000003
vt 0.31992149999999997 0.48046900000000003
vt 0.27734400000000003 0.45273399999999997
vt 0.27734400000000003 0.44960900000000004
vt 0.25776 0.44960900000000004
vt 0.27734400000000003 0.44101599999999996
vt 0.255492 0.43789100000000003
vt 0.255492 0.44101599999999996
vt 0.31992149999999997 0.48046900000000003
vt 0.31679650000000004 0.473437
vt 0.31679650000000004 0.48046900000000003
vt 0.27734400000000003 0.44960900000000004
vt 0.25653400000000004 0.45273399999999997
vt 0.27734400000000003 0.45273399999999997
vt 0.27734400000000003 0.44101599999999996
vt 0.25653400000000004 0.43789100000000003
vt 0.25653400000000004 0.44101599999999996
vt 0.31992149999999997 0.473437
vt 0.31679650000000004 0.48046900000000003
vt 0.31992149999999997 0.48046900000000003
vt 0.30507850000000003 0.473437
vt 0.30820349999999996 0.48046900000000003
vt 0.30820349999999996 0.473437
vt 0.255568 0.45273399999999997
vt 0.258594 0.45273399999999997
vt 0.258594 0.44960900000000004
vt 0.25592899999999996 0.43789100000000003
vt 0.251563 0.44101599999999996
vt 0.258594 0.44101599999999996
vt 0.31679650000000004 0.47828899999999996
vt 0.31679650000000004 0.48046900000000003
vt 0.31992149999999997 0.48029299999999997
vt 0.30507850000000003 0.48046900000000003
vt 0.30820349999999996 0.48046900000000003
vt 0.30820349999999996 0.47865100000000005
vt 0.251563 0.45273399999999997
vt 0.258594 0.44960900000000004
vt 0.251563 0.44960900000000004
vt 0.251563 0.43789100000000003
vt 0.258594 0.44101599999999996
vt 0.258594 0.43789100000000003
vt 0.149797 0.551481
vt 0.145578 0.547675
vt 0.152885 0.548393
vt 0.145578 0.547675
vt 0.157857 0.535397
vt 0.152885 0.548393
vt 0.152885 0.530425
vt 0.137891 0.545419
vt 0.122439 0.529967
vt 0.157857 0.553365
vt 0.152885 0.548393
vt 0.157857 0.535397
vt 0.175 0.574219
vt 0.155024 0.556197
vt 0.157857 0.553365
vt 0.119007 0.553365
vt 0.123854 0.558213
vt 0.103125 0.574219
vt 0.134375 0.551847
vt 0.12895 0.553365
vt 0.123978 0.548393
vt 0.119007 0.553365
vt 0.103125 0.574219
vt 0.117467 0.534939
vt 0.103125 0.574219
vt 0.103125 0.509375
vt 0.117467 0.534939
vt 0.117467 0.534939
vt 0.134375 0.551847
vt 0.123978 0.548393
vt 0.123978 0.548393
vt 0.119007 0.553365
vt 0.117467 0.534939
vt 0.175 0.509375
vt 0.175 0.574219
vt 0.157857 0.535397
vt 0.175 0.574219
vt 0.157857 0.553365
vt 0.157857 0.535397
vt 0.122439 0.529967
vt 0.117467 0.534939
vt 0.103125 0.509375
vt 0.175 0.509375
vt 0.157857 0.535397
vt 0.152885 0.530425
vt 0.152885 0.530425
vt 0.122439 0.529967
vt 0.103125 0.509375
vt 0.152885 0.558337
vt 0.155024 0.556197
vt 0.175 0.574219
vt 0.103125 0.574219
vt 0.123854 0.558213
vt 0.123978 0.558337
vt 0.123978 0.558337
vt 0.12895 0.553365
vt 0.134375 0.572656
vt 0.12895 0.553365
vt 0.134375 0.551847
vt 0.134375 0.572656
vt 0.145578 0.547675
vt 0.149797 0.551481
vt 0.147913 0.553365
vt 0.141406 0.572656
vt 0.141406 0.551847
vt 0.147913 0.553365
vt 0.141406 0.551847
vt 0.145578 0.547675
vt 0.147913 0.553365
vt 0.103125 0.574219
vt 0.123978 0.558337
vt 0.134375 0.572656
vt 0.103125 0.574219
vt 0.134375 0.572656
vt 0.141406 0.572656
vt 0.141406 0.572656
vt 0.147913 0.553365
vt 0.152885 0.558337
vt 0.175 0.574219
vt 0.103125 0.574219
vt 0.141406 0.572656
vt 0.015625 0.509375
vt 0.015625 0.574219
vt 0.0125 0.574219
vt 0.055491 0.549525
vt 0.051306 0.553365
vt 0.046334 0.548393
vt 0.041362 0.553365
vt 0.024219 0.574219
vt 0.041362 0.535396
vt 0.024219 0.574219
vt 0.024219 0.509375
vt 0.041362 0.535396
vt 0.041362 0.535396
vt 0.055491 0.549525
vt 0.046334 0.548393
vt 0.046334 0.548393
vt 0.041362 0.553365
vt 0.041362 0.535396
vt 0.096094 0.574219
vt 0.076782 0.556796
vt 0.080212 0.553365
vt 0.07524 0.548393
vt 0.071554 0.55208
vt 0.067904 0.548787
vt 0.096094 0.509375
vt 0.096094 0.574219
vt 0.081752 0.534939
vt 0.096094 0.574219
vt 0.080212 0.553365
vt 0.081752 0.534939
vt 0.07524 0.548393
vt 0.067904 0.548787
vt 0.081752 0.534939
vt 0.080212 0.553365
vt 0.07524 0.548393
vt 0.081752 0.534939
vt 0.07678 0.529967
vt 0.061328 0.545419
vt 0.046334 0.530425
vt 0.046334 0.530425
vt 0.041362 0.535396
vt 0.024219 0.509375
vt 0.07678 0.529967
vt 0.046334 0.530425
vt 0.096094 0.509375
vt 0.046334 0.530425
vt 0.024219 0.509375
vt 0.096094 0.509375
vt 0.064844 0.551847
vt 0.067904 0.548787
vt 0.070268 0.553365
vt 0.067904 0.548787
vt 0.071554 0.55208
vt 0.070268 0.553365
vt 0.064844 0.572656
vt 0.064844 0.551847
vt 0.070268 0.553365
vt 0.07524 0.558337
vt 0.076782 0.556796
vt 0.096094 0.574219
vt 0.064844 0.572656
vt 0.070268 0.553365
vt 0.07524 0.558337
vt 0.055491 0.549525
vt 0.057813 0.551847
vt 0.051306 0.553365
vt 0.057813 0.551847
vt 0.057813 0.572656
vt 0.051306 0.553365
vt 0.064844 0.572656
vt 0.07524 0.558337
vt 0.096094 0.574219
vt 0.057813 0.572656
vt 0.064844 0.572656
vt 0.096094 0.574219
vt 0.024219 0.574219
vt 0.041362 0.553365
vt 0.046334 0.558337
vt 0.046334 0.558337
vt 0.051306 0.553365
vt 0.057813 0.572656
vt 0.057813 0.572656
vt 0.096094 0.574219
vt 0.024219 0.574219
vt 0.182812 0.509375
vt 0.182812 0.574219
vt 0.179688 0.574219
vt 0.182031 0.559375
vt 0.182031 0.5625
vt 0.110156 0.5625
vt 0.174219 0.5625
vt 0.174219 0.565625
vt 0.102344 0.565625
vt 0.30507850000000003 0.48046900000000003
vt 0.30820349999999996 0.48046900000000003
vt 0.30820349999999996 0.473437
vt 0.274827 0.44960900000000004
vt 0.271543 0.44960900000000004
vt 0.274827 0.45273399999999997
vt 0.271543 0.44960900000000004
vt 0.251563 0.44960900000000004
vt 0.268927 0.45273399999999997
vt 0.251563 0.44960900000000004
vt 0.251563 0.45273399999999997
vt 0.268927 0.45273399999999997
vt 0.251563 0.43789100000000003
vt 0.251563 0.44101599999999996
vt 0.272767 0.44101599999999996
vt 0.31992149999999997 0.473437
vt 0.31679650000000004 0.473437
vt 0.31679650000000004 0.48046900000000003
vt 0.253432 0.44960900000000004
vt 0.253432 0.45273399999999997
vt 0.25776 0.44960900000000004
vt 0.253432 0.45273399999999997
vt 0.27734400000000003 0.45273399999999997
vt 0.25776 0.44960900000000004
vt 0.27734400000000003 0.44101599999999996
vt 0.27734400000000003 0.43789100000000003
vt 0.255492 0.43789100000000003
vt 0.31992149999999997 0.48046900000000003
vt 0.31992149999999997 0.473437
vt 0.31679650000000004 0.473437
vt 0.27734400000000003 0.44960900000000004
vt 0.25653400000000004 0.44960900000000004
vt 0.25653400000000004 0.45273399999999997
vt 0.27734400000000003 0.44101599999999996
vt 0.27734400000000003 0.43789100000000003
vt 0.25653400000000004 0.43789100000000003
vt 0.31992149999999997 0.473437
vt 0.31679650000000004 0.473437
vt 0.31679650000000004 0.48046900000000003
vt 0.30507850000000003 0.473437
vt 0.30507850000000003 0.48046900000000003
vt 0.30820349999999996 0.48046900000000003
vt 0.258594 0.44960900000000004
vt 0.251563 0.44960900000000004
vt 0.255568 0.45273399999999997
vt 0.251563 0.44960900000000004
vt 0.251563 0.45273399999999997
vt 0.255568 0.45273399999999997
vt 0.258594 0.44101599999999996
vt 0.258594 0.43789100000000003
vt 0.25592899999999996 0.43789100000000003
vt 0.25592899999999996 0.43789100000000003
vt 0.251563 0.43789100000000003
vt 0.251563 0.44101599999999996
vt 0.31679650000000004 0.48046900000000003
vt 0.31992149999999997 0.48046900000000003
vt 0.31992149999999997 0.48029299999999997
vt 0.31992149999999997 0.48029299999999997
vt 0.31992149999999997 0.473437
vt 0.31679650000000004 0.47828899999999996
vt 0.31992149999999997 0.473437
vt 0.31679650000000004 0.473437
vt 0.31679650000000004 0.47828899999999996
vt 0.30820349999999996 0.47865100000000005
vt 0.30820349999999996 0.473437
vt 0.30507850000000003 0.473437
vt 0.30507850000000003 0.473437
vt 0.30507850000000003 0.48046900000000003
vt 0.30820349999999996 0.47865100000000005
vt 0.251563 0.45273399999999997
vt 0.258594 0.45273399999999997
vt 0.258594 0.44960900000000004
vt 0.251563 0.43789100000000003
vt 0.251563 0.44101599999999996
vt 0.258594 0.44101599999999996
vn 0 0 -1
vn 0 0 -1
vn 1 0 0
vn 0 0 1
vn 0 0 1
vn -1 0 0
vn 0 1 0
vn 0 -1 0
vn 0.7070978921844742 0.7071156700768793 0
vn 0.7071067811865501 -0.707106781186545 -2.75656514055858e-15
vn -0.7071067811865464 0.7071067811865487 0
vn -0.7071067811865446 0.7071067811865505 0
vn -0.7071067811865488 -0.7071067811865464 0
vn 0.7071067811865472 0.7071067811865479 0
vn 0 -1 0
vn 1 0 0
vn -1 0 0
vn -0.7071067811865525 -0.7071067811865426 0
vn 0.7071067811865446 0.7071067811865505 0
vn 0.707106781186547 -0.7071067811865481 0
vn -0.7071067811865446 0.7071067811865505 -6.707556367137848e-15
vn -0.7071067811865591 -0.707106781186536 9.637489034303286e-15
vn 0.7071067811865356 0.7071067811865595 0
vn 0.7071067811865526 -0.7071067811865426 0
vn -0.7071067811865447 0.7071067811865503 0
vn 0 0 -1
vn 0 0 -1
vn 0 0 -1
vn 0 0 -1
vn 0 0 -1
vn 0 0 -1
vn 0 0 -1
vn 0 0 -1
vn 0 0 -1
vn 0 0 -1
vn 0 0 -1
vn 0 0 -1
vn 0 0 -1
vn 0 0 -1
vn 0 0 -1
vn 0 0 -1
vn 0 0 -1
vn 0 0 -1
vn 0 0 -1
vn 0 0 -1
vn 0 0 -1
vn 0 0 -1
vn 0 0 -1
vn 0 0 -1
vn 0 0 -1
vn 0 0 -1
vn 0 0 -1
vn 1 0 0
vn 0 0 1
vn 0 0 1
vn 0 0 1
vn 0 0 1
vn 0 0 1
vn 0 0 1
vn 0 0 1
vn 0 0 1
vn 0 0 1
vn 0 0 1
vn 0 0 1
vn 0 0 1
vn 0 0 1
vn 0 0 1
vn 0 0 1
vn 0 0 1
vn 0 0 1
vn 0 0 1
vn 0 0 1
vn 0 0 1
vn 0 0 1
vn 0 0 1
vn 0 0 1
vn 0 0 1
vn 0 0 1
vn 0 0 1
vn 0 0 1
vn -1 0 0
vn 0 1 0
vn 0 -1 0
vn 0.7070978921844742 0.7071156700768793 0
vn 0.707106781186552 -0.7071067811865431 0
vn 0.7071067811865468 -0.7071067811865482 1.1395210613517428e-15
vn 0.7071067811865466 -0.7071067811865485 0
vn -0.7071067811865464 0.7071067811865487 0
vn -0.7071067811865446 0.7071067811865505 0
vn -0.7070923393835118 -0.7071212226946331 0
vn -0.7071041671797637 -0.7071093948042217 0.000023165067719914382
vn 0.7071067811865472 0.7071067811865479 0
vn 0 -1 0
vn 1 0 0
vn -1 0 0
vn -0.7071067811865525 -0.7071067811865426 0
vn 0.7071067811865446 0.7071067811865505 0
vn 0.7071067811865525 -0.7071067811865426 -7.478539857613381e-15
vn 0.7071067811865567 -0.7071067811865384 0
vn -0.7071067811865502 0.7071067811865449 0
vn -0.7071067811865411 0.7071067811865539 0
vn -0.7071067811866808 -0.7071067811864142 0
vn -0.7071067811865493 -0.7071067811865458 8.30281884179128e-16
vn -0.7071067811865497 -0.7071067811865454 0
vn 0.7071067811865479 0.7071067811865472 0
vn 0.7071067811865447 0.7071067811865503 -7.401441508565904e-15
vn 0.7071067811865526 -0.7071067811865426 0
vn -0.7071067811865447 0.7071067811865503 0
usemtl m_3326e610-1839-8a8f-4c19-b835e2dcf0dc
f 1/1/1 2/2/1 3/3/1
f 4/4/2 5/5/2 6/6/2
f 2/7/3 7/8/3 8/9/3
f 8/10/4 9/11/4 10/12/4
f 11/13/5 12/14/5 13/15/5
f 14/16/6 5/17/6 3/18/6
f 7/19/7 5/20/7 11/21/7
f 2/22/8 14/23/8 3/24/8
f 15/25/9 16/26/9 1/27/9
f 17/28/10 18/29/10 19/30/10
f 1/31/11 20/32/11 21/33/11
f 22/34/12 9/35/12 23/36/12
f 23/37/13 9/38/13 24/39/13
f 10/40/14 21/41/14 20/42/14
f 6/43/15 25/44/15 13/45/15
f 13/46/16 18/47/16 6/48/16
f 25/49/17 26/50/17 27/51/17
f 28/52/18 12/53/18 4/54/18
f 29/55/19 30/56/19 31/57/19
f 32/58/20 4/59/20 12/60/20
f 33/61/21 31/62/21 34/63/21
f 35/64/22 36/65/22 37/66/22
f 38/67/23 39/68/23 40/69/23
f 38/70/24 36/71/24 39/72/24
f 41/73/25 42/74/25 43/75/25
f 33/76/26 17/77/26 29/78/26
f 17/79/27 15/80/27 29/81/27
f 1/82/28 21/83/28 22/84/28
f 44/85/29 29/86/29 15/87/29
f 5/88/30 32/89/30 44/90/30
f 43/91/31 37/92/31 45/93/31
f 26/94/32 38/95/32 41/96/32
f 43/97/33 45/98/33 23/99/33
f 45/100/34 2/101/34 23/102/34
f 23/103/35 26/104/35 41/105/35
f 41/106/36 43/107/36 23/108/36
f 3/109/37 5/110/37 15/111/37
f 5/112/38 44/113/38 15/114/38
f 22/115/39 23/116/39 2/117/39
f 3/118/40 15/119/40 1/120/40
f 1/121/41 22/122/41 2/123/41
f 4/124/42 32/125/42 5/126/42
f 45/127/43 37/128/43 46/129/43
f 46/130/44 38/131/44 47/132/44
f 38/133/45 26/134/45 47/135/45
f 17/136/46 33/137/46 28/138/46
f 6/139/47 18/140/47 28/141/47
f 18/142/48 17/143/48 28/144/48
f 45/145/49 46/146/49 47/147/49
f 45/148/50 47/149/50 6/150/50
f 6/151/51 28/152/51 4/153/51
f 5/154/52 45/155/52 6/156/52
f 2/157/53 45/158/53 7/159/53
f 19/160/54 34/161/54 31/162/54
f 30/163/55 11/164/55 48/165/55
f 11/166/56 14/167/56 48/168/56
f 48/169/57 19/170/57 31/171/57
f 31/172/58 30/173/58 48/174/58
f 7/175/59 35/176/59 42/177/59
f 49/178/60 40/179/60 24/180/60
f 8/181/61 7/182/61 9/183/61
f 7/184/62 42/185/62 9/186/62
f 49/187/63 24/188/63 9/189/63
f 42/190/64 49/191/64 9/192/64
f 10/193/65 20/194/65 16/195/65
f 16/196/66 48/197/66 14/198/66
f 10/199/67 16/200/67 8/201/67
f 16/202/68 14/203/68 8/204/68
f 27/205/69 24/206/69 39/207/69
f 24/208/70 40/209/70 39/210/70
f 25/211/71 27/212/71 39/213/71
f 36/214/72 35/215/72 7/216/72
f 25/217/73 39/218/73 36/219/73
f 19/220/74 50/221/74 34/222/74
f 50/223/75 13/224/75 34/225/75
f 25/226/76 36/227/76 7/228/76
f 13/229/77 25/230/77 7/231/77
f 11/232/78 30/233/78 12/234/78
f 12/235/79 34/236/79 13/237/79
f 13/238/80 7/239/80 11/240/80
f 14/241/81 11/242/81 5/243/81
f 7/244/82 45/245/82 5/246/82
f 2/247/83 8/248/83 14/249/83
f 15/250/84 48/251/84 16/252/84
f 50/253/85 19/254/85 18/255/85
f 19/256/86 48/257/86 17/258/86
f 48/259/87 15/260/87 17/261/87
f 1/262/88 16/263/88 20/264/88
f 22/265/89 10/266/89 9/267/89
f 27/268/90 26/269/90 24/270/90
f 26/271/91 23/272/91 24/273/91
f 10/274/92 22/275/92 21/276/92
f 6/277/93 47/278/93 25/279/93
f 13/280/94 50/281/94 18/282/94
f 25/283/95 47/284/95 26/285/95
f 28/286/96 34/287/96 12/288/96
f 29/289/97 44/290/97 30/291/97
f 12/292/98 30/293/98 32/294/98
f 30/295/99 44/296/99 32/297/99
f 34/298/100 28/299/100 33/300/100
f 33/301/101 29/302/101 31/303/101
f 36/304/102 46/305/102 37/306/102
f 37/307/103 43/308/103 35/309/103
f 43/310/104 42/311/104 35/312/104
f 40/313/105 49/314/105 41/315/105
f 41/316/106 38/317/106 40/318/106
f 38/319/107 46/320/107 36/321/107
f 41/322/108 49/323/108 42/324/108