# Blender v3.0.0 OBJ File: ''
# www.blender.org
mtllib stargate.mtl
o cube
v -0.070608 4.302302 0.190626
v -0.114802 4.346496 0.190626
v -0.114802 4.346496 0.196882
v -0.070608 4.302302 0.196882
v -0.114802 4.258108 0.196882
v -0.158996 4.302302 0.196882
v -0.158996 4.302302 0.190626
v -0.114802 4.258108 0.190626
v -0.110198 4.114357 0.190626
v 0.035642 4.260198 0.190626
v 0.035642 4.260198 0.196938
v -0.110198 4.114357 0.196938
v -0.154392 4.158552 0.196938
v -0.008552 4.304392 0.196938
v -0.008552 4.304392 0.190626
v -0.154392 4.158552 0.190626
v 0.166892 4.158552 0.190626
v 0.021052 4.304392 0.190626
v 0.021052 4.304392 0.196882
v 0.166892 4.158552 0.196882
v 0.122698 4.114357 0.196882
v -0.023142 4.260198 0.196882
v -0.023142 4.260198 0.190626
v 0.122698 4.114357 0.190626
v 0.034375 4.256250 0.190626
v 0.034375 4.462500 0.190626
v 0.034375 4.462500 0.197501
v 0.034375 4.256250 0.197501
v -0.028125 4.256250 0.197501
v -0.028125 4.462500 0.197501
v -0.028125 4.462500 0.190626
v -0.028125 4.256250 0.190626
v 0.166892 4.302302 0.190626
v 0.122698 4.346496 0.190626
v 0.122698 4.346496 0.196882
v 0.166892 4.302302 0.196882
v 0.122698 4.258108 0.196882
v 0.078504 4.302302 0.196882
v 0.078504 4.302302 0.190626
v 0.122698 4.258108 0.190626
vt 0.492969 0.982031
vt 0.492187 0.974219
vt 0.492969 0.974219
vt 0.497657 1.000000
vt 0.496875 0.992188
vt 0.497657 0.992188
vt 0.500000 1.000000
vt 0.492188 0.999218
vt 0.500000 0.999218
vt 0.500000 0.985157
vt 0.492188 0.984375
vt 0.500000 0.984375
vt 0.500000 0.974219
vt 0.492188 0.982031
vt 0.492188 0.974219
vt 0.500148 1.000000
vt 0.492336 0.992188
vt 0.500148 0.992188
vt 0.492969 1.000000
vt 0.492180 0.974219
vt 0.492969 0.974219
vt 0.496883 1.000000
vt 0.496094 0.974219
vt 0.496883 0.974219
vt 0.500000 1.000000
vt 0.492188 0.999211
vt 0.500000 0.999211
vt 0.500000 0.985164
vt 0.492188 0.984375
vt 0.500000 0.984375
vt 0.500000 1.000000
vt 0.492188 0.974219
vt 0.500000 0.974219
vt 0.500148 1.000000
vt 0.492336 0.974219
vt 0.500148 0.974219
vt 0.492969 1.000000
vt 0.492187 0.974219
vt 0.492969 0.974219
vt 0.496095 1.000000
vt 0.495313 0.974219
vt 0.496095 0.974219
vt 0.500000 1.000000
vt 0.492188 0.999218
vt 0.500000 0.999218
vt 0.500000 0.985157
vt 0.492188 0.984375
vt 0.500000 0.984375
vt 0.500000 1.000000
vt 0.492188 0.974219
vt 0.500000 0.974219
vt 0.500148 1.000000
vt 0.492336 0.974219
vt 0.500148 0.974219
vt 0.492969 1.000000
vt 0.492109 0.974219
vt 0.492969 0.974219
vt 0.494609 1.000000
vt 0.493750 0.974219
vt 0.494609 0.974219
vt 0.500000 1.000000
vt 0.492188 0.999141
vt 0.500000 0.999141
vt 0.500000 0.985234
vt 0.492188 0.984375
vt 0.500000 0.984375
vt 0.500000 1.000000
vt 0.492188 0.974219
vt 0.500000 0.974219
vt 0.500148 1.000000
vt 0.492336 0.974219
vt 0.500148 0.974219
vt 0.492969 0.982031
vt 0.492187 0.974219
vt 0.492969 0.974219
vt 0.496876 1.000000
vt 0.496094 0.992188
vt 0.496876 0.992188
vt 0.500000 1.000000
vt 0.492188 0.999218
vt 0.500000 0.999218
vt 0.500000 0.985157
vt 0.492188 0.984375
vt 0.500000 0.984375
vt 0.500000 0.974219
vt 0.492188 0.982031
vt 0.492188 0.974219
vt 0.500148 1.000000
vt 0.492336 0.992188
vt 0.500148 0.992188
vt 0.492187 0.982031
vt 0.496875 1.000000
vt 0.492188 1.000000
vt 0.492188 0.985157
vt 0.500000 0.982031
vt 0.492336 1.000000
vt 0.492180 1.000000
vt 0.496094 1.000000
vt 0.492188 1.000000
vt 0.492188 0.985164
vt 0.492188 1.000000
vt 0.492336 1.000000
vt 0.492187 1.000000
vt 0.495313 1.000000
vt 0.492188 1.000000
vt 0.492188 0.985157
vt 0.492188 1.000000
vt 0.492336 1.000000
vt 0.492109 1.000000
vt 0.493750 1.000000
vt 0.492188 1.000000
vt 0.492188 0.985234
vt 0.492188 1.000000
vt 0.492336 1.000000
vt 0.492187 0.982031
vt 0.496094 1.000000
vt 0.492188 1.000000
vt 0.492188 0.985157
vt 0.500000 0.982031
vt 0.492336 1.000000
vn 0.7071 0.7071 0.0000
vn -0.7071 -0.7071 0.0000
vn -0.7071 0.7071 0.0000
vn 0.7071 -0.7071 0.0000
vn 0.0000 -0.0000 1.0000
vn 0.0000 0.0000 -1.0000
vn 1.0000 0.0000 0.0000
vn -1.0000 -0.0000 0.0000
vn 0.0000 1.0000 0.0000
vn 0.0000 -1.0000 0.0000
usemtl m_3326e610-1839-8a8f-4c19-b835e2dcf0dc
s 1
f 2/1/1 4/2/1 1/3/1
f 6/4/2 8/5/2 5/6/2
f 2/7/3 6/8/3 3/9/3
f 4/10/4 8/11/4 1/12/4
f 4/13/5 6/14/5 5/15/5
f 7/16/6 1/17/6 8/18/6
f 10/19/4 12/20/4 9/21/4
f 14/22/3 16/23/3 13/24/3
f 10/25/1 14/26/1 11/27/1
f 12/28/2 16/29/2 9/30/2
f 11/31/5 13/32/5 12/33/5
f 15/34/6 9/35/6 16/36/6
f 18/37/1 20/38/1 17/39/1
f 22/40/2 24/41/2 21/42/2
f 18/43/3 22/44/3 19/45/3
f 20/46/4 24/47/4 17/48/4
f 19/49/5 21/50/5 20/51/5
f 23/52/6 17/53/6 24/54/6
f 26/55/7 28/56/7 25/57/7
f 30/58/8 32/59/8 29/60/8
f 26/61/9 30/62/9 27/63/9
f 28/64/10 32/65/10 25/66/10
f 27/67/5 29/68/5 28/69/5
f 31/70/6 25/71/6 32/72/6
f 34/73/1 36/74/1 33/75/1
f 38/76/2 40/77/2 37/78/2
f 34/79/3 38/80/3 35/81/3
f 36/82/4 40/83/4 33/84/4
f 36/85/5 38/86/5 37/87/5
f 39/88/6 33/89/6 40/90/6
f 2/1/1 3/91/1 4/2/1
f 6/4/2 7/92/2 8/5/2
f 2/7/3 7/93/3 6/8/3
f 4/10/4 5/94/4 8/11/4
f 4/13/5 3/95/5 6/14/5
f 7/16/6 2/96/6 1/17/6
f 10/19/4 11/97/4 12/20/4
f 14/22/3 15/98/3 16/23/3
f 10/25/1 15/99/1 14/26/1
f 12/28/2 13/100/2 16/29/2
f 11/31/5 14/101/5 13/32/5
f 15/34/6 10/102/6 9/35/6
f 18/37/1 19/103/1 20/38/1
f 22/40/2 23/104/2 24/41/2
f 18/43/3 23/105/3 22/44/3
f 20/46/4 21/106/4 24/47/4
f 19/49/5 22/107/5 21/50/5
f 23/52/6 18/108/6 17/53/6
f 26/55/7 27/109/7 28/56/7
f 30/58/8 31/110/8 32/59/8
f 26/61/9 31/111/9 30/62/9
f 28/64/10 29/112/10 32/65/10
f 27/67/5 30/113/5 29/68/5
f 31/70/6 26/114/6 25/71/6
f 34/73/1 35/115/1 36/74/1
f 38/76/2 39/116/2 40/77/2
f 34/79/3 39/117/3 38/80/3
f 36/82/4 37/118/4 40/83/4
f 36/85/5 35/119/5 38/86/5
f 39/88/6 34/120/6 33/89/6
