# Made in Blockbench 5.1.4
mtllib stargate1.mtl

o tauri
v -0.02439 4.452061 0.159377
v -0.291351 4.466961 0.159377
v 0.283649 4.466961 0.159377
v 0.283649 3.948211 0.159377
v -0.291351 3.948211 0.159377
v -0.144414 4.097012 0.159377
v -0.001989 4.362229 0.159377
v 0.030454 4.395812 0.159377
v -0.001465 4.361889 0.159377
v 0.283649 4.466961 0.184377
v 0.283649 3.948211 0.184377
v 0.150004 4.095795 0.184377
v -0.144414 4.097012 0.184377
v 0.03186 4.452061 0.184377
v 0.03186 4.395812 0.184377
v -0.001989 4.362229 0.184377
v 0.019204 4.395812 0.184377
v -0.02439 4.395812 0.184377
v -0.291351 3.948211 0.184377
v -0.291351 4.466961 0.184377
v -0.02439 4.452061 0.184377
v -0.02439 4.395812 0.159377
v 0.03186 4.395812 0.159377
v 0.03186 4.452061 0.159377
v 0.018977 4.348613 0.159377
v 0.018977 4.348613 0.184377
v 0.002728 4.359166 0.184377
v -0.165381 4.110628 0.159377
v -0.165381 4.110628 0.184377
v 0.017304 4.346036 0.159377
v 0.002399 4.323085 0.184377
v 0.002399 4.323085 0.159377
v 0.150004 4.095795 0.159377
v 0.17097 4.109411 0.184377
v 0.17097 4.109411 0.159377
v 0.017304 4.346036 0.184377
vt 0.14163 0.572356
vt 0.175 0.574219
vt 0.103125 0.574219
vt 0.103125 0.509375
vt 0.175 0.509375
vt 0.156633 0.527975
vt 0.13883 0.561127
vt 0.134774 0.565325
vt 0.138764 0.561085
vt 0.015625 0.509375
vt 0.0125 0.574219
vt 0.0125 0.509375
vt 0.096094 0.509375
vt 0.079388 0.527823
vt 0.042586 0.527975
vt 0.096094 0.574219
vt 0.06462 0.572356
vt 0.06462 0.565325
vt 0.060389 0.561127
vt 0.063038 0.565325
vt 0.057589 0.565325
vt 0.182812 0.509375
vt 0.179688 0.574219
vt 0.179688 0.509375
vt 0.182031 0.559375
vt 0.110156 0.5625
vt 0.110156 0.559375
vt 0.174219 0.5625
vt 0.102344 0.565625
vt 0.102344 0.5625
vt 0.25742149999999997 0.46484400000000003
vt 0.25429650000000004 0.457812
vt 0.25429650000000004 0.46484400000000003
vt 0.24570349999999996 0.45939399999999997
vt 0.24570349999999996 0.457812
vt 0.24257850000000003 0.45798799999999995
vt 0.4031255 0.46835899999999997
vt 0.41015650000000003 0.46523400000000004
vt 0.4031255 0.46523400000000004
vt 0.4031255 0.45351600000000003
vt 0.41015650000000003 0.45664099999999996
vt 0.41015650000000003 0.45351600000000003
vt 0.25742149999999997 0.461719
vt 0.25429650000000004 0.461719
vt 0.25429650000000004 0.464141
vt 0.24257850000000003 0.46484400000000003
vt 0.24570349999999996 0.461719
vt 0.24257850000000003 0.461719
vt 0.37890650000000003 0.46835899999999997
vt 0.4164065 0.46523400000000004
vt 0.37890650000000003 0.46523400000000004
vt 0.41602249999999996 0.45351600000000003
vt 0.4164065 0.45664099999999996
vt 0.4164065 0.45351600000000003
vt 0.37890650000000003 0.45351600000000003
vt 0.4126015 0.45664099999999996
vt 0.4126015 0.45351600000000003
vt 0.25742149999999997 0.461719
vt 0.25429650000000004 0.46484400000000003
vt 0.25742149999999997 0.46484400000000003
vt 0.3811385 0.46835899999999997
vt 0.4164065 0.46523400000000004
vt 0.3811385 0.46523400000000004
vt 0.4164065 0.45351600000000003
vt 0.38252949999999997 0.45664099999999996
vt 0.4164065 0.45664099999999996
vt 0.136209 0.559425
vt 0.138764 0.561085
vt 0.134774 0.565325
vt 0.136209 0.559425
vt 0.134774 0.565325
vt 0.134599 0.565325
vt 0.11721 0.529525
vt 0.136418 0.559103
vt 0.136209 0.559425
vt 0.103125 0.574219
vt 0.103125 0.509375
vt 0.11721 0.529525
vt 0.159254 0.529677
vt 0.175 0.509375
vt 0.175 0.574219
vt 0.14163 0.565325
vt 0.13883 0.561127
vt 0.159254 0.529677
vt 0.14163 0.572356
vt 0.14163 0.565325
vt 0.175 0.574219
vt 0.14163 0.565325
vt 0.159254 0.529677
vt 0.175 0.574219
vt 0.103125 0.574219
vt 0.11721 0.529525
vt 0.136209 0.559425
vt 0.103125 0.574219
vt 0.136209 0.559425
vt 0.134599 0.565325
vt 0.103125 0.574219
vt 0.134599 0.565325
vt 0.134599 0.572356
vt 0.134599 0.572356
vt 0.14163 0.572356
vt 0.103125 0.574219
vt 0.119831 0.527823
vt 0.11721 0.529525
vt 0.103125 0.509375
vt 0.175 0.509375
vt 0.159254 0.529677
vt 0.156633 0.527975
vt 0.156633 0.527975
vt 0.138281 0.556234
vt 0.119831 0.527823
vt 0.119831 0.527823
vt 0.103125 0.509375
vt 0.156633 0.527975
vt 0.13883 0.561127
vt 0.14163 0.565325
vt 0.134774 0.565325
vt 0.015625 0.509375
vt 0.015625 0.574219
vt 0.0125 0.574219
vt 0.042586 0.527975
vt 0.039965 0.529677
vt 0.024219 0.509375
vt 0.096094 0.509375
vt 0.082009 0.529525
vt 0.079388 0.527823
vt 0.079388 0.527823
vt 0.060937 0.556234
vt 0.042586 0.527975
vt 0.042586 0.527975
vt 0.024219 0.509375
vt 0.096094 0.509375
vt 0.062801 0.559103
vt 0.082009 0.529525
vt 0.06301 0.559425
vt 0.082009 0.529525
vt 0.096094 0.509375
vt 0.096094 0.574219
vt 0.024219 0.574219
vt 0.024219 0.509375
vt 0.039965 0.529677
vt 0.039965 0.529677
vt 0.060389 0.561127
vt 0.057589 0.565325
vt 0.039965 0.529677
vt 0.057589 0.565325
vt 0.024219 0.574219
vt 0.057589 0.565325
vt 0.057589 0.572356
vt 0.024219 0.574219
vt 0.082009 0.529525
vt 0.096094 0.574219
vt 0.06301 0.559425
vt 0.063038 0.565325
vt 0.060979 0.560744
vt 0.06301 0.559425
vt 0.024219 0.574219
vt 0.057589 0.572356
vt 0.096094 0.574219
vt 0.057589 0.572356
vt 0.06462 0.572356
vt 0.096094 0.574219
vt 0.06462 0.565325
vt 0.063038 0.565325
vt 0.06301 0.559425
vt 0.06462 0.565325
vt 0.06301 0.559425
vt 0.096094 0.574219
vt 0.060389 0.561127
vt 0.060979 0.560744
vt 0.063038 0.565325
vt 0.182812 0.509375
vt 0.182812 0.574219
vt 0.179688 0.574219
vt 0.182031 0.559375
vt 0.182031 0.5625
vt 0.110156 0.5625
vt 0.174219 0.5625
vt 0.174219 0.565625
vt 0.102344 0.565625
vt 0.25742149999999997 0.46484400000000003
vt 0.25742149999999997 0.457812
vt 0.25429650000000004 0.457812
vt 0.24570349999999996 0.457812
vt 0.24257850000000003 0.457812
vt 0.24257850000000003 0.45798799999999995
vt 0.24257850000000003 0.45798799999999995
vt 0.24257850000000003 0.46484400000000003
vt 0.24570349999999996 0.45939399999999997
vt 0.24257850000000003 0.46484400000000003
vt 0.24570349999999996 0.46484400000000003
vt 0.24570349999999996 0.45939399999999997
vt 0.4031255 0.46835899999999997
vt 0.41015650000000003 0.46835899999999997
vt 0.41015650000000003 0.46523400000000004
vt 0.4031255 0.45351600000000003
vt 0.4031255 0.45664099999999996
vt 0.41015650000000003 0.45664099999999996
vt 0.25429650000000004 0.464141
vt 0.25429650000000004 0.46484400000000003
vt 0.25742149999999997 0.464766
vt 0.25429650000000004 0.46484400000000003
vt 0.25742149999999997 0.46484400000000003
vt 0.25742149999999997 0.464766
vt 0.25742149999999997 0.464766
vt 0.25742149999999997 0.461719
vt 0.25429650000000004 0.464141
vt 0.24257850000000003 0.46484400000000003
vt 0.24570349999999996 0.46484400000000003
vt 0.24570349999999996 0.461719
vt 0.37890650000000003 0.46835899999999997
vt 0.4164065 0.46835899999999997
vt 0.4164065 0.46523400000000004
vt 0.41602249999999996 0.45351600000000003
vt 0.41602249999999996 0.45664099999999996
vt 0.4164065 0.45664099999999996
vt 0.37890650000000003 0.45351600000000003
vt 0.37890650000000003 0.45664099999999996
vt 0.4126015 0.45664099999999996
vt 0.25742149999999997 0.461719
vt 0.25429650000000004 0.461719
vt 0.25429650000000004 0.46484400000000003
vt 0.3811385 0.46835899999999997
vt 0.4164065 0.46835899999999997
vt 0.4164065 0.46523400000000004
vt 0.4164065 0.45351600000000003
vt 0.38252949999999997 0.45351600000000003
vt 0.38252949999999997 0.45664099999999996
vn 0 0 -1
vn 0 0 -1
vn 0 0 -1
vn 1 0 0
vn 0 0 1
vn 0 0 1
vn 0 0 1
vn -1 0 0
vn 0 1 0
vn 0 -1 0
vn 0 -1 0
vn 0 1 0
vn 1 0 0
vn -1 0 0
vn -0.5446672062072441 -0.8386522726865977 0
vn 0.5446354054750946 0.83867292498505 0
vn 0.8386699586955055 -0.544639973176482 0
vn -0.8387483674005769 0.544519215623165 0
vn -0.838671453861205 0.5446376708219264 0
vn -0.5446536766433927 0.8386610593790764 0
vn -0.8386706840888116 -0.5446388561698523 0
vn 0.8386686328290724 0.5446420148213086 0
vn 0 0 -1
vn 0 0 -1
vn 0 0 -1
vn 0 0 -1
vn 0 0 -1
vn 0 0 -1
vn 0 0 -1
vn 0 0 -1
vn 0 0 -1
vn 0 0 -1
vn 0 0 -1
vn 0 0 -1
vn 0 0 -1
vn 0 0 -1
vn 0 0 -1
vn 0 0 -1
vn 0 0 -1
vn 1 0 0
vn 0 0 1
vn 0 0 1
vn 0 0 1
vn 0 0 1
vn 0 0 1
vn 0 0 1
vn 0 0 1
vn 0 0 1
vn 0 0 1
vn 0 0 1
vn 0 0 1
vn 0 0 1
vn 0 0 1
vn 0 0 1
vn 0 0 1
vn 0 0 1
vn 0 0 1
vn -1 0 0
vn 0 1 0
vn 0 -1 0
vn 0 -1 0
vn 0 1 0
vn 0 1 0
vn 0 1 0
vn 1 0 0
vn -1 0 0
vn -0.5446070670740718 -0.8386913272570568 -0.000008762075161444358
vn -0.5443129174662514 -0.8388822610351098 0
vn -0.5446624079446386 -0.8386553889126851 0.000004434100118984901
vn 0.5446354054750946 0.83867292498505 0
vn 0.8386699586955055 -0.544639973176482 0
vn -0.8387483674005769 0.544519215623165 0
vn -0.838671453861205 0.5446376708219264 0
vn -0.5446536766433927 0.8386610593790764 0
vn -0.8386706840888116 -0.5446388561698523 0
vn 0.8386686328290724 0.5446420148213086 0
usemtl m_3326e610-1839-8a8f-4c19-b835e2dcf0dc
f 1/1/1 2/2/1 3/3/1
f 4/4/2 5/5/2 6/6/2
f 7/7/3 8/8/3 9/9/3
f 4/10/4 10/11/4 11/12/4
f 11/13/5 12/14/5 13/15/5
f 10/16/6 14/17/6 15/18/6
f 16/19/7 17/20/7 18/21/7
f 19/22/8 2/23/8 5/24/8
f 10/25/9 2/26/9 20/27/9
f 4/28/10 19/29/10 5/30/10
f 1/31/11 14/32/11 21/33/11
f 17/34/12 15/35/12 8/36/12
f 22/37/13 21/38/13 18/39/13
f 23/40/14 14/41/14 24/42/14
f 25/43/15 26/44/15 27/45/15
f 28/46/16 13/47/16 6/48/16
f 28/49/17 16/50/17 29/51/17
f 30/52/18 26/53/18 25/54/18
f 6/55/19 31/56/19 32/57/19
f 33/58/20 34/59/20 35/60/20
f 30/61/21 34/62/21 36/63/21
f 33/64/22 31/65/22 12/66/22
f 25/67/23 9/68/23 8/69/23
f 25/70/24 8/71/24 23/72/24
f 35/73/25 30/74/25 25/75/25
f 3/76/26 4/77/26 35/78/26
f 28/79/27 5/80/27 2/81/27
f 22/82/28 7/83/28 28/84/28
f 1/85/29 22/86/29 2/87/29
f 22/88/30 28/89/30 2/90/30
f 3/91/31 35/92/31 25/93/31
f 3/94/32 25/95/32 23/96/32
f 3/97/33 23/98/33 24/99/33
f 24/100/34 1/101/34 3/102/34
f 33/103/35 35/104/35 4/105/35
f 5/106/36 28/107/36 6/108/36
f 6/109/37 32/110/37 33/111/37
f 33/112/38 4/113/38 6/114/38
f 7/115/39 22/116/39 8/117/39
f 4/118/40 3/119/40 10/120/40
f 13/121/41 29/122/41 19/123/41
f 11/124/42 34/125/42 12/126/42
f 12/127/43 31/128/43 13/129/43
f 13/130/44 19/131/44 11/132/44
f 36/133/45 34/134/45 26/135/45
f 34/136/46 11/137/46 10/138/46
f 20/139/47 19/140/47 29/141/47
f 29/142/48 16/143/48 18/144/48
f 29/145/49 18/146/49 20/147/49
f 18/148/50 21/149/50 20/150/50
f 34/151/51 10/152/51 26/153/51
f 17/154/52 27/155/52 26/156/52
f 20/157/53 21/158/53 10/159/53
f 21/160/54 14/161/54 10/162/54
f 15/163/55 17/164/55 26/165/55
f 15/166/56 26/167/56 10/168/56
f 16/169/57 27/170/57 17/171/57
f 19/172/58 20/173/58 2/174/58
f 10/175/59 3/176/59 2/177/59
f 4/178/60 11/179/60 19/180/60
f 1/181/61 24/182/61 14/183/61
f 15/184/62 23/185/62 8/186/62
f 8/187/63 22/188/63 17/189/63
f 22/190/64 18/191/64 17/192/64
f 22/193/65 1/194/65 21/195/65
f 23/196/66 15/197/66 14/198/66
f 27/199/67 16/200/67 9/201/67
f 16/202/68 7/203/68 9/204/68
f 9/205/69 25/206/69 27/207/69
f 28/208/70 29/209/70 13/210/70
f 28/211/71 7/212/71 16/213/71
f 30/214/72 36/215/72 26/216/72
f 6/217/73 13/218/73 31/219/73
f 33/220/74 12/221/74 34/222/74
f 30/223/75 35/224/75 34/225/75
f 33/226/76 32/227/76 31/228/76