# Blender v3.0.0 OBJ File: ''
# www.blender.org
mtllib stargate.mtl
o template
v -0.022361 4.246759 0.190626
v 0.017413 4.206985 0.190626
v 0.017413 4.206985 0.197438
v -0.022361 4.246759 0.197438
v 0.123479 4.392601 0.197438
v 0.163254 4.352826 0.197438
v 0.163254 4.352826 0.190626
v 0.123479 4.392601 0.190626
v -0.147545 4.234076 0.190626
v -0.107771 4.194301 0.190626
v -0.107771 4.194301 0.197501
v -0.147545 4.234076 0.197501
v -0.107771 4.273850 0.197501
v -0.067996 4.234076 0.197501
v -0.067996 4.234076 0.190626
v -0.107771 4.273850 0.190626
v -0.120087 4.396262 0.190626
v -0.159861 4.356487 0.190626
v -0.159861 4.356487 0.197501
v -0.120087 4.396262 0.197501
v 0.025754 4.250421 0.197501
v -0.014021 4.210646 0.197501
v -0.014021 4.210646 0.190626
v 0.025754 4.250421 0.190626
v -0.024598 4.054748 0.190626
v 0.031652 4.054748 0.190626
v 0.031652 4.054748 0.196932
v -0.024598 4.054748 0.196932
v -0.024598 4.260998 0.196932
v 0.031652 4.260998 0.196932
v 0.031652 4.260998 0.190626
v -0.024598 4.260998 0.190626
v 0.083705 4.234076 0.190626
v 0.123479 4.194301 0.190626
v 0.123479 4.194301 0.197501
v 0.083705 4.234076 0.197501
v 0.123479 4.273850 0.197501
v 0.163254 4.234076 0.197501
v 0.163254 4.234076 0.190626
v 0.123479 4.273850 0.190626
v -0.035045 4.371575 0.190626
v 0.004730 4.331800 0.190626
v 0.004730 4.331800 0.197501
v -0.035045 4.371575 0.197501
v 0.004730 4.411350 0.197501
v 0.044504 4.371575 0.197501
v 0.044504 4.371575 0.190626
v 0.004730 4.411350 0.190626
vt 0.492117 0.964844
vt 0.499148 0.963992
vt 0.499148 0.964844
vt 0.496164 0.955469
vt 0.495313 0.948438
vt 0.496164 0.948438
vt 0.493750 0.976562
vt 0.494602 0.950781
vt 0.494602 0.976562
vt 0.492969 0.972727
vt 0.493820 0.946945
vt 0.493820 0.972727
vt 0.492188 0.983594
vt 0.499219 0.957812
vt 0.499219 0.983594
vt 0.499219 0.964844
vt 0.492188 0.939062
vt 0.499219 0.939062
vt 0.492109 0.964844
vt 0.499141 0.963984
vt 0.499141 0.964844
vt 0.496172 0.955469
vt 0.495313 0.948438
vt 0.496172 0.948438
vt 0.493750 0.976562
vt 0.494609 0.969531
vt 0.494609 0.976562
vt 0.492969 0.972734
vt 0.493828 0.965703
vt 0.493828 0.972734
vt 0.492188 0.983594
vt 0.499219 0.976562
vt 0.499219 0.983594
vt 0.499219 0.949219
vt 0.492188 0.942187
vt 0.499219 0.942187
vt 0.492109 0.964844
vt 0.499141 0.963984
vt 0.499141 0.964844
vt 0.496172 0.955469
vt 0.495313 0.948438
vt 0.496172 0.948438
vt 0.493750 0.976562
vt 0.494609 0.950781
vt 0.494609 0.976562
vt 0.492969 0.972734
vt 0.493828 0.946953
vt 0.493828 0.972734
vt 0.499219 0.983594
vt 0.492188 0.957812
vt 0.499219 0.957812
vt 0.492188 0.964844
vt 0.499219 0.939062
vt 0.499219 0.964844
vt 0.492180 0.964844
vt 0.499212 0.964055
vt 0.499212 0.964844
vt 0.496101 0.955469
vt 0.495313 0.948438
vt 0.496101 0.948438
vt 0.493750 0.976562
vt 0.494538 0.950781
vt 0.494538 0.976562
vt 0.492969 0.972663
vt 0.493757 0.946882
vt 0.493757 0.972663
vt 0.492188 0.983594
vt 0.499219 0.957812
vt 0.499219 0.983594
vt 0.499219 0.964844
vt 0.492188 0.939062
vt 0.499219 0.939062
vt 0.492109 0.964844
vt 0.499141 0.963984
vt 0.499141 0.964844
vt 0.496172 0.955469
vt 0.495313 0.948438
vt 0.496172 0.948438
vt 0.493750 0.976562
vt 0.494609 0.969531
vt 0.494609 0.976562
vt 0.492969 0.972734
vt 0.493828 0.965703
vt 0.493828 0.972734
vt 0.492188 0.989844
vt 0.499219 0.982813
vt 0.499219 0.989844
vt 0.499219 0.949219
vt 0.492188 0.942187
vt 0.499219 0.942187
vt 0.492109 0.964844
vt 0.499141 0.963984
vt 0.499141 0.964844
vt 0.496172 0.955469
vt 0.495313 0.948438
vt 0.496172 0.948438
vt 0.493750 0.976562
vt 0.494609 0.969531
vt 0.494609 0.976562
vt 0.492969 0.972734
vt 0.493828 0.965703
vt 0.493828 0.972734
vt 0.499219 0.983594
vt 0.492188 0.976562
vt 0.499219 0.976562
vt 0.492188 0.946875
vt 0.499219 0.939844
vt 0.499219 0.946875
vt 0.492117 0.963992
vt 0.495313 0.955469
vt 0.493750 0.950781
vt 0.492969 0.946945
vt 0.492188 0.957812
vt 0.492188 0.964844
vt 0.492109 0.963984
vt 0.495313 0.955469
vt 0.493750 0.969531
vt 0.492969 0.965703
vt 0.492188 0.976562
vt 0.492188 0.949219
vt 0.492109 0.963984
vt 0.495313 0.955469
vt 0.493750 0.950781
vt 0.492969 0.946953
vt 0.492188 0.983594
vt 0.492188 0.939062
vt 0.492180 0.964055
vt 0.495313 0.955469
vt 0.493750 0.950781
vt 0.492969 0.946882
vt 0.492188 0.957812
vt 0.492188 0.964844
vt 0.492109 0.963984
vt 0.495313 0.955469
vt 0.493750 0.969531
vt 0.492969 0.965703
vt 0.492188 0.982813
vt 0.492188 0.949219
vt 0.492109 0.963984
vt 0.495313 0.955469
vt 0.493750 0.969531
vt 0.492969 0.965703
vt 0.492188 0.983594
vt 0.492188 0.939844
vn -0.7071 -0.7071 0.0000
vn 0.7071 0.7071 0.0000
vn 0.7071 -0.7071 0.0000
vn -0.7071 0.7071 0.0000
vn -0.0000 -0.0000 1.0000
vn 0.0000 0.0000 -1.0000
vn 0.0000 -1.0000 0.0000
vn 0.0000 1.0000 0.0000
vn 1.0000 0.0000 0.0000
vn -1.0000 -0.0000 0.0000
usemtl m_3326e610-1839-8a8f-4c19-b835e2dcf0dc.006
s 1
f 2/1/1 4/2/1 1/3/1
f 6/4/2 8/5/2 5/6/2
f 2/7/3 6/8/3 3/9/3
f 4/10/4 8/11/4 1/12/4
f 3/13/5 5/14/5 4/15/5
f 8/16/6 2/17/6 1/18/6
f 10/19/1 12/20/1 9/21/1
f 14/22/2 16/23/2 13/24/2
f 10/25/3 14/26/3 11/27/3
f 12/28/4 16/29/4 9/30/4
f 11/31/5 13/32/5 12/33/5
f 16/34/6 10/35/6 9/36/6
f 18/37/4 20/38/4 17/39/4
f 22/40/3 24/41/3 21/42/3
f 18/43/1 22/44/1 19/45/1
f 20/46/2 24/47/2 17/48/2
f 20/49/5 22/50/5 21/51/5
f 23/52/6 17/53/6 24/54/6
f 26/55/7 28/56/7 25/57/7
f 30/58/8 32/59/8 29/60/8
f 26/61/9 30/62/9 27/63/9
f 28/64/10 32/65/10 25/66/10
f 27/67/5 29/68/5 28/69/5
f 32/70/6 26/71/6 25/72/6
f 34/73/1 36/74/1 33/75/1
f 38/76/2 40/77/2 37/78/2
f 34/79/3 38/80/3 35/81/3
f 36/82/4 40/83/4 33/84/4
f 35/85/5 37/86/5 36/87/5
f 40/88/6 34/89/6 33/90/6
f 42/91/1 44/92/1 41/93/1
f 46/94/2 48/95/2 45/96/2
f 42/97/3 46/98/3 43/99/3
f 44/100/4 48/101/4 41/102/4
f 44/103/5 46/104/5 45/105/5
f 47/106/6 41/107/6 48/108/6
f 2/1/1 3/109/1 4/2/1
f 6/4/2 7/110/2 8/5/2
f 2/7/3 7/111/3 6/8/3
f 4/10/4 5/112/4 8/11/4
f 3/13/5 6/113/5 5/14/5
f 8/16/6 7/114/6 2/17/6
f 10/19/1 11/115/1 12/20/1
f 14/22/2 15/116/2 16/23/2
f 10/25/3 15/117/3 14/26/3
f 12/28/4 13/118/4 16/29/4
f 11/31/5 14/119/5 13/32/5
f 16/34/6 15/120/6 10/35/6
f 18/37/4 19/121/4 20/38/4
f 22/40/3 23/122/3 24/41/3
f 18/43/1 23/123/1 22/44/1
f 20/46/2 21/124/2 24/47/2
f 20/49/5 19/125/5 22/50/5
f 23/52/6 18/126/6 17/53/6
f 26/55/7 27/127/7 28/56/7
f 30/58/8 31/128/8 32/59/8
f 26/61/9 31/129/9 30/62/9
f 28/64/10 29/130/10 32/65/10
f 27/67/5 30/131/5 29/68/5
f 32/70/6 31/132/6 26/71/6
f 34/73/1 35/133/1 36/74/1
f 38/76/2 39/134/2 40/77/2
f 34/79/3 39/135/3 38/80/3
f 36/82/4 37/136/4 40/83/4
f 35/85/5 38/137/5 37/86/5
f 40/88/6 39/138/6 34/89/6
f 42/91/1 43/139/1 44/92/1
f 46/94/2 47/140/2 48/95/2
f 42/97/3 47/141/3 46/98/3
f 44/100/4 45/142/4 48/101/4
f 44/103/5 43/143/5 46/104/5
f 47/106/6 42/144/6 41/107/6
