# Made in Blockbench 5.1.4
mtllib orlin_gate.mtl

o 2
v 0.110204 0.625 -0.04375
v 0.317321 0.549616 0.05625
v 0.317321 0.549616 -0.04375
v 0.084353 0.478392 0.05625
v 0.242886 0.420691 -0.04375
v 0.242886 0.420691 0.05625
v 0.084353 0.478392 -0.04375
v 0.110204 0.625 0.05625
vt 0.562288 0.90625
vt 0.341875 1
vt 0.341875 0.90625
vt 0.369687 0.75
vt 0.5384 0.65625
vt 0.5384 0.75
vt 0.3696 0.759644
vt 0.564162 0.90625
vt 0.538312 0.759644
vt 0.34375 0.90625
vt 0.538312 0.759644
vt 0.564162 0.90625
vt 0.562288 0.90625
vt 0.562288 1
vt 0.341875 1
vt 0.369687 0.75
vt 0.369687 0.65625
vt 0.5384 0.65625
vt 0.3696 0.759644
vt 0.34375 0.90625
vt 0.564162 0.90625
vt 0.34375 0.90625
vt 0.3696 0.759644
vt 0.538312 0.759644
vn 0.3420184486238676 0.9396932376051893 0
vn -0.3420186089685146 -0.9396931792448227 0
vn 0 0 -1
vn 0 0 1
vn 0.3420184486238676 0.9396932376051893 0
vn -0.3420186089685146 -0.9396931792448227 0
vn 0 0 -1
vn 0 0 1
usemtl m_1ed26267-02da-94ca-2551-5c78ba0add2c
f 1/1/1 2/2/1 3/3/1
f 4/4/2 5/5/2 6/6/2
f 7/7/3 3/8/3 5/9/3
f 8/10/4 6/11/4 2/12/4
f 1/13/5 8/14/5 2/15/5
f 4/16/6 7/17/6 5/18/6
f 7/19/7 1/20/7 3/21/7
f 8/22/8 4/23/8 6/24/8
o 1
v -0.110204 0.625 -0.04375
v 0.110204 0.625 0.05625
v 0.110204 0.625 -0.04375
v -0.084353 0.478392 0.05625
v 0.084353 0.478392 -0.04375
v 0.084353 0.478392 0.05625
v -0.084353 0.478392 -0.04375
v -0.110204 0.625 0.05625
vt 0.249787 0.90625
vt 0.029375 1
vt 0.029375 0.90625
vt 0.057188 0.75
vt 0.2259 0.65625
vt 0.2259 0.75
vt 0.0571 0.759644
vt 0.251662 0.90625
vt 0.225812 0.759644
vt 0.03125 0.90625
vt 0.225812 0.759644
vt 0.251662 0.90625
vt 0.249787 0.90625
vt 0.249787 1
vt 0.029375 1
vt 0.057188 0.75
vt 0.057188 0.65625
vt 0.2259 0.65625
vt 0.0571 0.759644
vt 0.03125 0.90625
vt 0.251662 0.90625
vt 0.03125 0.90625
vt 0.0571 0.759644
vt 0.225812 0.759644
vn 0 1 0
vn 0 -1 0
vn 0 0 -1
vn 0 0 1
vn 0 1 0
vn 0 -1 0
vn 0 0 -1
vn 0 0 1
usemtl m_1ed26267-02da-94ca-2551-5c78ba0add2c
f 9/25/9 10/26/9 11/27/9
f 12/28/10 13/29/10 14/30/10
f 15/31/11 11/32/11 13/33/11
f 16/34/12 14/35/12 10/36/12
f 9/37/13 16/38/13 10/39/13
f 12/40/14 15/41/14 13/42/14
f 15/43/15 9/44/15 11/45/15
f 16/46/16 12/47/16 14/48/16
o 3
v 0.317321 0.549616 -0.04375
v 0.486164 0.40794 0.05625
v 0.486164 0.40794 -0.04375
v 0.242886 0.420691 0.05625
v 0.372123 0.312248 -0.04375
v 0.372123 0.312248 0.05625
v 0.242886 0.420691 -0.04375
v 0.317321 0.549616 0.05625
vt 0.874788 0.90625
vt 0.654375 1
vt 0.654375 0.90625
vt 0.682187 0.75
vt 0.8509 0.65625
vt 0.8509 0.75
vt 0.6821 0.759644
vt 0.876662 0.90625
vt 0.850812 0.759644
vt 0.65625 0.90625
vt 0.850812 0.759644
vt 0.876662 0.90625
vt 0.874788 0.90625
vt 0.874788 1
vt 0.654375 1
vt 0.682187 0.75
vt 0.682187 0.65625
vt 0.8509 0.65625
vt 0.6821 0.759644
vt 0.65625 0.90625
vt 0.876662 0.90625
vt 0.65625 0.90625
vt 0.6821 0.759644
vt 0.850812 0.759644
vn 0.6427873460339383 0.7660446643497011 0
vn -0.6427885869854049 -0.7660436230667982 0
vn 0 0 -1
vn 0 0 1
vn 0.6427873460339383 0.7660446643497011 0
vn -0.6427885869854049 -0.7660436230667982 0
vn 0 0 -1
vn 0 0 1
usemtl m_1ed26267-02da-94ca-2551-5c78ba0add2c
f 17/49/17 18/50/17 19/51/17
f 20/52/18 21/53/18 22/54/18
f 23/55/19 19/56/19 21/57/19
f 24/58/20 22/59/20 18/60/20
f 17/61/21 24/62/21 18/63/21
f 20/64/22 23/65/22 21/66/22
f 23/67/23 17/68/23 19/69/23
f 24/70/24 20/71/24 22/72/24
o 4
v 0.486164 0.40794 -0.04375
v 0.596368 0.21706 0.05625
v 0.596368 0.21706 -0.04375
v 0.372123 0.312248 0.05625
v 0.456476 0.166144 -0.04375
v 0.456476 0.166144 0.05625
v 0.486164 0.40794 0.05625
v 0.372123 0.312248 -0.04375
vt 0.249787 0.5
vt 0.029375 0.59375
vt 0.029375 0.5
vt 0.057188 0.34375
vt 0.2259 0.25
vt 0.2259 0.34375
vt 0.225812 0.353394
vt 0.03125 0.5
vt 0.251662 0.5
vt 0.03125 0.5
vt 0.225812 0.353394
vt 0.251662 0.5
vt 0.249787 0.5
vt 0.249787 0.59375
vt 0.029375 0.59375
vt 0.057188 0.34375
vt 0.057188 0.25
vt 0.2259 0.25
vt 0.225812 0.353394
vt 0.0571 0.353394
vt 0.03125 0.5
vt 0.03125 0.5
vt 0.0571 0.353394
vt 0.225812 0.353394
vn 0.8660266206140188 0.4999978923834207 0
vn -0.8660258753568232 -0.4999991832117813 0
vn 0 0 -1
vn 0 0 1
vn 0.8660266206140188 0.4999978923834207 0
vn -0.8660258753568232 -0.4999991832117813 0
vn 0 0 -1
vn 0 0 1
usemtl m_1ed26267-02da-94ca-2551-5c78ba0add2c
f 25/73/25 26/74/25 27/75/25
f 28/76/26 29/77/26 30/78/26
f 29/79/27 25/80/27 27/81/27
f 31/82/28 30/83/28 26/84/28
f 25/85/29 31/86/29 26/87/29
f 28/88/30 32/89/30 29/90/30
f 29/91/31 32/92/31 25/93/31
f 31/94/32 28/95/32 30/96/32
o 5
v 0.596368 0.21706 -0.04375
v 0.634642 0 0.05625
v 0.634642 0 -0.04375
v 0.456476 0.166144 0.05625
v 0.485772 0 -0.04375
v 0.485772 0 0.05625
v 0.596368 0.21706 0.05625
v 0.456476 0.166144 -0.04375
vt 0.562288 0.5
vt 0.341875 0.59375
vt 0.341875 0.5
vt 0.369687 0.34375
vt 0.5384 0.25
vt 0.5384 0.34375
vt 0.538312 0.353394
vt 0.34375 0.5
vt 0.564162 0.5
vt 0.34375 0.5
vt 0.538312 0.353394
vt 0.564162 0.5
vt 0.562288 0.5
vt 0.562288 0.59375
vt 0.341875 0.59375
vt 0.369687 0.34375
vt 0.369687 0.25
vt 0.5384 0.25
vt 0.538312 0.353394
vt 0.3696 0.353394
vt 0.34375 0.5
vt 0.34375 0.5
vt 0.3696 0.353394
vt 0.538312 0.353394
vn 0.9848073917867641 0.17365022626576357 0
vn -0.9848074183868658 -0.17365007541085817 0
vn 0 0 -1
vn 0 0 1
vn 0.9848073917867641 0.17365022626576357 0
vn -0.9848074183868658 -0.17365007541085817 0
vn 0 0 -1
vn 0 0 1
usemtl m_1ed26267-02da-94ca-2551-5c78ba0add2c
f 33/97/33 34/98/33 35/99/33
f 36/100/34 37/101/34 38/102/34
f 37/103/35 33/104/35 35/105/35
f 39/106/36 38/107/36 34/108/36
f 33/109/37 39/110/37 34/111/37
f 36/112/38 40/113/38 37/114/38
f 37/115/39 40/116/39 33/117/39
f 39/118/40 36/119/40 38/120/40
o 6
v 0.634642 0 -0.04375
v 0.596368 -0.21706 0.05625
v 0.596368 -0.21706 -0.04375
v 0.485772 0 0.05625
v 0.456476 -0.166144 -0.04375
v 0.456476 -0.166144 0.05625
v 0.485772 0 -0.04375
v 0.634642 0 0.05625
vt 0.874788 0.5
vt 0.654375 0.59375
vt 0.654375 0.5
vt 0.682187 0.34375
vt 0.8509 0.25
vt 0.8509 0.34375
vt 0.680225 0.353394
vt 0.874788 0.5
vt 0.848938 0.353394
vt 0.874788 0.5
vt 0.680225 0.353394
vt 0.848938 0.353394
vt 0.874788 0.5
vt 0.874788 0.59375
vt 0.654375 0.59375
vt 0.682187 0.34375
vt 0.682187 0.25
vt 0.8509 0.25
vt 0.680225 0.353394
vt 0.654375 0.5
vt 0.874788 0.5
vt 0.874788 0.5
vt 0.654375 0.5
vt 0.680225 0.353394
vn 0.9848073917867641 -0.17365022626576357 0
vn -0.9848074183868658 0.17365007541085817 0
vn 0 0 -1
vn 0 0 1
vn 0.9848073917867641 -0.17365022626576357 0
vn -0.9848074183868658 0.17365007541085817 0
vn 0 0 -1
vn 0 0 1
usemtl m_1ed26267-02da-94ca-2551-5c78ba0add2c
f 41/121/41 42/122/41 43/123/41
f 44/124/42 45/125/42 46/126/42
f 47/127/43 43/128/43 45/129/43
f 42/130/44 44/131/44 46/132/44
f 41/133/45 48/134/45 42/135/45
f 44/136/46 47/137/46 45/138/46
f 47/139/47 41/140/47 43/141/47
f 42/142/48 48/143/48 44/144/48
o 7
v 0.5963678773652743 -0.2170605364013396 -0.04375
v 0.48616387736527433 -0.4079394635986602 0.05625
v 0.48616387736527433 -0.4079394635986602 -0.04375
v 0.4564761249672452 -0.16614415911457112 0.05625
v 0.3721231249672453 -0.3122478408854287 -0.04375
v 0.3721231249672453 -0.3122478408854287 0.05625
v 0.4564761249672452 -0.16614415911457112 -0.04375
v 0.5963678773652743 -0.2170605364013396 0.05625
vt 0.249787 0.90625
vt 0.029375 1
vt 0.029375 0.90625
vt 0.057188 0.75
vt 0.2259 0.65625
vt 0.2259 0.75
vt 0.0571 0.759644
vt 0.251662 0.90625
vt 0.225812 0.759644
vt 0.03125 0.90625
vt 0.225812 0.759644
vt 0.251662 0.90625
vt 0.249787 0.90625
vt 0.249787 1
vt 0.029375 1
vt 0.057188 0.75
vt 0.057188 0.65625
vt 0.2259 0.65625
vt 0.0571 0.759644
vt 0.03125 0.90625
vt 0.251662 0.90625
vt 0.03125 0.90625
vt 0.0571 0.759644
vt 0.225812 0.759644
vn 0.8660254037844388 -0.4999999999999998 0
vn -0.8660254037844388 0.4999999999999998 0
vn 0 0 -1
vn 0 0 1
vn 0.8660254037844388 -0.4999999999999998 0
vn -0.8660254037844388 0.4999999999999998 0
vn 0 0 -1
vn 0 0 1
usemtl m_1ed26267-02da-94ca-2551-5c78ba0add2c
f 49/145/49 50/146/49 51/147/49
f 52/148/50 53/149/50 54/150/50
f 55/151/51 51/152/51 53/153/51
f 56/154/52 54/155/52 50/156/52
f 49/157/53 56/158/53 50/159/53
f 52/160/54 55/161/54 53/162/54
f 55/163/55 49/164/55 51/165/55
f 56/166/56 52/167/56 54/168/56
o 8
v 0.48616387736527433 -0.4079394635986602 -0.04375
v 0.3173209183263882 -0.5496160471542818 0.05625
v 0.3173209183263882 -0.5496160471542818 -0.04375
v 0.3721231249672453 -0.3122478408854287 0.05625
v 0.2428860931434794 -0.4206909462235871 -0.04375
v 0.2428860931434794 -0.4206909462235871 0.05625
v 0.3721231249672453 -0.3122478408854287 -0.04375
v 0.48616387736527433 -0.4079394635986602 0.05625
vt 0.562288 0.90625
vt 0.341875 1
vt 0.341875 0.90625
vt 0.369687 0.75
vt 0.5384 0.65625
vt 0.5384 0.75
vt 0.3696 0.759644
vt 0.564162 0.90625
vt 0.538312 0.759644
vt 0.34375 0.90625
vt 0.538312 0.759644
vt 0.564162 0.90625
vt 0.562288 0.90625
vt 0.562288 1
vt 0.341875 1
vt 0.369687 0.75
vt 0.369687 0.65625
vt 0.5384 0.65625
vt 0.3696 0.759644
vt 0.34375 0.90625
vt 0.564162 0.90625
vt 0.34375 0.90625
vt 0.3696 0.759644
vt 0.538312 0.759644
vn 0.6427889912186069 -0.7660432838738067 0
vn -0.6427888605047234 0.766043393556161 0
vn 0 0 -1
vn 0 0 1
vn 0.6427889912186069 -0.7660432838738067 0
vn -0.6427888605047234 0.766043393556161 0
vn 0 0 -1
vn 0 0 1
usemtl m_1ed26267-02da-94ca-2551-5c78ba0add2c
f 57/169/57 58/170/57 59/171/57
f 60/172/58 61/173/58 62/174/58
f 63/175/59 59/176/59 61/177/59
f 64/178/60 62/179/60 58/180/60
f 57/181/61 64/182/61 58/183/61
f 60/184/62 63/185/62 61/186/62
f 63/187/63 57/188/63 59/189/63
f 64/190/64 60/191/64 62/192/64
o 9
v 0.3173209183263882 -0.5496160471542818 -0.04375
v 0.11020440321982414 -0.6250003744054577 0.05625
v 0.11020440321982414 -0.6250003744054577 -0.04375
v 0.2428860931434794 -0.4206909462235871 0.05625
v 0.08435320028088358 -0.4783919713324767 -0.04375
v 0.08435320028088358 -0.4783919713324767 0.05625
v 0.2428860931434794 -0.4206909462235871 -0.04375
v 0.3173209183263882 -0.5496160471542818 0.05625
vt 0.874788 0.90625
vt 0.654375 1
vt 0.654375 0.90625
vt 0.682187 0.75
vt 0.8509 0.65625
vt 0.8509 0.75
vt 0.6821 0.759644
vt 0.876662 0.90625
vt 0.850812 0.759644
vt 0.65625 0.90625
vt 0.850812 0.759644
vt 0.876662 0.90625
vt 0.874788 0.90625
vt 0.874788 1
vt 0.654375 1
vt 0.682187 0.75
vt 0.682187 0.65625
vt 0.8509 0.65625
vt 0.6821 0.759644
vt 0.65625 0.90625
vt 0.876662 0.90625
vt 0.65625 0.90625
vt 0.6821 0.759644
vt 0.850812 0.759644
vn 0.3420204667433958 -0.9396925030714196 0
vn -0.3420189444902161 0.9396930571254629 0
vn 0 0 -1
vn 0 0 1
vn 0.3420204667433958 -0.9396925030714196 0
vn -0.3420189444902161 0.9396930571254629 0
vn 0 0 -1
vn 0 0 1
usemtl m_1ed26267-02da-94ca-2551-5c78ba0add2c
f 65/193/65 66/194/65 67/195/65
f 68/196/66 69/197/66 70/198/66
f 71/199/67 67/200/67 69/201/67
f 72/202/68 70/203/68 66/204/68
f 65/205/69 72/206/69 66/207/69
f 68/208/70 71/209/70 69/210/70
f 71/211/71 65/212/71 67/213/71
f 72/214/72 68/215/72 70/216/72
o 10
v 0.11020440321982414 -0.6250003744054577 -0.04375
v -0.1102045258545496 -0.6249998380041182 0.05625
v -0.1102045258545496 -0.6249998380041182 -0.04375
v 0.08435320028088358 -0.4783919713324767 0.05625
v -0.08435307531363809 -0.4783918122179054 -0.04375
v -0.08435307531363809 -0.4783918122179054 0.05625
v 0.11020440321982414 -0.6250003744054577 0.05625
v 0.08435320028088358 -0.4783919713324767 -0.04375
vt 0.249787 0.5
vt 0.029375 0.59375
vt 0.029375 0.5
vt 0.057188 0.34375
vt 0.2259 0.25
vt 0.2259 0.34375
vt 0.225812 0.353394
vt 0.03125 0.5
vt 0.251662 0.5
vt 0.03125 0.5
vt 0.225812 0.353394
vt 0.251662 0.5
vt 0.249787 0.5
vt 0.249787 0.59375
vt 0.029375 0.59375
vt 0.057188 0.34375
vt 0.057188 0.25
vt 0.2259 0.25
vt 0.225812 0.353394
vt 0.0571 0.353394
vt 0.03125 0.5
vt 0.03125 0.5
vt 0.0571 0.353394
vt 0.225812 0.353394
vn -0.0000024336642889255526 -0.9999999999970388 0
vn 9.431455389452561e-7 0.9999999999995554 0
vn 0 0 -1
vn 0 0 1
vn -0.0000024336642889255526 -0.9999999999970388 0
vn 9.431455389452561e-7 0.9999999999995554 0
vn 0 0 -1
vn 0 0 1
usemtl m_1ed26267-02da-94ca-2551-5c78ba0add2c
f 73/217/73 74/218/73 75/219/73
f 76/220/74 77/221/74 78/222/74
f 77/223/75 73/224/75 75/225/75
f 79/226/76 78/227/76 74/228/76
f 73/229/77 79/230/77 74/231/77
f 76/232/78 80/233/78 77/234/78
f 77/235/79 80/236/79 73/237/79
f 79/238/80 76/239/80 78/240/80
o 11
v -0.1102045258545496 -0.6249998380041182 -0.04375
v -0.31732099999999985 -0.5496160943085638 0.05625
v -0.31732099999999985 -0.5496160943085638 -0.04375
v -0.08435307531363809 -0.4783918122179054 0.05625
v -0.24288599999999988 -0.4206908924471744 -0.04375
v -0.24288599999999988 -0.4206908924471744 0.05625
v -0.1102045258545496 -0.6249998380041182 0.05625
v -0.08435307531363809 -0.4783918122179054 -0.04375
vt 0.562288 0.5
vt 0.341875 0.59375
vt 0.341875 0.5
vt 0.369687 0.34375
vt 0.5384 0.25
vt 0.5384 0.34375
vt 0.538312 0.353394
vt 0.34375 0.5
vt 0.564162 0.5
vt 0.34375 0.5
vt 0.538312 0.353394
vt 0.564162 0.5
vt 0.562288 0.5
vt 0.562288 0.59375
vt 0.341875 0.59375
vt 0.369687 0.34375
vt 0.369687 0.25
vt 0.5384 0.25
vt 0.538312 0.353394
vt 0.3696 0.353394
vt 0.34375 0.5
vt 0.34375 0.5
vt 0.3696 0.353394
vt 0.538312 0.353394
vn -0.34201818857431476 -0.9396933322549142 0
vn 0.34201833251854596 0.9396932798638252 0
vn 0 0 -1
vn 0 0 1
vn -0.34201818857431476 -0.9396933322549142 0
vn 0.34201833251854596 0.9396932798638252 0
vn 0 0 -1
vn 0 0 1
usemtl m_1ed26267-02da-94ca-2551-5c78ba0add2c
f 81/241/81 82/242/81 83/243/81
f 84/244/82 85/245/82 86/246/82
f 85/247/83 81/248/83 83/249/83
f 87/250/84 86/251/84 82/252/84
f 81/253/85 87/254/85 82/255/85
f 84/256/86 88/257/86 85/258/86
f 85/259/87 88/260/87 81/261/87
f 87/262/88 84/263/88 86/264/88
o 12
v -0.31732099999999985 -0.5496160943085638 -0.04375
v -0.4861634741454502 -0.4079398380041182 0.05625
v -0.4861634741454502 -0.4079398380041182 -0.04375
v -0.24288599999999988 -0.4206908924471744 0.05625
v -0.37212292468636166 -0.31224781221790554 -0.04375
v -0.37212292468636166 -0.31224781221790554 0.05625
v -0.24288599999999988 -0.4206908924471744 -0.04375
v -0.31732099999999985 -0.5496160943085638 0.05625
vt 0.874788 0.5
vt 0.654375 0.59375
vt 0.654375 0.5
vt 0.682187 0.34375
vt 0.8509 0.25
vt 0.8509 0.34375
vt 0.680225 0.353394
vt 0.874788 0.5
vt 0.848938 0.353394
vt 0.874788 0.5
vt 0.680225 0.353394
vt 0.848938 0.353394
vt 0.874788 0.5
vt 0.874788 0.59375
vt 0.654375 0.59375
vt 0.682187 0.34375
vt 0.682187 0.25
vt 0.8509 0.25
vt 0.680225 0.353394
vt 0.654375 0.5
vt 0.874788 0.5
vt 0.874788 0.5
vt 0.654375 0.5
vt 0.680225 0.353394
vn -0.6427892032124489 -0.7660431059891507 0
vn 0.6427890858683194 0.7660432044529671 0
vn 0 0 -1
vn 0 0 1
vn -0.6427892032124489 -0.7660431059891507 0
vn 0.6427890858683194 0.7660432044529671 0
vn 0 0 -1
vn 0 0 1
usemtl m_1ed26267-02da-94ca-2551-5c78ba0add2c
f 89/265/89 90/266/89 91/267/89
f 92/268/90 93/269/90 94/270/90
f 95/271/91 91/272/91 93/273/91
f 90/274/92 92/275/92 94/276/92
f 89/277/93 96/278/93 90/279/93
f 92/280/94 95/281/94 93/282/94
f 95/283/95 89/284/95 91/285/95
f 90/286/96 96/287/96 92/288/96
o 18
v -0.31732099999999985 0.5496160943085638 -0.04375
v -0.1102045258545496 0.6249998380041182 0.05625
v -0.1102045258545496 0.6249998380041182 -0.04375
v -0.24288599999999988 0.4206908924471744 0.05625
v -0.08435307531363809 0.4783918122179054 -0.04375
v -0.08435307531363809 0.4783918122179054 0.05625
v -0.24288599999999988 0.4206908924471744 -0.04375
v -0.31732099999999985 0.5496160943085638 0.05625
vt 0.874788 0.5
vt 0.654375 0.59375
vt 0.654375 0.5
vt 0.682187 0.34375
vt 0.8509 0.25
vt 0.8509 0.34375
vt 0.680225 0.353394
vt 0.874788 0.5
vt 0.848938 0.353394
vt 0.874788 0.5
vt 0.680225 0.353394
vt 0.848938 0.353394
vt 0.874788 0.5
vt 0.874788 0.59375
vt 0.654375 0.59375
vt 0.682187 0.34375
vt 0.682187 0.25
vt 0.8509 0.25
vt 0.680225 0.353394
vt 0.654375 0.5
vt 0.874788 0.5
vt 0.874788 0.5
vt 0.654375 0.5
vt 0.680225 0.353394
vn -0.34201818857431476 0.9396933322549142 0
vn 0.34201833251854596 -0.9396932798638252 0
vn 0 0 -1
vn 0 0 1
vn -0.34201818857431476 0.9396933322549142 0
vn 0.34201833251854596 -0.9396932798638252 0
vn 0 0 -1
vn 0 0 1
usemtl m_1ed26267-02da-94ca-2551-5c78ba0add2c
f 97/289/97 98/290/97 99/291/97
f 100/292/98 101/293/98 102/294/98
f 103/295/99 99/296/99 101/297/99
f 98/298/100 100/299/100 102/300/100
f 97/301/101 104/302/101 98/303/101
f 100/304/102 103/305/102 101/306/102
f 103/307/103 97/308/103 99/309/103
f 98/310/104 104/311/104 100/312/104
o 13
v -0.48616387736527433 -0.4079394635986602 -0.04375
v -0.5963678773652743 -0.2170605364013396 0.05625
v -0.5963678773652743 -0.2170605364013396 -0.04375
v -0.3721231249672453 -0.3122478408854287 0.05625
v -0.4564761249672452 -0.16614415911457112 -0.04375
v -0.4564761249672452 -0.16614415911457112 0.05625
v -0.3721231249672453 -0.3122478408854287 -0.04375
v -0.48616387736527433 -0.4079394635986602 0.05625
vt 0.249787 0.90625
vt 0.029375 1
vt 0.029375 0.90625
vt 0.057188 0.75
vt 0.2259 0.65625
vt 0.2259 0.75
vt 0.0571 0.759644
vt 0.251662 0.90625
vt 0.225812 0.759644
vt 0.03125 0.90625
vt 0.225812 0.759644
vt 0.251662 0.90625
vt 0.249787 0.90625
vt 0.249787 1
vt 0.029375 1
vt 0.057188 0.75
vt 0.057188 0.65625
vt 0.2259 0.65625
vt 0.0571 0.759644
vt 0.03125 0.90625
vt 0.251662 0.90625
vt 0.03125 0.90625
vt 0.0571 0.759644
vt 0.225812 0.759644
vn -0.8660254037844388 -0.4999999999999998 0
vn 0.8660254037844388 0.4999999999999998 0
vn 0 0 -1
vn 0 0 1
vn -0.8660254037844388 -0.4999999999999998 0
vn 0.8660254037844388 0.4999999999999998 0
vn 0 0 -1
vn 0 0 1
usemtl m_1ed26267-02da-94ca-2551-5c78ba0add2c
f 105/313/105 106/314/105 107/315/105
f 108/316/106 109/317/106 110/318/106
f 111/319/107 107/320/107 109/321/107
f 112/322/108 110/323/108 106/324/108
f 105/325/109 112/326/109 106/327/109
f 108/328/110 111/329/110 109/330/110
f 111/331/111 105/332/111 107/333/111
f 112/334/112 108/335/112 110/336/112
o 14
v -0.5963678773652743 -0.2170605364013396 -0.04375
v -0.634641918326388 4.715428203461158e-8 0.05625
v -0.634641918326388 4.715428203461158e-8 -0.04375
v -0.4564761249672452 -0.16614415911457112 0.05625
v -0.48577209314347924 -5.3776412711759036e-8 -0.04375
v -0.48577209314347924 -5.3776412711759036e-8 0.05625
v -0.4564761249672452 -0.16614415911457112 -0.04375
v -0.5963678773652743 -0.2170605364013396 0.05625
vt 0.562288 0.90625
vt 0.341875 1
vt 0.341875 0.90625
vt 0.369687 0.75
vt 0.5384 0.65625
vt 0.5384 0.75
vt 0.3696 0.759644
vt 0.564162 0.90625
vt 0.538312 0.759644
vt 0.34375 0.90625
vt 0.538312 0.759644
vt 0.564162 0.90625
vt 0.562288 0.90625
vt 0.562288 1
vt 0.341875 1
vt 0.369687 0.75
vt 0.369687 0.65625
vt 0.5384 0.65625
vt 0.3696 0.759644
vt 0.34375 0.90625
vt 0.564162 0.90625
vt 0.34375 0.90625
vt 0.3696 0.759644
vt 0.538312 0.759644
vn -0.9848074398424744 -0.17364995373138215 0
vn 0.9848074694732378 0.17364978568866113 0
vn 0 0 -1
vn 0 0 1
vn -0.9848074398424744 -0.17364995373138215 0
vn 0.9848074694732378 0.17364978568866113 0
vn 0 0 -1
vn 0 0 1
usemtl m_1ed26267-02da-94ca-2551-5c78ba0add2c
f 113/337/113 114/338/113 115/339/113
f 116/340/114 117/341/114 118/342/114
f 119/343/115 115/344/115 117/345/115
f 120/346/116 118/347/116 114/348/116
f 113/349/117 120/350/117 114/351/117
f 116/352/118 119/353/118 117/354/118
f 119/355/119 113/356/119 115/357/119
f 120/358/120 116/359/120 118/360/120
o 15
v -0.634641918326388 4.715428203461158e-8 -0.04375
v -0.5963684032198239 0.21706037440545795 0.05625
v -0.5963684032198239 0.21706037440545795 -0.04375
v -0.48577209314347924 -5.3776412711759036e-8 0.05625
v -0.4564762002808834 0.16614397133247674 -0.04375
v -0.4564762002808834 0.16614397133247674 0.05625
v -0.48577209314347924 -5.3776412711759036e-8 -0.04375
v -0.634641918326388 4.715428203461158e-8 0.05625
vt 0.874788 0.90625
vt 0.654375 1
vt 0.654375 0.90625
vt 0.682187 0.75
vt 0.8509 0.65625
vt 0.8509 0.75
vt 0.6821 0.759644
vt 0.876662 0.90625
vt 0.850812 0.759644
vt 0.65625 0.90625
vt 0.850812 0.759644
vt 0.876662 0.90625
vt 0.874788 0.90625
vt 0.874788 1
vt 0.654375 1
vt 0.682187 0.75
vt 0.682187 0.65625
vt 0.8509 0.65625
vt 0.6821 0.759644
vt 0.65625 0.90625
vt 0.876662 0.90625
vt 0.65625 0.90625
vt 0.6821 0.759644
vt 0.850812 0.759644
vn -0.9848078127773338 0.17364783872171885 0
vn 0.9848075314756206 -0.17364943405866523 0
vn 0 0 -1
vn 0 0 1
vn -0.9848078127773338 0.17364783872171885 0
vn 0.9848075314756206 -0.17364943405866523 0
vn 0 0 -1
vn 0 0 1
usemtl m_1ed26267-02da-94ca-2551-5c78ba0add2c
f 121/361/121 122/362/121 123/363/121
f 124/364/122 125/365/122 126/366/122
f 127/367/123 123/368/123 125/369/123
f 128/370/124 126/371/124 122/372/124
f 121/373/125 128/374/125 122/375/125
f 124/376/126 127/377/126 125/378/126
f 127/379/127 121/380/127 123/381/127
f 128/382/128 124/383/128 126/384/128
o 16
v -0.5963684032198239 0.21706037440545795 -0.04375
v -0.4861634741454502 0.4079398380041182 0.05625
v -0.4861634741454502 0.4079398380041182 -0.04375
v -0.4564762002808834 0.16614397133247674 0.05625
v -0.37212292468636166 0.31224781221790554 -0.04375
v -0.37212292468636166 0.31224781221790554 0.05625
v -0.5963684032198239 0.21706037440545795 0.05625
v -0.4564762002808834 0.16614397133247674 -0.04375
vt 0.249787 0.5
vt 0.029375 0.59375
vt 0.029375 0.5
vt 0.057188 0.34375
vt 0.2259 0.25
vt 0.2259 0.34375
vt 0.225812 0.353394
vt 0.03125 0.5
vt 0.251662 0.5
vt 0.03125 0.5
vt 0.225812 0.353394
vt 0.251662 0.5
vt 0.249787 0.5
vt 0.249787 0.59375
vt 0.029375 0.59375
vt 0.057188 0.34375
vt 0.057188 0.25
vt 0.2259 0.25
vt 0.225812 0.353394
vt 0.0571 0.353394
vt 0.03125 0.5
vt 0.03125 0.5
vt 0.0571 0.353394
vt 0.225812 0.353394
vn -0.8660241869497294 0.5000021076136183 0
vn 0.8660249322112838 -0.5000008167877743 0
vn 0 0 -1
vn 0 0 1
vn -0.8660241869497294 0.5000021076136183 0
vn 0.8660249322112838 -0.5000008167877743 0
vn 0 0 -1
vn 0 0 1
usemtl m_1ed26267-02da-94ca-2551-5c78ba0add2c
f 129/385/129 130/386/129 131/387/129
f 132/388/130 133/389/130 134/390/130
f 133/391/131 129/392/131 131/393/131
f 135/394/132 134/395/132 130/396/132
f 129/397/133 135/398/133 130/399/133
f 132/400/134 136/401/134 133/402/134
f 133/403/135 136/404/135 129/405/135
f 135/406/136 132/407/136 134/408/136
o 17
v -0.4861634741454502 0.4079398380041182 -0.04375
v -0.31732099999999985 0.5496160943085638 0.05625
v -0.31732099999999985 0.5496160943085638 -0.04375
v -0.37212292468636166 0.31224781221790554 0.05625
v -0.24288599999999988 0.4206908924471744 -0.04375
v -0.24288599999999988 0.4206908924471744 0.05625
v -0.4861634741454502 0.4079398380041182 0.05625
v -0.37212292468636166 0.31224781221790554 -0.04375
vt 0.562288 0.5
vt 0.341875 0.59375
vt 0.341875 0.5
vt 0.369687 0.34375
vt 0.5384 0.25
vt 0.5384 0.34375
vt 0.538312 0.353394
vt 0.34375 0.5
vt 0.564162 0.5
vt 0.34375 0.5
vt 0.538312 0.353394
vt 0.564162 0.5
vt 0.562288 0.5
vt 0.562288 0.59375
vt 0.341875 0.59375
vt 0.369687 0.34375
vt 0.369687 0.25
vt 0.5384 0.25
vt 0.538312 0.353394
vt 0.3696 0.353394
vt 0.34375 0.5
vt 0.34375 0.5
vt 0.3696 0.353394
vt 0.538312 0.353394
vn -0.6427892032124489 0.7660431059891507 0
vn 0.6427890858683194 -0.7660432044529671 0
vn 0 0 -1
vn 0 0 1
vn -0.6427892032124489 0.7660431059891507 0
vn 0.6427890858683194 -0.7660432044529671 0
vn 0 0 -1
vn 0 0 1
usemtl m_1ed26267-02da-94ca-2551-5c78ba0add2c
f 137/409/137 138/410/137 139/411/137
f 140/412/138 141/413/138 142/414/138
f 141/415/139 137/416/139 139/417/139
f 143/418/140 142/419/140 138/420/140
f 137/421/141 143/422/141 138/423/141
f 140/424/142 144/425/142 141/426/142
f 141/427/143 144/428/143 137/429/143
f 143/430/144 140/431/144 142/432/144