# Made in Blockbench 5.1.4
mtllib orlin_coil.mtl

o orlin_coil
v 0.433196 0.454578 -0.01875
v 0.664228 0.639835 -0.01875
v 0.460172 0.428529 -0.01875
v 0.664228 0.639835 0.01875
v 0.460172 0.428529 0.01875
v 0.637252 0.665885 0.01875
v 0.433196 0.454578 0.01875
v 0.637252 0.665885 -0.01875
vt 0.03125 0
vt 0.021875 0.073438
vt 0.021875 0
vt 0.03125 0
vt 0.021875 0.073438
vt 0.021875 0
vt 0.009375000000000001 0
vt 0 0.073438
vt 0 0
vt 0.009375000000000001 0
vt 0 0.073438
vt 0 0
vt 0.009375000000000001 0.07187500000000002
vt 0 0.08125000000000004
vt 0 0.07187500000000002
vt 0.009375000000000001 0.050000000000000044
vt 0 0.05937500000000007
vt 0 0.050000000000000044
vt 0.03125 0
vt 0.03125 0.073438
vt 0.021875 0.073438
vt 0.03125 0
vt 0.03125 0.073438
vt 0.021875 0.073438
vt 0.009375000000000001 0
vt 0.009375000000000001 0.073438
vt 0 0.073438
vt 0.009375000000000001 0
vt 0.009375000000000001 0.073438
vt 0 0.073438
vt 0.009375000000000001 0.07187500000000002
vt 0.009375000000000001 0.08125000000000004
vt 0 0.08125000000000004
vt 0.009375000000000001 0.050000000000000044
vt 0.009375000000000001 0.05937500000000007
vt 0 0.05937500000000007
vn 0 0 -1
vn 0.7193395149795889 -0.694658665956835 0
vn 0 0 1
vn -0.7193411576990775 0.6946569648683809 0
vn 0.694652569746567 0.7193454019763322 0
vn -0.6946387707683187 -0.7193587270239231 0
vn 0 0 -1
vn 0.7193395149795889 -0.694658665956835 0
vn 0 0 1
vn -0.7193411576990775 0.6946569648683809 0
vn 0.694652569746567 0.7193454019763322 0
vn -0.6946387707683187 -0.7193587270239231 0
usemtl m_1ed26267-02da-94ca-2551-5c78ba0add2c
f 1/1/1 2/2/1 3/3/1
f 3/4/2 4/5/2 5/6/2
f 5/7/3 6/8/3 7/9/3
f 7/10/4 8/11/4 1/12/4
f 4/13/5 8/14/5 6/15/5
f 3/16/6 7/17/6 1/18/6
f 1/19/7 8/20/7 2/21/7
f 3/22/8 2/23/8 4/24/8
f 5/25/9 4/26/9 6/27/9
f 7/28/10 6/29/10 8/30/10
f 4/31/11 2/32/11 8/33/11
f 3/34/12 5/35/12 7/36/12