# Blender v3.0.0 OBJ File: ''
# www.blender.org
mtllib stand.mtl
o cube.002
v 0.250000 0.000000 -0.437500
v 0.250000 0.125000 -0.437500
v 0.250000 0.125000 0.375000
v 0.250000 -0.000000 0.375000
v -0.250000 -0.000000 0.375000
v -0.250000 0.125000 0.375000
v -0.250000 0.125000 -0.437500
v -0.250000 0.000000 -0.437500
v 0.250000 0.125000 -0.437500
v 0.250000 0.250000 -0.437500
v 0.250000 0.250000 0.125000
v 0.250000 0.125000 0.125000
v -0.250000 0.125000 0.125000
v -0.250000 0.250000 0.125000
v -0.250000 0.250000 -0.437500
v -0.250000 0.125000 -0.437500
v 0.250000 0.250000 -0.437500
v 0.250000 0.375000 -0.437500
v 0.250000 0.375000 -0.125000
v 0.250000 0.250000 -0.125000
v -0.250000 0.250000 -0.125000
v -0.250000 0.375000 -0.125000
v -0.250000 0.375000 -0.437500
v -0.250000 0.250000 -0.437500
vt 0.906250 0.687500
vt 0.500000 0.625000
vt 0.906250 0.625000
vt 0.906250 0.625000
vt 0.500000 0.562500
vt 0.906250 0.562500
vt 0.000000 0.593750
vt 0.250000 1.000000
vt 0.000000 1.000000
vt 0.250000 1.000000
vt 0.500000 0.593750
vt 0.250000 0.593750
vt 0.500000 0.312500
vt 0.250000 0.250000
vt 0.500000 0.250000
vt 0.250000 0.312500
vt 0.000000 0.250000
vt 0.250000 0.250000
vt 0.781250 0.562500
vt 0.500000 0.500000
vt 0.781250 0.500000
vt 0.781250 0.500000
vt 0.500000 0.437500
vt 0.781250 0.437500
vt 0.000000 0.312500
vt 0.250000 0.593750
vt 0.000000 0.593750
vt 0.250000 0.593750
vt 0.500000 0.312500
vt 0.250000 0.312500
vt 0.750000 0.375000
vt 0.500000 0.312500
vt 0.750000 0.312500
vt 0.750000 0.437500
vt 0.500000 0.375000
vt 0.750000 0.375000
vt 0.906250 1.000000
vt 0.750000 0.937500
vt 0.906250 0.937500
vt 0.906250 0.937500
vt 0.750000 0.875000
vt 0.906250 0.875000
vt 0.500000 0.843750
vt 0.750000 1.000000
vt 0.500000 1.000000
vt 0.500000 0.843750
vt 0.750000 0.687500
vt 0.500000 0.687500
vt 0.250000 0.250000
vt 0.000000 0.187500
vt 0.250000 0.187500
vt 0.750000 0.312500
vt 0.500000 0.250000
vt 0.750000 0.250000
vt 0.500000 1.000000
vt 0.250000 0.312500
vt 0.500000 0.593750
vt 0.500000 0.375000
vt 0.750000 1.000000
vt 0.750000 0.937500
vt 0.750000 0.843750
vt 0.750000 0.843750
vt 0.000000 0.250000
vt 0.500000 0.312500
vt 0.500000 0.687500
vt 0.500000 0.625000
vt 0.250000 0.593750
vt 0.000000 0.312500
vt 0.500000 0.562500
vt 0.500000 0.500000
vt 0.250000 0.312500
vt 0.500000 0.437500
vn 1.0000 0.0000 0.0000
vn -1.0000 -0.0000 0.0000
vn 0.0000 1.0000 0.0000
vn 0.0000 -1.0000 -0.0000
vn 0.0000 -0.0000 1.0000
vn 0.0000 0.0000 -1.0000
usemtl m_af55f593-9348-a1ee-571b-75701c80b92a.001
s 1
f 2/1/1 4/2/1 1/3/1
f 6/4/2 8/5/2 5/6/2
f 2/7/3 6/8/3 3/9/3
f 4/10/4 8/11/4 1/12/4
f 3/13/5 5/14/5 4/15/5
f 7/16/6 1/17/6 8/18/6
f 10/19/1 12/20/1 9/21/1
f 14/22/2 16/23/2 13/24/2
f 10/25/3 14/26/3 11/27/3
f 12/28/4 16/29/4 9/30/4
f 11/31/5 13/32/5 12/33/5
f 15/34/6 9/35/6 16/36/6
f 18/37/1 20/38/1 17/39/1
f 22/40/2 24/41/2 21/42/2
f 18/43/3 22/44/3 19/45/3
f 20/46/4 24/47/4 17/48/4
f 19/49/5 21/50/5 20/51/5
f 23/52/6 17/53/6 24/54/6
f 4/10/4 5/55/4 8/11/4
f 3/13/5 6/56/5 5/14/5
f 12/28/4 13/57/4 16/29/4
f 11/31/5 14/58/5 13/32/5
f 18/37/1 19/59/1 20/38/1
f 22/40/2 23/60/2 24/41/2
f 18/43/3 23/61/3 22/44/3
f 20/46/4 21/62/4 24/47/4
f 19/49/5 22/63/5 21/50/5
f 23/52/6 18/64/6 17/53/6
f 2/1/1 3/65/1 4/2/1
f 6/4/2 7/66/2 8/5/2
f 2/7/3 7/67/3 6/8/3
f 7/16/6 2/68/6 1/17/6
f 10/19/1 11/69/1 12/20/1
f 14/22/2 15/70/2 16/23/2
f 10/25/3 15/71/3 14/26/3
f 15/34/6 10/72/6 9/35/6
