# Made in Blockbench 5.1.4
mtllib orlin_coil_burnt_tr.mtl

o orlin_coil_burnt_tr
v 0.433196 0.454578 -0.01875
v 0.551346 0.522942 -0.01875
v 0.460172 0.428529 -0.01875
v 0.551346 0.522942 0.01875
v 0.460172 0.428529 0.01875
v 0.433196 0.454578 0.01875
v 0.52437 0.548992 0.01875
v 0.52437 0.548992 -0.01875
vt 0.03125 0
vt 0.021875000000000006 0.03281199999999995
vt 0.021875000000000006 0
vt 0.03125 0
vt 0.021875000000000006 0.03281199999999995
vt 0.021875000000000006 0
vt 0 0
vt 0.009374999999999994 0.03281199999999995
vt 0 0.03281199999999995
vt 0.009374999999999994 0
vt 0 0.03281199999999995
vt 0 0
vt 0.009374999999999994 0.042186999999999975
vt 0 0.051562
vt 0 0.042186999999999975
vt 0.009374999999999994 0.020311999999999997
vt 0 0.02968700000000002
vt 0 0.020311999999999997
vt 0.03125 0
vt 0.03125 0.03281199999999995
vt 0.021875000000000006 0.03281199999999995
vt 0.03125 0
vt 0.03125 0.03281199999999995
vt 0.021875000000000006 0.03281199999999995
vt 0 0
vt 0.009374999999999994 0
vt 0.009374999999999994 0.03281199999999995
vt 0.009374999999999994 0
vt 0.009374999999999994 0.03281199999999995
vt 0 0.03281199999999995
vt 0.009374999999999994 0.042186999999999975
vt 0.009374999999999994 0.051562
vt 0 0.051562
vt 0.009374999999999994 0.020311999999999997
vt 0.009374999999999994 0.02968700000000002
vt 0 0.02968700000000002
vn 0 0 -1
vn 0.7193381795922156 -0.694660048787144 0
vn 0 0 1
vn -0.7193418561584008 0.6946562415890226 0
vn 0.6946525697465685 0.7193454019763308 0
vn -0.6946387707683187 -0.7193587270239231 0
vn 0 0 -1
vn 0.7193381795922156 -0.694660048787144 0
vn 0 0 1
vn -0.7193418561584008 0.6946562415890226 0
vn 0.6946525697465685 0.7193454019763308 0
vn -0.6946387707683187 -0.7193587270239231 0
usemtl m_1ed26267-02da-94ca-2551-5c78ba0add2c
f 1/1/1 2/2/1 3/3/1
f 3/4/2 4/5/2 5/6/2
f 6/7/3 4/8/3 7/9/3
f 6/10/4 8/11/4 1/12/4
f 4/13/5 8/14/5 7/15/5
f 3/16/6 6/17/6 1/18/6
f 1/19/7 8/20/7 2/21/7
f 3/22/8 2/23/8 4/24/8
f 6/25/9 5/26/9 4/27/9
f 6/28/10 7/29/10 8/30/10
f 4/31/11 2/32/11 8/33/11
f 3/34/12 5/35/12 6/36/12