# Blender v3.0.0 OBJ File: ''
# www.blender.org
mtllib orlin_coil_burnt_br.mtl
o orlin_coil_burnt_br
v 0.451946 -0.479578 -0.018750
v 0.478922 -0.453529 -0.018750
v 0.500630 -0.476008 -0.018750
v 0.473654 -0.502058 -0.018750
v 0.451946 -0.479578 0.018750
v 0.473654 -0.502058 0.018750
v 0.478922 -0.453529 0.018750
v 0.500630 -0.476008 0.018750
vt 0.031250 0.948438
vt 0.021875 0.956250
vt 0.021875 0.948438
vt 0.031250 0.948438
vt 0.021875 0.956250
vt 0.021875 0.948438
vt 0.000000 0.948438
vt 0.009375 0.956250
vt 0.000000 0.956250
vt 0.009375 0.948438
vt 0.000000 0.956250
vt 0.000000 0.948438
vt 0.009375 0.990625
vt 0.000000 1.000000
vt 0.000000 0.990625
vt 0.009375 0.968750
vt 0.000000 0.978125
vt 0.000000 0.968750
vt 0.031250 0.956250
vt 0.031250 0.956250
vt 0.009375 0.948438
vt 0.009375 0.956250
vt 0.009375 1.000000
vt 0.009375 0.978125
vn 0.0000 0.0000 -1.0000
vn -0.7193 -0.6947 0.0000
vn 0.0000 -0.0000 1.0000
vn 0.7193 0.6947 0.0000
vn 0.6947 -0.7193 0.0000
vn -0.6947 0.7193 0.0000
usemtl m_6431020e-faf4-ebd4-b16d-7fea76132b8a.001
s 1
f 2/1/1 4/2/1 1/3/1
f 1/4/2 6/5/2 5/6/2
f 7/7/3 6/8/3 8/9/3
f 7/10/4 3/11/4 2/12/4
f 6/13/5 3/14/5 8/15/5
f 1/16/6 7/17/6 2/18/6
f 2/1/1 3/19/1 4/2/1
f 1/4/2 4/20/2 6/5/2
f 7/7/3 5/21/3 6/8/3
f 7/10/4 8/22/4 3/11/4
f 6/13/5 4/23/5 3/14/5
f 1/16/6 5/24/6 7/17/6
