# Blender v3.0.0 OBJ File: ''
# www.blender.org
mtllib chevron_frame.mtl
o right
v -0.058224 4.706250 -0.281236
v -0.211691 5.228125 -0.281236
v -0.011362 4.706250 -0.281236
v -0.211691 5.228125 0.343702
v -0.011362 4.706250 0.343702
v -0.058224 4.706250 0.343702
v -0.258553 5.228125 0.343702
v -0.258553 5.228125 -0.281236
vt 0.247656 0.788314
vt 0.242188 0.831384
vt 0.242188 0.786980
vt 0.320312 0.786980
vt 0.242195 0.831384
vt 0.242195 0.786980
vt 0.244531 0.788314
vt 0.250000 0.831384
vt 0.244531 0.832718
vt 0.244141 0.788314
vt 0.322258 0.832718
vt 0.244141 0.832718
vt 0.312720 0.834363
vt 0.283203 0.787109
vt 0.283881 0.834362
vt 0.318148 0.787513
vt 0.241594 0.834325
vt 0.325960 0.834325
vt 0.247656 0.832718
vt 0.320312 0.831384
vt 0.250000 0.786980
vt 0.322258 0.788314
vt 0.320533 0.834363
vt 0.320312 0.787109
vt 0.244141 0.787109
vt 0.241594 0.787513
vn 0.0000 0.0000 -1.0000
vn 0.9336 0.3584 0.0000
vn 0.0000 -0.0000 1.0000
vn -0.9336 -0.3584 0.0000
vn 0.0000 -1.0000 0.0000
vn 0.0000 1.0000 0.0000
usemtl m_3326e610-1839-8a8f-4c19-b835e2dcf0dc
s 1
f 1/1/1 2/2/1 3/3/1
f 3/4/2 4/5/2 5/6/2
f 6/7/3 4/8/3 7/9/3
f 1/10/4 7/11/4 8/12/4
f 3/13/5 6/14/5 1/15/5
f 2/16/6 7/17/6 4/18/6
f 1/1/1 8/19/1 2/2/1
f 3/4/2 2/20/2 4/5/2
f 6/7/3 5/21/3 4/8/3
f 1/10/4 6/22/4 7/11/4
f 3/23/5 5/24/5 6/25/5
f 2/16/6 8/26/6 7/17/6
o bottom
v 0.061526 4.846875 -0.281248
v -0.011362 4.706250 -0.281248
v -0.065343 4.846875 -0.281248
v -0.011362 4.706250 0.343752
v 0.061526 4.846875 0.343752
v -0.065343 4.846875 0.343752
v 0.007546 4.706250 0.343752
v -0.011362 4.706250 -0.021284
v 0.007546 4.706250 -0.031465
v 0.007546 4.706250 -0.281248
vt 0.254162 0.828125
vt 0.263577 0.810547
vt 0.270549 0.828125
vt 0.259861 0.810547
vt 0.269275 0.828125
vt 0.252888 0.828125
vt 0.241406 0.829822
vt 0.319531 0.813435
vt 0.319531 0.829822
vt 0.241406 0.824803
vt 0.287036 0.822361
vt 0.288308 0.824803
vt 0.319531 0.822361
vt 0.302730 0.797928
vt 0.283189 0.785844
vt 0.270180 0.797928
vt 0.297528 0.798945
vt 0.297528 0.786980
vt 0.283989 0.786980
vt 0.261135 0.810547
vt 0.262303 0.810547
vt 0.241406 0.813435
vt 0.241406 0.822361
vt 0.319531 0.824803
vt 0.302730 0.785844
vt 0.270180 0.785844
vt 0.264978 0.786980
vt 0.264978 0.798945
vn 0.0000 0.0000 -1.0000
vn 0.0000 0.0000 1.0000
vn 0.0000 1.0000 0.0000
vn 0.0000 -1.0000 0.0000
vn 0.9336 -0.3584 0.0000
vn -0.9336 -0.3584 0.0000
usemtl m_3326e610-1839-8a8f-4c19-b835e2dcf0dc
s 1
f 9/27/7 10/28/7 11/29/7
f 12/30/8 13/31/8 14/32/8
f 9/33/9 14/34/9 13/35/9
f 15/36/10 16/37/10 17/38/10
f 10/39/10 17/38/10 16/37/10
f 13/40/11 17/41/11 9/42/11
f 11/43/12 10/44/12 16/45/12
f 9/27/7 18/46/7 10/28/7
f 12/30/8 15/47/8 13/31/8
f 9/33/9 11/48/9 14/34/9
f 15/36/10 12/49/10 16/37/10
f 10/39/10 18/50/10 17/38/10
f 15/51/11 17/41/11 13/40/11
f 17/41/11 18/52/11 9/42/11
f 16/45/12 12/53/12 14/54/12
f 14/54/12 11/43/12 16/45/12
o left
v 0.054408 4.706250 -0.281236
v 0.207875 5.228125 -0.281236
v 0.254737 5.228125 -0.281236
v 0.254737 5.228125 0.343702
v 0.054408 4.706250 0.343702
v 0.207875 5.228125 0.343702
v 0.007546 4.706250 0.343702
v 0.007546 4.706250 -0.281236
vt 0.250000 0.787191
vt 0.255469 0.830689
vt 0.250000 0.832037
vt 0.320312 0.787191
vt 0.242195 0.832037
vt 0.242195 0.787191
vt 0.250000 0.787191
vt 0.244531 0.830689
vt 0.244531 0.785844
vt 0.244141 0.785844
vt 0.322258 0.830689
vt 0.244141 0.830689
vt 0.298506 0.826550
vt 0.269668 0.787550
vt 0.269668 0.826549
vt 0.300665 0.787512
vt 0.263175 0.826513
vt 0.300665 0.826513
vt 0.255469 0.785844
vt 0.320312 0.832037
vt 0.250000 0.832037
vt 0.322258 0.785844
vt 0.298506 0.787550
vt 0.263175 0.787512
vn 0.0000 0.0000 -1.0000
vn 0.9336 -0.3584 0.0000
vn 0.0000 -0.0000 1.0000
vn -0.9336 0.3584 0.0000
vn 0.0000 -1.0000 0.0000
vn 0.0000 1.0000 0.0000
usemtl m_3326e610-1839-8a8f-4c19-b835e2dcf0dc
s 1
f 19/55/13 20/56/13 21/57/13
f 19/58/14 22/59/14 23/60/14
f 23/61/15 24/62/15 25/63/15
f 26/64/16 24/65/16 20/66/16
f 19/67/17 25/68/17 26/69/17
f 21/70/18 24/71/18 22/72/18
f 19/55/13 26/73/13 20/56/13
f 19/58/14 21/74/14 22/59/14
f 23/61/15 22/75/15 24/62/15
f 26/64/16 25/76/16 24/65/16
f 19/67/17 23/77/17 25/68/17
f 21/70/18 20/78/18 24/71/18
o right_front
v -0.200000 5.059375 -0.084374
v -0.200000 5.075589 -0.084374
v -0.202913 5.083178 -0.084374
v -1.131250 5.059375 -0.084374
v -1.131250 5.067562 -0.246874
v -1.131250 5.059375 -0.246874
v -0.200000 5.075589 -0.099988
v -0.200000 5.059375 -0.246874
v -1.131250 5.067562 -0.084374
v -0.256151 5.221866 -0.090709
v -0.202913 5.083178 -0.246874
v -0.200000 5.075589 -0.246874
v -0.256151 5.221866 -0.084374
v -0.256151 5.221866 -0.246874
vt 0.358594 0.814844
vt 0.358594 0.816870
vt 0.358229 0.817819
vt 0.292969 0.822656
vt 0.272656 0.823680
vt 0.272656 0.822656
vt 0.250000 0.816870
vt 0.250000 0.814844
vt 0.251952 0.816870
vt 0.364062 0.836718
vt 0.247656 0.836718
vt 0.247656 0.816406
vt 0.365545 0.816406
vt 0.254470 0.817198
vt 0.365545 0.836718
vt 0.358594 0.814844
vt 0.358229 0.817819
vt 0.358594 0.816870
vt 0.359387 0.835155
vt 0.366406 0.814844
vt 0.366042 0.817819
vt 0.250000 0.815867
vt 0.250000 0.814844
vt 0.355469 0.814844
vt 0.355469 0.815867
vt 0.335156 0.815867
vt 0.270312 0.814844
vt 0.366406 0.816406
vt 0.366406 0.836718
vt 0.250000 0.816406
vt 0.365580 0.836718
vt 0.254506 0.836718
vt 0.250000 0.815867
vt 0.366406 0.814844
vt 0.250000 0.814844
vt 0.359387 0.835155
vt 0.366042 0.817819
vt 0.248436 0.820385
vt 0.248436 0.832185
vt 0.266797 0.819739
vt 0.254470 0.816406
vt 0.270312 0.816870
vt 0.267956 0.832185
vt 0.268748 0.832185
vt 0.268748 0.820385
vt 0.268748 0.819739
vt 0.248436 0.819739
vn -0.0000 -0.0000 1.0000
vn -1.0000 0.0000 0.0000
vn 1.0000 0.0000 0.0000
vn 0.0000 -1.0000 0.0000
vn -0.1736 0.9848 0.0000
vn 0.0000 0.0000 -1.0000
vn 0.9336 0.3584 0.0000
usemtl m_3326e610-1839-8a8f-4c19-b835e2dcf0dc
s 1
f 27/79/19 28/80/19 29/81/19
f 30/82/20 31/83/20 32/84/20
f 28/85/21 27/86/21 33/87/21
f 32/88/22 34/89/22 27/90/22
f 35/91/23 36/92/23 31/93/23
f 34/94/24 37/95/24 38/96/24
f 39/97/19 27/98/19 29/99/19
f 35/100/19 30/101/19 27/98/19
f 30/102/20 35/103/20 31/104/20
f 34/105/21 33/87/21 27/86/21
f 30/106/22 32/107/22 27/108/22
f 31/109/23 36/92/23 40/110/23
f 31/111/24 34/112/24 32/113/24
f 34/112/24 40/114/24 37/115/24
f 37/116/25 40/117/25 33/118/25
f 35/91/23 39/119/23 36/92/23
f 39/97/19 35/100/19 27/98/19
f 34/105/21 38/120/21 33/87/21
f 34/112/24 31/111/24 40/114/24
f 40/117/25 36/121/25 33/118/25
f 36/121/25 39/122/25 29/123/25
f 29/123/25 28/124/25 33/118/25
f 36/121/25 29/123/25 33/118/25
f 33/118/25 38/125/25 37/116/25
o left_front
v 0.200000 5.085530 -0.246872
v 0.204700 5.097773 -0.246872
v 0.200000 5.059375 -0.246872
v 1.131250 5.059375 -0.246872
v 1.131250 5.067562 -0.084372
v 1.131250 5.059375 -0.084372
v 0.200000 5.085530 -0.221685
v 0.200000 5.059375 -0.084372
v 0.252576 5.222496 -0.241175
v 1.131250 5.067562 -0.246872
v 0.252576 5.222496 -0.246872
v 0.200000 5.085530 -0.084372
v 0.204700 5.097773 -0.084372
v 0.252576 5.222496 -0.084372
vt 0.366406 0.818113
vt 0.365819 0.819643
vt 0.366406 0.814844
vt 0.292969 0.830469
vt 0.272656 0.831492
vt 0.272656 0.830469
vt 0.250000 0.814844
vt 0.253148 0.818113
vt 0.250000 0.818113
vt 0.247656 0.836718
vt 0.247656 0.816406
vt 0.364062 0.836718
vt 0.254016 0.817119
vt 0.365545 0.816406
vt 0.254016 0.816406
vt 0.366406 0.818113
vt 0.366406 0.814844
vt 0.365819 0.819643
vt 0.359834 0.835234
vt 0.366406 0.822656
vt 0.250000 0.823680
vt 0.250000 0.822656
vt 0.347656 0.814844
vt 0.347656 0.815867
vt 0.327344 0.815867
vt 0.346898 0.818113
vt 0.364062 0.814844
vt 0.364062 0.818113
vt 0.364062 0.816406
vt 0.254052 0.836718
vt 0.365580 0.836718
vt 0.254052 0.817119
vt 0.250000 0.814844
vt 0.250000 0.815867
vt 0.359834 0.835234
vt 0.315305 0.831553
vt 0.316017 0.820835
vt 0.312869 0.819783
vt 0.365545 0.836718
vt 0.250000 0.815867
vt 0.343750 0.814844
vt 0.295705 0.819783
vt 0.295705 0.820835
vt 0.295705 0.831553
vt 0.316017 0.831553
vt 0.316017 0.819783
vn 0.0000 0.0000 -1.0000
vn 1.0000 0.0000 0.0000
vn -1.0000 0.0000 0.0000
vn 0.0000 -1.0000 0.0000
vn 0.1736 0.9848 0.0000
vn 0.0000 0.0000 1.0000
vn -0.9336 0.3584 -0.0000
usemtl m_3326e610-1839-8a8f-4c19-b835e2dcf0dc
s 1
f 41/126/26 42/127/26 43/128/26
f 44/129/27 45/130/27 46/131/27
f 43/132/28 47/133/28 41/134/28
f 48/135/29 43/136/29 46/137/29
f 49/138/30 50/139/30 51/140/30
f 52/141/31 48/142/31 53/143/31
f 51/144/26 43/128/26 42/127/26
f 43/145/26 50/146/26 44/147/26
f 44/148/27 50/149/27 45/150/27
f 47/151/28 48/152/28 52/153/28
f 43/136/29 44/154/29 46/137/29
f 54/155/30 45/156/30 49/157/30
f 48/142/31 46/158/31 45/159/31
f 48/142/31 54/160/31 53/143/31
f 49/161/32 42/162/32 47/163/32
f 49/138/30 45/164/30 50/139/30
f 51/144/26 50/165/26 43/128/26
f 47/151/28 43/166/28 48/152/28
f 48/142/31 45/159/31 54/160/31
f 52/167/32 53/168/32 47/163/32
f 53/168/32 54/169/32 47/163/32
f 47/163/32 54/169/32 49/161/32
f 49/161/32 51/170/32 42/162/32
f 42/162/32 41/171/32 47/163/32
o rigth_back
v -0.200000 5.059375 0.246876
v -0.200000 5.075589 0.246876
v -0.202913 5.083178 0.246876
v -1.131250 5.059375 0.246876
v -1.131250 5.067562 0.084376
v -1.131250 5.059375 0.084376
v -0.200000 5.075589 0.231262
v -0.200000 5.059375 0.084376
v -1.131250 5.067562 0.246876
v -0.256151 5.221866 0.240541
v -0.202913 5.083178 0.084376
v -0.200000 5.075589 0.084376
v -0.256151 5.221866 0.246876
v -0.256151 5.221866 0.084376
vt 0.358594 0.814844
vt 0.358594 0.816870
vt 0.358229 0.817819
vt 0.332031 0.830469
vt 0.311719 0.831492
vt 0.311719 0.830469
vt 0.257812 0.814844
vt 0.259764 0.816870
vt 0.257812 0.816870
vt 0.364062 0.836718
vt 0.247656 0.836718
vt 0.247656 0.816406
vt 0.365545 0.816406
vt 0.254470 0.817198
vt 0.365545 0.836718
vt 0.366406 0.814844
vt 0.366042 0.817819
vt 0.366406 0.816870
vt 0.359387 0.835155
vt 0.366406 0.814844
vt 0.366042 0.817819
vt 0.250000 0.815867
vt 0.250000 0.814844
vt 0.324219 0.822656
vt 0.324219 0.823680
vt 0.303906 0.823680
vt 0.285937 0.814844
vt 0.267577 0.816870
vt 0.265625 0.814844
vt 0.364062 0.816406
vt 0.254470 0.836718
vt 0.250000 0.815867
vt 0.250000 0.814844
vt 0.359387 0.835155
vt 0.289842 0.832185
vt 0.309363 0.832185
vt 0.308203 0.819739
vt 0.254470 0.816406
vt 0.285937 0.816870
vt 0.310155 0.832185
vt 0.310155 0.820385
vt 0.310155 0.819739
vt 0.289842 0.819739
vt 0.289842 0.820385
vn -0.0000 -0.0000 1.0000
vn -1.0000 0.0000 0.0000
vn 1.0000 -0.0000 0.0000
vn 0.0000 -1.0000 0.0000
vn -0.1736 0.9848 0.0000
vn 0.0000 0.0000 -1.0000
vn 0.9336 0.3584 0.0000
usemtl m_3326e610-1839-8a8f-4c19-b835e2dcf0dc
s 1
f 55/172/33 56/173/33 57/174/33
f 58/175/34 59/176/34 60/177/34
f 55/178/35 61/179/35 56/180/35
f 60/181/36 62/182/36 55/183/36
f 63/184/37 64/185/37 59/186/37
f 62/187/38 65/188/38 66/189/38
f 67/190/33 55/191/33 57/192/33
f 63/193/33 58/194/33 55/191/33
f 58/195/34 63/196/34 59/197/34
f 62/198/35 61/199/35 55/200/35
f 58/201/36 60/181/36 55/183/36
f 59/186/37 64/185/37 68/202/37
f 59/203/38 62/187/38 60/204/38
f 62/187/38 68/205/38 65/188/38
f 68/206/39 64/207/39 61/208/39
f 63/184/37 67/209/37 64/185/37
f 67/190/33 63/193/33 55/191/33
f 62/198/35 66/210/35 61/199/35
f 62/187/38 59/203/38 68/205/38
f 67/211/39 57/212/39 64/207/39
f 57/212/39 56/213/39 61/208/39
f 61/208/39 66/214/39 65/215/39
f 57/212/39 61/208/39 64/207/39
f 65/215/39 68/206/39 61/208/39
o left_back
v 0.200000 5.085530 0.084378
v 0.204700 5.097773 0.084378
v 0.200000 5.059375 0.084378
v 1.131250 5.059375 0.084378
v 1.131250 5.067562 0.246878
v 1.131250 5.059375 0.246878
v 0.200000 5.085530 0.109565
v 0.200000 5.059375 0.246878
v 0.252576 5.222496 0.090075
v 1.131250 5.067562 0.084378
v 0.252576 5.222496 0.084378
v 0.200000 5.085530 0.246878
v 0.204700 5.097773 0.246878
v 0.252576 5.222496 0.246878
vt 0.335156 0.818113
vt 0.334569 0.819643
vt 0.335156 0.814844
vt 0.324219 0.822656
vt 0.303906 0.823680
vt 0.303906 0.822656
vt 0.289062 0.814844
vt 0.292211 0.818113
vt 0.289062 0.818113
vt 0.247656 0.836718
vt 0.247656 0.816406
vt 0.364062 0.836718
vt 0.254016 0.817119
vt 0.365545 0.816406
vt 0.254016 0.816406
vt 0.350781 0.818113
vt 0.350781 0.814844
vt 0.350194 0.819643
vt 0.366406 0.814844
vt 0.359834 0.835234
vt 0.250000 0.815867
vt 0.250000 0.814844
vt 0.308594 0.822656
vt 0.308594 0.823680
vt 0.288281 0.823680
vt 0.309375 0.814844
vt 0.250000 0.816406
vt 0.366406 0.816406
vt 0.366406 0.836718
vt 0.254016 0.836718
vt 0.365545 0.836718
vt 0.366406 0.814844
vt 0.250000 0.814844
vt 0.250000 0.815867
vt 0.359834 0.835234
vt 0.365819 0.819643
vt 0.273899 0.831553
vt 0.274611 0.820835
vt 0.271462 0.819783
vt 0.365819 0.819643
vt 0.309375 0.818113
vt 0.274611 0.831553
vt 0.274611 0.819783
vt 0.254298 0.819783
vt 0.254298 0.820835
vt 0.254298 0.831553
vn 0.0000 0.0000 -1.0000
vn 1.0000 0.0000 0.0000
vn -1.0000 0.0000 0.0000
vn 0.0000 -1.0000 0.0000
vn 0.1736 0.9848 0.0000
vn 0.0000 -0.0000 1.0000
vn -0.9336 0.3584 -0.0000
usemtl m_3326e610-1839-8a8f-4c19-b835e2dcf0dc
s 1
f 69/216/40 70/217/40 71/218/40
f 72/219/41 73/220/41 74/221/41
f 71/222/42 75/223/42 69/224/42
f 76/225/43 71/226/43 74/227/43
f 77/228/44 78/229/44 79/230/44
f 80/231/45 76/232/45 81/233/45
f 71/234/40 79/235/40 78/236/40
f 71/234/40 78/236/40 72/237/40
f 72/238/41 78/239/41 73/240/41
f 76/241/42 75/223/42 71/222/42
f 71/242/43 72/243/43 74/244/43
f 82/245/44 73/246/44 77/228/44
f 76/247/45 74/248/45 73/249/45
f 76/247/45 82/250/45 81/251/45
f 77/252/46 70/253/46 75/254/46
f 77/228/44 73/246/44 78/229/44
f 71/234/40 70/255/40 79/235/40
f 76/241/42 80/256/42 75/223/42
f 76/247/45 73/249/45 82/250/45
f 77/252/46 79/257/46 70/253/46
f 70/253/46 69/258/46 75/254/46
f 75/254/46 80/259/46 81/260/46
f 81/260/46 82/261/46 75/254/46
f 82/261/46 77/252/46 75/254/46
