# Blender v3.0.0 OBJ File: ''
# www.blender.org
mtllib chevron_light1.mtl
o chevron_light.001
v 0.200000 5.221875 0.032057
v 0.200000 5.200801 0.032057
v 0.197722 5.201676 0.032057
v 0.200000 5.221875 0.344557
v -0.200000 5.221875 0.344557
v 0.197722 5.201676 0.344557
v -0.200000 5.221875 0.032057
v -0.065343 4.846875 0.032057
v 0.061527 4.846875 0.344557
v -0.065343 4.846875 0.344557
v -0.200000 5.197670 0.068282
v 0.061527 4.846875 0.032057
v 0.200000 5.200801 0.312236
v -0.200000 5.213635 0.032057
v -0.200000 5.197670 0.032057
v 0.200000 5.215964 0.344557
v 0.200000 5.200801 0.344557
v -0.200000 5.197670 0.344557
vt 0.018748 1.000000
vt 0.018752 0.978924
vt 0.021028 0.979800
vt 0.425000 1.000000
vt 0.025000 1.000000
vt 0.422720 0.979800
vt 0.525000 0.687500
vt 0.925000 1.000000
vt 0.525000 1.000000
vt 0.378526 0.583250
vt 0.534778 0.604662
vt 0.534778 0.583246
vt 0.793352 0.401524
vt 0.931492 0.589400
vt 0.949604 0.401524
vt 0.795708 0.593752
vt 0.951960 0.403728
vt 0.795708 0.403728
vt 0.684772 0.689064
vt 0.684772 0.690284
vt 0.824860 0.690284
vt 0.936774 0.606249
vt 0.929086 0.594145
vt 0.870462 0.606249
vt 0.810338 0.597274
vt 0.818022 0.605254
vt 0.818022 0.597274
vt 0.943094 0.592588
vt 0.879806 0.592588
vt 0.879806 0.603124
vt 0.950394 0.600168
vt 0.950394 0.592588
vt 0.157224 0.625000
vt 0.418748 0.975796
vt 0.284092 0.625000
vt 0.418748 0.991760
vt 0.418748 1.000000
vt 0.025000 0.975796
vt 0.159656 0.625000
vt 0.286528 0.625000
vt 0.425000 0.978924
vt 0.425000 0.994088
vt 0.925000 0.687500
vt 0.378526 0.604662
vt 0.793352 0.589400
vt 0.787742 0.589400
vt 0.805854 0.589400
vt 0.805854 0.401524
vt 0.951960 0.593752
vt 0.841020 0.690284
vt 0.841020 0.689064
vt 0.716020 0.689064
vt 0.559772 0.689064
vt 0.699860 0.690284
vt 0.936774 0.602129
vt 0.870462 0.594149
vt 0.950394 0.603124
vn -0.0000 0.0000 -1.0000
vn 0.0000 -0.0000 1.0000
vn 0.0000 1.0000 0.0000
vn 0.0000 -1.0000 0.0000
vn -0.9336 -0.3584 0.0000
vn 0.9336 -0.3584 0.0000
vn -0.3586 -0.9335 0.0000
vn -1.0000 -0.0000 0.0000
vn 1.0000 -0.0000 0.0000
usemtl m_a87f4cc5-cbf6-3029-5a40-e45e94b49978.001
s 1
f 1/1/1 2/2/1 3/3/1
f 4/4/2 5/5/2 6/6/2
f 5/7/3 1/8/3 7/9/3
f 8/10/4 9/11/4 10/12/4
f 10/13/5 11/14/5 8/15/5
f 3/16/6 9/17/6 12/18/6
f 3/19/7 2/20/7 13/21/7
f 7/22/8 11/23/8 5/24/8
f 11/25/8 14/26/8 15/27/8
f 13/28/9 2/29/9 1/30/9
f 16/31/9 17/32/9 13/28/9
f 3/3/1 12/33/1 15/34/1
f 12/33/1 8/35/1 15/34/1
f 15/34/1 14/36/1 3/3/1
f 14/36/1 7/37/1 3/3/1
f 7/37/1 1/1/1 3/3/1
f 5/5/2 18/38/2 6/6/2
f 18/38/2 10/39/2 9/40/2
f 6/6/2 18/38/2 9/40/2
f 6/6/2 17/41/2 16/42/2
f 16/42/2 4/4/2 6/6/2
f 5/7/3 4/43/3 1/8/3
f 8/10/4 12/44/4 9/11/4
f 18/45/5 11/14/5 10/13/5
f 11/46/5 15/47/5 8/48/5
f 3/16/6 6/49/6 9/17/6
f 17/50/7 6/51/7 13/21/7
f 6/52/7 3/53/7 13/54/7
f 14/55/8 11/23/8 7/22/8
f 11/23/8 18/56/8 5/24/8
f 1/30/9 4/57/9 13/28/9
f 4/57/9 16/31/9 13/28/9
