# Made in Blockbench 5.1.4
mtllib stargate1.mtl

o antarctica
v 0.034252 4.173211 0.159377
v -0.116351 4.210711 0.159377
v -0.007314 4.210711 0.159377
v 0.208649 4.173211 0.159377
v 0.283649 4.466961 0.159377
v 0.283649 3.948211 0.159377
v -0.116351 4.441961 0.159377
v -0.291351 4.466961 0.159377
v 0.283649 4.466961 0.184377
v 0.283649 3.948211 0.184377
v -0.210101 4.129461 0.184377
v -0.291351 3.948211 0.184377
v -0.116351 4.441961 0.184377
v 0.114899 4.441961 0.184377
v -0.041953 4.173211 0.184377
v -0.116351 4.210711 0.184377
v -0.115882 4.173211 0.184377
v -0.291351 3.948211 0.159377
v -0.291351 4.466961 0.184377
v -0.000387 4.210711 0.184377
v 0.114899 4.210711 0.159377
v 0.114899 4.441961 0.159377
v -0.210101 4.129461 0.159377
v 0.208649 4.129461 0.184377
v 0.208649 4.129461 0.159377
v -0.210101 4.173211 0.184377
v 0.208649 4.173211 0.184377
v -0.199632 4.173211 0.159377
v -0.210101 4.173211 0.159377
v 0.114899 4.210711 0.184377
vt 0.1343 0.5375
vt 0.153125 0.542187
vt 0.139495 0.542187
vt 0.1125 0.5375
vt 0.103125 0.574219
vt 0.103125 0.509375
vt 0.103125 0.574219
vt 0.153125 0.571094
vt 0.175 0.574219
vt 0.015625 0.509375
vt 0.0125 0.574219
vt 0.0125 0.509375
vt 0.034375 0.532031
vt 0.024219 0.509375
vt 0.096094 0.509375
vt 0.096094 0.574219
vt 0.046094 0.571094
vt 0.075 0.571094
vt 0.055393 0.5375
vt 0.046094 0.542187
vt 0.046152 0.5375
vt 0.182812 0.509375
vt 0.179688 0.574219
vt 0.179688 0.509375
vt 0.182031 0.559375
vt 0.110156 0.5625
vt 0.110156 0.559375
vt 0.174219 0.5625
vt 0.102344 0.565625
vt 0.102344 0.5625
vt 0.25742149999999997 0.46875
vt 0.25429650000000004 0.439844
vt 0.25429650000000004 0.46875
vt 0.24257850000000003 0.455121
vt 0.24570349999999996 0.46875
vt 0.24570349999999996 0.45425499999999996
vt 0.3812495 0.46835899999999997
vt 0.41015650000000003 0.46523400000000004
vt 0.3812495 0.46523400000000004
vt 0.3812495 0.45351600000000003
vt 0.41015650000000003 0.45664099999999996
vt 0.41015650000000003 0.45351600000000003
vt 0.25429650000000004 0.44616900000000004
vt 0.25429650000000004 0.45541
vt 0.25742149999999997 0.436643
vt 0.24257850000000003 0.46718800000000005
vt 0.24570349999999996 0.414844
vt 0.24257850000000003 0.414844
vt 0.37109349999999997 0.46835899999999997
vt 0.3765625 0.46523400000000004
vt 0.37109349999999997 0.46523400000000004
vt 0.37109349999999997 0.45351600000000003
vt 0.3765625 0.45664099999999996
vt 0.3765625 0.45351600000000003
vt 0.1343 0.5375
vt 0.163535 0.5375
vt 0.153125 0.542187
vt 0.153125 0.571094
vt 0.153125 0.542187
vt 0.164844 0.5375
vt 0.153125 0.542187
vt 0.163535 0.5375
vt 0.164844 0.5375
vt 0.175 0.509375
vt 0.175 0.574219
vt 0.164844 0.5375
vt 0.175 0.574219
vt 0.153125 0.571094
vt 0.164844 0.5375
vt 0.124219 0.542187
vt 0.124219 0.571094
vt 0.1125 0.5375
vt 0.124219 0.571094
vt 0.103125 0.574219
vt 0.1125 0.5375
vt 0.1343 0.5375
vt 0.139495 0.542187
vt 0.124219 0.542187
vt 0.1125 0.5375
vt 0.1343 0.5375
vt 0.124219 0.542187
vt 0.175 0.509375
vt 0.164844 0.5375
vt 0.164844 0.532031
vt 0.175 0.509375
vt 0.164844 0.532031
vt 0.103125 0.509375
vt 0.164844 0.532031
vt 0.1125 0.532031
vt 0.103125 0.509375
vt 0.1125 0.532031
vt 0.1125 0.5375
vt 0.103125 0.509375
vt 0.103125 0.574219
vt 0.124219 0.571094
vt 0.153125 0.571094
vt 0.015625 0.509375
vt 0.015625 0.574219
vt 0.0125 0.574219
vt 0.075 0.542187
vt 0.060589 0.542187
vt 0.055393 0.5375
vt 0.075 0.542187
vt 0.055393 0.5375
vt 0.086719 0.5375
vt 0.096094 0.574219
vt 0.075 0.571094
vt 0.086719 0.5375
vt 0.075 0.571094
vt 0.075 0.542187
vt 0.086719 0.5375
vt 0.046094 0.571094
vt 0.024219 0.574219
vt 0.034375 0.5375
vt 0.024219 0.574219
vt 0.024219 0.509375
vt 0.034375 0.5375
vt 0.034375 0.5375
vt 0.046152 0.5375
vt 0.046094 0.542187
vt 0.096094 0.574219
vt 0.086719 0.5375
vt 0.096094 0.509375
vt 0.086719 0.5375
vt 0.086719 0.532031
vt 0.096094 0.509375
vt 0.034375 0.5375
vt 0.046094 0.542187
vt 0.046094 0.571094
vt 0.034375 0.532031
vt 0.034375 0.5375
vt 0.024219 0.509375
vt 0.096094 0.509375
vt 0.086719 0.532031
vt 0.034375 0.532031
vt 0.096094 0.574219
vt 0.024219 0.574219
vt 0.046094 0.571094
vt 0.055393 0.5375
vt 0.060589 0.542187
vt 0.046094 0.542187
vt 0.182812 0.509375
vt 0.182812 0.574219
vt 0.179688 0.574219
vt 0.182031 0.559375
vt 0.182031 0.5625
vt 0.110156 0.5625
vt 0.174219 0.5625
vt 0.174219 0.565625
vt 0.102344 0.565625
vt 0.25742149999999997 0.46875
vt 0.25742149999999997 0.439844
vt 0.25429650000000004 0.439844
vt 0.24570349999999996 0.439844
vt 0.24257850000000003 0.439844
vt 0.24570349999999996 0.45425499999999996
vt 0.24257850000000003 0.439844
vt 0.24257850000000003 0.455121
vt 0.24570349999999996 0.45425499999999996
vt 0.24257850000000003 0.455121
vt 0.24257850000000003 0.46875
vt 0.24570349999999996 0.46875
vt 0.3812495 0.46835899999999997
vt 0.41015650000000003 0.46835899999999997
vt 0.41015650000000003 0.46523400000000004
vt 0.3812495 0.45351600000000003
vt 0.3812495 0.45664099999999996
vt 0.41015650000000003 0.45664099999999996
vt 0.25429650000000004 0.45541
vt 0.25429650000000004 0.46718800000000005
vt 0.25742149999999997 0.46587900000000004
vt 0.25429650000000004 0.46718800000000005
vt 0.25742149999999997 0.46718800000000005
vt 0.25742149999999997 0.46587900000000004
vt 0.25742149999999997 0.46587900000000004
vt 0.25742149999999997 0.436643
vt 0.25429650000000004 0.45541
vt 0.25742149999999997 0.436643
vt 0.25742149999999997 0.414844
vt 0.25429650000000004 0.414844
vt 0.25429650000000004 0.44616900000000004
vt 0.25742149999999997 0.436643
vt 0.25429650000000004 0.414844
vt 0.24257850000000003 0.46718800000000005
vt 0.24570349999999996 0.46718800000000005
vt 0.24570349999999996 0.414844
vt 0.37109349999999997 0.46835899999999997
vt 0.3765625 0.46835899999999997
vt 0.3765625 0.46523400000000004
vt 0.37109349999999997 0.45351600000000003
vt 0.37109349999999997 0.45664099999999996
vt 0.3765625 0.45664099999999996
vn 0 0 -1
vn 0 0 -1
vn 0 0 -1
vn 1 0 0
vn 0 0 1
vn 0 0 1
vn 0 0 1
vn -1 0 0
vn 0 1 0
vn 0 -1 0
vn 0 -1 0
vn 0 1 0
vn 1 0 0
vn -1 0 0
vn 0 -1 0
vn 0 1 0
vn 1 0 0
vn -1 0 0
vn 0 0 -1
vn 0 0 -1
vn 0 0 -1
vn 0 0 -1
vn 0 0 -1
vn 0 0 -1
vn 0 0 -1
vn 0 0 -1
vn 0 0 -1
vn 0 0 -1
vn 0 0 -1
vn 0 0 -1
vn 0 0 -1
vn 0 0 -1
vn 1 0 0
vn 0 0 1
vn 0 0 1
vn 0 0 1
vn 0 0 1
vn 0 0 1
vn 0 0 1
vn 0 0 1
vn 0 0 1
vn 0 0 1
vn 0 0 1
vn 0 0 1
vn 0 0 1
vn 0 0 1
vn 0 0 1
vn -1 0 0
vn 0 1 0
vn 0 -1 0
vn 0 -1 0
vn 0 1 0
vn 0 1 0
vn 0 1 0
vn 1 0 0
vn -1 0 0
vn 0 -1 0
vn 0 -1 0
vn 0 -1 0
vn 0 -1 0
vn 0 -1 0
vn 0 1 0
vn 1 0 0
vn -1 0 0
usemtl m_3326e610-1839-8a8f-4c19-b835e2dcf0dc
f 1/1/1 2/2/1 3/3/1
f 4/4/2 5/5/2 6/6/2
f 5/7/3 7/8/3 8/9/3
f 6/10/4 9/11/4 10/12/4
f 11/13/5 12/14/5 10/15/5
f 9/16/6 13/17/6 14/18/6
f 15/19/7 16/20/7 17/21/7
f 12/22/8 8/23/8 18/24/8
f 9/25/9 8/26/9 19/27/9
f 6/28/10 12/29/10 18/30/10
f 7/31/11 14/32/11 13/33/11
f 3/34/12 16/35/12 20/36/12
f 2/37/13 13/38/13 16/39/13
f 21/40/14 14/41/14 22/42/14
f 15/43/15 17/44/15 1/45/15
f 23/46/16 24/47/16 25/48/16
f 23/49/17 26/50/17 11/51/17
f 25/52/18 27/53/18 4/54/18
f 1/55/19 28/56/19 2/57/19
f 7/58/20 2/59/20 29/60/20
f 2/61/21 28/62/21 29/63/21
f 18/64/22 8/65/22 29/66/22
f 8/67/23 7/68/23 29/69/23
f 21/70/24 22/71/24 4/72/24
f 22/73/25 5/74/25 4/75/25
f 1/76/26 3/77/26 21/78/26
f 4/79/27 1/80/27 21/81/27
f 18/82/28 29/83/28 23/84/28
f 18/85/29 23/86/29 6/87/29
f 23/88/30 25/89/30 6/90/30
f 25/91/31 4/92/31 6/93/31
f 5/94/32 22/95/32 7/96/32
f 6/97/33 5/98/33 9/99/33
f 30/100/34 20/101/34 15/102/34
f 30/103/35 15/104/35 27/105/35
f 9/106/36 14/107/36 27/108/36
f 14/109/37 30/110/37 27/111/37
f 13/112/38 19/113/38 26/114/38
f 19/115/39 12/116/39 26/117/39
f 26/118/40 17/119/40 16/120/40
f 9/121/41 27/122/41 10/123/41
f 27/124/42 24/125/42 10/126/42
f 26/127/43 16/128/43 13/129/43
f 11/130/44 26/131/44 12/132/44
f 10/133/45 24/134/45 11/135/45
f 9/136/46 19/137/46 13/138/46
f 15/139/47 20/140/47 16/141/47
f 12/142/48 19/143/48 8/144/48
f 9/145/49 5/146/49 8/147/49
f 6/148/50 10/149/50 12/150/50
f 7/151/51 22/152/51 14/153/51
f 30/154/52 21/155/52 20/156/52
f 21/157/53 3/158/53 20/159/53
f 3/160/54 2/161/54 16/162/54
f 2/163/55 7/164/55 13/165/55
f 21/166/56 30/167/56 14/168/56
f 17/169/57 26/170/57 28/171/57
f 26/172/58 29/173/58 28/174/58
f 28/175/59 1/176/59 17/177/59
f 1/178/60 4/179/60 27/180/60
f 15/181/61 1/182/61 27/183/61
f 23/184/62 11/185/62 24/186/62
f 23/187/63 29/188/63 26/189/63
f 25/190/64 24/191/64 27/192/64