# Blender v3.0.0 OBJ File: ''
# www.blender.org
mtllib stargate.mtl
o patern.014
v -0.008276 4.363050 0.190626
v -0.103907 4.392287 0.190626
v -0.103907 4.392287 0.197501
v -0.008276 4.363050 0.197501
v -0.066750 4.171789 0.197501
v -0.162381 4.201026 0.197501
v -0.162381 4.201026 0.190626
v -0.066750 4.171789 0.190626
v 0.134375 4.212500 0.190626
v 0.134375 4.381250 0.190626
v 0.134375 4.381250 0.197501
v 0.134375 4.212500 0.197501
v 0.046875 4.212500 0.197501
v 0.046875 4.381250 0.197501
v 0.046875 4.381250 0.190626
v 0.046875 4.212500 0.190626
v 0.134375 4.112500 0.190626
v 0.134375 4.212500 0.190626
v 0.134375 4.212500 0.197501
v 0.134375 4.112500 0.197501
v -0.159375 4.112500 0.197501
v -0.159375 4.212500 0.197501
v -0.159375 4.212500 0.190626
v -0.159375 4.112500 0.190626
vt 0.496094 1.000000
vt 0.495234 0.974219
vt 0.496094 0.974219
vt 0.494609 1.000000
vt 0.493750 0.974219
vt 0.494609 0.974219
vt 0.500000 1.000000
vt 0.492188 0.999141
vt 0.500000 0.999141
vt 0.500000 1.000000
vt 0.492188 0.999141
vt 0.500000 0.999141
vt 0.500000 0.974219
vt 0.492188 1.000000
vt 0.492188 0.974219
vt 0.500148 1.000000
vt 0.492336 0.974219
vt 0.500148 0.974219
vt 0.496094 1.000000
vt 0.495234 0.974219
vt 0.496094 0.974219
vt 0.494609 1.000000
vt 0.493750 0.974219
vt 0.494609 0.974219
vt 0.500000 1.000000
vt 0.492188 0.999141
vt 0.500000 0.999141
vt 0.500000 1.000000
vt 0.492188 0.999141
vt 0.500000 0.999141
vt 0.500000 1.000000
vt 0.492188 0.974219
vt 0.500000 0.974219
vt 0.500148 0.974219
vt 0.492336 1.000000
vt 0.492336 0.974219
vt 0.496094 1.000000
vt 0.495234 0.974219
vt 0.496094 0.974219
vt 0.494609 1.000000
vt 0.493750 0.974219
vt 0.494609 0.974219
vt 0.500000 1.000000
vt 0.492188 0.999141
vt 0.500000 0.999141
vt 0.500000 1.000000
vt 0.492188 0.999141
vt 0.500000 0.999141
vt 0.500000 0.974219
vt 0.492188 1.000000
vt 0.492188 0.974219
vt 0.500148 1.000000
vt 0.492336 0.974219
vt 0.500148 0.974219
vt 0.495234 1.000000
vt 0.493750 1.000000
vt 0.492188 1.000000
vt 0.492188 1.000000
vt 0.500000 1.000000
vt 0.492336 1.000000
vt 0.495234 1.000000
vt 0.493750 1.000000
vt 0.492188 1.000000
vt 0.492188 1.000000
vt 0.492188 1.000000
vt 0.500148 1.000000
vt 0.495234 1.000000
vt 0.493750 1.000000
vt 0.492188 1.000000
vt 0.492188 1.000000
vt 0.500000 1.000000
vt 0.492336 1.000000
vn 0.2924 0.9563 0.0000
vn -0.2924 -0.9563 0.0000
vn -0.9563 0.2924 0.0000
vn 0.9563 -0.2924 0.0000
vn -0.0000 -0.0000 1.0000
vn 0.0000 0.0000 -1.0000
vn 1.0000 -0.0000 0.0000
vn -1.0000 -0.0000 0.0000
vn 0.0000 1.0000 0.0000
vn 0.0000 -1.0000 0.0000
usemtl m_3326e610-1839-8a8f-4c19-b835e2dcf0dc.015
s 1
f 2/1/1 4/2/1 1/3/1
f 6/4/2 8/5/2 5/6/2
f 2/7/3 6/8/3 3/9/3
f 4/10/4 8/11/4 1/12/4
f 4/13/5 6/14/5 5/15/5
f 7/16/6 1/17/6 8/18/6
f 10/19/7 12/20/7 9/21/7
f 14/22/8 16/23/8 13/24/8
f 10/25/9 14/26/9 11/27/9
f 12/28/10 16/29/10 9/30/10
f 11/31/5 13/32/5 12/33/5
f 16/34/6 10/35/6 9/36/6
f 18/37/7 20/38/7 17/39/7
f 22/40/8 24/41/8 21/42/8
f 18/43/9 22/44/9 19/45/9
f 20/46/10 24/47/10 17/48/10
f 20/49/5 22/50/5 21/51/5
f 23/52/6 17/53/6 24/54/6
f 2/1/1 3/55/1 4/2/1
f 6/4/2 7/56/2 8/5/2
f 2/7/3 7/57/3 6/8/3
f 4/10/4 5/58/4 8/11/4
f 4/13/5 3/59/5 6/14/5
f 7/16/6 2/60/6 1/17/6
f 10/19/7 11/61/7 12/20/7
f 14/22/8 15/62/8 16/23/8
f 10/25/9 15/63/9 14/26/9
f 12/28/10 13/64/10 16/29/10
f 11/31/5 14/65/5 13/32/5
f 16/34/6 15/66/6 10/35/6
f 18/37/7 19/67/7 20/38/7
f 22/40/8 23/68/8 24/41/8
f 18/43/9 23/69/9 22/44/9
f 20/46/10 21/70/10 24/47/10
f 20/49/5 19/71/5 22/50/5
f 23/52/6 18/72/6 17/53/6
