# Made in Blockbench 5.1.4
mtllib stargate1.mtl

o nether
v 0.202882 4.118309 0.159377
v 0.224979 4.140406 0.159377
v 0.283649 3.948211 0.159377
v 0.283649 4.466961 0.159377
v 0.187088 4.384546 0.159377
v -0.000412 4.365797 0.159377
v 0.283649 4.466961 0.184377
v 0.283649 3.948211 0.184377
v -0.205589 4.117053 0.184377
v -0.227686 4.13915 0.184377
v -0.291351 3.948211 0.184377
v -0.187912 4.384546 0.184377
v -0.002296 4.36454 0.184377
v -0.000412 4.365797 0.184377
v -0.291351 4.466961 0.159377
v -0.291351 3.948211 0.159377
v -0.291351 4.466961 0.184377
v -0.001982 4.364226 0.159377
v -0.002296 4.36454 0.159377
v -0.205589 4.117053 0.159377
v -0.053009 4.313827 0.184377
v -0.000726 4.321917 0.184377
v -0.000726 4.321917 0.159377
v 0.224979 4.140406 0.184377
v -0.001982 4.364226 0.184377
v 0.219344 4.146041 0.159377
v 0.081131 4.284254 0.184377
v 0.202882 4.118309 0.184377
v -0.187912 4.278481 0.159377
v -0.134879 4.331513 0.184377
v -0.134879 4.331513 0.159377
v -0.193645 4.378813 0.159377
v -0.187912 4.384546 0.159377
v -0.240945 4.331513 0.159377
v -0.187912 4.278481 0.184377
v 0.187088 4.278481 0.159377
v 0.240121 4.331513 0.184377
v 0.240121 4.331513 0.159377
v 0.134055 4.331513 0.159377
v 0.187088 4.384546 0.184377
v 0.134055 4.331513 0.184377
v 0.189559 4.382075 0.184377
v 0.187088 4.278481 0.184377
v -0.227686 4.13915 0.159377
v -0.085546 4.28129 0.159377
v -0.240945 4.331513 0.184377
vt 0.113221 0.530637
vt 0.110459 0.533399
vt 0.103125 0.509375
vt 0.103125 0.574219
vt 0.115195 0.563917
vt 0.138633 0.561573
vt 0.015625 0.509375
vt 0.0125 0.574219
vt 0.0125 0.509375
vt 0.034939 0.53048
vt 0.032177 0.533242
vt 0.024219 0.509375
vt 0.037149 0.563917
vt 0.060351 0.561416
vt 0.060586 0.561573
vt 0.182812 0.509375
vt 0.179688 0.574219
vt 0.179688 0.509375
vt 0.182031 0.559375
vt 0.110156 0.5625
vt 0.110156 0.559375
vt 0.174219 0.5625
vt 0.102344 0.565625
vt 0.102344 0.5625
vt 0.25742149999999997 0.4726005
vt 0.25429650000000004 0.47265650000000003
vt 0.25742149999999997 0.47265650000000003
vt 0.24257850000000003 0.46875049999999996
vt 0.24570349999999996 0.47265650000000003
vt 0.24570349999999996 0.46874950000000004
vt 0.42890649999999997 0.47617149999999997
vt 0.42890649999999997 0.47304650000000004
vt 0.41994149999999997 0.47304650000000004
vt 0.3890625 0.46132850000000003
vt 0.4252775 0.46445349999999996
vt 0.4252775 0.46132850000000003
vt 0.25742149999999997 0.46875049999999996
vt 0.25429650000000004 0.47265650000000003
vt 0.25742149999999997 0.47265650000000003
vt 0.24257850000000003 0.47265650000000003
vt 0.24570349999999996 0.47237850000000003
vt 0.24257850000000003 0.47237850000000003
vt 0.42791049999999997 0.47617149999999997
vt 0.42890649999999997 0.47304650000000004
vt 0.4034775 0.47304650000000004
vt 0.42890649999999997 0.46132850000000003
vt 0.3929135 0.46445349999999996
vt 0.42890649999999997 0.46445349999999996
vt 0.25742149999999997 0.4632815
vt 0.25429650000000004 0.47265650000000003
vt 0.25742149999999997 0.47265650000000003
vt 0.24257850000000003 0.47164249999999996
vt 0.24257850000000003 0.47265650000000003
vt 0.24570349999999996 0.47265650000000003
vt 0.3890625 0.47617149999999997
vt 0.3984375 0.47304650000000004
vt 0.3890625 0.47304650000000004
vt 0.3890625 0.46132850000000003
vt 0.3984375 0.46445349999999996
vt 0.3984375 0.46132850000000003
vt 0.25742149999999997 0.4632815
vt 0.25429650000000004 0.47265650000000003
vt 0.25742149999999997 0.47265650000000003
vt 0.24257850000000003 0.4632815
vt 0.24570349999999996 0.47265650000000003
vt 0.24570349999999996 0.4632815
vt 0.3984375 0.47617149999999997
vt 0.3984375 0.47304650000000004
vt 0.3894995 0.47304749999999995
vt 0.3890625 0.46132850000000003
vt 0.3984375 0.46445349999999996
vt 0.3984375 0.46132850000000003
vt 0.25742149999999997 0.4726005
vt 0.25429650000000004 0.4726005
vt 0.25429650000000004 0.47265650000000003
vt 0.24257850000000003 0.46875049999999996
vt 0.24257850000000003 0.47265650000000003
vt 0.24570349999999996 0.47265650000000003
vt 0.41994149999999997 0.47304650000000004
vt 0.3890625 0.47304650000000004
vt 0.4141895 0.47617149999999997
vt 0.3890625 0.47304650000000004
vt 0.3890625 0.47617149999999997
vt 0.4141895 0.47617149999999997
vt 0.4141895 0.47617149999999997
vt 0.42890649999999997 0.47617149999999997
vt 0.41994149999999997 0.47304650000000004
vt 0.3890625 0.46132850000000003
vt 0.3890625 0.46445349999999996
vt 0.4252775 0.46445349999999996
vt 0.25742149999999997 0.46875049999999996
vt 0.25429650000000004 0.46875049999999996
vt 0.25429650000000004 0.47265650000000003
vt 0.24257850000000003 0.47265650000000003
vt 0.24570349999999996 0.47265650000000003
vt 0.24570349999999996 0.47237850000000003
vt 0.3890625 0.47304650000000004
vt 0.3890625 0.47617149999999997
vt 0.4034775 0.47304650000000004
vt 0.3890625 0.47617149999999997
vt 0.42791049999999997 0.47617149999999997
vt 0.4034775 0.47304650000000004
vt 0.42791049999999997 0.47617149999999997
vt 0.42890649999999997 0.47617149999999997
vt 0.42890649999999997 0.47304650000000004
vt 0.42890649999999997 0.46132850000000003
vt 0.3929135 0.46132850000000003
vt 0.3929135 0.46445349999999996
vt 0.25742149999999997 0.4632815
vt 0.25429650000000004 0.4632815
vt 0.25429650000000004 0.47265650000000003
vt 0.24570349999999996 0.47265650000000003
vt 0.24570349999999996 0.4632815
vt 0.24257850000000003 0.47164249999999996
vt 0.24570349999999996 0.4632815
vt 0.24257850000000003 0.4632815
vt 0.24257850000000003 0.47164249999999996
vt 0.3890625 0.47617149999999997
vt 0.3984375 0.47617149999999997
vt 0.3984375 0.47304650000000004
vt 0.3890625 0.46132850000000003
vt 0.3890625 0.46445349999999996
vt 0.3984375 0.46445349999999996
vt 0.25742149999999997 0.4632815
vt 0.25429650000000004 0.4632815
vt 0.25429650000000004 0.47265650000000003
vt 0.24257850000000003 0.4632815
vt 0.24257850000000003 0.47265650000000003
vt 0.24570349999999996 0.47265650000000003
vt 0.3894995 0.47304749999999995
vt 0.3890625 0.47304650000000004
vt 0.3890625 0.47617149999999997
vt 0.3890625 0.47617149999999997
vt 0.3984375 0.47617149999999997
vt 0.3894995 0.47304749999999995
vt 0.3890625 0.46132850000000003
vt 0.3890625 0.46445349999999996
vt 0.3984375 0.46445349999999996
vt 0.16207 0.550659
vt 0.155441 0.557288
vt 0.149274 0.55101
vt 0.16207 0.550659
vt 0.149274 0.55101
vt 0.167042 0.533242
vt 0.175 0.574219
vt 0.162787 0.5632
vt 0.168699 0.557288
vt 0.168699 0.557288
vt 0.16207 0.550659
vt 0.167042 0.533242
vt 0.16428 0.53048
vt 0.138672 0.556088
vt 0.113221 0.530637
vt 0.175 0.574219
vt 0.168699 0.557288
vt 0.175 0.509375
vt 0.168699 0.557288
vt 0.167042 0.533242
vt 0.175 0.509375
vt 0.108566 0.557288
vt 0.115195 0.563917
vt 0.103125 0.574219
vt 0.111163 0.534104
vt 0.115195 0.550659
vt 0.108566 0.557288
vt 0.110459 0.533399
vt 0.111163 0.534104
vt 0.108566 0.557288
vt 0.108566 0.557288
vt 0.103125 0.574219
vt 0.103125 0.509375
vt 0.175 0.509375
vt 0.167042 0.533242
vt 0.16428 0.53048
vt 0.175 0.509375
vt 0.16428 0.53048
vt 0.103125 0.509375
vt 0.16428 0.53048
vt 0.113221 0.530637
vt 0.103125 0.509375
vt 0.110459 0.533399
vt 0.108566 0.557288
vt 0.103125 0.509375
vt 0.138868 0.561416
vt 0.149274 0.55101
vt 0.155441 0.557288
vt 0.16207 0.563917
vt 0.162787 0.5632
vt 0.175 0.574219
vt 0.138868 0.561416
vt 0.155441 0.557288
vt 0.16207 0.563917
vt 0.138633 0.561573
vt 0.138829 0.561377
vt 0.138868 0.561416
vt 0.115195 0.550659
vt 0.111163 0.534104
vt 0.121824 0.557288
vt 0.111163 0.534104
vt 0.138633 0.561573
vt 0.121824 0.557288
vt 0.138633 0.561573
vt 0.138868 0.561416
vt 0.16207 0.563917
vt 0.16207 0.563917
vt 0.175 0.574219
vt 0.138633 0.561573
vt 0.175 0.574219
vt 0.103125 0.574219
vt 0.138633 0.561573
vt 0.115195 0.563917
vt 0.121824 0.557288
vt 0.138633 0.561573
vt 0.015625 0.509375
vt 0.015625 0.574219
vt 0.0125 0.574219
vt 0.084024 0.550659
vt 0.077395 0.557288
vt 0.070779 0.55138
vt 0.084024 0.550659
vt 0.070779 0.55138
vt 0.08876 0.533399
vt 0.096094 0.574219
vt 0.084333 0.563608
vt 0.090653 0.557288
vt 0.090653 0.557288
vt 0.084024 0.550659
vt 0.08876 0.533399
vt 0.085998 0.530637
vt 0.060547 0.556088
vt 0.034939 0.53048
vt 0.096094 0.574219
vt 0.090653 0.557288
vt 0.096094 0.509375
vt 0.090653 0.557288
vt 0.08876 0.533399
vt 0.096094 0.509375
vt 0.03052 0.557288
vt 0.037149 0.563917
vt 0.024219 0.574219
vt 0.054011 0.555077
vt 0.043778 0.557288
vt 0.037149 0.550659
vt 0.03052 0.557288
vt 0.024219 0.574219
vt 0.024219 0.509375
vt 0.032177 0.533242
vt 0.054011 0.555077
vt 0.037149 0.550659
vt 0.037149 0.550659
vt 0.03052 0.557288
vt 0.032177 0.533242
vt 0.03052 0.557288
vt 0.024219 0.509375
vt 0.032177 0.533242
vt 0.096094 0.509375
vt 0.08876 0.533399
vt 0.085998 0.530637
vt 0.096094 0.509375
vt 0.085998 0.530637
vt 0.034939 0.53048
vt 0.024219 0.509375
vt 0.096094 0.509375
vt 0.034939 0.53048
vt 0.060586 0.561573
vt 0.070779 0.55138
vt 0.077395 0.557288
vt 0.084024 0.563917
vt 0.084333 0.563608
vt 0.096094 0.574219
vt 0.060586 0.561573
vt 0.077395 0.557288
vt 0.084024 0.563917
vt 0.060351 0.561416
vt 0.06039 0.561377
vt 0.060586 0.561573
vt 0.043778 0.557288
vt 0.054011 0.555077
vt 0.060351 0.561416
vt 0.096094 0.574219
vt 0.024219 0.574219
vt 0.060586 0.561573
vt 0.024219 0.574219
vt 0.037149 0.563917
vt 0.060586 0.561573
vt 0.037149 0.563917
vt 0.043778 0.557288
vt 0.060351 0.561416
vt 0.060586 0.561573
vt 0.084024 0.563917
vt 0.096094 0.574219
vt 0.182812 0.509375
vt 0.182812 0.574219
vt 0.179688 0.574219
vt 0.182031 0.559375
vt 0.182031 0.5625
vt 0.110156 0.5625
vt 0.174219 0.5625
vt 0.174219 0.565625
vt 0.102344 0.565625
vn 0 0 -1
vn 0 0 -1
vn 1 0 0
vn 0 0 1
vn 0 0 1
vn -1 0 0
vn 0 1 0
vn 0 -1 0
vn -0.7071067811859636 -0.7071067811871316 0
vn 0.7071067811865409 0.7071067811865542 0
vn 0.7071067811865476 -0.7071067811865475 0
vn -0.707108506984257 0.7071050553846261 0
vn -0.7071067811865409 0.7071067811865542 0
vn 0.707331866886677 -0.7068816238144886 0
vn -0.7071067811865479 -0.7071067811865471 -2.020969577631717e-14
vn 0.7071067811865476 0.7071067811865476 0
vn -0.7071001144245193 0.7071134478857208 0
vn 0.7071067811865596 -0.7071067811865356 0
vn -0.7071067811865482 -0.7071067811865468 0
vn 0.7071001144245193 0.7071134478857208 0
vn -0.7071001144245193 0.7071134478857208 0
vn 0.7071067811865482 -0.7071067811865468 0
vn -0.7071067811865491 -0.7071067811865459 0
vn 0.7071001144245193 0.7071134478857208 0
vn -0.7071067811859636 -0.7071067811871316 0
vn 0.7071067811865409 0.7071067811865542 0
vn 0.7071067811865475 -0.7071067811865476 -1.1235683995916561e-14
vn 0.7071067811865485 -0.7071067811865466 0
vn 0.7071067811865459 -0.7071067811865491 -7.072488552629628e-15
vn -0.707108506984257 0.7071050553846261 0
vn -0.7071067811865409 0.7071067811865542 0
vn 0.707331866886677 -0.7068816238144886 0
vn -0.7071067811865472 -0.7071067811865478 0
vn -0.7071067811865466 -0.7071067811865485 -4.4654425211478184e-15
vn -0.7071067811865928 -0.7071067811865023 0
vn 0.7071067811865476 0.7071067811865476 0
vn -0.7071001144245193 0.7071134478857208 0
vn 0.7071067811865482 -0.7071067811865468 5.1463471455440965e-15
vn 0.7071067811865469 -0.7071067811865482 0
vn -0.7071067811865482 -0.7071067811865468 0
vn 0.7071001144245193 0.7071134478857208 0
vn -0.7071001144245193 0.7071134478857208 0
vn 0.7071067811865482 -0.7071067811865468 0
vn -0.7071067811865317 -0.7071067811865634 0
vn -0.7071067811865482 -0.7071067811865468 3.2959751381574553e-15
vn 0.7071001144245193 0.7071134478857208 0
vn 0 0 -1
vn 0 0 -1
vn 0 0 -1
vn 0 0 -1
vn 0 0 -1
vn 0 0 -1
vn 0 0 -1
vn 0 0 -1
vn 0 0 -1
vn 0 0 -1
vn 0 0 -1
vn 0 0 -1
vn 0 0 -1
vn 0 0 -1
vn 0 0 -1
vn 0 0 -1
vn 0 0 -1
vn 0 0 -1
vn 0 0 -1
vn 0 0 -1
vn 0 0 -1
vn 0 0 -1
vn 0 0 -1
vn 0 0 -1
vn 0 0 -1
vn 1 0 0
vn 0 0 1
vn 0 0 1
vn 0 0 1
vn 0 0 1
vn 0 0 1
vn 0 0 1
vn 0 0 1
vn 0 0 1
vn 0 0 1
vn 0 0 1
vn 0 0 1
vn 0 0 1
vn 0 0 1
vn 0 0 1
vn 0 0 1
vn 0 0 1
vn 0 0 1
vn 0 0 1
vn 0 0 1
vn 0 0 1
vn 0 0 1
vn 0 0 1
vn 0 0 1
vn 0 0 1
vn 0 0 1
vn -1 0 0
vn 0 1 0
vn 0 -1 0
usemtl m_3326e610-1839-8a8f-4c19-b835e2dcf0dc
f 1/1/1 2/2/1 3/3/1
f 4/4/2 5/5/2 6/6/2
f 3/7/3 7/8/3 8/9/3
f 9/10/4 10/11/4 11/12/4
f 12/13/5 13/14/5 14/15/5
f 11/16/6 15/17/6 16/18/6
f 7/19/7 15/20/7 17/21/7
f 3/22/8 11/23/8 16/24/8
f 18/25/9 13/26/9 19/27/9
f 20/28/10 10/29/10 9/30/10
f 19/31/11 13/32/11 21/33/11
f 20/34/12 22/35/12 23/36/12
f 1/37/13 24/38/13 2/39/13
f 6/40/14 25/41/14 18/42/14
f 26/43/15 24/44/15 27/45/15
f 1/46/16 22/47/16 28/48/16
f 29/49/17 30/50/17 31/51/17
f 32/52/18 33/53/18 12/54/18
f 33/55/19 30/56/19 12/57/19
f 34/58/20 35/59/20 29/60/20
f 36/61/21 37/62/21 38/63/21
f 39/64/22 40/65/22 41/66/22
f 38/67/23 37/68/23 42/69/23
f 39/70/24 43/71/24 36/72/24
f 18/73/25 25/74/25 13/75/25
f 20/76/26 44/77/26 10/78/26
f 21/79/27 10/80/27 45/81/27
f 10/82/28 44/83/28 45/84/28
f 45/85/29 19/86/29 21/87/29
f 20/88/30 9/89/30 22/90/30
f 1/91/31 28/92/31 24/93/31
f 6/94/32 14/95/32 25/96/32
f 14/97/33 6/98/33 27/99/33
f 6/100/34 26/101/34 27/102/34
f 26/103/35 2/104/35 24/105/35
f 1/106/36 23/107/36 22/108/36
f 29/109/37 35/110/37 30/111/37
f 12/112/38 46/113/38 32/114/38
f 46/115/39 34/116/39 32/117/39
f 33/118/40 31/119/40 30/120/40
f 34/121/41 46/122/41 35/123/41
f 36/124/42 43/125/42 37/126/42
f 39/127/43 5/128/43 40/129/43
f 42/130/44 40/131/44 5/132/44
f 5/133/45 38/134/45 42/135/45
f 39/136/46 41/137/46 43/138/46
f 29/139/47 31/140/47 45/141/47
f 29/142/48 45/143/48 44/144/48
f 15/145/49 32/146/49 34/147/49
f 34/148/50 29/149/50 44/150/50
f 20/151/51 23/152/51 1/153/51
f 15/154/52 34/155/52 16/156/52
f 34/157/53 44/158/53 16/159/53
f 38/160/54 5/161/54 4/162/54
f 26/163/55 36/164/55 38/165/55
f 2/166/56 26/167/56 38/168/56
f 38/169/57 4/170/57 3/171/57
f 16/172/58 44/173/58 20/174/58
f 16/175/59 20/176/59 3/177/59
f 20/178/60 1/179/60 3/180/60
f 2/181/61 38/182/61 3/183/61
f 19/184/62 45/185/62 31/186/62
f 33/187/63 32/188/63 15/189/63
f 19/190/64 31/191/64 33/192/64
f 6/193/65 18/194/65 19/195/65
f 36/196/66 26/197/66 39/198/66
f 26/199/67 6/200/67 39/201/67
f 6/202/68 19/203/68 33/204/68
f 33/205/69 15/206/69 6/207/69
f 15/208/70 4/209/70 6/210/70
f 5/211/71 39/212/71 6/213/71
f 3/214/72 4/215/72 7/216/72
f 43/217/73 41/218/73 27/219/73
f 43/220/74 27/221/74 24/222/74
f 7/223/75 42/224/75 37/225/75
f 37/226/76 43/227/76 24/228/76
f 28/229/77 22/230/77 9/231/77
f 7/232/78 37/233/78 8/234/78
f 37/235/79 24/236/79 8/237/79
f 46/238/80 12/239/80 17/240/80
f 21/241/81 30/242/81 35/243/81
f 46/244/82 17/245/82 11/246/82
f 10/247/83 21/248/83 35/249/83
f 35/250/84 46/251/84 10/252/84
f 46/253/85 11/254/85 10/255/85
f 8/256/86 24/257/86 28/258/86
f 8/259/87 28/260/87 9/261/87
f 11/262/88 8/263/88 9/264/88
f 14/265/89 27/266/89 41/267/89
f 40/268/90 42/269/90 7/270/90
f 14/271/91 41/272/91 40/273/91
f 13/274/92 25/275/92 14/276/92
f 30/277/93 21/278/93 13/279/93
f 7/280/94 17/281/94 14/282/94
f 17/283/95 12/284/95 14/285/95
f 12/286/96 30/287/96 13/288/96
f 14/289/97 40/290/97 7/291/97
f 11/292/98 17/293/98 15/294/98
f 7/295/99 4/296/99 15/297/99
f 3/298/100 8/299/100 11/300/100