# Blender v3.0.0 OBJ File: ''
# www.blender.org
mtllib stargate.mtl
o cube
v 0.209375 4.131250 0.190626
v 0.209375 4.175000 0.190626
v 0.209375 4.175000 0.197501
v 0.209375 4.131250 0.197501
v -0.209375 4.131250 0.197501
v -0.209375 4.175000 0.197501
v -0.209375 4.175000 0.190626
v -0.209375 4.131250 0.190626
v 0.115625 4.212500 0.190626
v 0.115625 4.443750 0.190626
v 0.115625 4.443750 0.197501
v 0.115625 4.212500 0.197501
v -0.115625 4.212500 0.197501
v -0.115625 4.443750 0.197501
v -0.115625 4.443750 0.190626
v -0.115625 4.212500 0.190626
vt 0.496875 0.962500
vt 0.496016 0.957031
vt 0.496875 0.957031
vt 0.493828 0.956250
vt 0.492969 0.950781
vt 0.493828 0.950781
vt 0.496875 1.000000
vt 0.497734 0.947656
vt 0.497734 1.000000
vt 0.496016 1.000000
vt 0.496875 0.947656
vt 0.496875 1.000000
vt 0.493750 1.000000
vt 0.499219 0.947656
vt 0.499219 1.000000
vt 0.492969 0.995313
vt 0.498437 0.942969
vt 0.498437 0.995313
vt 0.496875 0.976562
vt 0.496016 0.947656
vt 0.496875 0.947656
vt 0.493828 0.976562
vt 0.492969 0.947656
vt 0.493828 0.947656
vt 0.496875 0.982813
vt 0.497734 0.953906
vt 0.497734 0.982813
vt 0.496016 0.990625
vt 0.496875 0.961719
vt 0.496875 0.990625
vt 0.499609 1.000000
vt 0.494141 0.971094
vt 0.499609 0.971094
vt 0.498437 1.000000
vt 0.492969 0.971094
vt 0.498437 0.971094
vt 0.496016 0.962500
vt 0.492969 0.956250
vt 0.496875 0.947656
vt 0.496016 0.947656
vt 0.493750 0.947656
vt 0.492969 0.942969
vt 0.496016 0.976562
vt 0.492969 0.976562
vt 0.496875 0.953906
vt 0.496016 0.961719
vt 0.494141 1.000000
vt 0.492969 1.000000
vn 1.0000 -0.0000 0.0000
vn -1.0000 0.0000 0.0000
vn 0.0000 1.0000 0.0000
vn 0.0000 -1.0000 0.0000
vn 0.0000 -0.0000 1.0000
vn 0.0000 0.0000 -1.0000
usemtl m_3326e610-1839-8a8f-4c19-b835e2dcf0dc
s 1
f 2/1/1 4/2/1 1/3/1
f 6/4/2 8/5/2 5/6/2
f 2/7/3 6/8/3 3/9/3
f 4/10/4 8/11/4 1/12/4
f 3/13/5 5/14/5 4/15/5
f 7/16/6 1/17/6 8/18/6
f 10/19/1 12/20/1 9/21/1
f 14/22/2 16/23/2 13/24/2
f 10/25/3 14/26/3 11/27/3
f 12/28/4 16/29/4 9/30/4
f 11/31/5 13/32/5 12/33/5
f 15/34/6 9/35/6 16/36/6
f 2/1/1 3/37/1 4/2/1
f 6/4/2 7/38/2 8/5/2
f 2/7/3 7/39/3 6/8/3
f 4/10/4 5/40/4 8/11/4
f 3/13/5 6/41/5 5/14/5
f 7/16/6 2/42/6 1/17/6
f 10/19/1 11/43/1 12/20/1
f 14/22/2 15/44/2 16/23/2
f 10/25/3 15/45/3 14/26/3
f 12/28/4 13/46/4 16/29/4
f 11/31/5 14/47/5 13/32/5
f 15/34/6 10/48/6 9/35/6
