# Blender v3.0.0 OBJ File: ''
# www.blender.org
mtllib stargate.mtl
o cube.002
v 0.021875 4.250000 0.190626
v 0.021875 4.381250 0.190626
v 0.021875 4.381250 0.197501
v 0.021875 4.250000 0.197501
v -0.009375 4.250000 0.197501
v -0.009375 4.381250 0.197501
v -0.009375 4.381250 0.190626
v -0.009375 4.250000 0.190626
v 0.162316 4.131656 0.190626
v 0.020895 4.273077 0.190626
v 0.020895 4.273077 0.196882
v 0.162316 4.131656 0.196882
v 0.140219 4.109559 0.196882
v -0.001202 4.250980 0.196882
v -0.001202 4.250980 0.190626
v 0.140219 4.109559 0.190626
v -0.121469 4.109559 0.190626
v 0.019952 4.250980 0.190626
v 0.019952 4.250980 0.196938
v -0.121469 4.109559 0.196938
v -0.143566 4.131656 0.196938
v -0.002145 4.273077 0.196938
v -0.002145 4.273077 0.190626
v -0.143566 4.131656 0.190626
v 0.053125 4.368750 0.190626
v 0.053125 4.462500 0.190626
v 0.053125 4.462500 0.197501
v 0.053125 4.368750 0.197501
v -0.040625 4.368750 0.197501
v -0.040625 4.462500 0.197501
v -0.040625 4.462500 0.190626
v -0.040625 4.368750 0.190626
vt 0.498437 1.000000
vt 0.497578 0.983594
vt 0.498437 0.983594
vt 0.496172 0.993750
vt 0.495313 0.977344
vt 0.496172 0.977344
vt 0.498437 0.977344
vt 0.494531 0.976484
vt 0.494531 0.977344
vt 0.497656 0.992266
vt 0.493750 0.991406
vt 0.497656 0.991406
vt 0.497656 1.000000
vt 0.493750 0.983594
vt 0.497656 0.983594
vt 0.497805 1.000000
vt 0.493898 0.983594
vt 0.497805 0.983594
vt 0.498437 1.000000
vt 0.497655 0.975000
vt 0.498437 0.975000
vt 0.496095 0.993750
vt 0.495313 0.968750
vt 0.496095 0.968750
vt 0.498437 0.977344
vt 0.494531 0.976562
vt 0.494531 0.977344
vt 0.497656 0.992188
vt 0.493750 0.991406
vt 0.497656 0.991406
vt 0.493750 1.000000
vt 0.493750 0.975000
vt 0.497805 1.000000
vt 0.493898 0.975000
vt 0.497805 0.975000
vt 0.498437 1.000000
vt 0.497648 0.975000
vt 0.498437 0.975000
vt 0.495320 1.000000
vt 0.494531 0.975000
vt 0.495320 0.975000
vt 0.498437 0.977344
vt 0.494531 0.976555
vt 0.494531 0.977344
vt 0.497656 0.992195
vt 0.493750 0.991406
vt 0.497656 0.991406
vt 0.497656 1.000000
vt 0.493750 0.975000
vt 0.497656 0.975000
vt 0.497805 0.975000
vt 0.493898 1.000000
vt 0.493898 0.975000
vt 0.495313 0.989062
vt 0.494453 0.977344
vt 0.495313 0.977344
vt 0.496172 1.000000
vt 0.495313 0.988281
vt 0.496172 0.988281
vt 0.494531 0.977344
vt 0.498437 0.976484
vt 0.498437 0.977344
vt 0.494531 0.977422
vt 0.498437 0.976562
vt 0.498437 0.977422
vt 0.499219 1.000000
vt 0.492969 0.989062
vt 0.499219 0.989062
vt 0.499367 0.999219
vt 0.493898 0.988281
vt 0.499367 0.988281
vt 0.497578 1.000000
vt 0.495313 0.993750
vt 0.498437 0.976484
vt 0.493750 0.992266
vt 0.493750 1.000000
vt 0.493898 1.000000
vt 0.497655 1.000000
vt 0.495313 0.993750
vt 0.498437 0.976562
vt 0.493750 0.992188
vt 0.493898 1.000000
vt 0.497648 1.000000
vt 0.494531 1.000000
vt 0.498437 0.976555
vt 0.493750 0.992195
vt 0.493750 1.000000
vt 0.497805 1.000000
vt 0.494453 0.989062
vt 0.495313 1.000000
vt 0.494531 0.976484
vt 0.494531 0.976562
vt 0.492969 1.000000
vt 0.493898 0.999219
vn 1.0000 0.0000 0.0000
vn -1.0000 0.0000 0.0000
vn 0.0000 1.0000 0.0000
vn 0.0000 -1.0000 0.0000
vn 0.0000 -0.0000 1.0000
vn 0.0000 0.0000 -1.0000
vn 0.7071 0.7071 0.0000
vn -0.7071 -0.7071 0.0000
vn -0.7071 0.7071 0.0000
vn 0.7071 -0.7071 0.0000
usemtl m_3326e610-1839-8a8f-4c19-b835e2dcf0dc.002
s 1
f 2/1/1 4/2/1 1/3/1
f 6/4/2 8/5/2 5/6/2
f 2/7/3 6/8/3 3/9/3
f 4/10/4 8/11/4 1/12/4
f 3/13/5 5/14/5 4/15/5
f 7/16/6 1/17/6 8/18/6
f 10/19/7 12/20/7 9/21/7
f 14/22/8 16/23/8 13/24/8
f 10/25/9 14/26/9 11/27/9
f 12/28/10 16/29/10 9/30/10
f 12/20/5 14/31/5 13/32/5
f 15/33/6 9/34/6 16/35/6
f 18/36/10 20/37/10 17/38/10
f 22/39/9 24/40/9 21/41/9
f 18/42/7 22/43/7 19/44/7
f 20/45/8 24/46/8 17/47/8
f 19/48/5 21/49/5 20/50/5
f 24/51/6 18/52/6 17/53/6
f 26/54/1 28/55/1 25/56/1
f 30/57/2 32/58/2 29/59/2
f 26/60/3 30/61/3 27/62/3
f 28/63/4 32/64/4 25/65/4
f 27/66/5 29/67/5 28/68/5
f 31/69/6 25/70/6 32/71/6
f 2/1/1 3/72/1 4/2/1
f 6/4/2 7/73/2 8/5/2
f 2/7/3 7/74/3 6/8/3
f 4/10/4 5/75/4 8/11/4
f 3/13/5 6/76/5 5/14/5
f 7/16/6 2/77/6 1/17/6
f 10/19/7 11/78/7 12/20/7
f 14/22/8 15/79/8 16/23/8
f 10/25/9 15/80/9 14/26/9
f 12/28/10 13/81/10 16/29/10
f 12/20/5 11/78/5 14/31/5
f 15/33/6 10/82/6 9/34/6
f 18/36/10 19/83/10 20/37/10
f 22/39/9 23/84/9 24/40/9
f 18/42/7 23/85/7 22/43/7
f 20/45/8 21/86/8 24/46/8
f 19/48/5 22/87/5 21/49/5
f 24/51/6 23/88/6 18/52/6
f 26/54/1 27/89/1 28/55/1
f 30/57/2 31/90/2 32/58/2
f 26/60/3 31/91/3 30/61/3
f 28/63/4 29/92/4 32/64/4
f 27/66/5 30/93/5 29/67/5
f 31/69/6 26/94/6 25/70/6
