# Blender v3.0.0 OBJ File: ''
# www.blender.org
mtllib 0_base.mtl
o buttons.250
v 0.334003 0.781367 -0.355517
v 0.234379 0.897206 -0.276212
v 0.233020 0.891329 -0.270245
v 0.185166 0.745594 -0.431428
v 0.335414 0.787496 -0.361746
v 0.130371 0.862702 -0.317851
v 0.183755 0.739465 -0.425199
v 0.131730 0.868578 -0.323818
v 0.141057 0.864347 -0.326053
v 0.324813 0.789892 -0.361524
v 0.189771 0.752230 -0.424154
v 0.226919 0.815774 -0.355861
v 0.192654 0.851943 -0.347381
v 0.190701 0.842377 -0.337417
v 0.227783 0.804154 -0.366849
v 0.185183 0.846445 -0.354125
v 0.229736 0.813720 -0.376812
v 0.253615 0.836930 -0.349848
v 0.228872 0.825341 -0.365824
v 0.235272 0.796400 -0.372825
v 0.269102 0.820896 -0.362206
v 0.267149 0.811330 -0.352243
v 0.183230 0.836878 -0.344161
v 0.237225 0.805967 -0.382789
v 0.251663 0.827363 -0.339884
v 0.232705 0.889908 -0.283547
vt 0.960617 0.843825
vt 0.959162 0.814438
vt 0.960617 0.814436
vt 0.965170 0.843803
vt 0.963652 0.872943
vt 0.963652 0.843769
vt 0.845073 0.946332
vt 0.846527 0.974567
vt 0.845010 0.974568
vt 0.971761 0.916570
vt 0.973216 0.936205
vt 0.971761 0.936239
vt 0.917905 0.867526
vt 0.940007 0.894071
vt 0.913674 0.894071
vt 0.860423 0.982017
vt 0.858031 0.973766
vt 0.860423 0.973764
vt 0.910641 0.974694
vt 0.913031 0.964747
vt 0.913033 0.974698
vt 0.978123 0.983170
vt 0.980515 0.977742
vt 0.980515 0.983170
vt 0.870745 0.981808
vt 0.868353 0.974845
vt 0.870745 0.974845
vt 0.906860 0.989205
vt 0.904929 0.986813
vt 0.906860 0.986813
vt 0.910638 0.976805
vt 0.913031 0.976809
vt 0.970598 0.843638
vt 0.968205 0.839272
vt 0.970598 0.839273
vt 0.959099 0.843827
vt 0.965170 0.872978
vt 0.846527 0.946331
vt 0.973216 0.916535
vt 0.935776 0.867526
vt 0.858031 0.982020
vt 0.910638 0.964743
vt 0.978123 0.977742
vt 0.868353 0.981808
vt 0.904929 0.989205
vt 0.968205 0.843637
vn 0.7661 0.3628 0.5305
vn 0.7828 0.2996 0.5455
vn 0.8005 0.3661 0.4745
vn 0.4619 -0.6521 -0.6012
vn 0.4484 -0.7118 -0.5407
vn 0.4484 -0.7110 -0.5416
vn -0.9288 -0.0844 -0.3607
vn -0.9487 -0.0898 -0.3033
vn -0.9495 -0.0872 -0.3013
vn -0.4968 0.6720 0.5492
vn -0.4085 0.6954 0.5912
vn -0.4141 0.6931 0.5900
vn 0.1400 0.6858 -0.7142
vn 0.6515 0.4794 0.5880
vn -0.6515 -0.4794 -0.5880
vn -0.6077 0.6290 0.4849
vn 0.6077 -0.6290 -0.4848
vn -0.7457 0.5476 0.3796
vn -0.7818 -0.3661 -0.5047
vn 0.7818 0.3661 0.5047
vn 0.7696 0.3593 0.5279
vn 0.4617 -0.6528 -0.6005
vn -0.9434 -0.1551 -0.2931
vn -0.4988 0.6724 0.5469
vn 0.6077 -0.6290 -0.4849
vn 0.7818 0.3661 0.5048
usemtl dhd_low
s 1
f 1/1/1 2/2/2 3/3/3
f 1/4/4 4/5/5 5/6/6
f 6/7/7 4/8/8 7/9/9
f 3/10/10 8/11/11 6/12/12
f 9/13/13 10/14/13 11/15/13
f 12/16/14 13/17/14 14/18/14
f 15/19/15 16/20/15 17/21/15
f 12/22/16 18/23/16 19/24/16
f 20/25/17 21/26/17 22/27/17
f 23/28/18 13/29/18 16/30/18
f 20/31/19 17/21/19 24/32/19
f 22/33/20 18/34/20 25/35/20
f 1/1/1 5/36/21 2/2/2
f 1/4/4 7/37/22 4/5/5
f 6/7/7 8/38/23 4/8/8
f 3/10/10 2/39/24 8/11/11
f 9/13/13 26/40/13 10/14/13
f 12/16/14 19/41/14 13/17/14
f 15/19/15 23/42/15 16/20/15
f 12/22/16 25/43/16 18/23/16
f 20/25/25 24/44/25 21/26/25
f 23/28/18 14/45/18 13/29/18
f 20/31/19 15/19/19 17/21/19
f 22/33/26 21/46/26 18/34/26
