# Blender v3.0.0 OBJ File: ''
# www.blender.org
mtllib 10.mtl
o buttons.143
v -0.273667 1.261579 0.422882
v -0.405530 1.211141 0.342767
v -0.270714 1.265215 0.432692
v -0.284501 1.196512 0.221529
v -0.394838 1.212977 0.342058
v -0.284504 1.199641 0.231533
v -0.192396 1.233456 0.282965
v -0.202270 1.232626 0.286386
v -0.311332 1.231803 0.303351
v -0.291976 1.242782 0.326540
v -0.297763 1.233908 0.301730
v -0.289749 1.230587 0.286184
v -0.299778 1.227262 0.281724
v -0.298943 1.245668 0.340055
v -0.294872 1.247018 0.341865
v -0.277939 1.253754 0.352980
v -0.271270 1.252161 0.343785
v -0.284470 1.247039 0.335531
v -0.275553 1.246505 0.328339
vt 0.643493 0.824451
vt 0.347025 0.836497
vt 0.659295 0.836497
vt 0.396490 0.526147
vt 0.362827 0.824449
vt 0.407921 0.541522
vt 0.609830 0.526147
vt 0.598399 0.541525
vt 0.632489 0.684073
vt 0.491714 0.719374
vt 0.585415 0.642730
vt 0.598978 0.565993
vt 0.649088 0.575705
vt 0.478556 0.789262
vt 0.457430 0.785235
vt 0.358473 0.782207
vt 0.360923 0.729226
vt 0.436333 0.733260
vt 0.423700 0.682648
vn -0.1807 0.9387 -0.2935
vn -0.1807 0.9387 -0.2936
vn -0.1807 0.9387 -0.2937
vn -0.1806 0.9387 -0.2936
usemtl dhd_button_light.024
s 1
f 1/1/1 2/2/2 3/3/1
f 4/4/3 5/5/2 6/6/3
f 1/1/1 7/7/4 8/8/4
f 7/7/4 6/6/3 8/8/4
f 9/9/2 10/10/2 11/11/2
f 1/1/1 5/5/2 2/2/2
f 4/4/3 2/2/2 5/5/2
f 1/1/1 3/3/1 7/7/4
f 7/7/4 4/4/3 6/6/3
f 11/11/2 12/12/4 13/13/2
f 10/10/2 14/14/2 15/15/2
f 15/15/2 16/16/3 17/17/2
f 18/18/2 19/19/4 11/11/2
f 15/15/2 17/17/2 18/18/2
f 10/10/2 15/15/2 18/18/2
f 11/11/2 13/13/2 9/9/2
f 10/10/2 18/18/2 11/11/2
