# Blender v3.0.0 OBJ File: ''
# www.blender.org
mtllib 10_base.mtl
o buttons.260
v -0.403779 1.202900 0.345484
v -0.270714 1.265215 0.432692
v -0.405530 1.211141 0.342767
v -0.284501 1.196512 0.221529
v -0.282818 1.188616 0.224138
v -0.192396 1.233456 0.282965
v -0.190712 1.225560 0.285574
v -0.268964 1.256975 0.435409
v -0.202270 1.232626 0.286386
v -0.394838 1.212977 0.342058
v -0.273667 1.261579 0.422882
v -0.289456 1.229686 0.330636
v -0.298943 1.245668 0.340055
v -0.291976 1.242782 0.326540
v -0.275419 1.240659 0.357076
v -0.294872 1.247018 0.341865
v -0.292352 1.233923 0.345961
v -0.295242 1.220813 0.305826
v -0.275553 1.246505 0.328339
v -0.273032 1.233410 0.332435
v -0.281950 1.233944 0.339627
v -0.284470 1.247039 0.335531
v -0.268750 1.239066 0.347881
v -0.271270 1.252161 0.343785
v -0.287228 1.217492 0.290280
v -0.299778 1.227262 0.281724
v -0.289749 1.230587 0.286184
v -0.308812 1.218708 0.307447
v -0.297257 1.214167 0.285820
v -0.277939 1.253754 0.352980
v -0.296423 1.232573 0.344151
v -0.297763 1.233908 0.301730
v -0.311332 1.231803 0.303351
v -0.284504 1.199641 0.231532
vt 0.961843 0.952689
vt 0.963361 0.923435
vt 0.963361 0.952724
vt 0.827436 0.946331
vt 0.828954 0.975169
vt 0.827499 0.975167
vt 0.970887 0.969536
vt 0.969432 0.949558
vt 0.970887 0.949523
vt 0.966333 0.923255
vt 0.964878 0.894075
vt 0.966396 0.894071
vt 0.830445 0.894070
vt 0.808344 0.867526
vt 0.834676 0.867526
vt 0.894300 0.988981
vt 0.896692 0.986346
vt 0.896692 0.988983
vt 0.885683 0.981992
vt 0.888075 0.985650
vt 0.885682 0.985651
vt 0.955360 0.986235
vt 0.952968 0.980112
vt 0.955360 0.980112
vt 0.984195 0.932989
vt 0.982309 0.930600
vt 0.984195 0.930596
vt 0.982788 0.865964
vt 0.980396 0.868771
vt 0.980396 0.865964
vt 0.930185 0.989195
vt 0.928252 0.986803
vt 0.930185 0.986803
vt 0.855638 0.983222
vt 0.858030 0.987481
vt 0.855638 0.987479
vt 0.980769 0.843742
vt 0.982736 0.841350
vt 0.982736 0.843742
vt 0.888075 0.986435
vt 0.885682 0.986435
vt 0.982788 0.858397
vt 0.980395 0.861418
vt 0.980395 0.858399
vt 0.925663 0.986827
vt 0.928056 0.981483
vt 0.928056 0.986827
vt 0.961843 0.923400
vt 0.828954 0.946333
vt 0.969432 0.969570
vt 0.964878 0.923259
vt 0.812574 0.894071
vt 0.894300 0.986344
vt 0.888075 0.981992
vt 0.952968 0.986236
vt 0.982309 0.932992
vt 0.982788 0.868771
vt 0.928252 0.989195
vt 0.858030 0.983224
vt 0.980769 0.841350
vt 0.982788 0.861416
vt 0.925663 0.981483
vn -0.5957 0.1801 0.7828
vn -0.5789 0.1000 0.8092
vn -0.5791 0.1012 0.8090
vn -0.6501 -0.3589 -0.6697
vn -0.6697 -0.4033 -0.6235
vn -0.6917 -0.3112 -0.6518
vn 0.6245 -0.1221 -0.7714
vn 0.5453 -0.1554 -0.8237
vn 0.5505 -0.1550 -0.8203
vn 0.8581 0.3554 0.3706
vn 0.8853 0.3041 0.3517
vn 0.8867 0.3036 0.3487
vn -0.1807 0.9387 -0.2936
vn -0.8745 -0.2899 -0.3889
vn -0.5814 0.1389 0.8017
vn 0.7776 -0.0464 -0.6270
vn 0.6023 0.3416 0.7215
vn 0.5645 -0.1455 -0.8125
vn 0.4502 -0.1865 -0.8733
vn -0.8676 -0.2928 -0.4020
vn 0.7933 0.3155 0.5207
vn -0.4501 0.1865 0.8733
vn 0.8745 0.2900 0.3889
vn -0.7776 0.0465 0.6270
vn -0.7776 0.0465 0.6271
vn -0.5955 0.1792 0.7831
vn -0.6542 -0.3586 -0.6659
vn 0.6262 -0.1198 -0.7704
vn 0.8761 0.2639 0.4036
vn -0.5814 0.1389 0.8016
vn 0.7776 -0.0464 -0.6271
vn -0.8676 -0.2927 -0.4020
usemtl dhd_low.012
s 1
f 1/1/1 2/2/2 3/3/3
f 1/4/4 4/5/5 5/6/6
f 5/7/7 6/8/8 7/9/9
f 7/10/10 2/11/11 8/12/12
f 9/13/13 10/14/13 11/15/13
f 12/16/14 13/17/14 14/18/14
f 15/19/15 16/20/15 17/21/15
f 18/22/16 19/23/16 20/24/16
f 21/25/17 19/26/17 22/27/17
f 23/28/18 22/29/18 24/30/18
f 25/31/19 26/32/19 27/33/19
f 28/34/20 26/35/20 29/36/20
f 23/37/21 30/38/21 15/39/21
f 17/21/22 13/40/22 31/41/22
f 18/42/23 27/43/23 32/44/23
f 28/45/24 14/46/25 33/47/24
f 1/1/1 8/48/26 2/2/2
f 1/4/4 3/49/27 4/5/5
f 5/7/7 4/50/28 6/8/8
f 7/10/10 6/51/29 2/11/11
f 9/13/13 34/52/13 10/14/13
f 12/16/14 31/53/14 13/17/14
f 15/19/30 30/54/30 16/20/30
f 18/22/31 32/55/31 19/23/31
f 21/25/17 20/56/17 19/26/17
f 23/28/18 21/57/18 22/29/18
f 25/31/19 29/58/19 26/32/19
f 28/34/32 33/59/32 26/35/32
f 23/37/21 24/60/21 30/38/21
f 17/21/22 16/20/22 13/40/22
f 18/42/23 25/61/23 27/43/23
f 28/45/24 12/62/25 14/46/25
