# Blender v3.0.0 OBJ File: ''
# www.blender.org
mtllib 12.mtl
o buttons.147
v -0.507919 1.123658 0.193523
v -0.553841 1.041767 0.061102
v -0.511902 1.127112 0.203029
v -0.389886 1.077556 0.023708
v -0.545612 1.046951 0.065960
v -0.396144 1.079577 0.031870
v -0.361234 1.135864 0.120671
v -0.370564 1.131636 0.118443
v -0.427112 1.124162 0.108630
v -0.454258 1.107522 0.093518
v -0.457239 1.109868 0.100156
v -0.469706 1.106982 0.102672
v -0.501315 1.088225 0.086305
v -0.504297 1.090570 0.092943
v -0.460419 1.113168 0.108823
v -0.464132 1.107646 0.100302
v -0.467114 1.109992 0.106940
v -0.424131 1.121816 0.101991
v -0.466725 1.104636 0.096033
v -0.457437 1.110822 0.102185
vt 0.643493 0.824451
vt 0.347025 0.836497
vt 0.659295 0.836497
vt 0.396490 0.526147
vt 0.362827 0.824449
vt 0.407921 0.541522
vt 0.609830 0.526147
vt 0.598399 0.541525
vt 0.405046 0.547324
vt 0.506016 0.637288
vt 0.481684 0.654399
vt 0.488120 0.705041
vt 0.605049 0.816529
vt 0.580351 0.834750
vt 0.448698 0.674138
vt 0.490602 0.681216
vt 0.466029 0.698607
vt 0.429218 0.530851
vt 0.512636 0.687616
vt 0.473234 0.656896
vn -0.2852 0.8563 -0.4306
vn -0.2852 0.8563 -0.4307
vn -0.2851 0.8563 -0.4306
vn -0.2851 0.8563 -0.4307
usemtl dhd_button_light.029
s 1
f 1/1/1 2/2/2 3/3/3
f 4/4/4 5/5/2 6/6/4
f 1/1/1 7/7/2 8/8/2
f 7/7/2 6/6/4 8/8/2
f 9/9/1 10/10/4 11/11/4
f 12/12/1 13/13/1 14/14/1
f 15/15/4 16/16/4 17/17/4
f 1/1/1 5/5/2 2/2/2
f 4/4/4 2/2/2 5/5/2
f 1/1/1 3/3/3 7/7/2
f 7/7/2 4/4/4 6/6/4
f 9/9/1 18/18/1 10/10/4
f 12/12/1 19/19/1 13/13/1
f 15/15/4 20/20/4 16/16/4
