# Blender v3.0.0 OBJ File: ''
# www.blender.org
mtllib 12_base.mtl
o buttons.262
v -0.358779 1.128700 0.124498
v -0.511902 1.127112 0.203029
v -0.509343 1.119634 0.207015
v -0.551281 1.034289 0.065088
v -0.553841 1.041767 0.061102
v -0.387431 1.070392 0.027535
v -0.361234 1.135864 0.120671
v -0.389886 1.077556 0.023708
v -0.545612 1.046951 0.065960
v -0.370564 1.131636 0.118443
v -0.396144 1.079578 0.031870
v -0.462747 1.092691 0.102041
v -0.501315 1.088225 0.086305
v -0.466725 1.104636 0.096033
v -0.456441 1.101223 0.114831
v -0.457437 1.110822 0.102185
v -0.460419 1.113168 0.108823
v -0.453262 1.097923 0.106164
v -0.427112 1.124162 0.108630
v -0.457239 1.109868 0.100156
v -0.460154 1.095701 0.106309
v -0.453459 1.098877 0.108192
v -0.465728 1.095036 0.108679
v -0.504297 1.090570 0.092943
v -0.500319 1.078625 0.098951
v -0.454258 1.107522 0.093518
v -0.450280 1.095577 0.099526
v -0.467114 1.109992 0.106940
v -0.463136 1.098046 0.112948
v -0.497337 1.076279 0.092312
v -0.423135 1.112216 0.114637
v -0.424131 1.121816 0.101991
v -0.464132 1.107646 0.100302
v -0.420153 1.109871 0.107999
v -0.469706 1.106982 0.102672
v -0.507919 1.123658 0.193523
vt 0.966333 0.974407
vt 0.964878 0.952557
vt 0.966396 0.952528
vt 0.966396 0.975229
vt 0.967914 0.952441
vt 0.967914 0.975258
vt 0.978123 0.983421
vt 0.976668 0.967861
vt 0.978123 0.967833
vt 0.864044 0.973579
vt 0.862589 0.946340
vt 0.864044 0.946331
vt 0.861009 0.920615
vt 0.838907 0.894071
vt 0.856778 0.894071
vt 0.858030 0.976501
vt 0.855638 0.983222
vt 0.855638 0.976503
vt 0.984047 0.836480
vt 0.982736 0.834088
vt 0.984047 0.834088
vt 0.970887 0.986395
vt 0.973279 0.980494
vt 0.973279 0.986395
vt 0.982771 0.945383
vt 0.984072 0.942992
vt 0.984072 0.945385
vt 0.828954 0.974973
vt 0.831346 0.981747
vt 0.828953 0.981747
vt 0.982736 0.838957
vt 0.984047 0.836565
vt 0.984047 0.838957
vt 0.982727 0.909001
vt 0.984038 0.906608
vt 0.984038 0.909001
vt 0.982736 0.841350
vt 0.984047 0.838957
vt 0.984047 0.841350
vt 0.984038 0.913788
vt 0.982727 0.911396
vt 0.984038 0.911396
vt 0.982736 0.843742
vt 0.984047 0.841350
vt 0.984047 0.843742
vt 0.824400 0.986411
vt 0.822007 0.980560
vt 0.824400 0.980558
vt 0.982746 0.825269
vt 0.984057 0.822877
vt 0.984057 0.825269
vt 0.964878 0.974436
vt 0.966396 0.952412
vt 0.976668 0.983450
vt 0.862526 0.973588
vt 0.834676 0.920615
vt 0.858030 0.983220
vt 0.982736 0.836480
vt 0.970887 0.980494
vt 0.982771 0.942991
vt 0.831346 0.974973
vt 0.982736 0.836565
vt 0.982727 0.906608
vt 0.982736 0.838957
vt 0.982727 0.913788
vt 0.982736 0.841350
vt 0.822007 0.986413
vt 0.982746 0.822877
vn 0.3697 0.5726 0.7318
vn 0.4172 0.5346 0.7350
vn 0.4200 0.5349 0.7331
vn -0.9391 -0.0914 0.3313
vn -0.9144 -0.1642 0.3699
vn -0.9148 -0.1631 0.3695
vn 0.9375 0.1542 -0.3119
vn 0.9131 0.1026 -0.3946
vn 0.9153 0.1043 -0.3891
vn -0.0469 -0.4823 -0.8748
vn -0.0727 -0.5346 -0.8420
vn -0.1042 -0.4520 -0.8859
vn -0.2851 0.8563 -0.4307
vn 0.3898 -0.3069 -0.8683
vn 0.3898 -0.3068 -0.8683
vn 0.8756 0.4155 0.2464
vn 0.8756 0.4155 0.2465
vn 0.8755 0.4155 0.2465
vn -0.3898 0.3069 0.8682
vn -0.3898 0.3069 0.8683
vn -0.8756 -0.4155 -0.2465
vn 0.8756 0.4154 0.2464
vn -0.8755 -0.4155 -0.2465
vn 0.3954 0.4888 0.7776
vn -0.9389 -0.0923 0.3317
vn 0.9376 0.1569 -0.3104
vn -0.0522 -0.4837 -0.8737
vn -0.3898 0.3068 0.8683
vn -0.8756 -0.4155 -0.2464
vn -0.8755 -0.4156 -0.2465
vn 0.8755 0.4156 0.2465
vn 0.8756 0.4155 0.2463
usemtl dhd_low.014
s 1
f 1/1/1 2/2/2 3/3/3
f 4/4/4 2/5/5 5/6/6
f 6/7/7 7/8/8 1/9/9
f 4/10/10 8/11/11 6/12/12
f 9/13/13 10/14/13 11/15/13
f 12/16/14 13/17/15 14/18/14
f 15/19/16 16/20/17 17/21/18
f 18/22/19 19/23/20 20/24/19
f 21/25/15 16/26/15 22/27/15
f 23/28/20 24/29/20 25/30/20
f 18/31/21 26/32/21 27/33/21
f 15/34/20 28/35/20 29/36/20
f 25/37/21 13/38/21 30/39/21
f 31/40/17 32/41/16 19/42/22
f 29/43/23 33/44/23 21/45/23
f 27/46/14 32/47/14 34/48/14
f 12/49/16 35/50/16 23/51/16
f 1/1/1 7/52/24 2/2/2
f 4/4/4 3/53/25 2/5/5
f 6/7/7 8/54/26 7/8/8
f 4/10/10 5/55/27 8/11/11
f 9/13/13 36/56/13 10/14/13
f 12/16/14 30/57/15 13/17/15
f 15/19/16 22/58/16 16/20/17
f 18/22/19 31/59/20 19/23/20
f 21/25/15 33/60/15 16/26/15
f 23/28/28 35/61/28 24/29/28
f 18/31/29 20/62/29 26/32/29
f 15/34/20 17/63/20 28/35/20
f 25/37/30 24/64/30 13/38/30
f 31/40/17 34/65/31 32/41/16
f 29/43/21 28/66/21 33/44/21
f 27/46/14 26/67/14 32/47/14
f 12/49/32 14/68/32 35/50/32
