# Blender v3.0.0 OBJ File: ''
# www.blender.org
mtllib 14.mtl
o buttons.151
v -0.341143 0.949494 -0.184456
v -0.378153 1.005409 -0.096272
v -0.331268 0.950327 -0.187872
v -0.466711 0.868209 -0.231283
v -0.528392 0.940673 -0.110777
v -0.383004 0.998672 -0.102673
v -0.469007 0.861164 -0.239237
v -0.419182 0.954208 -0.166529
v -0.408653 0.950732 -0.175744
v -0.418444 0.948103 -0.174660
v -0.465074 0.952160 -0.148326
v -0.448752 0.938539 -0.173123
v -0.471903 0.945098 -0.154245
v -0.438193 0.947972 -0.165868
v -0.426625 0.946350 -0.173186
v -0.437640 0.943393 -0.171966
v -0.537633 0.941788 -0.105161
v -0.409392 0.956837 -0.167614
v -0.441923 0.945601 -0.167204
v -0.427179 0.950929 -0.167088
vt 0.407921 0.541522
vt 0.609830 0.526147
vt 0.396490 0.526147
vt 0.362827 0.824450
vt 0.643493 0.824451
vt 0.598399 0.541525
vt 0.347025 0.836497
vt 0.547839 0.585246
vt 0.611626 0.555572
vt 0.595728 0.601418
vt 0.389669 0.775400
vt 0.555609 0.753042
vt 0.416667 0.827557
vt 0.523951 0.679648
vt 0.578917 0.638916
vt 0.560420 0.692150
vt 0.659295 0.836497
vt 0.564099 0.539644
vt 0.527804 0.702254
vt 0.542763 0.626629
vn -0.2694 0.7582 -0.5938
vn -0.2693 0.7582 -0.5938
usemtl dhd_button_light.034
s 1
f 1/1/1 2/2/1 3/3/1
f 3/3/1 4/4/1 1/1/1
f 5/5/1 2/2/1 6/6/1
f 7/7/1 5/5/1 4/4/1
f 8/8/1 9/9/1 10/10/2
f 11/11/1 12/12/1 13/13/1
f 14/14/2 15/15/2 16/16/2
f 1/1/1 6/6/1 2/2/1
f 3/3/1 7/7/1 4/4/1
f 5/5/1 17/17/1 2/2/1
f 7/7/1 17/17/1 5/5/1
f 8/8/1 18/18/1 9/9/1
f 11/11/1 19/19/1 12/12/1
f 14/14/2 20/20/2 15/15/2
