# Blender v3.0.0 OBJ File: ''
# www.blender.org
mtllib 14_base.mtl
o buttons.264
v -0.375962 0.999067 -0.091079
v -0.537633 0.941788 -0.105161
v -0.535344 0.935167 -0.099750
v -0.466718 0.854543 -0.233825
v -0.331268 0.950327 -0.187872
v -0.329078 0.943985 -0.182678
v -0.469007 0.861164 -0.239237
v -0.466711 0.868209 -0.231283
v -0.383004 0.998672 -0.102673
v -0.341143 0.949494 -0.184456
v -0.378153 1.005409 -0.096272
v -0.422867 0.935773 -0.164902
v -0.427179 0.950929 -0.167088
v -0.423421 0.940352 -0.158805
v -0.405634 0.946260 -0.159330
v -0.419182 0.954208 -0.166529
v -0.415425 0.943631 -0.158246
v -0.468145 0.934521 -0.145962
v -0.465074 0.952160 -0.148326
v -0.471903 0.945098 -0.154245
v -0.438165 0.935024 -0.158920
v -0.461316 0.941583 -0.140042
v -0.434436 0.937395 -0.157584
v -0.437640 0.943393 -0.171966
v -0.433882 0.932816 -0.163682
v -0.404896 0.940155 -0.167461
v -0.418444 0.948103 -0.174660
v -0.408653 0.950732 -0.175744
v -0.438193 0.947972 -0.165868
v -0.448752 0.938539 -0.173123
v -0.444994 0.927962 -0.164839
v -0.409392 0.956837 -0.167614
v -0.426625 0.946350 -0.173186
v -0.441923 0.945601 -0.167204
v -0.414686 0.937526 -0.166376
v -0.528392 0.940673 -0.110777
vt 0.963424 0.923411
vt 0.964878 0.952631
vt 0.963361 0.952642
vt 0.967914 0.952412
vt 0.966396 0.923400
vt 0.967851 0.923402
vt 0.835025 0.974808
vt 0.836542 0.946365
vt 0.836542 0.974842
vt 0.834676 0.867526
vt 0.812575 0.840981
vt 0.830446 0.840981
vt 0.972341 0.914046
vt 0.970886 0.894105
vt 0.972341 0.894071
vt 0.964266 0.977651
vt 0.965522 0.975258
vt 0.965522 0.977650
vt 0.982262 0.990348
vt 0.984006 0.987956
vt 0.984006 0.990349
vt 0.978945 0.873055
vt 0.977524 0.870673
vt 0.978945 0.870663
vt 0.916067 0.986458
vt 0.913674 0.981953
vt 0.916067 0.981952
vt 0.982753 0.822877
vt 0.984055 0.820484
vt 0.984055 0.822877
vt 0.961833 0.988447
vt 0.960181 0.986058
vt 0.961833 0.986055
vt 0.854828 0.988940
vt 0.852865 0.986547
vt 0.854828 0.986548
vt 0.961843 0.984363
vt 0.964235 0.988337
vt 0.961843 0.988336
vt 0.928056 0.985986
vt 0.929730 0.983593
vt 0.929730 0.985986
vt 0.984167 0.930592
vt 0.982309 0.928204
vt 0.984167 0.928200
vt 0.984412 0.846518
vt 0.982682 0.844120
vt 0.984412 0.844126
vt 0.982600 0.818088
vt 0.984336 0.815695
vt 0.984336 0.818088
vt 0.964878 0.923400
vt 0.966396 0.952411
vt 0.835025 0.946331
vt 0.808344 0.867526
vt 0.970886 0.914081
vt 0.964266 0.975258
vt 0.982262 0.987955
vt 0.977524 0.873066
vt 0.913674 0.986458
vt 0.982753 0.820484
vt 0.960181 0.988451
vt 0.852865 0.988939
vt 0.964235 0.984364
vt 0.928056 0.983594
vt 0.982309 0.930596
vt 0.982682 0.846512
vt 0.982600 0.815695
vn -0.2747 0.5894 0.7597
vn -0.2268 0.5683 0.7910
vn -0.2236 0.5695 0.7910
vn 0.5761 -0.3886 -0.7191
vn 0.5551 -0.4493 -0.7000
vn 0.5271 -0.3772 -0.7615
vn -0.8865 -0.4144 -0.2059
vn -0.8644 -0.4789 -0.1534
vn -0.8648 -0.4779 -0.1541
vn -0.2694 0.7582 -0.5938
vn 0.8552 0.4714 0.2156
vn 0.8958 0.4226 0.1376
vn 0.8941 0.4244 0.1432
vn 0.9603 0.2579 -0.1064
vn -0.0725 0.5988 0.7976
vn -0.7569 0.2145 0.6173
vn 0.5953 0.6158 0.5161
vn -0.9603 -0.2579 0.1064
vn 0.0725 -0.5989 -0.7976
vn 0.0725 -0.5988 -0.7976
vn -0.0724 0.5989 0.7976
vn -0.0725 0.5989 0.7975
vn -0.5953 -0.6158 -0.5162
vn 0.9603 0.2578 -0.1064
vn 0.0724 -0.5989 -0.7975
vn 0.7569 -0.2145 -0.6173
vn -0.2520 0.5142 0.8198
vn 0.5718 -0.3917 -0.7209
vn -0.8863 -0.4152 -0.2053
vn 0.8536 0.4738 0.2166
vn -0.0724 0.5989 0.7975
vn -0.9603 -0.2577 0.1065
vn -0.5953 -0.6157 -0.5162
vn 0.9603 0.2578 -0.1063
vn 0.7569 -0.2146 -0.6173
vn -0.9603 -0.2578 0.1064
usemtl dhd_low.016
s 1
f 1/1/1 2/2/2 3/3/3
f 4/4/4 5/5/5 6/6/6
f 4/7/7 2/8/8 7/9/9
f 8/10/10 9/11/10 10/12/10
f 6/13/11 11/14/12 1/15/13
f 12/16/14 13/17/14 14/18/14
f 15/19/15 16/20/15 17/21/15
f 18/22/16 19/23/16 20/24/16
f 21/25/17 19/26/17 22/27/17
f 23/28/18 24/29/18 25/30/18
f 26/31/19 27/32/19 28/33/20
f 23/34/21 13/35/21 29/36/22
f 18/37/23 30/38/23 31/39/23
f 26/40/24 32/41/24 15/42/24
f 12/43/25 24/44/25 33/45/25
f 21/46/26 30/47/26 34/48/26
f 17/49/18 27/50/18 35/51/18
f 1/1/1 11/52/27 2/2/2
f 4/4/4 7/53/28 5/5/5
f 4/7/7 3/54/29 2/8/8
f 8/10/10 36/55/10 9/11/10
f 6/13/11 5/56/30 11/14/12
f 12/16/14 33/57/14 13/17/14
f 15/19/31 32/58/31 16/20/31
f 18/22/16 22/59/16 19/23/16
f 21/25/17 34/60/17 19/26/17
f 23/28/32 29/61/32 24/29/32
f 26/31/19 35/62/25 27/32/19
f 23/34/21 14/63/21 13/35/21
f 18/37/33 20/64/33 30/38/33
f 26/40/34 28/65/34 32/41/34
f 12/43/25 25/66/25 24/44/25
f 21/46/26 31/67/35 30/47/26
f 17/49/36 16/68/36 27/50/36
