# Blender v3.0.0 OBJ File: ''
# www.blender.org
mtllib 16.mtl
o buttons.229
v -0.186806 0.745494 -0.431593
v -0.326453 0.789791 -0.361689
v -0.191411 0.752131 -0.424318
v -0.133370 0.868479 -0.323983
v -0.142697 0.864249 -0.326217
v -0.236019 0.897106 -0.276377
v -0.234346 0.889807 -0.283713
v -0.242385 0.823564 -0.365272
v -0.227795 0.795952 -0.394644
v -0.249158 0.829789 -0.357968
v -0.337054 0.787396 -0.361911
v -0.218566 0.801675 -0.390958
v -0.266003 0.831064 -0.353442
v -0.256774 0.836787 -0.349756
v -0.196140 0.851482 -0.347532
v -0.191681 0.844310 -0.355292
vt 0.347025 0.836497
vt 0.643493 0.824451
vt 0.362827 0.824450
vt 0.396490 0.526147
vt 0.407921 0.541522
vt 0.609830 0.526147
vt 0.598399 0.541525
vt 0.475918 0.723036
vt 0.602892 0.834412
vt 0.434636 0.703165
vt 0.659295 0.836497
vt 0.622212 0.793455
vt 0.368655 0.721178
vt 0.388391 0.680905
vt 0.574502 0.526587
vt 0.609538 0.553596
vn -0.1400 0.6858 -0.7142
vn -0.1399 0.6858 -0.7142
usemtl dhd_button_light.039
s 1
f 1/1/1 2/2/1 3/3/1
f 4/4/1 3/3/1 5/5/1
f 2/2/1 6/6/1 7/7/1
f 6/6/1 5/5/1 7/7/1
f 8/8/2 9/9/1 10/10/1
f 1/1/1 11/11/1 2/2/1
f 4/4/1 1/1/1 3/3/1
f 2/2/1 11/11/1 6/6/1
f 6/6/1 4/4/1 5/5/1
f 8/8/2 12/12/1 9/9/1
f 9/9/1 13/13/1 14/14/1
f 10/10/1 15/15/1 16/16/1
f 9/9/1 14/14/1 10/10/1
f 10/10/1 16/16/1 8/8/2
