# Blender v3.0.0 OBJ File: ''
# www.blender.org
mtllib 16_base.mtl
o buttons.266
v -0.132368 0.862701 -0.317850
v -0.236019 0.897106 -0.276377
v -0.235016 0.891329 -0.270244
v -0.337054 0.787396 -0.361911
v -0.336001 0.781367 -0.355516
v -0.185752 0.739465 -0.425198
v -0.186806 0.745494 -0.431593
v -0.133370 0.868479 -0.323983
v -0.234346 0.889807 -0.283713
v -0.191411 0.752131 -0.424318
v -0.326453 0.789791 -0.361689
v -0.189728 0.834743 -0.345328
v -0.242385 0.823564 -0.365272
v -0.191681 0.844310 -0.355292
v -0.264050 0.821497 -0.343478
v -0.256774 0.836787 -0.349756
v -0.266003 0.831064 -0.353442
v -0.227795 0.795952 -0.394644
v -0.225842 0.786385 -0.384680
v -0.194187 0.841915 -0.337568
v -0.249158 0.829789 -0.357968
v -0.247205 0.820222 -0.348004
v -0.254821 0.827220 -0.339792
v -0.216613 0.792108 -0.380994
v -0.240432 0.813997 -0.355309
v -0.218566 0.801675 -0.390958
v -0.196140 0.851482 -0.347532
v -0.142697 0.864249 -0.326217
vt 0.979559 0.967874
vt 0.981013 0.976362
vt 0.979559 0.976403
vt 0.842037 0.946345
vt 0.843492 0.974651
vt 0.841974 0.974665
vt 0.833507 0.974817
vt 0.835025 0.946365
vt 0.835025 0.974851
vt 0.861009 0.950101
vt 0.859551 0.920615
vt 0.861006 0.920615
vt 0.812575 0.894071
vt 0.834676 0.920615
vt 0.808344 0.920615
vt 0.963265 0.874888
vt 0.961020 0.881200
vt 0.960873 0.874881
vt 0.870319 0.988918
vt 0.868353 0.986525
vt 0.870319 0.986525
vt 0.967914 0.969980
vt 0.970307 0.981028
vt 0.967914 0.981028
vt 0.939304 0.971223
vt 0.941697 0.980894
vt 0.939304 0.980899
vt 0.852845 0.989131
vt 0.851511 0.986696
vt 0.852845 0.986739
vt 0.963265 0.885379
vt 0.963412 0.881207
vt 0.960895 0.886962
vt 0.960873 0.885372
vt 0.960908 0.873406
vt 0.963300 0.873413
vt 0.981013 0.967833
vt 0.843492 0.946331
vt 0.833507 0.946331
vt 0.859491 0.950100
vt 0.830446 0.894071
vt 0.868353 0.988917
vt 0.970307 0.969980
vt 0.941697 0.971218
vt 0.851511 0.989088
vt 0.963286 0.886969
vn 0.4122 0.6956 0.5884
vn 0.5007 0.6697 0.5485
vn 0.4958 0.6703 0.5521
vn -0.8032 0.3987 0.4426
vn -0.7752 0.3910 0.4962
vn -0.7731 0.3933 0.4976
vn -0.4600 -0.6526 -0.6020
vn -0.4498 -0.7114 -0.5401
vn -0.4501 -0.7105 -0.5409
vn 0.9561 -0.1176 -0.2683
vn 0.9487 -0.1833 -0.2576
vn 0.9362 -0.1183 -0.3310
vn -0.1400 0.6858 -0.7142
vn 0.3890 -0.6252 -0.6766
vn -0.5768 0.5298 0.6217
vn -0.5769 0.5298 0.6217
vn -0.8049 -0.4989 -0.3213
vn -0.3890 0.6252 0.6766
vn 0.8049 0.4989 0.3213
vn 0.5768 -0.5298 -0.6217
vn 0.9106 0.3724 0.1791
vn 0.4096 0.6973 0.5882
vn -0.7932 0.3293 0.5123
vn -0.4599 -0.6533 -0.6014
vn 0.9546 -0.1215 -0.2718
vn -0.5768 0.5298 0.6218
usemtl dhd_low.018
s 1
f 1/1/1 2/2/2 3/3/3
f 3/4/4 4/5/5 5/6/6
f 6/7/7 4/8/8 7/9/9
f 6/10/10 8/11/11 1/12/12
f 9/13/13 10/14/13 11/15/13
f 12/16/14 13/17/14 14/18/14
f 15/19/15 16/20/16 17/21/16
f 15/22/17 18/23/17 19/24/17
f 20/25/18 21/26/18 22/27/18
f 23/28/19 21/29/19 16/30/19
f 24/31/19 13/17/19 25/32/19
f 24/31/20 18/33/20 26/34/20
f 12/16/21 27/35/21 20/36/21
f 1/1/1 8/37/22 2/2/2
f 3/4/4 2/38/23 4/5/5
f 6/7/7 5/39/24 4/8/8
f 6/10/10 7/40/25 8/11/11
f 9/13/13 28/41/13 10/14/13
f 12/16/14 25/32/14 13/17/14
f 15/19/15 23/42/26 16/20/16
f 15/22/17 17/43/17 18/23/17
f 20/25/18 27/44/18 21/26/18
f 23/28/19 22/45/19 21/29/19
f 24/31/19 26/34/19 13/17/19
f 24/31/20 19/46/20 18/33/20
f 12/16/21 14/18/21 27/35/21
