# Blender v3.0.0 OBJ File: ''
# www.blender.org
mtllib 18.mtl
o buttons.121
v 0.012736 0.734644 -0.453399
v 0.005228 0.856629 -0.343690
v 0.012720 0.850952 -0.348329
v 0.120352 0.866529 -0.327226
v 0.164190 0.747669 -0.431739
v 0.115507 0.859792 -0.333629
v 0.173755 0.743539 -0.434846
v 0.005246 0.729048 -0.458944
v 0.111329 0.817798 -0.390661
v 0.067044 0.820521 -0.391094
v 0.069734 0.827723 -0.384412
v 0.062515 0.781236 -0.426878
v 0.096861 0.808252 -0.400229
v 0.073731 0.776438 -0.430481
v 0.108639 0.810595 -0.397343
v 0.085645 0.813051 -0.396627
vt 0.362827 0.824449
vt 0.396490 0.526145
vt 0.407921 0.541523
vt 0.609830 0.526145
vt 0.643493 0.824448
vt 0.598399 0.541520
vt 0.659295 0.836495
vt 0.347025 0.836495
vt 0.634876 0.603744
vt 0.449945 0.572928
vt 0.466272 0.534065
vt 0.402297 0.793724
vt 0.567649 0.652070
vt 0.447030 0.825637
vt 0.619071 0.643100
vt 0.523301 0.621141
vn 0.0484 0.6696 -0.7412
vn 0.0484 0.6695 -0.7412
vn 0.0484 0.6696 -0.7411
usemtl dhd_button_light.045
s 1
f 1/1/1 2/2/1 3/3/1
f 4/4/1 5/5/1 6/6/1
f 2/2/1 6/6/1 3/3/1
f 1/1/1 7/7/1 8/8/1
f 9/9/2 10/10/1 11/11/1
f 12/12/1 13/13/2 14/14/3
f 1/1/1 8/8/1 2/2/1
f 4/4/1 7/7/1 5/5/1
f 2/2/1 4/4/1 6/6/1
f 1/1/1 5/5/1 7/7/1
f 9/9/2 15/15/2 10/10/1
f 12/12/1 16/16/2 13/13/2
