# Blender v3.0.0 OBJ File: ''
# www.blender.org
mtllib 19_base.mtl
o buttons.239
v -0.030202 1.223917 0.123836
v 0.027995 1.232065 0.121908
v 0.028206 1.223917 0.123836
v -0.056391 1.261241 0.284526
v 0.054184 1.269389 0.282598
v -0.056602 1.269389 0.282598
v -0.048021 1.268399 0.276447
v 0.021800 1.234111 0.130477
v -0.024216 1.234110 0.130470
v 0.054395 1.261241 0.284526
v 0.017398 1.245662 0.179653
v 0.019960 1.270860 0.225920
v 0.019960 1.257280 0.229110
v -0.017104 1.254184 0.215929
v -0.010191 1.262629 0.190876
v -0.017104 1.267764 0.212739
v -0.010209 1.260864 0.244370
v -0.010787 1.271826 0.230029
v -0.010787 1.258245 0.233219
v 0.008506 1.257412 0.229674
v 0.006619 1.262434 0.190048
v 0.006619 1.248854 0.193238
v -0.028065 1.253412 0.212645
v -0.017991 1.259510 0.177597
v -0.017991 1.245929 0.180787
v 0.000667 1.271693 0.229465
v 0.000667 1.258112 0.232655
v 0.008506 1.270993 0.226484
v 0.017398 1.259243 0.176463
v -0.028065 1.266993 0.209455
v 0.001244 1.260732 0.243806
v -0.010209 1.274445 0.241180
v 0.001244 1.274312 0.240616
v -0.010191 1.249048 0.194066
v -0.030413 1.232065 0.121909
v 0.045604 1.268399 0.276450
vt 0.815521 0.972083
vt 0.816957 0.982060
vt 0.815521 0.982096
vt 0.973216 0.893017
vt 0.974652 0.874062
vt 0.974652 0.893053
vt 0.840456 0.920615
vt 0.852429 0.946330
vt 0.844538 0.946331
vt 0.852435 0.946333
vt 0.850999 0.974908
vt 0.850999 0.946331
vt 0.888555 0.974579
vt 0.887119 0.946338
vt 0.888555 0.946331
vt 0.810736 0.980755
vt 0.808344 0.972048
vt 0.810736 0.972047
vt 0.982309 0.929130
vt 0.979916 0.932987
vt 0.979916 0.929125
vt 0.849563 0.989090
vt 0.851511 0.986696
vt 0.851511 0.989088
vt 0.977524 0.929125
vt 0.979916 0.935492
vt 0.977524 0.935490
vt 0.945791 0.980621
vt 0.948183 0.986361
vt 0.945791 0.986364
vt 0.831990 0.988875
vt 0.833956 0.986483
vt 0.833956 0.988875
vt 0.831346 0.988956
vt 0.829385 0.986563
vt 0.831346 0.986563
vt 0.948183 0.980189
vt 0.950575 0.986261
vt 0.948183 0.986261
vt 0.911135 0.990008
vt 0.913031 0.987615
vt 0.913031 0.990008
vt 0.906864 0.988970
vt 0.908825 0.986578
vt 0.908825 0.988970
vt 0.865910 0.988939
vt 0.867873 0.986547
vt 0.867873 0.988939
vt 0.980396 0.871649
vt 0.982788 0.868771
vt 0.982788 0.871649
vt 0.816957 0.972047
vt 0.973216 0.874026
vt 0.856512 0.920615
vt 0.852435 0.974910
vt 0.887119 0.974586
vt 0.808344 0.980756
vt 0.982309 0.932992
vt 0.849563 0.986698
vt 0.979916 0.929127
vt 0.948183 0.980618
vt 0.831990 0.986483
vt 0.829385 0.988956
vt 0.950575 0.980189
vt 0.911135 0.987615
vt 0.906864 0.986578
vt 0.865910 0.986546
vt 0.980396 0.868772
vn 0.0682 -0.2286 -0.9711
vn -0.0778 -0.2308 -0.9699
vn -0.0661 -0.2329 -0.9702
vn -0.0016 0.2917 0.9565
vn 0.0011 0.1761 0.9844
vn 0.0013 0.1783 0.9840
vn 0.0000 0.9735 -0.2287
vn -0.9776 -0.0721 -0.1977
vn -0.9869 0.0064 -0.1612
vn -0.9753 -0.0744 -0.2079
vn 0.9830 0.0518 -0.1762
vn 0.9772 -0.0245 -0.2110
vn 0.9757 -0.0257 -0.2176
vn 0.9987 -0.0115 -0.0490
vn 0.9557 0.0673 0.2864
vn -0.9987 0.0115 0.0491
vn -0.9987 0.0115 0.0490
vn -0.9557 -0.0673 -0.2864
vn -0.0505 -0.2284 -0.9723
vn 0.0505 0.2284 0.9723
vn -0.0329 -0.2285 -0.9730
vn -0.2942 0.2185 0.9304
vn 0.0751 -0.2259 -0.9712
vn -0.0016 0.2902 0.9570
vn -0.9820 -0.1340 -0.1328
vn 0.9865 -0.0872 -0.1386
vn -0.2941 0.2186 0.9304
usemtl dhd_low.021
s 1
f 1/1/1 2/2/2 3/3/3
f 4/4/4 5/5/5 6/6/6
f 7/7/7 8/8/7 9/9/7
f 6/10/8 1/11/9 4/12/10
f 3/13/11 5/14/12 10/15/13
f 11/16/14 12/17/14 13/18/14
f 14/19/15 15/20/15 16/21/15
f 17/22/16 18/23/16 19/24/16
f 20/25/17 21/26/17 22/27/17
f 23/28/18 24/29/18 25/30/18
f 19/31/19 26/32/19 27/33/19
f 20/34/20 12/35/20 28/36/20
f 25/37/21 29/38/21 11/39/21
f 14/40/22 30/41/22 23/42/22
f 31/43/20 32/44/20 17/45/20
f 27/46/14 33/47/14 31/48/14
f 34/49/20 21/50/20 15/51/20
f 1/1/1 35/52/23 2/2/2
f 4/4/4 10/53/24 5/5/5
f 7/7/7 36/54/7 8/8/7
f 6/10/8 35/55/25 1/11/9
f 3/13/11 2/56/26 5/14/12
f 11/16/14 29/57/14 12/17/14
f 14/19/15 34/58/15 15/20/15
f 17/22/16 32/59/16 18/23/16
f 20/25/17 28/60/17 21/26/17
f 23/28/18 30/61/18 24/29/18
f 19/31/19 18/62/19 26/32/19
f 20/34/20 13/63/20 12/35/20
f 25/37/21 24/64/21 29/38/21
f 14/40/27 16/65/27 30/41/27
f 31/43/20 33/66/20 32/44/20
f 27/46/14 26/67/14 33/47/14
f 34/49/20 22/68/20 21/50/20
