# Blender v3.0.0 OBJ File: ''
# www.blender.org
mtllib 20_base.mtl
o buttons.240
v -0.093333 1.213465 0.106455
v -0.039117 1.231281 0.120603
v -0.038090 1.223239 0.122708
v -0.170090 1.250067 0.250465
v -0.169063 1.242025 0.252570
v -0.065306 1.268604 0.281293
v -0.064329 1.260558 0.283394
v -0.160097 1.250674 0.246971
v -0.047703 1.232055 0.127058
v -0.091223 1.224354 0.114247
v -0.103376 1.244275 0.198366
v -0.081372 1.263973 0.210198
v -0.079987 1.250512 0.213586
v -0.097961 1.237422 0.168923
v -0.088924 1.253663 0.172317
v -0.087539 1.240201 0.175705
v -0.066920 1.241960 0.174265
v -0.078727 1.252642 0.164095
v -0.068305 1.255421 0.170877
v -0.122457 1.256829 0.198605
v -0.099346 1.250884 0.165535
v -0.088594 1.265832 0.220533
v -0.087209 1.252370 0.223921
v -0.104760 1.257737 0.194978
v -0.075527 1.257279 0.181212
v -0.074142 1.243818 0.184600
v -0.121072 1.243368 0.201993
v -0.077342 1.239181 0.167483
v -0.085949 1.254500 0.174429
v -0.084564 1.241039 0.177817
v -0.094360 1.221507 0.104351
v -0.071545 1.266340 0.273026
vt 0.980554 0.916388
vt 0.979118 0.906644
vt 0.980554 0.906608
vt 0.868353 0.946331
vt 0.866917 0.974866
vt 0.866917 0.946333
vt 0.905871 0.973368
vt 0.904435 0.946337
vt 0.905871 0.946331
vt 0.976379 0.814464
vt 0.974943 0.833075
vt 0.974943 0.814436
vt 0.940007 0.840981
vt 0.951980 0.866696
vt 0.944089 0.866697
vt 0.920878 0.986630
vt 0.918486 0.981739
vt 0.920878 0.981739
vt 0.980515 0.967304
vt 0.982695 0.964912
vt 0.982695 0.967304
vt 0.982695 0.980135
vt 0.980515 0.977742
vt 0.982695 0.977742
vt 0.835025 0.981830
vt 0.837417 0.974842
vt 0.837417 0.981829
vt 0.980554 0.909002
vt 0.982727 0.906608
vt 0.982727 0.909001
vt 0.867873 0.981783
vt 0.865481 0.986545
vt 0.865481 0.981782
vt 0.980554 0.911396
vt 0.982726 0.909002
vt 0.982726 0.911394
vt 0.879938 0.974806
vt 0.882330 0.981863
vt 0.879938 0.981863
vt 0.982698 0.964261
vt 0.980515 0.961868
vt 0.982698 0.961869
vt 0.982690 0.987955
vt 0.980515 0.985563
vt 0.982690 0.985563
vt 0.979118 0.916424
vt 0.868353 0.974864
vt 0.904435 0.973370
vt 0.976379 0.833111
vt 0.956063 0.840981
vt 0.918486 0.986630
vt 0.980515 0.964912
vt 0.980515 0.980135
vt 0.835025 0.974843
vt 0.980554 0.906610
vt 0.867873 0.986546
vt 0.980554 0.909003
vt 0.882330 0.974806
vt 0.980515 0.964260
vt 0.980515 0.987955
vn 0.3730 -0.1906 -0.9080
vn 0.2349 -0.2173 -0.9474
vn 0.2465 -0.2175 -0.9444
vn -0.8575 -0.2299 -0.4601
vn -0.8896 -0.1550 -0.4296
vn -0.8521 -0.2322 -0.4690
vn 0.9702 0.2195 0.1031
vn 0.9877 0.1390 0.0718
vn 0.9884 0.1375 0.0647
vn -0.3029 0.1516 0.9409
vn -0.3170 0.2642 0.9109
vn -0.3162 0.2643 0.9111
vn -0.0993 0.9650 -0.2429
vn 0.5666 -0.1458 -0.8110
vn -0.8179 -0.2181 -0.5324
vn 0.8179 0.2181 0.5324
vn 0.8179 0.2181 0.5323
vn -0.5648 0.1463 0.8122
vn -0.8179 -0.2182 -0.5324
vn -0.5667 0.1458 0.8109
vn 0.3791 -0.1869 -0.9063
vn -0.8694 -0.2933 -0.3976
vn 0.9862 0.0824 0.1435
vn -0.3024 0.1524 0.9409
vn -0.5648 0.1463 0.8121
usemtl dhd_low.022
s 1
f 1/1/1 2/2/2 3/3/3
f 4/4/4 1/5/5 5/6/6
f 3/7/7 6/8/8 7/9/9
f 6/10/10 5/11/11 7/12/12
f 8/13/13 9/14/13 10/15/13
f 11/16/14 12/17/14 13/18/14
f 14/19/14 15/20/14 16/21/14
f 17/22/14 18/23/14 19/24/14
f 14/25/15 20/26/15 21/27/15
f 13/28/16 22/29/16 23/30/16
f 11/31/16 15/32/16 24/33/16
f 17/34/17 25/35/17 26/36/17
f 23/37/18 20/38/18 27/39/18
f 28/40/19 29/41/19 18/42/15
f 30/43/20 25/44/20 29/45/20
f 1/1/1 31/46/21 2/2/2
f 4/4/4 31/47/22 1/5/5
f 3/7/7 2/48/23 6/8/8
f 6/10/10 4/49/24 5/11/11
f 8/13/13 32/50/13 9/14/13
f 11/16/14 24/51/14 12/17/14
f 14/19/14 21/52/14 15/20/14
f 17/22/14 28/53/14 18/23/14
f 14/25/15 27/54/15 20/26/15
f 13/28/17 12/55/17 22/29/17
f 11/31/16 16/56/16 15/32/16
f 17/34/16 19/57/16 25/35/16
f 23/37/25 22/58/25 20/38/25
f 28/40/19 30/59/19 29/41/19
f 30/43/20 26/60/20 25/44/20
