# Blender v3.0.0 OBJ File: ''
# www.blender.org
mtllib 21.mtl
o buttons.105
v -0.265254 1.212801 0.188494
v -0.181049 1.244790 0.237189
v -0.254931 1.215155 0.187904
v -0.148453 1.203915 0.080257
v -0.102098 1.219309 0.100694
v -0.112145 1.218481 0.104484
v -0.177828 1.247868 0.246809
v -0.145419 1.235687 0.134340
v -0.165030 1.229960 0.128343
v -0.158854 1.232735 0.133447
v -0.178018 1.240830 0.172931
v -0.201372 1.230622 0.154569
v -0.168647 1.225459 0.115828
v -0.192846 1.234349 0.161273
v -0.214979 1.230514 0.163212
v -0.178032 1.246664 0.192262
v -0.148190 1.200821 0.069950
v -0.186544 1.237103 0.166227
v -0.168214 1.245115 0.180639
v -0.205162 1.228965 0.151589
vt 0.609230 0.836159
vt 0.418174 0.824547
vt 0.593169 0.824542
vt 0.548678 0.544276
vt 0.451085 0.527825
vt 0.462664 0.544290
vt 0.402114 0.836159
vt 0.442479 0.530786
vt 0.532364 0.562346
vt 0.494110 0.563634
vt 0.441993 0.758551
vt 0.587517 0.757345
vt 0.583625 0.528298
vt 0.534318 0.757786
vt 0.612626 0.828686
vt 0.380362 0.830372
vt 0.560260 0.527825
vt 0.495051 0.758111
vt 0.381085 0.759055
vt 0.611188 0.757149
vn -0.2361 0.9235 -0.3024
vn -0.1514 0.9564 -0.2498
vn -0.2330 0.9236 -0.3043
vn -0.1927 0.9422 -0.2740
vn -0.1902 0.9423 -0.2756
vn -0.1958 0.9410 -0.2760
vn -0.1522 0.9571 -0.2464
vn -0.1877 0.9403 -0.2839
vn -0.1878 0.9403 -0.2839
vn -0.1877 0.9403 -0.2840
vn -0.1949 0.9404 -0.2788
vn 0.6238 0.7079 -0.3314
vn -0.1874 0.9404 -0.2837
usemtl dhd_button_light.051
s 1
f 1/1/1 2/2/2 3/3/3
f 4/4/4 1/1/1 3/3/3
f 5/5/5 4/4/4 6/6/6
f 7/7/7 6/6/6 2/2/2
f 8/8/8 9/9/9 10/10/10
f 10/10/10 11/11/8 8/8/8
f 12/12/9 9/9/9 13/13/9
f 14/14/9 15/15/9 16/16/9
f 1/1/1 7/7/7 2/2/2
f 4/4/4 17/17/11 1/1/1
f 5/5/5 17/17/11 4/4/4
f 7/7/7 5/5/5 6/6/6
f 8/8/8 13/13/9 9/9/9
f 10/10/10 18/18/12 11/11/8
f 12/12/9 14/14/9 9/9/9
f 16/16/9 19/19/9 11/11/8
f 11/11/8 18/18/12 14/14/9
f 12/12/9 20/20/13 15/15/9
f 16/16/9 11/11/8 14/14/9
f 14/14/9 12/12/9 15/15/9
