# Blender v3.0.0 OBJ File: ''
# www.blender.org
mtllib 21_base.mtl
o buttons.241
v -0.265254 1.212801 0.188494
v -0.146459 1.193016 0.072449
v -0.263522 1.204997 0.190993
v -0.100367 1.211504 0.103193
v -0.177828 1.247868 0.246809
v -0.176142 1.240050 0.249291
v -0.102098 1.219309 0.100694
v -0.112145 1.218481 0.104484
v -0.254931 1.215155 0.187904
v -0.181049 1.244790 0.237189
v -0.156235 1.219618 0.137408
v -0.165030 1.229960 0.128343
v -0.162410 1.216843 0.132303
v -0.183925 1.223986 0.170188
v -0.192846 1.234349 0.161273
v -0.186544 1.237103 0.166227
v -0.190226 1.221231 0.165233
v -0.198753 1.217505 0.158530
v -0.168647 1.225459 0.115828
v -0.166028 1.212342 0.119789
v -0.202542 1.215848 0.155550
v -0.214979 1.230514 0.163212
v -0.205162 1.228965 0.151589
v -0.158854 1.232735 0.133447
v -0.142800 1.222570 0.138300
v -0.178018 1.240830 0.172931
v -0.175398 1.227713 0.176892
v -0.201372 1.230622 0.154569
v -0.165594 1.231998 0.184600
v -0.168214 1.245115 0.180639
v -0.178032 1.246664 0.192262
v -0.175412 1.233547 0.196222
v -0.145419 1.235687 0.134340
v -0.212359 1.217397 0.167172
v -0.148190 1.200821 0.069950
v -0.148453 1.203915 0.080257
vt 0.850999 0.946333
vt 0.849563 0.974921
vt 0.849563 0.946331
vt 0.894300 0.974545
vt 0.892864 0.946340
vt 0.894300 0.946331
vt 0.979251 0.830478
vt 0.977815 0.820516
vt 0.979251 0.820480
vt 0.941704 0.919785
vt 0.929730 0.894071
vt 0.945787 0.894071
vt 0.974943 0.834116
vt 0.973507 0.853047
vt 0.973507 0.834088
vt 0.982723 0.916424
vt 0.984176 0.914032
vt 0.984176 0.916424
vt 0.984156 0.961868
vt 0.982702 0.959475
vt 0.984156 0.959475
vt 0.890947 0.974583
vt 0.888555 0.982000
vt 0.888555 0.974582
vt 0.957783 0.971218
vt 0.960175 0.979958
vt 0.957783 0.979958
vt 0.973311 0.988974
vt 0.975703 0.986352
vt 0.975703 0.988975
vt 0.885682 0.974596
vt 0.888075 0.981992
vt 0.885682 0.981991
vt 0.813128 0.980741
vt 0.810736 0.972047
vt 0.813128 0.972048
vt 0.838060 0.948724
vt 0.838934 0.946331
vt 0.838934 0.948724
vt 0.821876 0.988800
vt 0.819615 0.986407
vt 0.821876 0.986407
vt 0.873618 0.988974
vt 0.871225 0.986355
vt 0.873618 0.986356
vt 0.936912 0.986726
vt 0.934520 0.981339
vt 0.936912 0.981339
vt 0.813128 0.980568
vt 0.815521 0.972047
vt 0.815521 0.980568
vt 0.850999 0.974923
vt 0.892863 0.974551
vt 0.977815 0.830514
vt 0.933812 0.919786
vt 0.974943 0.853083
vt 0.982723 0.914032
vt 0.982702 0.961868
vt 0.890947 0.982001
vt 0.960175 0.971218
vt 0.973311 0.986352
vt 0.888075 0.974596
vt 0.810736 0.980740
vt 0.838060 0.946331
vt 0.819615 0.988800
vt 0.871225 0.988973
vt 0.934520 0.986726
vt 0.813128 0.972047
vn -0.6446 -0.3592 -0.6749
vn -0.6960 -0.2913 -0.6563
vn -0.6366 -0.3602 -0.6819
vn 0.8522 0.3762 0.3637
vn 0.8909 0.3006 0.3405
vn 0.8938 0.2993 0.3339
vn 0.6373 -0.1037 -0.7636
vn 0.5221 -0.1522 -0.8392
vn 0.5323 -0.1505 -0.8331
vn -0.1878 0.9403 -0.2839
vn -0.5737 0.0762 0.8155
vn -0.5975 0.1856 0.7801
vn -0.5968 0.1858 0.7806
vn -0.6590 0.0937 0.7463
vn 0.6419 -0.1013 -0.7601
vn 0.6418 -0.1014 -0.7601
vn 0.7434 0.3250 0.5846
vn -0.7434 -0.3250 -0.5846
vn 0.6420 -0.1013 -0.7600
vn 0.7434 0.3250 0.5847
vn 0.6465 -0.0993 -0.7564
vn -0.6419 0.1013 0.7601
vn -0.6626 -0.4250 -0.6167
vn 0.8790 0.2428 0.4103
vn 0.6420 -0.0990 -0.7603
vn -0.5733 0.0771 0.8157
vn -0.6589 0.0938 0.7463
vn 0.6420 -0.1012 -0.7600
vn 0.7434 0.3249 0.5846
usemtl dhd_low.023
s 1
f 1/1/1 2/2/2 3/3/3
f 4/4/4 5/5/5 6/6/6
f 2/7/7 7/8/8 4/9/9
f 8/10/10 9/11/10 10/12/10
f 5/13/11 3/14/12 6/15/13
f 11/16/14 12/17/14 13/18/14
f 14/19/15 15/20/15 16/21/16
f 17/22/17 12/23/17 15/24/17
f 18/25/18 19/26/18 20/27/18
f 21/28/18 22/29/18 23/30/18
f 14/31/18 24/32/18 11/33/18
f 25/34/17 26/35/17 27/36/17
f 21/37/19 28/38/19 18/39/19
f 29/40/15 26/41/15 30/42/15
f 29/43/20 31/44/20 32/45/20
f 20/46/21 33/47/21 25/48/21
f 34/49/22 31/50/22 22/51/22
f 1/1/1 35/52/23 2/2/2
f 4/4/4 7/53/24 5/5/5
f 2/7/7 35/54/25 7/8/8
f 8/10/10 36/55/10 9/11/10
f 5/13/11 1/56/26 3/14/12
f 11/16/27 24/57/27 12/17/27
f 14/19/15 17/58/28 15/20/15
f 17/22/17 13/59/17 12/23/17
f 18/25/18 28/60/18 19/26/18
f 21/28/18 34/61/18 22/29/18
f 14/31/18 16/62/18 24/32/18
f 25/34/29 33/63/29 26/35/29
f 21/37/15 23/64/15 28/38/15
f 29/40/15 27/65/15 26/41/15
f 29/43/17 30/66/17 31/44/17
f 20/46/21 19/67/21 33/47/21
f 34/49/22 32/68/22 31/50/22
