# Blender v3.0.0 OBJ File: ''
# www.blender.org
mtllib 23.mtl
o buttons.109
v -0.189555 1.168064 0.015476
v -0.210506 1.140763 -0.024764
v -0.199217 1.163750 0.013467
v -0.362464 1.102102 0.004404
v -0.354753 1.107646 0.009120
v -0.335267 1.157447 0.096441
v -0.331771 1.154418 0.086902
v -0.277477 1.156233 0.020079
v -0.256429 1.160196 0.013392
v -0.269431 1.154384 0.010780
v -0.304793 1.153887 0.034364
v -0.279757 1.149504 0.008175
v -0.267008 1.149183 -0.001331
v -0.275874 1.141171 -0.011229
v -0.240351 1.152728 -0.012754
v -0.253371 1.153630 -0.001896
v -0.203894 1.138886 -0.033048
v -0.248102 1.169364 0.025981
v -0.297172 1.159681 0.040680
vt 0.451085 0.527825
vt 0.548678 0.544276
vt 0.462665 0.544290
vt 0.609230 0.836159
vt 0.593170 0.824542
vt 0.402115 0.836159
vt 0.418175 0.824547
vt 0.485551 0.716949
vt 0.458805 0.636316
vt 0.500184 0.672541
vt 0.499186 0.830182
vt 0.534699 0.699972
vt 0.539035 0.639915
vt 0.597047 0.647946
vt 0.516548 0.529256
vt 0.507952 0.594708
vt 0.560260 0.527825
vt 0.391814 0.635543
vt 0.458190 0.819352
vn -0.3033 0.8549 -0.4208
vn -0.3061 0.8540 -0.4207
vn -0.3071 0.8520 -0.4240
vn -0.3195 0.8251 -0.4659
vn -0.3161 0.8265 -0.4658
vn -0.2934 0.8783 -0.3774
vn -0.2907 0.8782 -0.3799
vn -0.2964 0.8546 -0.4264
vn -0.2964 0.8546 -0.4263
vn -0.2963 0.8546 -0.4263
vn -0.3047 0.8520 -0.4258
usemtl dhd_button_light.055
s 1
f 1/1/1 2/2/2 3/3/3
f 2/2/2 4/4/4 5/5/5
f 6/6/6 3/3/3 7/7/7
f 7/7/7 4/4/4 6/6/6
f 8/8/8 9/9/8 10/10/9
f 11/11/8 8/8/8 12/12/9
f 12/12/9 13/13/9 14/14/9
f 9/9/8 15/15/10 16/16/10
f 10/10/9 12/12/9 8/8/8
f 14/14/9 16/16/10 15/15/10
f 1/1/1 17/17/11 2/2/2
f 2/2/2 17/17/11 4/4/4
f 6/6/6 1/1/1 3/3/3
f 7/7/7 5/5/5 4/4/4
f 8/8/8 18/18/8 9/9/8
f 11/11/8 19/19/8 8/8/8
f 12/12/9 10/10/9 13/13/9
f 9/9/8 18/18/8 15/15/10
f 14/14/9 13/13/9 16/16/10
