# Blender v3.0.0 OBJ File: ''
# www.blender.org
mtllib 24.mtl
o buttons.111
v -0.208604 1.104894 -0.084414
v -0.204554 1.134345 -0.040599
v -0.199731 1.104348 -0.090483
v -0.353976 1.040664 -0.097766
v -0.348922 1.047306 -0.091225
v -0.356656 1.095389 -0.011262
v -0.363124 1.097561 -0.003148
v -0.212411 1.128524 -0.045113
v -0.300876 1.086520 -0.085568
v -0.275752 1.112059 -0.060480
v -0.259544 1.118055 -0.060722
v -0.321623 1.101369 -0.049956
v -0.261624 1.122699 -0.052206
v -0.303275 1.091060 -0.077025
v -0.308055 1.100109 -0.060000
v -0.310966 1.081203 -0.087901
vt 0.548677 0.544276
vt 0.451085 0.527825
vt 0.560259 0.527825
vt 0.609230 0.836159
vt 0.593169 0.824542
vt 0.418174 0.824547
vt 0.402114 0.836159
vt 0.462664 0.544290
vt 0.600264 0.765714
vt 0.473021 0.611679
vt 0.479782 0.538309
vt 0.398910 0.821776
vt 0.435928 0.537903
vt 0.552694 0.766093
vt 0.458723 0.766836
vt 0.611274 0.820803
vn -0.3153 0.8006 -0.5096
vn -0.3128 0.8020 -0.5089
vn -0.3123 0.7989 -0.5141
vn -0.3107 0.7710 -0.5559
vn -0.3077 0.7728 -0.5550
vn -0.3162 0.8260 -0.4667
vn -0.3194 0.8257 -0.4650
vn -0.3150 0.7985 -0.5130
vn -0.3047 0.8030 -0.5123
vn -0.3047 0.8029 -0.5123
vn -0.3046 0.8030 -0.5123
usemtl dhd_button_light.057
s 1
f 1/1/1 2/2/2 3/3/3
f 1/1/1 4/4/4 5/5/5
f 6/6/6 4/4/4 7/7/7
f 7/7/7 8/8/8 6/6/6
f 9/9/9 10/10/10 11/11/9
f 10/10/10 12/12/10 13/13/10
f 12/12/10 14/14/11 9/9/9
f 1/1/1 8/8/8 2/2/2
f 1/1/1 3/3/3 4/4/4
f 6/6/6 5/5/5 4/4/4
f 7/7/7 2/2/2 8/8/8
f 9/9/9 14/14/11 10/10/10
f 13/13/10 11/11/9 10/10/10
f 10/10/10 15/15/10 12/12/10
f 9/9/9 16/16/10 12/12/10
f 12/12/10 15/15/10 14/14/11
