# Blender v3.0.0 OBJ File: ''
# www.blender.org
mtllib 24_base.mtl
o buttons.244
v -0.363124 1.097561 -0.003148
v -0.351454 1.034045 -0.093295
v -0.360610 1.090915 0.001282
v -0.353976 1.040664 -0.097766
v -0.197210 1.097729 -0.086012
v -0.348922 1.047306 -0.091225
v -0.212411 1.128524 -0.045113
v -0.208604 1.104894 -0.084414
v -0.204554 1.134345 -0.040599
v -0.202033 1.127726 -0.036128
v -0.257374 1.111497 -0.045060
v -0.259544 1.118055 -0.060722
v -0.261624 1.122699 -0.052206
v -0.299024 1.079858 -0.069878
v -0.308055 1.100109 -0.060000
v -0.303805 1.088907 -0.052853
v -0.321623 1.101369 -0.049956
v -0.317373 1.090167 -0.042809
v -0.275752 1.112059 -0.060480
v -0.303275 1.091060 -0.077025
v -0.306715 1.070002 -0.080754
v -0.310966 1.081203 -0.087901
v -0.271502 1.100857 -0.053334
v -0.296625 1.075318 -0.078421
v -0.255294 1.106853 -0.053575
v -0.300876 1.086520 -0.085568
v -0.199731 1.104348 -0.090483
v -0.356656 1.095389 -0.011262
vt 0.975213 0.949551
vt 0.973777 0.968447
vt 0.973777 0.949523
vt 0.884246 0.974674
vt 0.885683 0.946331
vt 0.885683 0.974671
vt 0.956063 0.893241
vt 0.944090 0.867527
vt 0.951981 0.867526
vt 0.979540 0.904036
vt 0.978104 0.894107
vt 0.979540 0.894071
vt 0.909202 0.949261
vt 0.910638 0.974335
vt 0.909202 0.974334
vt 0.817221 0.984488
vt 0.815521 0.982096
vt 0.817221 0.982096
vt 0.982788 0.858397
vt 0.980396 0.854998
vt 0.982788 0.854998
vt 0.920879 0.971218
vt 0.923271 0.981709
vt 0.920879 0.981709
vt 0.977605 0.881518
vt 0.979998 0.875201
vt 0.979998 0.881518
vt 0.894300 0.982029
vt 0.896692 0.974464
vt 0.896692 0.982029
vt 0.815521 0.980572
vt 0.813128 0.986340
vt 0.813128 0.980568
vt 0.964235 0.975773
vt 0.961846 0.966421
vt 0.964239 0.966417
vt 0.964239 0.977768
vt 0.961843 0.975777
vt 0.975213 0.968483
vt 0.884246 0.946335
vt 0.940007 0.893241
vt 0.978104 0.904072
vt 0.910638 0.949267
vt 0.815521 0.984488
vt 0.980396 0.858397
vt 0.923271 0.971218
vt 0.977605 0.875201
vt 0.894300 0.974464
vt 0.815521 0.986343
vt 0.961846 0.977772
vn -0.9317 -0.3436 0.1173
vn -0.9665 -0.2506 0.0547
vn -0.9666 -0.2502 0.0555
vn 0.2866 -0.4589 -0.8410
vn 0.2159 -0.4252 -0.8790
vn 0.2965 -0.4550 -0.8397
vn -0.3047 0.8030 -0.5123
vn 0.9412 0.3365 -0.0315
vn 0.9533 0.2593 -0.1549
vn 0.9538 0.2639 -0.1439
vn 0.0429 0.6258 0.7788
vn 0.1133 0.5807 0.8062
vn 0.1202 0.5821 0.8042
vn 0.9291 0.3689 0.0257
vn 0.9216 0.3844 0.0545
vn -0.1431 0.4932 0.8581
vn -0.6266 0.2361 0.7427
vn -0.9215 -0.3845 -0.0545
vn -0.9215 -0.3844 -0.0545
vn 0.1665 -0.4846 -0.8587
vn 0.1665 -0.4847 -0.8587
vn 0.6266 -0.2361 -0.7427
vn 0.3949 -0.3830 -0.8351
vn -0.9320 -0.3427 0.1175
vn 0.2633 -0.5364 -0.8019
vn 0.9393 0.3420 -0.0269
vn 0.0817 0.5107 0.8559
vn 0.9215 0.3844 0.0544
vn -0.1431 0.4931 0.8581
usemtl dhd_low.026
s 1
f 1/1/1 2/2/2 3/3/3
f 4/4/4 5/5/5 2/6/6
f 6/7/7 7/8/7 8/9/7
f 5/10/8 9/11/9 10/12/10
f 10/13/11 1/14/12 3/15/13
f 11/16/14 12/17/14 13/18/14
f 14/19/15 15/20/15 16/21/15
f 11/22/16 17/23/16 18/24/16
f 14/25/17 19/26/17 20/27/17
f 21/28/18 17/29/19 22/30/18
f 23/31/20 15/32/21 19/33/20
f 24/34/22 12/35/22 25/36/22
f 21/37/23 26/38/23 24/34/23
f 1/1/1 4/39/24 2/2/2
f 4/4/4 27/40/25 5/5/5
f 6/7/7 28/41/7 7/8/7
f 5/10/8 27/42/26 9/11/9
f 10/13/11 9/43/27 1/14/12
f 11/16/14 25/44/14 12/17/14
f 14/19/28 20/45/28 15/20/28
f 11/22/29 13/46/29 17/23/29
f 14/25/17 23/47/17 19/26/17
f 21/28/18 18/48/19 17/29/19
f 23/31/20 16/49/21 15/32/21
f 24/34/22 26/38/22 12/35/22
f 21/37/23 22/50/23 26/38/23
