# Blender v3.0.0 OBJ File: ''
# www.blender.org
mtllib 25.mtl
o buttons.113
v -0.197494 1.099943 -0.097809
v -0.184205 1.071286 -0.140302
v -0.202696 1.092999 -0.104190
v -0.307237 0.983975 -0.192038
v -0.343000 1.035394 -0.111032
v -0.305389 0.991211 -0.184510
v -0.351739 1.036259 -0.105092
v -0.249587 1.056878 -0.151194
v -0.277300 1.043913 -0.154550
v -0.259924 1.052042 -0.152446
v -0.174032 1.072378 -0.143648
v -0.245616 1.058735 -0.150714
v -0.237432 1.077701 -0.130603
v -0.226914 1.078001 -0.135166
v -0.236681 1.055364 -0.159170
v -0.279748 1.035177 -0.164435
v -0.283568 1.040980 -0.155309
v -0.298943 1.054076 -0.131545
v -0.290864 1.060760 -0.126898
v -0.267635 1.065807 -0.131436
v -0.257151 1.070381 -0.130585
v -0.266122 1.049142 -0.153197
vt 0.451085 0.527825
vt 0.548678 0.544276
vt 0.462665 0.544290
vt 0.609230 0.836159
vt 0.418175 0.824547
vt 0.593170 0.824542
vt 0.402115 0.836159
vt 0.552027 0.665170
vt 0.528884 0.791967
vt 0.543438 0.712227
vt 0.560260 0.527825
vt 0.555312 0.647169
vt 0.474772 0.557605
vt 0.510313 0.526438
vt 0.605989 0.632919
vt 0.570971 0.829495
vt 0.523598 0.820931
vt 0.391047 0.821890
vt 0.381079 0.774077
vt 0.435778 0.687130
vt 0.446802 0.640343
vt 0.538263 0.740577
vn -0.2884 0.7502 -0.5949
vn -0.2904 0.7485 -0.5962
vn -0.2888 0.7466 -0.5993
vn -0.2681 0.7212 -0.6387
vn -0.3074 0.7724 -0.5558
vn -0.2659 0.7235 -0.6370
vn -0.3109 0.7714 -0.5552
vn -0.2800 0.7527 -0.5959
vn -0.2800 0.7528 -0.5957
vn -0.5862 0.7750 0.2363
vn -0.2860 0.7475 -0.5996
vn -0.2800 0.7527 -0.5958
vn 0.1693 0.1089 -0.9795
usemtl dhd_button_light.059
s 1
f 1/1/1 2/2/2 3/3/3
f 4/4/4 5/5/5 6/6/6
f 2/2/2 4/4/4 6/6/6
f 7/7/7 3/3/3 5/5/5
f 8/8/8 9/9/9 10/10/10
f 1/1/1 11/11/11 2/2/2
f 4/4/4 7/7/7 5/5/5
f 2/2/2 11/11/11 4/4/4
f 7/7/7 1/1/1 3/3/3
f 12/12/8 13/13/8 14/14/8
f 15/15/8 16/16/12 17/17/8
f 9/9/9 18/18/8 19/19/8
f 15/15/8 17/17/8 9/9/9
f 12/12/8 14/14/8 15/15/8
f 20/20/8 21/21/8 8/8/8
f 8/8/8 12/12/8 15/15/8
f 9/9/9 19/19/8 22/22/13
f 10/10/10 20/20/8 8/8/8
f 9/9/9 22/22/13 10/10/10
f 8/8/8 15/15/8 9/9/9
