# Blender v3.0.0 OBJ File: ''
# www.blender.org
mtllib 25_base.mtl
o buttons.245
v -0.171784 1.066169 -0.138495
v -0.197494 1.099943 -0.097809
v -0.195246 1.093734 -0.092656
v -0.304989 0.977767 -0.186885
v -0.351739 1.036259 -0.105092
v -0.307237 0.983975 -0.192038
v -0.349491 1.030050 -0.099939
v -0.305389 0.991211 -0.184510
v -0.202696 1.092999 -0.104190
v -0.184205 1.071286 -0.140302
v -0.279663 1.030480 -0.146996
v -0.277300 1.043913 -0.154550
v -0.283568 1.040980 -0.155309
v -0.223008 1.067501 -0.126853
v -0.236681 1.055364 -0.159170
v -0.226914 1.078001 -0.135166
v -0.275842 1.024677 -0.156121
v -0.232776 1.044864 -0.150857
v -0.233527 1.067201 -0.122290
v -0.237432 1.077701 -0.130603
v -0.263730 1.055307 -0.123123
v -0.259924 1.052042 -0.152446
v -0.256019 1.041542 -0.144133
v -0.279748 1.035177 -0.164435
v -0.253246 1.059881 -0.122272
v -0.249587 1.056878 -0.151194
v -0.257151 1.070381 -0.130585
v -0.267635 1.065807 -0.131436
v -0.241711 1.048235 -0.142401
v -0.245682 1.046377 -0.142881
v -0.295037 1.043576 -0.123232
v -0.273395 1.033413 -0.146237
v -0.266122 1.049142 -0.153197
v -0.262217 1.038642 -0.144884
v -0.286958 1.050260 -0.118584
v -0.290864 1.060760 -0.126898
v -0.298943 1.054076 -0.131545
v -0.245616 1.058735 -0.150714
v -0.174032 1.072378 -0.143648
v -0.343000 1.035394 -0.111032
vt 0.979333 0.844084
vt 0.977897 0.834124
vt 0.979333 0.834088
vt 0.972341 0.968515
vt 0.973777 0.949560
vt 0.973777 0.968551
vt 0.874193 0.946339
vt 0.875629 0.974757
vt 0.874193 0.974765
vt 0.875629 0.974781
vt 0.877065 0.946333
vt 0.877065 0.974783
vt 0.961843 0.971218
vt 0.949870 0.945503
vt 0.957761 0.945502
vt 0.856512 0.948724
vt 0.855320 0.946331
vt 0.856512 0.946331
vt 0.913031 0.983488
vt 0.910638 0.987614
vt 0.910638 0.983486
vt 0.902998 0.981964
vt 0.900606 0.973810
vt 0.902998 0.973813
vt 0.984188 0.852529
vt 0.982682 0.850132
vt 0.984188 0.850137
vt 0.900606 0.981964
vt 0.902999 0.986420
vt 0.900606 0.986420
vt 0.982969 0.970225
vt 0.981013 0.967833
vt 0.982969 0.967833
vt 0.860423 0.982020
vt 0.858031 0.986364
vt 0.858031 0.982019
vt 0.980976 0.903670
vt 0.982935 0.901278
vt 0.982935 0.903670
vt 0.838179 0.953508
vt 0.838934 0.951116
vt 0.838934 0.953508
vt 0.967914 0.981028
vt 0.970307 0.986486
vt 0.967914 0.986486
vt 0.982771 0.942991
vt 0.983951 0.940599
vt 0.983951 0.942991
vt 0.957783 0.979877
vt 0.955390 0.986179
vt 0.955390 0.979878
vt 0.984157 0.936572
vt 0.982309 0.934183
vt 0.984157 0.934180
vt 0.979916 0.936575
vt 0.982309 0.932992
vt 0.982309 0.936574
vt 0.977897 0.844120
vt 0.972341 0.949523
vt 0.875629 0.946331
vt 0.875629 0.946331
vt 0.945787 0.971218
vt 0.855320 0.948723
vt 0.913031 0.987615
vt 0.900606 0.981960
vt 0.982682 0.852524
vt 0.902999 0.981964
vt 0.981013 0.970225
vt 0.860423 0.986364
vt 0.980976 0.901277
vt 0.838179 0.951116
vt 0.970307 0.981029
vt 0.982771 0.940598
vt 0.957783 0.986178
vt 0.982309 0.936575
vt 0.979916 0.932993
vn 0.8426 0.4899 0.2236
vn 0.9013 0.4188 0.1103
vn 0.8979 0.4232 0.1209
vn -0.8877 -0.4098 -0.2100
vn -0.8561 -0.4983 -0.1371
vn -0.8569 -0.4966 -0.1383
vn -0.2810 0.6055 0.7446
vn -0.2154 0.5764 0.7883
vn -0.2090 0.5790 0.7881
vn 0.5819 -0.3842 -0.7168
vn 0.5199 -0.3619 -0.7738
vn 0.5900 -0.3783 -0.7133
vn -0.2800 0.7527 -0.5959
vn -0.3331 0.5060 0.7956
vn 0.9171 0.0262 -0.3978
vn 0.9171 0.0261 -0.3978
vn 0.3342 -0.5055 -0.7955
vn 0.2839 0.6579 0.6976
vn -0.9141 -0.3987 -0.0742
vn -0.9004 -0.4213 -0.1091
vn -0.9004 -0.4213 -0.1090
vn 0.9141 0.3987 0.0742
vn -0.2935 0.5239 0.7996
vn -0.3330 0.5060 0.7956
vn -0.7044 -0.5828 -0.4052
vn -0.3332 0.5060 0.7956
vn 0.7044 0.5828 0.4052
vn -0.6523 0.3063 0.6933
vn -0.6522 0.3063 0.6934
vn -0.9171 -0.0261 0.3978
vn 0.8387 0.4949 0.2274
vn 0.9014 0.4188 0.1103
vn -0.8874 -0.4110 -0.2091
vn -0.2464 0.4966 0.8323
vn 0.5620 -0.4654 -0.6838
vn 0.2838 0.6579 0.6976
vn -0.9004 -0.4212 -0.1091
vn -0.3329 0.5061 0.7956
usemtl dhd_low.027
s 1
f 1/1/1 2/2/2 3/3/3
f 4/4/4 5/5/5 6/6/6
f 3/7/7 5/8/8 7/9/9
f 6/10/10 1/11/11 4/12/12
f 8/13/13 9/14/13 10/15/13
f 11/16/14 12/17/14 13/18/14
f 14/19/15 15/20/16 16/21/15
f 17/22/17 15/23/17 18/24/17
f 19/25/18 16/26/18 20/27/18
f 21/28/19 22/29/19 23/30/19
f 17/31/20 13/32/20 24/33/21
f 25/34/22 26/35/22 27/36/22
f 25/37/23 28/38/23 21/39/23
f 29/40/24 26/41/24 30/42/24
f 31/43/25 12/44/25 32/45/25
f 23/46/26 33/47/26 34/48/26
f 35/49/27 33/50/27 36/51/27
f 31/52/28 36/53/28 37/54/29
f 29/55/30 20/56/30 38/57/30
f 1/1/1 39/58/31 2/2/32
f 4/4/4 7/59/33 5/5/5
f 3/7/7 2/60/34 5/8/8
f 6/10/10 39/61/35 1/11/11
f 8/13/13 40/62/13 9/14/13
f 11/16/14 32/63/14 12/17/14
f 14/19/15 18/64/16 15/20/16
f 17/22/17 24/65/17 15/23/17
f 19/25/18 14/66/36 16/26/18
f 21/28/19 28/67/19 22/29/19
f 17/31/20 11/68/37 13/32/20
f 25/34/22 30/69/22 26/35/22
f 25/37/23 27/70/23 28/38/23
f 29/40/38 38/71/38 26/41/38
f 31/43/25 37/72/25 12/44/25
f 23/46/26 22/73/26 33/47/26
f 35/49/27 34/74/27 33/50/27
f 31/52/28 35/75/28 36/53/28
f 29/55/30 19/76/30 20/56/30
