# Blender v3.0.0 OBJ File: ''
# www.blender.org
mtllib 26.mtl
o buttons.116
v -0.292283 0.980935 -0.201596
v -0.227313 0.938179 -0.268196
v -0.302346 0.980183 -0.198345
v -0.139953 1.043582 -0.186373
v -0.169141 1.068586 -0.149955
v -0.129583 1.046441 -0.186781
v -0.228870 0.945439 -0.260627
v -0.171123 1.061024 -0.157363
v -0.252300 1.014884 -0.199897
v -0.236186 1.014972 -0.205229
v -0.216777 0.984470 -0.244143
v -0.189369 1.019828 -0.215835
v -0.204598 1.020241 -0.210269
v -0.194872 1.025748 -0.207698
v -0.199347 1.044865 -0.185896
v -0.193845 1.038944 -0.194034
v -0.207567 0.990472 -0.240872
v -0.199096 1.014321 -0.218407
vt 0.418175 0.824547
vt 0.609230 0.836159
vt 0.402115 0.836159
vt 0.548678 0.544276
vt 0.451085 0.527825
vt 0.560260 0.527825
vt 0.593170 0.824542
vt 0.462665 0.544290
vt 0.367959 0.740825
vt 0.429207 0.717353
vt 0.596881 0.829999
vt 0.591173 0.628628
vt 0.532571 0.648128
vt 0.552242 0.608933
vt 0.476006 0.526173
vt 0.515283 0.546140
vt 0.612970 0.789392
vt 0.571563 0.667750
vn -0.2653 0.7231 -0.6377
vn -0.1965 0.6812 -0.7052
vn -0.2686 0.7216 -0.6381
vn -0.2340 0.7034 -0.6712
vn -0.2328 0.7054 -0.6694
vn -0.2287 0.7032 -0.6732
vn -0.1953 0.6839 -0.7030
vn -0.2314 0.7019 -0.6737
vn -0.2249 0.7093 -0.6681
vn -0.2249 0.7092 -0.6681
vn -0.2250 0.7092 -0.6681
usemtl dhd_button_light.062
s 1
f 1/1/1 2/2/2 3/3/3
f 4/4/4 5/5/5 6/6/6
f 4/4/4 2/2/2 7/7/7
f 3/3/3 8/8/8 1/1/1
f 9/9/9 10/10/9 11/11/10
f 12/12/9 13/13/9 14/14/11
f 1/1/1 7/7/7 2/2/2
f 4/4/4 8/8/8 5/5/5
f 4/4/4 6/6/6 2/2/2
f 3/3/3 5/5/5 8/8/8
f 9/9/9 15/15/9 16/16/9
f 10/10/9 17/17/10 11/11/10
f 9/9/9 16/16/9 10/10/9
f 12/12/9 18/18/9 13/13/9
