# Blender v3.0.0 OBJ File: ''
# www.blender.org
mtllib 28.mtl
o buttons.041
v -0.105069 0.910991 -0.317911
v -0.005208 0.897396 -0.336018
v -0.114483 0.906793 -0.320391
v -0.062819 1.027902 -0.217611
v -0.012701 1.016928 -0.230697
v -0.058090 1.020826 -0.224211
v -0.012720 0.903051 -0.331116
v -0.036692 0.941511 -0.314192
v -0.059010 0.951028 -0.304301
v -0.045615 0.949232 -0.306785
v -0.056477 0.959699 -0.296825
v -0.042534 0.965277 -0.292843
v -0.044353 0.958352 -0.298827
v -0.063111 0.967897 -0.289150
v -0.056358 0.991191 -0.269062
v -0.054843 0.967134 -0.290378
v -0.030892 0.990779 -0.271136
v -0.034429 0.964117 -0.294410
v -0.064256 0.960578 -0.295527
v -0.071993 0.946014 -0.307850
v -0.036142 0.957424 -0.300197
v -0.005208 1.022947 -0.225850
v -0.066636 0.990895 -0.268632
v -0.021702 0.988848 -0.273456
vt 0.418175 0.824547
vt 0.609230 0.836159
vt 0.402115 0.836159
vt 0.451086 0.527825
vt 0.548678 0.544276
vt 0.462665 0.544290
vt 0.593170 0.824542
vt 0.585517 0.819173
vt 0.477943 0.781328
vt 0.537745 0.781824
vt 0.478300 0.730296
vt 0.531497 0.688554
vt 0.532090 0.729162
vt 0.439795 0.688579
vt 0.440532 0.551520
vt 0.476289 0.686922
vt 0.550579 0.535426
vt 0.567770 0.689267
vt 0.443769 0.730938
vt 0.428189 0.819173
vt 0.568541 0.728487
vt 0.560260 0.527825
vt 0.396677 0.560636
vt 0.592456 0.539730
vn -0.1026 0.6580 -0.7460
vn 0.0004 0.6466 -0.7629
vn -0.1045 0.6556 -0.7478
vn -0.0546 0.6546 -0.7540
vn -0.0540 0.6525 -0.7559
vn -0.0501 0.6521 -0.7565
vn -0.0005 0.6492 -0.7606
vn -0.0503 0.6605 -0.7491
vn -0.0503 0.6606 -0.7491
vn -0.0504 0.6606 -0.7491
vn -0.0487 0.6542 -0.7548
usemtl dhd_button_light.066
s 1
f 1/1/1 2/2/2 3/3/3
f 4/4/4 5/5/5 6/6/6
f 3/3/3 6/6/6 1/1/1
f 5/5/5 2/2/2 7/7/7
f 8/8/8 9/9/8 10/10/8
f 11/11/9 12/12/8 13/13/9
f 14/14/9 15/15/10 16/16/9
f 17/17/9 18/18/9 12/12/8
f 19/19/9 9/9/8 20/20/8
f 10/10/8 21/21/9 8/8/8
f 16/16/9 19/19/9 14/14/9
f 13/13/9 18/18/9 21/21/9
f 1/1/1 7/7/7 2/2/2
f 4/4/4 22/22/11 5/5/5
f 3/3/3 4/4/4 6/6/6
f 5/5/5 22/22/11 2/2/2
f 8/8/8 20/20/8 9/9/8
f 11/11/9 16/16/9 12/12/8
f 14/14/9 23/23/10 15/15/10
f 17/17/9 24/24/9 18/18/9
f 19/19/9 11/11/9 9/9/8
f 10/10/8 13/13/9 21/21/9
f 16/16/9 11/11/9 19/19/9
f 13/13/9 12/12/8 18/18/9
