# Blender v3.0.0 OBJ File: ''
# www.blender.org
mtllib 28_base.mtl
o buttons.248
v -0.062608 1.022378 -0.211318
v -0.114483 0.906793 -0.320391
v -0.114272 0.901270 -0.314097
v -0.004997 1.017424 -0.219557
v -0.062819 1.027902 -0.217611
v -0.005208 0.897396 -0.336018
v -0.004997 0.891873 -0.329724
v -0.012719 0.903041 -0.331104
v -0.058090 1.020815 -0.224199
v -0.012700 1.016918 -0.230685
v -0.055775 0.950484 -0.286375
v -0.044353 0.958352 -0.298827
v -0.043651 0.949137 -0.288377
v -0.035440 0.948209 -0.289747
v -0.036692 0.941511 -0.314192
v -0.036142 0.957424 -0.300197
v -0.041832 0.956062 -0.282393
v -0.054843 0.967134 -0.290378
v -0.054141 0.957919 -0.279928
v -0.044913 0.940017 -0.296335
v -0.045615 0.949232 -0.306785
v -0.062409 0.958682 -0.278700
v -0.066636 0.990895 -0.268632
v -0.063111 0.967897 -0.289150
v -0.058308 0.941813 -0.293851
v -0.056477 0.959699 -0.296825
v -0.071291 0.936799 -0.297400
v -0.064256 0.960578 -0.295527
v -0.071993 0.946014 -0.307850
v -0.055656 0.981976 -0.258612
v -0.065934 0.981680 -0.258182
v -0.063554 0.951363 -0.285077
v -0.056358 0.991191 -0.269062
v -0.035990 0.932296 -0.303742
v -0.030190 0.981564 -0.260686
v -0.042534 0.965277 -0.292843
v -0.059010 0.951028 -0.304301
v -0.021001 0.979633 -0.263006
v -0.030892 0.990779 -0.271136
v -0.034429 0.964117 -0.294410
v -0.033727 0.954902 -0.283960
v -0.021702 0.988848 -0.273456
v -0.005208 1.022947 -0.225850
v -0.105068 0.910980 -0.317899
vt 0.869789 0.946339
vt 0.871225 0.974756
vt 0.869789 0.974764
vt 0.910638 0.984348
vt 0.909202 0.974372
vt 0.910638 0.974335
vt 0.871225 0.974746
vt 0.872661 0.946335
vt 0.872661 0.974750
vt 0.974652 0.855034
vt 0.973216 0.873989
vt 0.973216 0.854998
vt 0.824400 0.972047
vt 0.812427 0.946332
vt 0.820318 0.946331
vt 0.897445 0.988837
vt 0.899565 0.986444
vt 0.899565 0.988837
vt 0.975707 0.976798
vt 0.973311 0.980413
vt 0.973314 0.976797
vt 0.980554 0.913788
vt 0.982728 0.911396
vt 0.982728 0.913788
vt 0.865481 0.987370
vt 0.863402 0.984978
vt 0.865481 0.984977
vt 0.929735 0.976292
vt 0.932123 0.971219
vt 0.932127 0.976293
vt 0.980687 0.830147
vt 0.982690 0.827754
vt 0.982690 0.830146
vt 0.929730 0.981428
vt 0.932127 0.977965
vt 0.932123 0.981429
vt 0.982668 0.827662
vt 0.984403 0.825269
vt 0.984403 0.827662
vt 0.929735 0.977964
vt 0.980515 0.964910
vt 0.978123 0.959477
vt 0.980515 0.959475
vt 0.958456 0.894070
vt 0.960848 0.887872
vt 0.960848 0.894069
vt 0.977897 0.844121
vt 0.980289 0.850137
vt 0.977897 0.850139
vt 0.952966 0.988508
vt 0.950611 0.986115
vt 0.952966 0.986115
vt 0.824244 0.988805
vt 0.825889 0.986413
vt 0.825889 0.988805
vt 0.973314 0.975254
vt 0.975707 0.975255
vt 0.973311 0.969464
vt 0.975703 0.969465
vt 0.871225 0.946331
vt 0.909202 0.984384
vt 0.871225 0.946331
vt 0.974652 0.874026
vt 0.808344 0.972047
vt 0.897445 0.986444
vt 0.975703 0.980415
vt 0.980554 0.911396
vt 0.863402 0.987371
vt 0.929730 0.971218
vt 0.980687 0.827755
vt 0.982668 0.825269
vt 0.978123 0.964912
vt 0.958456 0.887872
vt 0.980289 0.844120
vt 0.950611 0.988508
vt 0.824244 0.986413
vn -0.9491 0.2624 0.1742
vn -0.9320 0.2564 0.2561
vn -0.9295 0.2615 0.2600
vn 0.0891 0.7497 0.6557
vn 0.2331 0.7352 0.6365
vn 0.2218 0.7355 0.6402
vn 0.9983 0.0565 0.0161
vn 0.9956 0.0607 -0.0709
vn 0.9977 0.0644 0.0231
vn -0.1549 -0.7803 -0.6060
vn -0.1581 -0.7014 -0.6950
vn -0.1581 -0.7025 -0.6939
vn -0.0503 0.6606 -0.7491
vn -0.1886 -0.7428 -0.6424
vn 0.9984 0.0138 -0.0549
vn 0.2379 0.7364 0.6334
vn -0.9933 0.0448 0.1062
vn -0.9922 -0.1184 -0.0378
vn 0.9751 -0.1297 -0.1799
vn -0.9253 0.2514 0.2838
vn 0.0061 0.7502 0.6612
vn -0.9918 0.0549 0.1151
vn 0.9976 0.0686 -0.0065
vn -0.2092 -0.7404 -0.6388
vn -0.9432 0.2152 0.2531
vn 0.2173 0.7393 0.6373
vn 0.3080 0.7237 0.6175
vn 0.9805 -0.1101 -0.1629
vn 0.9295 -0.2435 -0.2771
vn -0.9461 0.1640 0.2793
vn 0.0821 0.7517 0.6544
vn 0.9987 -0.0301 0.0400
vn -0.1552 -0.7789 -0.6077
vn 0.0060 0.7502 0.6612
vn 0.9295 -0.2435 -0.2772
usemtl dhd_low.030
s 1
f 1/1/1 2/2/2 3/3/3
f 4/4/4 5/5/5 1/6/6
f 6/7/7 4/8/8 7/9/9
f 2/10/10 7/11/11 3/12/12
f 8/13/13 9/14/13 10/15/13
f 11/16/14 12/17/14 13/18/14
f 14/19/15 15/20/15 16/21/15
f 17/22/16 18/23/16 19/24/16
f 20/25/17 12/26/17 21/27/17
f 22/28/18 23/29/18 24/30/18
f 25/31/19 26/32/19 11/33/19
f 27/34/20 28/35/20 29/36/20
f 30/37/21 23/38/21 31/39/21
f 22/28/22 28/35/22 32/40/22
f 19/41/23 33/42/23 30/43/23
f 34/44/24 29/45/24 15/46/24
f 35/47/25 36/48/25 17/49/25
f 25/50/26 21/51/26 37/52/26
f 38/53/27 39/54/27 35/55/27
f 14/19/28 40/56/28 41/57/28
f 41/57/29 42/58/29 38/59/29
f 1/1/1 5/60/30 2/2/2
f 4/4/4 43/61/31 5/5/5
f 6/7/7 43/62/32 4/8/8
f 2/10/10 6/63/33 7/11/11
f 8/13/13 44/64/13 9/14/13
f 11/16/14 26/65/14 12/17/14
f 14/19/15 34/66/15 15/20/15
f 17/22/16 36/67/16 18/23/16
f 20/25/17 13/68/17 12/26/17
f 22/28/18 31/69/18 23/29/18
f 25/31/19 37/70/19 26/32/19
f 27/34/20 32/40/20 28/35/20
f 30/37/34 33/71/34 23/38/34
f 22/28/22 24/30/22 28/35/22
f 19/41/23 18/72/23 33/42/23
f 34/44/24 27/73/24 29/45/24
f 35/47/25 39/74/25 36/48/25
f 25/50/26 20/75/26 21/51/26
f 38/53/27 42/76/27 39/54/27
f 14/19/28 16/21/28 40/56/28
f 41/57/35 40/56/35 42/58/35
