# Blender v3.0.0 OBJ File: ''
# www.blender.org
mtllib 29.mtl
o buttons.081
v 0.056508 1.020868 -0.224147
v 0.112903 0.906829 -0.320332
v 0.103488 0.911029 -0.317851
v 0.003628 0.897432 -0.335959
v 0.011121 1.016959 -0.230643
v 0.011140 0.903086 -0.331059
v 0.003628 1.022983 -0.225791
v 0.061239 1.027938 -0.217552
v 0.041882 0.984631 -0.275707
v 0.035054 0.996437 -0.265755
v 0.069190 0.979917 -0.278030
v 0.078075 0.942469 -0.310456
v 0.066801 0.941325 -0.312222
v 0.057882 0.978917 -0.279672
v 0.071286 0.983498 -0.274732
v 0.022719 0.955791 -0.302427
v 0.030520 0.988689 -0.272892
v 0.033969 0.953801 -0.303426
vt 0.548679 0.544276
vt 0.609230 0.836159
vt 0.593170 0.824542
vt 0.402115 0.836159
vt 0.462665 0.544290
vt 0.418175 0.824547
vt 0.451085 0.527825
vt 0.560261 0.527825
vt 0.497360 0.594861
vt 0.491356 0.530839
vt 0.589184 0.645647
vt 0.560425 0.829392
vt 0.518337 0.823242
vt 0.546428 0.638710
vt 0.602713 0.630779
vt 0.382656 0.711547
vt 0.462324 0.563552
vt 0.420122 0.732312
vn 0.0501 0.6521 -0.7565
vn 0.1045 0.6556 -0.7479
vn 0.1025 0.6580 -0.7460
vn -0.0005 0.6466 -0.7628
vn 0.0540 0.6524 -0.7559
vn 0.0004 0.6493 -0.7606
vn 0.0486 0.6541 -0.7549
vn 0.0545 0.6546 -0.7540
vn 0.0503 0.6606 -0.7491
vn 0.0503 0.6606 -0.7490
vn 0.0503 0.6605 -0.7491
usemtl dhd_button_light.069
s 1
f 1/1/1 2/2/2 3/3/3
f 4/4/4 5/5/5 6/6/6
f 1/1/1 7/7/7 8/8/8
f 2/2/2 6/6/6 3/3/3
f 9/9/9 10/10/9 11/11/9
f 1/1/1 8/8/8 2/2/2
f 4/4/4 7/7/7 5/5/5
f 1/1/1 5/5/5 7/7/7
f 2/2/2 4/4/4 6/6/6
f 11/11/9 12/12/9 13/13/9
f 11/11/9 13/13/9 14/14/10
f 10/10/9 15/15/11 11/11/9
f 16/16/9 17/17/9 10/10/9
f 9/9/9 18/18/9 16/16/9
f 11/11/9 14/14/10 9/9/9
f 9/9/9 16/16/9 10/10/9
