# Blender v3.0.0 OBJ File: ''
# www.blender.org
mtllib 29_base.mtl
o buttons.083
v 0.112276 0.901270 -0.314098
v 0.003628 0.897432 -0.335959
v 0.112903 0.906829 -0.320332
v 0.103488 0.911029 -0.317851
v 0.011121 1.016959 -0.230643
v 0.056508 1.020868 -0.224147
v 0.003000 1.017425 -0.219557
v 0.003000 0.891873 -0.329725
v 0.060612 1.022379 -0.211318
v 0.003628 1.022983 -0.225791
v 0.034352 0.987222 -0.255305
v 0.071286 0.983498 -0.274732
v 0.035054 0.996437 -0.265755
v 0.041180 0.975416 -0.265258
v 0.033969 0.953801 -0.303426
v 0.041882 0.984631 -0.275707
v 0.057180 0.969702 -0.269222
v 0.066801 0.941325 -0.312222
v 0.066099 0.932110 -0.301772
v 0.029818 0.979474 -0.262443
v 0.022719 0.955791 -0.302427
v 0.022017 0.946576 -0.291977
v 0.068489 0.970702 -0.267580
v 0.078075 0.942469 -0.310456
v 0.069190 0.979917 -0.278030
v 0.030520 0.988689 -0.272892
v 0.033267 0.944586 -0.292976
v 0.077373 0.933254 -0.300006
v 0.070584 0.974282 -0.264282
v 0.057882 0.978917 -0.279672
v 0.011140 0.903086 -0.331059
v 0.061239 1.027938 -0.217552
vt 0.975213 0.912603
vt 0.976649 0.894105
vt 0.976649 0.912638
vt 0.929730 0.919786
vt 0.917757 0.894072
vt 0.925649 0.894071
vt 0.868353 0.946345
vt 0.869789 0.974831
vt 0.868353 0.974845
vt 0.980769 0.843708
vt 0.979333 0.834122
vt 0.980769 0.834088
vt 0.895736 0.974329
vt 0.897172 0.946336
vt 0.897172 0.974335
vt 0.978943 0.936578
vt 0.976551 0.943084
vt 0.976551 0.936577
vt 0.854828 0.974861
vt 0.852435 0.981789
vt 0.852435 0.974855
vt 0.817223 0.972047
vt 0.819615 0.980381
vt 0.817223 0.980377
vt 0.941697 0.973095
vt 0.944091 0.980771
vt 0.941699 0.980773
vt 0.948183 0.972011
vt 0.945787 0.980618
vt 0.945791 0.972012
vt 0.941699 0.971220
vt 0.944089 0.973093
vt 0.982965 0.955950
vt 0.981013 0.953558
vt 0.982965 0.953558
vt 0.977640 0.990008
vt 0.975730 0.987615
vt 0.977640 0.987615
vt 0.945787 0.971218
vt 0.948179 0.971218
vt 0.980379 0.942960
vt 0.982771 0.940141
vt 0.982771 0.942960
vt 0.975213 0.894071
vt 0.913674 0.919786
vt 0.869789 0.946331
vt 0.979333 0.843742
vt 0.895736 0.946331
vt 0.978943 0.943085
vt 0.854828 0.981795
vt 0.819615 0.972051
vt 0.948179 0.980617
vt 0.944091 0.971218
vt 0.981013 0.955950
vt 0.975730 0.990008
vt 0.980379 0.940142
vn 0.1612 -0.7012 -0.6945
vn 0.1527 -0.7804 -0.6063
vn 0.1526 -0.7791 -0.6081
vn 0.0503 0.6606 -0.7491
vn -0.9901 0.0956 -0.1032
vn -0.9957 0.0907 -0.0196
vn -0.9953 0.0961 -0.0153
vn -0.2236 0.7382 0.6365
vn -0.0796 0.7484 0.6584
vn -0.0914 0.7467 0.6588
vn 0.9303 0.2223 0.2918
vn 0.9513 0.2281 0.2075
vn 0.9264 0.2299 0.2982
vn 0.3954 0.6756 0.6223
vn 0.3954 0.6755 0.6223
vn 0.9810 -0.1735 -0.0871
vn -0.9830 -0.0998 -0.1541
vn -0.9835 0.1633 0.0779
vn 0.9830 0.0999 0.1540
vn 0.9830 0.0998 0.1540
vn -0.9172 0.3274 0.2272
vn -0.1875 -0.7305 -0.6567
vn -0.1875 -0.7304 -0.6567
vn 0.1764 -0.7441 -0.6443
vn 0.9172 -0.3274 -0.2272
vn -0.3954 -0.6755 -0.6223
vn -0.3955 -0.6755 -0.6223
vn 0.1612 -0.7022 -0.6935
vn -1.0000 -0.0033 0.0009
vn -0.2302 0.7389 0.6332
vn 0.9386 0.1364 0.3170
vn 0.3955 0.6755 0.6223
vn 0.9830 0.0998 0.1541
vn -0.9172 0.3275 0.2272
vn 0.9171 -0.3275 -0.2273
usemtl dhd_low.031
s 1
f 1/1/1 2/2/2 3/3/3
f 4/4/4 5/5/4 6/6/4
f 7/7/5 2/8/6 8/9/7
f 9/10/8 10/11/9 7/12/10
f 3/13/11 9/14/12 1/15/13
f 11/16/14 12/17/15 13/18/14
f 14/19/16 15/20/16 16/21/16
f 17/22/17 18/23/17 19/24/17
f 20/25/18 21/26/18 22/27/18
f 23/28/19 24/29/20 25/30/19
f 11/31/21 26/32/21 20/25/21
f 27/33/22 21/34/23 15/35/23
f 28/36/24 18/37/24 24/38/24
f 23/28/25 12/39/25 29/40/25
f 17/41/26 16/42/26 30/43/27
f 1/1/1 8/44/28 2/2/2
f 4/4/4 31/45/4 5/5/4
f 7/7/5 10/46/29 2/8/6
f 9/10/8 32/47/30 10/11/9
f 3/13/11 32/48/31 9/14/12
f 11/16/14 29/49/32 12/17/15
f 14/19/16 27/50/16 15/20/16
f 17/22/17 30/51/17 18/23/17
f 20/25/18 26/32/18 21/26/18
f 23/28/19 28/52/33 24/29/20
f 11/31/34 13/53/34 26/32/34
f 27/33/22 22/54/22 21/34/23
f 28/36/24 19/55/24 18/37/24
f 23/28/35 25/30/35 12/39/35
f 17/41/26 14/56/26 16/42/26
