# Blender v3.0.0 OBJ File: ''
# www.blender.org
mtllib 2_base.mtl
o buttons.002
v 0.533347 0.935167 -0.099751
v 0.467174 0.861355 -0.238919
v 0.535799 0.941979 -0.104844
v 0.373966 0.999066 -0.091079
v 0.329435 0.950518 -0.187554
v 0.327082 0.943985 -0.182679
v 0.376320 1.005600 -0.095954
v 0.464722 0.854543 -0.233827
v 0.339311 0.949685 -0.184139
v 0.526558 0.940865 -0.110459
v 0.464879 0.868400 -0.230965
v 0.416135 0.934495 -0.168684
v 0.431764 0.949282 -0.166206
v 0.419893 0.945072 -0.176968
v 0.466542 0.928961 -0.152883
v 0.446786 0.948214 -0.160756
v 0.470300 0.939538 -0.161167
v 0.423993 0.941246 -0.179993
v 0.420235 0.930669 -0.171710
v 0.472522 0.945172 -0.152966
v 0.468764 0.934595 -0.144682
v 0.432106 0.934879 -0.160948
v 0.428007 0.938705 -0.157923
v 0.411382 0.955767 -0.143678
v 0.412918 0.960711 -0.160163
v 0.409161 0.950134 -0.151879
v 0.411830 0.925576 -0.182025
v 0.421067 0.938096 -0.185342
v 0.417309 0.927519 -0.177059
v 0.443028 0.937637 -0.152472
v 0.446281 0.931154 -0.182769
v 0.403630 0.933228 -0.175974
v 0.412867 0.945748 -0.179291
v 0.407388 0.943805 -0.184257
v 0.432707 0.922857 -0.176026
v 0.437009 0.951822 -0.160584
v 0.436465 0.933434 -0.184310
v 0.415588 0.936153 -0.190309
v 0.442523 0.920577 -0.174485
v 0.409109 0.935171 -0.171007
v 0.435864 0.945456 -0.169232
v 0.415140 0.966344 -0.151962
v 0.433251 0.941245 -0.152301
v 0.381170 0.998864 -0.102355
vt 0.963652 0.843803
vt 0.962134 0.873042
vt 0.962134 0.843769
vt 0.970598 0.814471
vt 0.972053 0.834435
vt 0.970598 0.834470
vt 0.838060 0.974732
vt 0.836542 0.946331
vt 0.837997 0.946335
vt 0.848104 0.946331
vt 0.849563 0.974290
vt 0.848045 0.974290
vt 0.838907 0.840981
vt 0.861009 0.867526
vt 0.834676 0.867526
vt 0.813128 0.988994
vt 0.815521 0.986344
vt 0.815521 0.988995
vt 0.978123 0.987466
vt 0.980515 0.983171
vt 0.980515 0.987467
vt 0.905391 0.975794
vt 0.906308 0.973405
vt 0.906308 0.975798
vt 0.944094 0.983972
vt 0.945791 0.981579
vt 0.945791 0.983972
vt 0.873627 0.977178
vt 0.874673 0.974783
vt 0.874673 0.977176
vt 0.944094 0.986364
vt 0.945791 0.983972
vt 0.945791 0.986364
vt 0.964298 0.987220
vt 0.965521 0.984828
vt 0.965521 0.987221
vt 0.899565 0.982148
vt 0.897172 0.986444
vt 0.897172 0.982148
vt 0.965521 0.984828
vt 0.964298 0.982436
vt 0.965521 0.982435
vt 0.877065 0.986481
vt 0.879458 0.981850
vt 0.879458 0.986481
vt 0.982386 0.925337
vt 0.984221 0.922952
vt 0.984221 0.925344
vt 0.817217 0.986881
vt 0.815521 0.984491
vt 0.817217 0.984488
vt 0.811037 0.988850
vt 0.813128 0.986454
vt 0.813128 0.988846
vt 0.810736 0.986332
vt 0.808344 0.988983
vt 0.808344 0.986332
vt 0.939304 0.981187
vt 0.936912 0.971223
vt 0.939304 0.971218
vt 0.891427 0.981994
vt 0.893820 0.986395
vt 0.891427 0.986395
vt 0.963652 0.873076
vt 0.972053 0.814436
vt 0.836542 0.974728
vt 0.849559 0.946331
vt 0.856778 0.840981
vt 0.813128 0.986343
vt 0.978123 0.983170
vt 0.905391 0.973402
vt 0.944094 0.981579
vt 0.873627 0.974785
vt 0.944094 0.983972
vt 0.964298 0.984828
vt 0.899565 0.986444
vt 0.964298 0.984828
vt 0.877065 0.981851
vt 0.982386 0.922945
vt 0.815521 0.986883
vt 0.811037 0.986458
vt 0.810736 0.988983
vt 0.936912 0.981192
vt 0.893820 0.981994
vn 0.8873 -0.4135 -0.2042
vn 0.8637 -0.4796 -0.1547
vn 0.8640 -0.4788 -0.1555
vn -0.8938 0.4260 0.1401
vn -0.8537 0.4721 0.2199
vn -0.8567 0.4683 0.2161
vn 0.2106 0.5356 0.8178
vn 0.2358 0.4798 0.8451
vn 0.2661 0.5548 0.7883
vn -0.5164 -0.3401 -0.7859
vn -0.5606 -0.3568 -0.7473
vn -0.5631 -0.3548 -0.7464
vn 0.2694 0.7582 -0.5938
vn -0.6434 0.6005 0.4749
vn -0.6434 0.6005 0.4748
vn -0.2180 -0.5526 -0.8044
vn -0.7166 -0.2541 -0.6496
vn 0.9381 -0.3461 -0.0164
vn 0.7166 0.2541 0.6496
vn -0.9381 0.3460 0.0164
vn 0.6434 -0.6005 -0.4749
vn 0.9629 -0.2237 0.1512
vn -0.9629 0.2236 -0.1513
vn -0.9629 0.2236 -0.1512
vn -0.7165 -0.2542 -0.6496
vn -0.0182 -0.6125 -0.7903
vn 0.6434 -0.6005 -0.4748
vn 0.2180 0.5526 0.8044
vn -0.2180 -0.5526 -0.8045
vn 0.8871 -0.4142 -0.2037
vn -0.8943 0.4259 0.1370
vn 0.2157 0.5336 0.8177
vn -0.5412 -0.4177 -0.7298
vn -0.6434 0.6004 0.4749
vn 0.9380 -0.3461 -0.0164
vn -0.9380 0.3461 0.0164
vn 0.9629 -0.2236 0.1512
vn -0.9629 0.2237 -0.1513
vn 0.7165 0.2541 0.6496
usemtl dhd_low.003
s 1
f 1/1/1 2/2/2 3/3/3
f 4/4/4 5/5/5 6/6/6
f 1/7/7 7/8/8 4/9/9
f 6/10/10 2/11/11 8/12/12
f 9/13/13 10/14/13 11/15/13
f 12/16/14 13/17/14 14/18/15
f 15/19/16 16/20/16 17/21/16
f 12/22/17 18/23/17 19/24/17
f 15/25/18 20/26/18 21/27/18
f 22/28/19 13/29/19 23/30/19
f 24/31/20 25/32/20 26/33/20
f 27/34/21 28/35/21 29/36/21
f 30/37/22 31/38/22 16/39/22
f 32/40/15 33/41/14 34/42/14
f 35/43/23 36/44/23 37/45/24
f 32/46/25 38/47/25 27/48/25
f 39/49/26 37/50/26 31/51/26
f 29/52/19 33/53/19 40/54/19
f 22/55/27 18/56/27 41/57/27
f 21/58/28 42/59/28 24/60/28
f 26/61/29 36/62/29 43/63/29
f 1/1/1 8/64/30 2/2/2
f 4/4/4 7/65/31 5/5/5
f 1/7/7 3/66/32 7/8/8
f 6/10/10 5/67/33 2/11/11
f 9/13/13 44/68/13 10/14/13
f 12/16/14 23/69/34 13/17/14
f 15/19/16 30/70/16 16/20/16
f 12/22/25 14/71/25 18/23/25
f 15/25/35 17/72/35 20/26/35
f 22/28/19 41/73/19 13/29/19
f 24/31/36 42/74/36 25/32/36
f 27/34/27 38/75/27 28/35/27
f 30/37/22 39/76/37 31/38/22
f 32/40/15 40/77/15 33/41/14
f 35/43/23 43/78/38 36/44/23
f 32/46/17 34/79/17 38/47/17
f 39/49/26 35/80/26 37/50/26
f 29/52/39 28/81/39 33/53/39
f 22/55/27 19/82/27 18/56/27
f 21/58/28 20/83/28 42/59/28
f 26/61/16 25/84/16 36/62/16
