# Blender v3.0.0 OBJ File: ''
# www.blender.org
mtllib 3.mtl
o buttons.003
v 0.552810 1.035765 0.051120
v 0.533139 0.954396 -0.087957
v 0.545818 1.033254 0.043183
v 0.388852 1.071572 0.013755
v 0.396348 1.065898 0.009120
v 0.379214 1.011630 -0.085927
v 0.387744 1.012379 -0.079880
v 0.446346 1.041991 -0.027066
v 0.484460 1.025809 -0.030727
v 0.453093 1.032706 -0.037802
v 0.538702 0.948026 -0.094787
v 0.471732 1.031213 -0.029504
v 0.501516 1.036832 -0.003668
v 0.508349 1.030248 -0.010111
v 0.511783 1.014209 -0.033350
v 0.508677 1.009107 -0.043140
v 0.446976 1.025548 -0.052542
v 0.436770 1.030440 -0.050682
vt 0.347025 0.836497
vt 0.643493 0.824451
vt 0.362827 0.824450
vt 0.396490 0.526147
vt 0.407921 0.541522
vt 0.609831 0.526147
vt 0.598400 0.541525
vt 0.514695 0.548712
vt 0.505129 0.708863
vt 0.469135 0.583409
vt 0.659295 0.836497
vt 0.508400 0.654108
vt 0.626534 0.757650
vt 0.600605 0.792959
vt 0.497835 0.830991
vt 0.452215 0.826985
vt 0.402807 0.568838
vt 0.410309 0.525959
vn 0.2931 0.8066 -0.5134
vn 0.2932 0.8065 -0.5134
vn 0.2931 0.8066 -0.5133
vn 0.1890 0.6241 -0.7581
usemtl dhd_button_light.010
s 1
f 1/1/1 2/2/2 3/3/1
f 4/4/3 3/3/1 5/5/3
f 5/5/3 6/6/1 4/4/3
f 2/2/2 6/6/1 7/7/1
f 8/8/3 9/9/3 10/10/3
f 1/1/1 11/11/2 2/2/2
f 4/4/3 1/1/1 3/3/1
f 5/5/3 7/7/1 6/6/1
f 2/2/2 11/11/2 6/6/1
f 12/12/4 13/13/1 14/14/1
f 9/9/3 15/15/3 16/16/1
f 12/12/4 14/14/1 9/9/3
f 17/17/1 18/18/1 8/8/3
f 9/9/3 16/16/1 10/10/3
f 10/10/3 17/17/1 8/8/3
f 8/8/3 12/12/4 9/9/3
