# Blender v3.0.0 OBJ File: ''
# www.blender.org
mtllib 30_base.mtl
o buttons.046
v 0.217274 0.929781 -0.266685
v 0.121238 0.908341 -0.317817
v 0.218672 0.935514 -0.272629
v 0.208374 0.938019 -0.272967
v 0.079019 1.024882 -0.217467
v 0.119486 1.036174 -0.198694
v 0.119544 1.038043 -0.185269
v 0.069574 1.029450 -0.215037
v 0.068176 1.023717 -0.209093
v 0.119840 0.902608 -0.311872
v 0.140554 0.949658 -0.275718
v 0.134958 0.963145 -0.283524
v 0.142584 0.959108 -0.285778
v 0.127842 0.976509 -0.253059
v 0.117103 1.005380 -0.247449
v 0.129872 0.985959 -0.263118
v 0.115073 0.995930 -0.237390
v 0.127152 1.008192 -0.242780
v 0.146992 0.964273 -0.280036
v 0.144962 0.954823 -0.269977
v 0.153051 0.974067 -0.269612
v 0.151021 0.964617 -0.259553
v 0.132928 0.953695 -0.273465
v 0.139366 0.968309 -0.277783
v 0.156689 0.971257 -0.252171
v 0.138015 0.991667 -0.256112
v 0.135985 0.982217 -0.246053
v 0.137337 0.958859 -0.267723
v 0.158719 0.980707 -0.262231
v 0.125122 0.998742 -0.232721
v 0.126033 0.915053 -0.311157
v 0.120942 1.043776 -0.191214
vt 0.977815 0.814470
vt 0.976379 0.832063
vt 0.976379 0.814436
vt 0.929730 0.945502
vt 0.917757 0.919787
vt 0.925649 0.919786
vt 0.978943 0.936613
vt 0.980379 0.946417
vt 0.978943 0.946453
vt 0.858030 0.949261
vt 0.859466 0.973764
vt 0.858030 0.973756
vt 0.888555 0.974582
vt 0.889991 0.946331
vt 0.889991 0.974578
vt 0.984194 0.830146
vt 0.982690 0.827754
vt 0.984194 0.827754
vt 0.948183 0.975673
vt 0.950575 0.971218
vt 0.950575 0.975673
vt 0.865328 0.989763
vt 0.863402 0.987371
vt 0.865328 0.987371
vt 0.827887 0.988956
vt 0.829385 0.986563
vt 0.829385 0.988956
vt 0.950575 0.980189
vt 0.948183 0.980189
vt 0.979230 0.832907
vt 0.977815 0.830514
vt 0.979230 0.830515
vt 0.863401 0.982062
vt 0.861016 0.978031
vt 0.863409 0.978032
vt 0.984179 0.967306
vt 0.982695 0.964912
vt 0.984179 0.964914
vt 0.983570 0.832540
vt 0.981644 0.830147
vt 0.983570 0.830147
vt 0.861009 0.974151
vt 0.863401 0.974152
vt 0.977815 0.832097
vt 0.913674 0.945502
vt 0.980379 0.936577
vt 0.859466 0.949268
vt 0.888555 0.946335
vt 0.982690 0.830146
vt 0.948183 0.971218
vt 0.863402 0.989763
vt 0.827887 0.986564
vt 0.977815 0.832907
vt 0.861009 0.982061
vt 0.982695 0.967304
vt 0.981644 0.832540
vn 0.4631 -0.6475 -0.6053
vn 0.4437 -0.7291 -0.5210
vn 0.4439 -0.7278 -0.5228
vn 0.1455 0.6774 -0.7211
vn -0.5121 0.6749 0.5313
vn -0.3838 0.7086 0.5922
vn -0.3947 0.7049 0.5893
vn -0.9237 -0.0689 -0.3769
vn -0.9515 -0.0768 -0.2980
vn -0.9532 -0.0716 -0.2938
vn 0.7614 0.3678 0.5338
vn 0.8038 0.3791 0.4585
vn 0.7547 0.3745 0.5386
vn -0.4976 -0.5798 -0.6451
vn -0.8782 -0.2471 -0.4094
vn -0.4539 0.6930 0.5601
vn -0.4540 0.6933 0.5597
vn -0.4546 0.6929 0.5596
vn 0.8562 -0.4514 -0.2513
vn -0.4832 -0.5873 -0.6493
vn -0.8562 0.4514 0.2514
vn -0.8562 0.4514 0.2513
vn 0.4976 0.5798 0.6451
vn 0.4976 0.5799 0.6451
vn 0.4975 0.5799 0.6451
vn 0.8562 -0.4515 -0.2513
vn 0.8783 0.2471 0.4094
vn 0.4629 -0.6486 -0.6042
vn -0.5176 0.6746 0.5263
vn -0.9455 -0.1706 -0.2773
vn 0.7766 0.2839 0.5623
vn -0.4976 -0.5798 -0.6452
vn 0.8562 -0.4514 -0.2512
vn 0.8783 0.2468 0.4095
usemtl dhd_low.032
s 1
f 1/1/1 2/2/2 3/3/3
f 4/4/4 5/5/4 6/6/4
f 7/7/5 8/8/6 9/9/7
f 9/10/8 2/11/9 10/12/10
f 3/13/11 7/14/12 1/15/13
f 11/16/14 12/17/14 13/18/14
f 14/19/15 15/20/15 16/21/15
f 17/22/16 18/23/17 15/24/18
f 11/25/19 19/26/19 20/27/19
f 14/19/20 21/28/20 22/29/20
f 23/30/21 24/31/22 12/32/22
f 25/33/23 26/34/23 27/35/23
f 28/36/24 19/37/25 24/38/25
f 25/39/19 21/40/26 29/41/26
f 27/35/27 18/42/27 30/43/27
f 1/1/1 10/44/28 2/2/2
f 4/4/4 31/45/4 5/5/4
f 7/7/5 32/46/29 8/8/6
f 9/10/8 8/47/30 2/11/9
f 3/13/11 32/48/31 7/14/12
f 11/16/14 23/49/32 12/17/14
f 14/19/15 17/50/15 15/20/15
f 17/22/16 30/51/17 18/23/17
f 11/25/33 13/52/33 19/26/33
f 14/19/20 16/21/20 21/28/20
f 23/30/21 28/53/21 24/31/22
f 25/33/23 29/54/23 26/34/23
f 28/36/24 20/55/23 19/37/25
f 25/39/19 22/56/19 21/40/26
f 27/35/27 26/34/27 18/42/34
