# Blender v3.0.0 OBJ File: ''
# www.blender.org
mtllib 31_base.mtl
o buttons.232
v 0.125855 1.040574 -0.181059
v 0.225602 0.938339 -0.267931
v 0.223585 0.932312 -0.262475
v 0.300636 0.980343 -0.198079
v 0.165414 1.062719 -0.144233
v 0.298618 0.974316 -0.192623
v 0.290570 0.981097 -0.201330
v 0.138247 1.043737 -0.186111
v 0.169407 1.061188 -0.157095
v 0.127872 1.046601 -0.186515
v 0.172829 1.035360 -0.183363
v 0.179544 1.027360 -0.210474
v 0.176407 1.017466 -0.201154
v 0.238668 0.987719 -0.211773
v 0.217229 0.999226 -0.227655
v 0.214092 0.989331 -0.218335
v 0.245383 0.979720 -0.238884
v 0.241806 0.997614 -0.221093
v 0.200543 1.043642 -0.186121
v 0.175966 1.045254 -0.192683
v 0.197405 1.033747 -0.176801
v 0.204120 1.025748 -0.203912
v 0.242246 0.969826 -0.229564
v 0.220807 0.981332 -0.245446
v 0.217670 0.971438 -0.236126
v 0.200983 1.015854 -0.194592
v 0.167431 1.068746 -0.149689
v 0.227161 0.945598 -0.260362
vt 0.902998 0.946350
vt 0.904435 0.973383
vt 0.902998 0.973402
vt 0.858030 0.949261
vt 0.859467 0.920615
vt 0.859467 0.949261
vt 0.909178 0.946331
vt 0.897205 0.920616
vt 0.905096 0.920615
vt 0.937869 0.981234
vt 0.939304 0.985929
vt 0.937869 0.985971
vt 0.973777 0.894107
vt 0.972341 0.913070
vt 0.972341 0.894071
vt 0.894300 0.982033
vt 0.896692 0.986340
vt 0.894300 0.986344
vt 0.979041 0.913427
vt 0.976727 0.910243
vt 0.979118 0.910245
vt 0.976727 0.916422
vt 0.976649 0.913425
vt 0.979993 0.922947
vt 0.977524 0.926126
vt 0.977602 0.922945
vt 0.979915 0.926128
vt 0.977602 0.929123
vt 0.982771 0.942991
vt 0.980379 0.946453
vt 0.980379 0.942994
vt 0.882810 0.982032
vt 0.885202 0.986340
vt 0.882810 0.986344
vt 0.976169 0.913064
vt 0.973777 0.916526
vt 0.973777 0.913067
vt 0.904435 0.946331
vt 0.858030 0.920615
vt 0.893121 0.946331
vt 0.939304 0.981192
vt 0.973777 0.913106
vt 0.896692 0.982029
vt 0.979118 0.916424
vt 0.979993 0.929125
vt 0.982771 0.946450
vt 0.885202 0.982029
vt 0.976169 0.916523
vn -0.7572 -0.2135 -0.6173
vn -0.8041 -0.2278 -0.5491
vn -0.8078 -0.2230 -0.5457
vn 0.5101 0.4771 0.7157
vn 0.5692 0.4971 0.6549
vn 0.5013 0.4825 0.7183
vn 0.2249 0.7093 -0.6681
vn -0.7451 0.5668 0.3515
vn -0.6463 0.6200 0.4449
vn -0.6553 0.6146 0.4392
vn 0.7147 -0.5462 -0.4368
vn 0.6867 -0.6319 -0.3593
vn 0.6871 -0.6305 -0.3610
vn -0.9642 0.0632 -0.2575
vn -0.1404 0.7021 0.6981
vn 0.9642 -0.0632 0.2575
vn 0.9642 -0.0633 0.2575
vn -0.1403 0.7021 0.6981
vn 0.1403 -0.7021 -0.6981
vn -0.7886 -0.3197 -0.5253
vn 0.5306 0.3963 0.7493
vn -0.7489 0.5657 0.3452
vn 0.7145 -0.5473 -0.4359
usemtl dhd_low.033
s 1
f 1/1/1 2/2/2 3/3/3
f 4/4/4 5/5/5 6/6/6
f 7/7/7 8/8/7 9/9/7
f 5/10/8 10/11/9 1/12/10
f 6/13/11 2/14/12 4/15/13
f 11/16/14 12/17/14 13/18/14
f 14/19/15 15/20/15 16/21/15
f 14/19/16 17/22/16 18/23/17
f 11/24/18 19/25/18 20/26/18
f 21/27/16 22/28/16 19/25/17
f 23/29/19 24/30/19 17/31/19
f 16/32/14 24/33/14 25/34/14
f 26/35/19 12/36/19 22/37/19
f 1/1/1 10/38/20 2/2/2
f 4/4/4 27/39/21 5/5/5
f 7/7/7 28/40/7 8/8/7
f 5/10/8 27/41/22 10/11/9
f 6/13/11 3/42/23 2/14/12
f 11/16/14 20/43/14 12/17/14
f 14/19/15 18/23/15 15/20/15
f 14/19/16 23/44/16 17/22/16
f 11/24/18 21/27/18 19/25/18
f 21/27/16 26/45/16 22/28/16
f 23/29/19 25/46/19 24/30/19
f 16/32/14 15/47/14 24/33/14
f 26/35/19 13/48/19 12/36/19
