# Blender v3.0.0 OBJ File: ''
# www.blender.org
mtllib 33_base.mtl
o buttons.234
v 0.354693 1.095606 -0.010903
v 0.206650 1.105108 -0.084054
v 0.210443 1.128742 -0.044754
v 0.352015 1.040881 -0.097406
v 0.358607 1.090942 0.001323
v 0.349458 1.034045 -0.093296
v 0.200037 1.127726 -0.036128
v 0.197770 1.104565 -0.090123
v 0.195214 1.097729 -0.086012
v 0.361163 1.097778 -0.002788
v 0.277520 1.084970 -0.073468
v 0.291773 1.103762 -0.062770
v 0.287523 1.092561 -0.055623
v 0.286347 1.095492 -0.051728
v 0.300600 1.114283 -0.041030
v 0.290598 1.106693 -0.058875
v 0.296350 1.103082 -0.033883
v 0.321879 1.101950 -0.047706
v 0.305946 1.081882 -0.061403
v 0.310196 1.093084 -0.068550
v 0.272175 1.117371 -0.053095
v 0.267924 1.106170 -0.045948
v 0.260491 1.108505 -0.073939
v 0.281771 1.096172 -0.080615
v 0.317629 1.090748 -0.040559
v 0.256241 1.097304 -0.066792
v 0.346964 1.047522 -0.090865
v 0.202593 1.134561 -0.040239
vt 0.824400 0.946331
vt 0.812427 0.920616
vt 0.820318 0.920615
vt 0.976088 0.934806
vt 0.977524 0.916570
vt 0.977524 0.934840
vt 0.979251 0.820515
vt 0.980687 0.830113
vt 0.979251 0.830147
vt 0.907388 0.972889
vt 0.908825 0.946340
vt 0.908825 0.972898
vt 0.891427 0.946346
vt 0.892863 0.974554
vt 0.891427 0.974569
vt 0.982600 0.820480
vt 0.980208 0.816774
vt 0.982600 0.816773
vt 0.979998 0.881518
vt 0.982390 0.877811
vt 0.982390 0.881518
vt 0.840456 0.982091
vt 0.838064 0.986380
vt 0.838064 0.982087
vt 0.979998 0.890208
vt 0.982390 0.886436
vt 0.982390 0.890206
vt 0.982390 0.886436
vt 0.979998 0.882715
vt 0.982390 0.882719
vt 0.843492 0.986363
vt 0.845884 0.982007
vt 0.845884 0.986361
vt 0.967914 0.982026
vt 0.965522 0.986356
vt 0.965522 0.982026
vt 0.874673 0.982026
vt 0.877065 0.986355
vt 0.874673 0.986355
vt 0.808344 0.946331
vt 0.976088 0.916535
vt 0.980687 0.820480
vt 0.907388 0.946331
vt 0.892863 0.946331
vt 0.980208 0.820480
vt 0.979998 0.877811
vt 0.840456 0.986384
vt 0.979998 0.886437
vt 0.979998 0.886432
vt 0.843492 0.982008
vt 0.967914 0.986356
vt 0.877065 0.982026
vn 0.3047 0.8030 -0.5123
vn 0.9311 -0.3457 0.1166
vn 0.9669 -0.2487 0.0579
vn 0.9665 -0.2500 0.0587
vn -0.9524 0.2664 -0.1480
vn -0.9404 0.3393 -0.0220
vn -0.9428 0.3319 -0.0310
vn -0.1252 0.5453 0.8289
vn -0.0529 0.5885 0.8068
vn -0.1352 0.5473 0.8260
vn -0.2051 -0.3837 -0.9004
vn -0.2734 -0.4184 -0.8661
vn -0.2796 -0.4153 -0.8657
vn 0.8349 -0.4840 -0.2621
vn -0.8349 0.4840 0.2621
vn -0.8349 0.4841 0.2621
vn 0.4583 0.3480 0.8179
vn -0.4583 -0.3480 -0.8179
vn -0.4583 -0.3479 -0.8179
vn 0.4583 0.3479 0.8179
vn -0.4582 -0.3479 -0.8179
vn 0.9318 -0.3441 0.1153
vn -0.9517 0.2648 -0.1552
vn -0.1011 0.4723 0.8756
vn -0.2446 -0.5025 -0.8292
usemtl dhd_low.035
s 1
f 1/1/1 2/2/1 3/3/1
f 4/4/2 5/5/3 6/6/4
f 7/7/5 8/8/6 9/9/7
f 10/10/8 7/11/9 5/12/10
f 9/13/11 4/14/12 6/15/13
f 11/16/14 12/17/14 13/18/14
f 14/19/15 15/20/15 16/21/16
f 17/22/17 18/23/17 15/24/17
f 19/25/18 12/26/18 20/27/19
f 14/28/20 21/29/20 22/30/20
f 11/31/21 23/32/18 24/33/21
f 25/34/14 20/35/14 18/36/14
f 22/37/15 23/38/15 26/39/15
f 1/1/1 27/40/1 2/2/1
f 4/4/2 10/41/22 5/5/3
f 7/7/5 28/42/23 8/8/6
f 10/10/8 28/43/24 7/11/9
f 9/13/11 8/44/25 4/14/12
f 11/16/14 24/45/14 12/17/14
f 14/19/15 17/46/15 15/20/15
f 17/22/17 25/47/20 18/23/17
f 19/25/18 13/48/18 12/26/18
f 14/28/20 16/49/20 21/29/20
f 11/31/21 26/50/18 23/32/18
f 25/34/14 19/51/14 20/35/14
f 22/37/16 21/52/16 23/38/16
