# Blender v3.0.0 OBJ File: ''
# www.blender.org
mtllib 35.mtl
o buttons.095
v 0.162310 1.195041 0.065499
v 0.268961 1.209609 0.183185
v 0.268814 1.206267 0.173123
v 0.183843 1.172431 0.022737
v 0.187484 1.175189 0.032490
v 0.320024 1.165875 0.105953
v 0.329555 1.161813 0.103702
v 0.228453 1.197216 0.079721
v 0.259955 1.202829 0.117509
v 0.235744 1.191716 0.070809
v 0.210965 1.196175 0.064133
v 0.151897 1.197629 0.064641
v 0.250145 1.207173 0.121562
v 0.208995 1.200718 0.074479
vt 0.548679 0.544276
vt 0.609230 0.836159
vt 0.593170 0.824542
vt 0.451086 0.527825
vt 0.462665 0.544290
vt 0.418175 0.824547
vt 0.402115 0.836159
vt 0.493463 0.626327
vt 0.498655 0.829582
vt 0.442053 0.616197
vt 0.506634 0.530942
vt 0.560261 0.527825
vt 0.544175 0.817510
vt 0.544175 0.559382
vn 0.2658 0.9013 -0.3421
vn 0.2356 0.9238 -0.3018
vn 0.2338 0.9232 -0.3049
vn 0.2642 0.9009 -0.3445
vn 0.2637 0.9030 -0.3392
vn 0.2903 0.8786 -0.3792
vn 0.2938 0.8779 -0.3781
vn 0.2559 0.9021 -0.3474
vn 0.2560 0.9021 -0.3474
vn 0.2609 0.9034 -0.3402
usemtl dhd_button_light.081
s 1
f 1/1/1 2/2/2 3/3/3
f 4/4/4 1/1/1 5/5/5
f 2/2/2 6/6/6 3/3/3
f 7/7/7 5/5/5 6/6/6
f 8/8/8 9/9/9 10/10/8
f 11/11/8 8/8/8 10/10/8
f 1/1/1 12/12/10 2/2/2
f 4/4/4 12/12/10 1/1/1
f 2/2/2 7/7/7 6/6/6
f 7/7/7 4/4/4 5/5/5
f 8/8/8 13/13/9 9/9/9
f 11/11/8 14/14/8 8/8/8
