# Blender v3.0.0 OBJ File: ''
# www.blender.org
mtllib 35_base.mtl
o buttons.236
v 0.149880 1.189984 0.067406
v 0.183843 1.172431 0.022737
v 0.181826 1.164786 0.025502
v 0.268961 1.209609 0.183185
v 0.266944 1.201964 0.185950
v 0.329555 1.161813 0.103702
v 0.327520 1.154191 0.106508
v 0.268814 1.206267 0.173123
v 0.187484 1.175189 0.032490
v 0.162310 1.195041 0.065499
v 0.232173 1.179131 0.075655
v 0.259955 1.202829 0.117509
v 0.256385 1.190244 0.122355
v 0.205425 1.188133 0.079325
v 0.210965 1.196175 0.064133
v 0.207395 1.183590 0.068979
v 0.235744 1.191716 0.070809
v 0.250145 1.207173 0.121562
v 0.246575 1.194588 0.126408
v 0.228453 1.197216 0.079721
v 0.224882 1.184631 0.084567
v 0.208995 1.200718 0.074479
v 0.151897 1.197629 0.064641
v 0.320024 1.165875 0.105953
vt 0.978960 0.855033
vt 0.980396 0.864792
vt 0.978960 0.864827
vt 0.887119 0.946331
vt 0.885683 0.974596
vt 0.885682 0.946334
vt 0.976088 0.873442
vt 0.977524 0.855033
vt 0.977524 0.873469
vt 0.929730 0.919786
vt 0.941704 0.945501
vt 0.933812 0.945502
vt 0.881374 0.946345
vt 0.882810 0.974725
vt 0.881374 0.974738
vt 0.970887 0.973892
vt 0.973311 0.980494
vt 0.970919 0.980480
vt 0.978592 0.989860
vt 0.980515 0.987467
vt 0.980515 0.989859
vt 0.973311 0.969478
vt 0.973279 0.973906
vt 0.981932 0.906063
vt 0.983841 0.903670
vt 0.983841 0.906063
vt 0.913701 0.971218
vt 0.916066 0.979371
vt 0.913674 0.979368
vt 0.916093 0.981952
vt 0.913701 0.981949
vt 0.980396 0.854998
vt 0.887119 0.974593
vt 0.976088 0.854998
vt 0.945787 0.919786
vt 0.882810 0.946331
vt 0.978592 0.987467
vt 0.970919 0.969464
vt 0.981932 0.903671
vt 0.916093 0.971221
vn -0.7580 -0.0362 -0.6512
vn -0.8380 0.0246 -0.5451
vn -0.8327 0.0177 -0.5534
vn -0.7076 0.3979 0.5839
vn -0.6527 0.4637 0.5992
vn -0.7148 0.3964 0.5761
vn 0.7830 -0.0410 0.6207
vn 0.8109 0.0662 0.5815
vn 0.8114 0.0657 0.5808
vn 0.2559 0.9021 -0.3474
vn 0.4335 -0.3435 -0.8331
vn 0.3716 -0.4062 -0.8348
vn 0.3650 -0.4054 -0.8381
vn 0.8554 -0.3787 -0.3534
vn -0.9513 0.1712 -0.2563
vn 0.1718 -0.3961 -0.9020
vn 0.4504 0.2067 0.8686
vn -0.8554 0.3788 0.3533
vn -0.1717 0.3961 0.9020
vn -0.7532 -0.0368 -0.6568
vn -0.6902 0.3323 0.6428
vn 0.7836 -0.0406 0.6199
vn 0.4025 -0.4746 -0.7828
vn 0.8554 -0.3788 -0.3533
vn -0.8554 0.3787 0.3533
usemtl dhd_low.037
s 1
f 1/1/1 2/2/2 3/3/3
f 4/4/4 1/5/5 5/6/6
f 6/7/7 5/8/8 7/9/9
f 8/10/10 9/11/10 10/12/10
f 3/13/11 6/14/12 7/15/13
f 11/16/14 12/17/14 13/18/14
f 14/19/15 15/20/15 16/21/15
f 11/16/16 15/22/16 17/23/16
f 13/24/17 18/25/17 19/26/17
f 19/27/18 20/28/18 21/29/18
f 21/29/19 22/30/19 14/31/19
f 1/1/1 23/32/20 2/2/2
f 4/4/4 23/33/21 1/5/5
f 6/7/7 4/34/22 5/8/8
f 8/10/10 24/35/10 9/11/10
f 3/13/11 2/36/23 6/14/12
f 11/16/24 17/23/24 12/17/24
f 14/19/15 22/37/15 15/20/15
f 11/16/16 16/38/16 15/22/16
f 13/24/17 12/39/17 18/25/17
f 19/27/25 18/40/25 20/28/25
f 21/29/19 20/28/19 22/30/19
