# Blender v3.0.0 OBJ File: ''
# www.blender.org
mtllib 36.mtl
o buttons.097
v 0.175499 1.248001 0.247031
v 0.252604 1.215289 0.188128
v 0.178719 1.244923 0.237408
v 0.109813 1.218613 0.104700
v 0.262925 1.212935 0.188716
v 0.146130 1.204049 0.080484
v 0.145861 1.200955 0.070172
v 0.099769 1.219442 0.100916
v 0.187540 1.233990 0.157897
v 0.195569 1.235463 0.168085
v 0.201281 1.233570 0.165592
v 0.151794 1.237100 0.144554
v 0.170566 1.230876 0.136358
v 0.140655 1.237079 0.137118
v 0.176277 1.228983 0.133865
v 0.180329 1.232667 0.148746
v 0.167267 1.236997 0.154449
v 0.174479 1.238320 0.163599
v 0.209403 1.234590 0.174344
v 0.204329 1.232559 0.164260
v 0.169695 1.244041 0.179382
v 0.174769 1.246073 0.189465
v 0.182508 1.239793 0.173787
v 0.176797 1.241686 0.176281
v 0.157505 1.235207 0.142061
v 0.145729 1.239110 0.147202
v 0.180364 1.227628 0.132080
v 0.175290 1.225597 0.121997
vt 0.609231 0.836159
vt 0.418175 0.824547
vt 0.593170 0.824542
vt 0.548679 0.544276
vt 0.402115 0.836159
vt 0.462666 0.544290
vt 0.451086 0.527825
vt 0.560261 0.527825
vt 0.451137 0.710408
vt 0.435885 0.771924
vt 0.404285 0.770857
vt 0.587249 0.583874
vt 0.483382 0.580363
vt 0.622675 0.529360
vt 0.451782 0.579296
vt 0.464836 0.655159
vt 0.537104 0.657602
vt 0.523405 0.712850
vt 0.385542 0.825935
vt 0.387415 0.770287
vt 0.579051 0.776764
vt 0.577178 0.832412
vt 0.508152 0.774367
vt 0.539751 0.775434
vt 0.555649 0.582807
vt 0.620802 0.585009
vt 0.429166 0.578532
vt 0.431039 0.522884
vn 0.1522 0.9571 -0.2464
vn 0.2330 0.9236 -0.3043
vn 0.1514 0.9564 -0.2498
vn 0.1958 0.9410 -0.2761
vn 0.2361 0.9235 -0.3023
vn 0.1927 0.9422 -0.2740
vn 0.1950 0.9403 -0.2789
vn 0.1903 0.9422 -0.2757
vn 0.1877 0.9403 -0.2839
vn 0.0856 0.7792 -0.6209
vn 0.1878 0.9403 -0.2839
vn 0.0670 0.7636 -0.6422
vn 0.0609 0.9862 0.1536
vn 0.1878 0.9403 -0.2840
vn 0.1854 0.9693 -0.1613
vn 0.2016 0.8146 -0.5439
vn 0.5076 0.8318 -0.2247
usemtl dhd_button_light.083
s 1
f 1/1/1 2/2/2 3/3/3
f 4/4/4 1/1/1 3/3/3
f 5/5/5 6/6/6 2/2/2
f 4/4/4 7/7/7 8/8/8
f 9/9/9 10/10/10 11/11/11
f 12/12/9 13/13/11 14/14/11
f 1/1/1 5/5/5 2/2/2
f 4/4/4 8/8/8 1/1/1
f 5/5/5 7/7/7 6/6/6
f 4/4/4 6/6/6 7/7/7
f 15/15/12 13/13/11 16/16/9
f 16/16/9 17/17/13 18/18/11
f 16/16/9 18/18/11 9/9/9
f 11/11/11 15/15/12 16/16/9
f 19/19/11 20/20/11 11/11/11
f 21/21/11 22/22/14 19/19/11
f 23/23/15 24/24/16 21/21/11
f 10/10/10 23/23/15 21/21/11
f 21/21/11 19/19/11 11/11/11
f 11/11/11 16/16/9 9/9/9
f 10/10/10 21/21/11 11/11/11
f 12/12/9 24/24/16 23/23/15
f 18/18/11 17/17/13 25/25/17
f 12/12/9 23/23/15 18/18/11
f 14/14/11 26/26/9 12/12/9
f 27/27/11 28/28/11 14/14/11
f 13/13/11 15/15/12 27/27/11
f 12/12/9 18/18/11 25/25/17
f 13/13/11 27/27/11 14/14/11
f 12/12/9 25/25/17 13/13/11
