# Blender v3.0.0 OBJ File: ''
# www.blender.org
mtllib 37_base.mtl
o buttons.238
v 0.062911 1.268675 0.281411
v 0.036095 1.223239 0.122708
v 0.062284 1.260562 0.283397
v 0.069150 1.266410 0.273140
v 0.088832 1.224426 0.114370
v 0.045307 1.232124 0.127168
v 0.091338 1.213465 0.106455
v 0.167695 1.250137 0.250583
v 0.167025 1.242036 0.252593
v 0.091965 1.221578 0.104468
v 0.119680 1.248041 0.220808
v 0.086639 1.247992 0.149669
v 0.121064 1.261503 0.217420
v 0.090516 1.249645 0.215259
v 0.084749 1.253343 0.170157
v 0.091901 1.263106 0.211871
v 0.103955 1.247581 0.212555
v 0.083365 1.239882 0.173545
v 0.081383 1.253920 0.228513
v 0.070487 1.250789 0.154180
v 0.069102 1.237328 0.157568
v 0.082768 1.267381 0.225125
v 0.105340 1.261043 0.209167
v 0.085254 1.234531 0.153057
v 0.036722 1.231351 0.120721
v 0.157703 1.250744 0.247090
vt 0.881374 0.946334
vt 0.879938 0.974803
vt 0.879938 0.946331
vt 0.824400 0.920615
vt 0.836373 0.946330
vt 0.828482 0.946331
vt 0.879938 0.974820
vt 0.878502 0.946341
vt 0.879938 0.946331
vt 0.864044 0.974967
vt 0.865480 0.984941
vt 0.864044 0.984977
vt 0.974943 0.814472
vt 0.973507 0.833417
vt 0.973507 0.814436
vt 0.970306 0.923400
vt 0.967914 0.936577
vt 0.967914 0.923402
vt 0.885202 0.974732
vt 0.882810 0.982025
vt 0.882810 0.974729
vt 0.967914 0.873365
vt 0.970306 0.880876
vt 0.967914 0.880872
vt 0.968205 0.814438
vt 0.970598 0.827043
vt 0.968205 0.827045
vt 0.967914 0.982026
vt 0.965522 0.975258
vt 0.967914 0.975258
vt 0.936931 0.988363
vt 0.939304 0.985971
vt 0.939304 0.988363
vt 0.978123 0.964912
vt 0.980515 0.967827
vt 0.978123 0.967827
vt 0.881374 0.974806
vt 0.840456 0.920615
vt 0.878501 0.974829
vt 0.865480 0.974930
vt 0.974943 0.833444
vt 0.970306 0.936576
vt 0.885202 0.982029
vt 0.970306 0.873369
vt 0.970598 0.814436
vt 0.965522 0.982026
vt 0.936931 0.985971
vt 0.980515 0.964912
vn -0.9917 0.0972 0.0839
vn -0.9772 0.1753 0.1197
vn -0.9928 0.0942 0.0737
vn 0.0993 0.9650 -0.2429
vn 0.8893 -0.1095 -0.4440
vn 0.8612 -0.1881 -0.4721
vn 0.8575 -0.1891 -0.4784
vn -0.2440 -0.2135 -0.9460
vn -0.3821 -0.1912 -0.9041
vn -0.3714 -0.1954 -0.9077
vn 0.3129 0.2650 0.9121
vn 0.3042 0.1514 0.9405
vn 0.3049 0.1519 0.9402
vn 0.8895 -0.1954 -0.4130
vn 0.8895 -0.1955 -0.4130
vn 0.9813 -0.1353 -0.1366
vn -0.8824 0.1981 0.4267
vn -0.9811 0.1357 0.1381
vn 0.2244 0.2161 0.9502
vn -0.2244 -0.2161 -0.9502
vn -0.2960 -0.2044 -0.9331
vn -0.9882 0.0354 0.1490
vn 0.8799 -0.2477 -0.4055
vn -0.2370 -0.2120 -0.9481
vn 0.3137 0.2648 0.9119
vn 0.9814 -0.1353 -0.1366
vn -0.8824 0.1982 0.4267
usemtl dhd_low.039
s 1
f 1/1/1 2/2/2 3/3/3
f 4/4/4 5/5/4 6/6/4
f 7/7/5 8/8/6 9/9/7
f 2/10/8 10/11/9 7/12/10
f 3/13/11 8/14/12 1/15/13
f 11/16/14 12/17/15 13/18/14
f 14/19/16 15/20/16 16/21/16
f 17/22/17 15/23/17 18/24/17
f 19/25/18 20/26/18 21/27/18
f 11/28/19 22/29/19 19/30/19
f 14/31/20 23/32/20 17/33/20
f 21/34/21 12/35/21 24/36/21
f 1/1/1 25/37/22 2/2/2
f 4/4/4 26/38/4 5/5/4
f 7/7/5 10/39/23 8/8/6
f 2/10/8 25/40/24 10/11/9
f 3/13/11 9/41/25 8/14/12
f 11/16/14 24/42/15 12/17/15
f 14/19/16 18/43/26 15/20/16
f 17/22/27 23/44/27 15/23/27
f 19/25/18 22/45/18 20/26/18
f 11/28/19 13/46/19 22/29/19
f 14/31/20 16/47/20 23/32/20
f 21/34/21 20/48/21 12/35/21
