# Blender v3.0.0 OBJ File: ''
# www.blender.org
mtllib 4.mtl
o buttons.130
v 0.359138 1.136066 0.121008
v 0.505822 1.123861 0.193859
v 0.368467 1.131839 0.118779
v 0.509807 1.127315 0.203366
v 0.543517 1.047153 0.066297
v 0.387790 1.077759 0.024044
v 0.394050 1.079780 0.032207
v 0.551745 1.041970 0.061439
vt 0.396490 0.526147
vt 0.362827 0.824450
vt 0.407921 0.541523
vt 0.347025 0.836497
vt 0.643493 0.824451
vt 0.609830 0.526147
vt 0.598399 0.541525
vt 0.659295 0.836497
vn 0.2851 0.8563 -0.4306
vn 0.2852 0.8563 -0.4306
vn 0.2851 0.8563 -0.4307
usemtl dhd_button_light.013
s 1
f 1/1/1 2/2/2 3/3/1
f 4/4/1 5/5/3 2/2/2
f 3/3/1 6/6/3 1/1/1
f 5/5/3 6/6/3 7/7/3
f 1/1/1 4/4/1 2/2/2
f 4/4/1 8/8/3 5/5/3
f 3/3/1 7/7/3 6/6/3
f 5/5/3 8/8/3 6/6/3
