# Blender v3.0.0 OBJ File: ''
# www.blender.org
mtllib 4_base.mtl
o buttons.254
v 0.551745 1.041970 0.061439
v 0.507347 1.119634 0.207013
v 0.549286 1.034289 0.065087
v 0.359138 1.136066 0.121008
v 0.356783 1.128699 0.124498
v 0.387790 1.077759 0.024044
v 0.385435 1.070392 0.027534
v 0.394050 1.079780 0.032207
v 0.505822 1.123861 0.193859
v 0.543517 1.047153 0.066297
v 0.509807 1.127315 0.203366
v 0.368467 1.131839 0.118779
vt 0.960617 0.843734
vt 0.962134 0.814471
vt 0.962134 0.843769
vt 0.913674 0.950101
vt 0.912216 0.920615
vt 0.913671 0.920615
vt 0.969432 0.894105
vt 0.970886 0.914087
vt 0.969432 0.914121
vt 0.856575 0.920623
vt 0.858030 0.950101
vt 0.856512 0.950109
vt 0.891572 0.840981
vt 0.913674 0.867526
vt 0.887342 0.867526
vt 0.960617 0.814436
vt 0.912156 0.950100
vt 0.970886 0.894071
vt 0.858030 0.920615
vt 0.909444 0.840981
vn 0.9148 -0.1650 0.3686
vn 0.9386 -0.0904 0.3330
vn 0.9384 -0.0913 0.3334
vn -0.4338 0.4961 0.7521
vn -0.4107 0.4489 0.7936
vn -0.3805 0.5346 0.7546
vn -0.9139 0.1061 -0.3918
vn -0.9388 0.1549 -0.3075
vn -0.9381 0.1508 -0.3119
vn 0.1138 -0.4113 -0.9044
vn 0.0639 -0.4446 -0.8934
vn 0.0608 -0.4437 -0.8941
vn 0.2851 0.8563 -0.4307
vn 0.9152 -0.1640 0.3680
vn -0.4291 0.4958 0.7550
vn -0.9127 0.1062 -0.3946
vn 0.0893 -0.4976 -0.8628
usemtl dhd_low.006
s 1
f 1/1/1 2/2/2 3/3/3
f 2/4/4 4/5/5 5/6/6
f 5/7/7 6/8/8 7/9/9
f 7/10/10 1/11/11 3/12/12
f 8/13/13 9/14/13 10/15/13
f 1/1/1 11/16/14 2/2/2
f 2/4/4 11/17/15 4/5/5
f 5/7/7 4/18/16 6/8/8
f 7/10/10 6/19/17 1/11/11
f 8/13/13 12/20/13 9/14/13
