# Blender v3.0.0 OBJ File: ''
# www.blender.org
mtllib 5_base.mtl
o buttons.255
v 0.409394 1.198640 0.338399
v 0.290398 1.192094 0.214181
v 0.288432 1.184356 0.217053
v 0.504890 1.133006 0.212830
v 0.411450 1.206709 0.335397
v 0.352270 1.134002 0.133316
v 0.502834 1.124936 0.215832
v 0.354235 1.141740 0.130444
v 0.357547 1.144584 0.139975
v 0.410905 1.202865 0.325243
v 0.494889 1.136621 0.215081
v 0.408940 1.165633 0.229189
v 0.435627 1.180397 0.245932
v 0.432192 1.167814 0.250880
v 0.383878 1.156812 0.189354
v 0.397834 1.165554 0.181942
v 0.394399 1.152971 0.186890
v 0.413805 1.179181 0.267023
v 0.406252 1.193729 0.259442
v 0.417241 1.191764 0.262075
v 0.398874 1.169872 0.232980
v 0.394928 1.187386 0.235448
v 0.402309 1.182455 0.228032
v 0.424874 1.172703 0.258232
v 0.428309 1.185286 0.253284
v 0.401140 1.185691 0.274785
v 0.415565 1.196309 0.272470
v 0.404576 1.198274 0.269837
v 0.374101 1.158095 0.185830
v 0.391492 1.174803 0.240396
v 0.402817 1.181146 0.264390
v 0.391296 1.181309 0.256806
v 0.410161 1.183584 0.236356
v 0.394731 1.193892 0.251858
v 0.412129 1.183726 0.277417
v 0.382928 1.180524 0.249000
v 0.386363 1.193107 0.244053
v 0.367015 1.174520 0.183347
v 0.377536 1.170678 0.180882
v 0.363580 1.161937 0.188294
v 0.387313 1.169395 0.184407
v 0.406726 1.171001 0.241303
v 0.412375 1.178216 0.224241
v 0.300549 1.189542 0.214738
vt 0.966687 0.843773
vt 0.968142 0.872769
vt 0.966687 0.872773
vt 0.977605 0.875219
vt 0.976088 0.892663
vt 0.976088 0.875201
vt 0.966459 0.873113
vt 0.967914 0.894041
vt 0.966396 0.894071
vt 0.976649 0.894100
vt 0.978104 0.910214
vt 0.976649 0.910243
vt 0.883111 0.920615
vt 0.861009 0.894071
vt 0.887342 0.894071
vt 0.964235 0.958445
vt 0.961843 0.953700
vt 0.964235 0.953700
vt 0.914100 0.988851
vt 0.916067 0.986458
vt 0.916067 0.988851
vt 0.984417 0.854967
vt 0.982682 0.852575
vt 0.984417 0.852575
vt 0.984410 0.850132
vt 0.982682 0.847739
vt 0.984410 0.847739
vt 0.964235 0.952724
vt 0.961843 0.952724
vt 0.955390 0.987566
vt 0.957776 0.986179
vt 0.957783 0.987566
vt 0.934520 0.981445
vt 0.932127 0.971218
vt 0.934520 0.971218
vt 0.955383 0.988960
vt 0.957776 0.988960
vt 0.982746 0.825269
vt 0.980687 0.822877
vt 0.982746 0.822877
vt 0.984341 0.820480
vt 0.982600 0.818088
vt 0.984341 0.818088
vt 0.968209 0.858584
vt 0.970597 0.856661
vt 0.970602 0.858581
vt 0.982736 0.841350
vt 0.980769 0.838957
vt 0.982736 0.838957
vt 0.968205 0.869367
vt 0.970597 0.869364
vt 0.967914 0.923261
vt 0.970306 0.915410
vt 0.970306 0.923258
vt 0.975730 0.987613
vt 0.978123 0.983453
vt 0.978123 0.987615
vt 0.961843 0.966417
vt 0.961843 0.958445
vt 0.968205 0.843769
vt 0.977605 0.892682
vt 0.967914 0.873083
vt 0.978104 0.894071
vt 0.865240 0.920615
vt 0.914100 0.986458
vt 0.982682 0.854967
vt 0.982682 0.850132
vt 0.955383 0.986179
vt 0.932127 0.981445
vt 0.980687 0.825269
vt 0.982600 0.820480
vt 0.968205 0.856664
vt 0.980769 0.841350
vt 0.967914 0.915413
vt 0.975730 0.983450
vt 0.964235 0.966417
vn -0.7026 0.3983 0.5896
vn -0.6844 0.3547 0.6370
vn -0.6593 0.4451 0.6059
vn 0.8102 0.0600 0.5831
vn 0.7903 -0.0183 0.6124
vn 0.7907 -0.0173 0.6119
vn 0.4281 -0.3647 -0.8269
vn 0.3835 -0.4062 -0.8294
vn 0.3805 -0.4057 -0.8310
vn -0.7731 -0.0389 -0.6330
vn -0.8283 0.0030 -0.5602
vn -0.8257 -0.0009 -0.5641
vn 0.2462 0.9020 -0.3547
vn 0.6381 -0.4263 -0.6412
vn -0.3126 -0.2725 -0.9100
vn 0.1463 -0.3964 -0.9064
vn -0.7295 -0.0685 -0.6806
vn -0.7295 -0.0685 -0.6805
vn 0.7295 0.0685 0.6806
vn -0.1463 0.3963 0.9064
vn -0.1463 0.3964 0.9064
vn 0.9243 -0.3287 -0.1940
vn -0.9581 0.1714 -0.2295
vn -0.9581 0.1714 -0.2294
vn -0.9581 0.1713 -0.2294
vn 0.7295 0.0684 0.6806
vn 0.9581 -0.1714 0.2294
vn -0.6381 0.4263 0.6412
vn -0.3126 -0.2724 -0.9100
vn -0.3127 -0.2725 -0.9099
vn -0.9243 0.3286 0.1940
vn -0.9174 0.3350 0.2151
vn -0.9174 0.3350 0.2150
vn 0.9173 -0.3350 -0.2151
vn -0.6989 0.3989 0.5937
vn 0.8100 0.0591 0.5834
vn 0.4078 -0.4549 -0.7917
vn -0.7712 -0.0386 -0.6354
vn 0.1463 -0.3963 -0.9064
vn -0.7295 -0.0684 -0.6806
vn -0.1462 0.3963 0.9064
vn 0.9243 -0.3286 -0.1940
usemtl dhd_low.007
s 1
f 1/1/1 2/2/2 3/3/3
f 1/4/4 4/5/5 5/6/6
f 6/7/7 4/8/8 7/9/9
f 3/10/10 8/11/11 6/12/12
f 9/13/13 10/14/13 11/15/13
f 12/16/14 13/17/14 14/18/14
f 15/19/15 16/20/15 17/21/15
f 18/22/16 19/23/16 20/24/16
f 21/25/17 22/26/17 23/27/18
f 24/28/19 13/17/19 25/29/19
f 26/30/20 27/31/20 28/32/21
f 29/33/22 22/34/22 30/35/22
f 31/36/23 28/32/24 19/37/25
f 32/38/19 33/39/26 34/40/19
f 35/41/27 20/42/27 27/43/27
f 36/44/28 34/45/28 37/46/28
f 29/47/29 38/48/29 39/49/30
f 40/50/31 37/46/31 38/51/31
f 15/52/32 23/53/33 41/54/32
f 42/55/28 25/56/28 33/57/28
f 12/16/34 16/58/34 43/59/34
f 1/1/1 5/60/35 2/2/2
f 1/4/4 7/61/36 4/5/5
f 6/7/7 8/62/37 4/8/8
f 3/10/10 2/63/38 8/11/11
f 9/13/13 44/64/13 10/14/13
f 12/16/14 43/59/14 13/17/14
f 15/19/29 41/65/29 16/20/29
f 18/22/16 31/66/39 19/23/16
f 21/25/17 30/67/40 22/26/17
f 24/28/19 14/18/19 13/17/19
f 26/30/20 35/68/41 27/31/20
f 29/33/42 39/69/42 22/34/42
f 31/36/23 26/30/23 28/32/24
f 32/38/19 42/70/26 33/39/26
f 35/41/27 18/71/27 20/42/27
f 36/44/28 32/72/28 34/45/28
f 29/47/29 40/73/29 38/48/29
f 40/50/31 36/44/31 37/46/31
f 15/52/32 21/74/33 23/53/33
f 42/55/28 24/75/28 25/56/28
f 12/16/34 17/76/34 16/58/34
