# Blender v3.0.0 OBJ File: ''
# www.blender.org
mtllib 7.mtl
o buttons.137
v 0.096153 1.296865 0.485323
v 0.247513 1.268316 0.434086
v 0.102284 1.294009 0.476813
v 0.179449 1.236510 0.288044
v 0.176145 1.239355 0.297577
v 0.077582 1.256792 0.326573
v 0.069057 1.256040 0.320522
v 0.144181 1.284462 0.401506
v 0.168832 1.276788 0.381706
v 0.157346 1.276469 0.376180
v 0.257735 1.268278 0.437785
v 0.130659 1.284839 0.397851
v 0.141780 1.292172 0.429801
v 0.152622 1.290250 0.426598
v 0.168391 1.268046 0.348430
v 0.156976 1.269142 0.348291
vt 0.347025 0.836497
vt 0.643493 0.824451
vt 0.362827 0.824450
vt 0.609830 0.526147
vt 0.598399 0.541525
vt 0.407921 0.541523
vt 0.396489 0.526147
vt 0.528982 0.724978
vt 0.445984 0.648213
vt 0.486921 0.631059
vt 0.659295 0.836497
vt 0.575413 0.714358
vt 0.533708 0.828333
vt 0.496407 0.815241
vt 0.452560 0.529047
vt 0.492028 0.532085
vn 0.0955 0.9624 -0.2542
vn 0.0955 0.9625 -0.2541
vn 0.0955 0.9624 -0.2541
usemtl dhd_button_light.018
s 1
f 1/1/1 2/2/2 3/3/1
f 2/2/2 4/4/3 5/5/3
f 4/4/3 6/6/3 5/5/3
f 7/7/3 3/3/1 6/6/3
f 8/8/3 9/9/3 10/10/3
f 1/1/1 11/11/2 2/2/2
f 2/2/2 11/11/2 4/4/3
f 4/4/3 7/7/3 6/6/3
f 7/7/3 1/1/1 3/3/1
f 12/12/3 13/13/3 14/14/3
f 12/12/3 14/14/3 8/8/3
f 15/15/3 16/16/3 10/10/3
f 10/10/3 12/12/3 8/8/3
f 9/9/3 15/15/3 10/10/3
