# Blender v3.0.0 OBJ File: ''
# www.blender.org
mtllib 7_base.mtl
o buttons.257
v 0.178835 1.228315 0.290156
v 0.257735 1.268278 0.437785
v 0.257087 1.259730 0.439991
v 0.068443 1.247845 0.322635
v 0.179449 1.236510 0.288044
v 0.095505 1.288317 0.487529
v 0.069057 1.256040 0.320522
v 0.176145 1.239355 0.297577
v 0.102284 1.294009 0.476813
v 0.247513 1.268316 0.434086
v 0.096153 1.296865 0.485323
v 0.155644 1.255716 0.351836
v 0.168391 1.268046 0.348430
v 0.167058 1.254619 0.351975
v 0.156013 1.263043 0.379725
v 0.130659 1.284839 0.397851
v 0.157346 1.276469 0.376180
v 0.156976 1.269142 0.348291
v 0.151289 1.276824 0.430143
v 0.144181 1.284462 0.401506
v 0.152622 1.290250 0.426598
v 0.168832 1.276788 0.381706
v 0.167499 1.263362 0.385251
v 0.141780 1.292172 0.429801
v 0.140447 1.278745 0.433346
v 0.129327 1.271413 0.401396
v 0.142848 1.271036 0.405051
v 0.077582 1.256792 0.326573
vt 0.825855 0.975193
vt 0.824400 0.946334
vt 0.825918 0.946331
vt 0.970306 0.916570
vt 0.971761 0.936543
vt 0.970307 0.936577
vt 0.956063 0.814436
vt 0.957525 0.843920
vt 0.956070 0.843920
vt 0.935776 0.867526
vt 0.913674 0.840981
vt 0.940007 0.840981
vt 0.966687 0.843803
vt 0.965169 0.872822
vt 0.965169 0.843769
vt 0.982309 0.918927
vt 0.984167 0.916535
vt 0.984167 0.918928
vt 0.941699 0.986441
vt 0.944091 0.980773
vt 0.944091 0.986442
vt 0.840456 0.986636
vt 0.842848 0.981746
vt 0.842848 0.986633
vt 0.834382 0.981840
vt 0.831989 0.986483
vt 0.831989 0.981841
vt 0.813128 0.986454
vt 0.810736 0.980741
vt 0.813128 0.980746
vt 0.981013 0.953558
vt 0.982964 0.951165
vt 0.982964 0.953558
vt 0.819615 0.986404
vt 0.822007 0.980549
vt 0.822007 0.986407
vt 0.908825 0.986577
vt 0.906432 0.981185
vt 0.908825 0.981184
vt 0.824400 0.975197
vt 0.971761 0.916535
vt 0.957581 0.814436
vt 0.917905 0.867526
vt 0.966687 0.872856
vt 0.982309 0.916535
vt 0.941699 0.980773
vt 0.840456 0.981749
vt 0.834382 0.986482
vt 0.810736 0.986449
vt 0.981013 0.951165
vt 0.819615 0.980546
vt 0.906432 0.986578
vn 0.8885 -0.1318 -0.4395
vn 0.8678 -0.1848 -0.4613
vn 0.8662 -0.1851 -0.4642
vn -0.2646 -0.2225 -0.9383
vn -0.3597 -0.2072 -0.9098
vn -0.3543 -0.2096 -0.9113
vn -0.9909 0.0987 0.0914
vn -0.9877 0.0589 0.1451
vn -0.9801 0.1551 0.1236
vn 0.0955 0.9624 -0.2541
vn 0.3135 0.2588 0.9136
vn 0.3071 0.1758 0.9353
vn 0.3074 0.1769 0.9350
vn -0.0126 -0.2541 -0.9671
vn -0.6496 -0.1332 -0.7485
vn -0.6496 -0.1331 -0.7485
vn -0.9953 0.0956 -0.0119
vn 0.9454 -0.1676 -0.2794
vn 0.9953 -0.0957 0.0119
vn 0.3114 0.2136 0.9260
vn -0.9422 0.1698 0.2890
vn 0.6456 0.1344 0.7517
vn 0.8825 -0.2266 -0.4120
vn -0.2619 -0.2213 -0.9394
vn -0.9903 0.0999 0.0967
vn 0.3134 0.2578 0.9140
vn -0.9953 0.0957 -0.0120
vn -0.9422 0.1698 0.2889
usemtl dhd_low.009
s 1
f 1/1/1 2/2/2 3/3/3
f 4/4/4 5/5/5 1/6/6
f 6/7/7 7/8/8 4/9/9
f 8/10/10 9/11/10 10/12/10
f 6/13/11 2/14/12 11/15/13
f 12/16/14 13/17/14 14/18/14
f 15/19/15 16/20/15 17/21/16
f 12/22/17 17/23/17 18/24/17
f 19/25/18 20/26/18 21/27/18
f 14/28/19 22/29/19 23/30/19
f 19/31/20 24/32/20 25/33/20
f 26/34/21 24/35/21 16/36/21
f 23/37/22 20/38/22 27/39/22
f 1/1/1 5/40/23 2/2/2
f 4/4/4 7/41/24 5/5/5
f 6/7/7 11/42/25 7/8/8
f 8/10/10 28/43/10 9/11/10
f 6/13/11 3/44/26 2/14/12
f 12/16/14 18/45/14 13/17/14
f 15/19/15 26/46/15 16/20/15
f 12/22/17 15/47/27 17/23/17
f 19/25/18 27/48/18 20/26/18
f 14/28/19 13/49/19 22/29/19
f 19/31/20 21/50/20 24/32/20
f 26/34/21 25/51/28 24/35/21
f 23/37/22 22/52/22 20/38/22
