# Blender v3.0.0 OBJ File: ''
# www.blender.org
mtllib 8.mtl
o buttons.140
v -0.059558 1.257028 0.322165
v -0.077975 1.296271 0.480574
v -0.053304 1.259051 0.330330
v 0.057157 1.257028 0.322165
v -0.086620 1.297856 0.486972
v 0.075574 1.296271 0.480575
v 0.050904 1.259051 0.330332
v -0.035419 1.287645 0.387740
v 0.039504 1.297869 0.429010
v -0.028482 1.285449 0.378874
v 0.084219 1.297856 0.486972
v 0.032567 1.300065 0.437875
vt 0.396490 0.526147
vt 0.362827 0.824449
vt 0.407921 0.541522
vt 0.609830 0.526147
vt 0.347025 0.836497
vt 0.643493 0.824451
vt 0.598400 0.541525
vt 0.647542 0.591852
vt 0.347377 0.779057
vt 0.619408 0.555008
vt 0.659295 0.836497
vt 0.378913 0.814812
vn -0.0000 0.9707 -0.2405
vn -0.0000 0.9707 -0.2404
usemtl dhd_button_light.021
s 1
f 1/1/1 2/2/1 3/3/1
f 3/3/1 4/4/1 1/1/1
f 5/5/1 6/6/1 2/2/1
f 6/6/1 4/4/1 7/7/1
f 8/8/2 9/9/1 10/10/2
f 1/1/1 5/5/1 2/2/1
f 3/3/1 7/7/1 4/4/1
f 5/5/1 11/11/1 6/6/1
f 6/6/1 11/11/1 4/4/1
f 8/8/2 12/12/1 9/9/1
