# Blender v3.0.0 OBJ File: ''
# www.blender.org
mtllib 8_base.mtl
o buttons.258
v -0.086417 1.289270 0.489115
v -0.059558 1.257028 0.322165
v -0.059356 1.248798 0.324220
v 0.084219 1.297856 0.486972
v 0.084422 1.289270 0.489115
v 0.057360 1.248798 0.324219
v 0.057157 1.257028 0.322165
v -0.077975 1.296271 0.480574
v 0.050904 1.259051 0.330332
v -0.053304 1.259051 0.330330
v 0.039504 1.284328 0.432364
v 0.032567 1.300065 0.437875
v 0.032567 1.286524 0.441229
v -0.028482 1.285449 0.378874
v 0.039504 1.297869 0.429010
v -0.028482 1.271908 0.382229
v -0.035419 1.287645 0.387740
v -0.035419 1.274104 0.391094
v -0.086620 1.297856 0.486972
v 0.075574 1.296271 0.480575
vt 0.830471 0.946334
vt 0.831927 0.974930
vt 0.830471 0.974934
vt 0.861009 0.950130
vt 0.859491 0.973430
vt 0.859491 0.950101
vt 0.969369 0.915381
vt 0.967914 0.894100
vt 0.969432 0.894071
vt 0.978123 0.965461
vt 0.976668 0.949553
vt 0.978123 0.949523
vt 0.861009 0.840981
vt 0.883111 0.867526
vt 0.865240 0.867526
vt 0.980769 0.836480
vt 0.982736 0.834088
vt 0.982736 0.836480
vt 0.858030 0.950109
vt 0.855638 0.964751
vt 0.855638 0.950109
vt 0.858030 0.989878
vt 0.856123 0.987481
vt 0.858030 0.987486
vt 0.910638 0.964743
vt 0.913031 0.950101
vt 0.913031 0.964743
vt 0.831989 0.946331
vt 0.861009 0.973459
vt 0.967914 0.915410
vt 0.976668 0.965491
vt 0.887342 0.840981
vt 0.980769 0.834088
vt 0.858030 0.964751
vt 0.856123 0.989873
vt 0.910638 0.950101
vn -0.9792 -0.0707 -0.1904
vn -0.9844 -0.1106 -0.1369
vn -0.9874 -0.0141 -0.1578
vn 0.0008 0.2023 0.9793
vn -0.0010 0.2856 0.9583
vn -0.0010 0.2847 0.9586
vn 0.9847 0.0293 -0.1716
vn 0.9800 -0.0259 -0.1971
vn 0.9794 -0.0265 -0.2003
vn 0.0481 -0.2411 -0.9693
vn -0.0524 -0.2426 -0.9687
vn -0.0465 -0.2441 -0.9686
vn 0.0000 0.9707 -0.2405
vn 0.7963 0.1454 0.5871
vn 0.6050 -0.1914 -0.7729
vn 0.6049 -0.1915 -0.7729
vn -0.7963 -0.1454 -0.5871
vn -0.7964 -0.1455 -0.5871
vn -0.6049 0.1914 0.7729
vn -0.9803 -0.0695 -0.1851
vn 0.0009 0.2035 0.9791
vn 0.9873 -0.0658 -0.1446
vn 0.0507 -0.2395 -0.9696
usemtl dhd_low.010
s 1
f 1/1/1 2/2/2 3/3/3
f 4/4/4 1/5/5 5/6/6
f 6/7/7 4/8/8 5/9/9
f 3/10/10 7/11/11 6/12/12
f 8/13/13 9/14/13 10/15/13
f 11/16/14 12/17/14 13/18/14
f 11/19/15 14/20/16 15/21/15
f 16/22/17 17/23/17 14/24/18
f 18/25/19 12/26/19 17/27/19
f 1/1/1 19/28/20 2/2/2
f 4/4/4 19/29/21 1/5/5
f 6/7/7 7/30/22 4/8/8
f 3/10/10 2/31/23 7/11/11
f 8/13/13 20/32/13 9/14/13
f 11/16/14 15/33/14 12/17/14
f 11/19/15 16/34/16 14/20/16
f 16/22/17 18/35/17 17/23/17
f 18/25/19 13/36/19 12/26/19
