# Blender v3.0.0 OBJ File: ''
# www.blender.org
mtllib 9.mtl
o buttons.142
v -0.181828 1.236442 0.287931
v -0.249892 1.268248 0.433973
v -0.178523 1.239287 0.297463
v -0.104664 1.293941 0.476701
v -0.260114 1.268211 0.437672
v -0.098532 1.296797 0.485211
v -0.071436 1.255972 0.320409
v -0.079962 1.256724 0.326462
v -0.162608 1.272221 0.361321
v -0.125659 1.273742 0.353193
v -0.175046 1.267790 0.349212
v -0.168735 1.283996 0.408217
v -0.166983 1.280629 0.394808
v -0.120537 1.284541 0.392168
v -0.126903 1.276537 0.364247
v -0.182576 1.282260 0.406845
v -0.124403 1.281084 0.380527
vt 0.609830 0.526145
vt 0.643493 0.824448
vt 0.598399 0.541520
vt 0.362827 0.824449
vt 0.659295 0.836495
vt 0.347025 0.836495
vt 0.396490 0.526145
vt 0.407921 0.541523
vt 0.578231 0.611003
vt 0.429029 0.526854
vt 0.646990 0.572523
vt 0.539637 0.818837
vt 0.550394 0.760911
vt 0.354697 0.698470
vt 0.419720 0.579734
vt 0.597180 0.826657
vt 0.387024 0.650789
vn -0.0955 0.9624 -0.2541
vn -0.0954 0.9624 -0.2542
vn -0.0955 0.9625 -0.2541
usemtl dhd_button_light.022
s 1
f 1/1/1 2/2/2 3/3/1
f 4/4/1 5/5/2 6/6/1
f 7/7/1 3/3/1 8/8/1
f 4/4/1 7/7/1 8/8/1
f 9/9/3 10/10/1 11/11/3
f 12/12/1 13/13/1 11/11/3
f 14/14/1 13/13/1 12/12/1
f 1/1/1 5/5/2 2/2/2
f 4/4/1 2/2/2 5/5/2
f 7/7/1 1/1/1 3/3/1
f 4/4/1 6/6/1 7/7/1
f 9/9/3 15/15/1 10/10/1
f 11/11/3 16/16/1 12/12/1
f 13/13/1 9/9/3 11/11/3
f 14/14/1 17/17/1 13/13/1
