# Blender v3.0.0 OBJ File: ''
# www.blender.org
mtllib brb_base.mtl
o Cube.032
v -0.057210 1.037857 -0.189529
v -0.089427 1.092468 -0.162960
v -0.047485 1.080700 -0.182530
v 0.106987 1.051757 -0.166413
v 0.121246 1.110302 -0.133300
v 0.146075 1.073521 -0.130218
v -0.028299 1.211854 0.099836
v 0.024273 1.225059 0.057546
v -0.023489 1.225121 0.057649
v -0.107741 1.052034 -0.165951
v -0.121678 1.110615 -0.132779
v 0.046734 1.080578 -0.182733
v 0.088802 1.092237 -0.163344
v 0.029243 1.211779 0.099711
v 0.069403 1.217010 0.044159
v -0.169567 1.101081 -0.084385
v -0.146596 1.073899 -0.129590
v 0.056305 1.037710 -0.189774
v -0.000397 1.076588 -0.189368
v 0.083616 1.202081 0.083583
v 0.107012 1.201845 0.018940
v -0.174162 1.130636 -0.035233
v -0.140744 1.133177 -0.095258
v 0.160267 1.158949 0.011852
v 0.128927 1.183811 0.053199
v -0.159885 1.159361 0.012538
v -0.144559 1.157708 -0.054461
v 0.174241 1.130188 -0.035978
v 0.133025 1.181209 -0.015379
v -0.128281 1.184143 0.053752
v -0.132708 1.181551 -0.014810
v 0.169333 1.100645 -0.085110
v 0.144624 1.157337 -0.055080
v -0.082775 1.202296 0.083942
v -0.106476 1.202121 0.019398
v -0.000479 1.032903 -0.197768
v 0.140550 1.132815 -0.095860
v -0.068705 1.217188 0.044457
v -0.000000 1.151350 -0.065038
vt 0.157254 0.674188
vt 0.145359 0.688350
vt 0.145359 0.674188
vt 0.157254 0.631694
vt 0.145359 0.617529
vt 0.157254 0.617529
vt 0.157254 0.787495
vt 0.145359 0.801659
vt 0.145359 0.787495
vt 0.157254 0.688350
vt 0.145359 0.702512
vt 0.145359 0.645859
vt 0.145359 0.631694
vt 0.157254 0.532552
vt 0.145359 0.546715
vt 0.145359 0.532552
vt 0.157254 0.716674
vt 0.157254 0.702512
vt 0.157254 0.645859
vt 0.145359 0.660024
vt 0.157254 0.546715
vt 0.145359 0.560878
vt 0.157254 0.730837
vt 0.145359 0.716674
vt 0.157254 0.575039
vt 0.157254 0.560878
vt 0.157254 0.745001
vt 0.145359 0.730837
vt 0.157254 0.589202
vt 0.145359 0.575039
vt 0.157254 0.759166
vt 0.145359 0.745001
vt 0.157254 0.603365
vt 0.145359 0.589202
vt 0.157254 0.773331
vt 0.145359 0.759166
vt 0.157254 0.660024
vt 0.145359 0.603365
vt 0.145359 0.773331
vt 0.367621 0.701150
vt 0.342501 0.700603
vt 0.344010 0.692445
vt 0.348098 0.685201
vt 0.354306 0.679648
vt 0.362045 0.676598
vt 0.370321 0.676190
vt 0.378248 0.678470
vt 0.384977 0.683179
vt 0.389777 0.689811
vt 0.392347 0.697588
vt 0.392228 0.705805
vt 0.389449 0.713569
vt 0.384318 0.720060
vt 0.377258 0.724389
vt 0.369188 0.726229
vt 0.360966 0.725356
vt 0.353489 0.721851
vt 0.347597 0.716081
vt 0.343738 0.708785
vt 0.157254 0.801659
vn -0.2435 0.2100 -0.9469
vn -0.4586 0.2703 -0.8465
vn -0.2434 0.2100 -0.9469
vn 0.4556 0.2690 -0.8485
vn 0.6220 0.3617 -0.6945
vn -0.1206 0.9508 0.2853
vn 0.1243 0.9505 0.2847
vn -0.1207 0.9508 0.2853
vn -0.4586 0.2704 -0.8465
vn -0.6241 0.3635 -0.6916
vn 0.2399 0.2093 -0.9480
vn 0.1244 0.9505 0.2847
vn 0.3559 0.9092 0.2160
vn -0.7220 0.4793 -0.4991
vn -0.0019 0.1888 -0.9820
vn 0.5489 0.8314 0.0866
vn -0.7416 0.6051 -0.2898
vn 0.6823 0.7255 -0.0895
vn -0.6808 0.7274 -0.0864
vn 0.7419 0.6030 -0.2932
vn -0.5463 0.8329 0.0891
vn -0.6808 0.7274 -0.0863
vn 0.7210 0.4772 -0.5024
vn -0.3526 0.9101 0.2176
vn -0.0000 0.8570 -0.5153
usemtl dhd_low.040
s 1
f 1/1/1 2/2/2 3/3/3
f 4/4/4 5/5/5 6/6/5
f 7/7/6 8/8/7 9/9/8
f 10/10/9 11/11/10 2/2/2
f 4/4/4 12/12/11 13/13/4
f 14/14/12 15/15/13 8/16/7
f 16/17/14 11/11/10 17/18/10
f 18/19/11 19/20/15 12/12/11
f 20/21/13 21/22/16 15/15/13
f 22/23/17 23/24/14 16/17/14
f 24/25/18 21/22/16 25/26/16
f 26/27/19 27/28/17 22/23/17
f 28/29/20 29/30/18 24/25/18
f 30/31/21 31/32/22 26/27/19
f 32/33/23 33/34/20 28/29/20
f 34/35/24 35/36/21 30/31/21
f 36/37/15 3/3/3 19/20/15
f 6/6/5 37/38/23 32/33/23
f 34/35/24 9/9/8 38/39/24
f 39/40/25 19/41/25 3/42/25
f 39/40/25 3/42/25 2/43/25
f 39/40/25 2/43/25 11/44/25
f 39/40/25 11/44/25 23/45/25
f 39/40/25 23/45/25 27/46/25
f 39/40/25 27/46/25 31/47/25
f 39/40/25 31/47/25 35/48/25
f 39/40/25 35/48/25 38/49/25
f 39/40/25 38/49/25 9/50/25
f 39/40/25 9/50/25 8/51/25
f 39/40/25 8/51/25 15/52/25
f 39/40/25 15/52/25 21/53/25
f 39/40/25 21/53/25 29/54/25
f 39/40/25 29/54/25 33/55/25
f 39/40/25 33/55/25 37/56/25
f 39/40/25 37/56/25 5/57/25
f 39/40/25 5/57/25 13/58/25
f 39/40/25 13/58/25 12/59/25
f 39/40/25 12/59/25 19/41/25
f 1/1/1 10/10/9 2/2/2
f 4/4/4 13/13/4 5/5/5
f 7/7/6 14/60/12 8/8/7
f 10/10/9 17/18/10 11/11/10
f 4/4/4 18/19/11 12/12/11
f 14/14/12 20/21/13 15/15/13
f 16/17/14 23/24/14 11/11/10
f 18/19/11 36/37/15 19/20/15
f 20/21/13 25/26/16 21/22/16
f 22/23/17 27/28/17 23/24/14
f 24/25/18 29/30/18 21/22/16
f 26/27/19 31/32/22 27/28/17
f 28/29/20 33/34/20 29/30/18
f 30/31/21 35/36/21 31/32/22
f 32/33/23 37/38/23 33/34/20
f 34/35/24 38/39/24 35/36/21
f 36/37/15 1/1/1 3/3/3
f 6/6/5 5/5/5 37/38/23
f 34/35/24 7/7/6 9/9/8
