# Made in Blockbench 5.1.4
mtllib chevron_markers.mtl

o right pointer
v 0.436066875 4.3 0.21250125
v 0.423441875 4.3 0.21250125
v 0.392235 4.656696875 0.21250125
v 0.436066875 4.3 0.33750125000000003
v 0.69997375 4.9875 0.21250125
v 0.69997375 4.9875 0.33750125000000003
v 0.392235 4.656696875 0.33750125000000003
v 0.519218125 4.9875 0.21250125
v 0.423441875 4.3 0.33750125000000003
v 0.519218125 4.9875 0.33750125000000003
vt 0.340273984375 0.81584703125
vt 0.34084 0.81732
vt 0.30061203125 0.836941015625
vt 0.340273984375 0.81037796875
vt 0.24822296875 0.82600296875
vt 0.24822296875 0.81037796875
vt 0.24822296875 0.83147203125
vt 0.30061203125 0.81037796875
vt 0.340273984375 0.83147203125
vt 0.30061203125 0.82600296875
vt 0.25632 0.81037796875
vt 0.30061203125 0.81037796875
vt 0.257633515625 0.8359375
vt 0.25605546875 0.8203125
vt 0.25605546875 0.8359375
vt 0.302748984375 0.8335935156250001
vt 0.25799203125 0.8179685156250001
vt 0.25799203125 0.8335935156250001
vt 0.282808984375 0.81249953125
vt 0.260215 0.82812546875
vt 0.282808984375 0.82812453125
vt 0.25632 0.836941015625
vt 0.24822296875 0.81584703125
vt 0.30061203125 0.836941015625
vt 0.24822296875 0.81584703125
vt 0.340273984375 0.81584703125
vt 0.30061203125 0.836941015625
vt 0.340273984375 0.81037796875
vt 0.340273984375 0.82600296875
vt 0.24822296875 0.82600296875
vt 0.25632 0.81037796875
vt 0.30061203125 0.81037796875
vt 0.24822296875 0.83147203125
vt 0.30061203125 0.81037796875
vt 0.34084 0.82999796875
vt 0.340273984375 0.83147203125
vt 0.30061203125 0.82600296875
vt 0.25632 0.82600296875
vt 0.25632 0.81037796875
vt 0.257633515625 0.8359375
vt 0.257633515625 0.8203125
vt 0.25605546875 0.8203125
vt 0.302748984375 0.8335935156250001
vt 0.302748984375 0.8179685156250001
vt 0.25799203125 0.8179685156250001
vt 0.282808984375 0.81249953125
vt 0.260215 0.81249953125
vt 0.260215 0.82812546875
vn 0 0 -1
vn 0.9335802670709787 -0.3583683648645343 0
vn 0 0 1
vn -0.9335807072682453 0.35836721811086863 0
vn 0 -1 0
vn -0.9961947121261974 -0.08715558233299144 0
vn 0 1 0
vn 0 0 -1
vn 0 0 -1
vn 0.9335802670709787 -0.3583683648645343 0
vn 0 0 1
vn 0 0 1
vn -0.9335807072682453 0.35836721811086863 0
vn 0 -1 0
vn -0.9961947121261974 -0.08715558233299144 0
vn 0 1 0
usemtl m_3326e610-1839-8a8f-4c19-b835e2dcf0dc
f 1/1/1 2/2/1 3/3/1
f 4/4/2 5/5/2 6/6/2
f 6/7/3 7/8/3 4/9/3
f 7/10/4 8/11/4 3/12/4
f 1/13/5 9/14/5 2/15/5
f 7/16/6 2/17/6 9/18/6
f 5/19/7 10/20/7 6/21/7
f 8/22/8 5/23/8 3/24/8
f 5/25/9 1/26/9 3/27/9
f 4/28/10 1/29/10 5/30/10
f 10/31/11 7/32/11 6/33/11
f 7/34/12 9/35/12 4/36/12
f 7/37/13 10/38/13 8/39/13
f 1/40/14 4/41/14 9/42/14
f 7/43/15 3/44/15 2/45/15
f 5/46/16 8/47/16 10/48/16
o leftr pointer
v -0.4360668750000001 4.3 0.34374875000000005
v -0.4234418750000001 4.3 0.34374875000000005
v -0.39223500000000006 4.656696875 0.34374875000000005
v -0.4360668750000001 4.3 0.21874875000000005
v -0.69997375 4.9875 0.3437487500000001
v -0.69997375 4.9875 0.2187487500000001
v -0.39223500000000006 4.656696875 0.21874875000000005
v -0.519218125 4.9875 0.34374875000000005
v -0.4234418750000001 4.3 0.21874875000000005
v -0.519218125 4.9875 0.21874875000000005
vt 0.332461484375 0.81584703125
vt 0.3330275 0.81732
vt 0.29279953125 0.836941015625
vt 0.332461484375 0.81037796875
vt 0.24041046875 0.82600296875
vt 0.24041046875 0.81037796875
vt 0.24041046875 0.83147203125
vt 0.29279953125 0.81037796875
vt 0.332461484375 0.83147203125
vt 0.29279953125 0.82600296875
vt 0.2485075 0.81037796875
vt 0.29279953125 0.81037796875
vt 0.273258515625 0.8203125
vt 0.27168046875 0.8046875
vt 0.27168046875 0.8203125
vt 0.302748984375 0.8179685156250001
vt 0.25799203125 0.8023435156250001
vt 0.25799203125 0.8179685156250001
vt 0.282808984375 0.80468703125
vt 0.260215 0.82031296875
vt 0.282808984375 0.82031203125
vt 0.2485075 0.836941015625
vt 0.24041046875 0.81584703125
vt 0.29279953125 0.836941015625
vt 0.24041046875 0.81584703125
vt 0.332461484375 0.81584703125
vt 0.29279953125 0.836941015625
vt 0.332461484375 0.81037796875
vt 0.332461484375 0.82600296875
vt 0.24041046875 0.82600296875
vt 0.2485075 0.81037796875
vt 0.29279953125 0.81037796875
vt 0.24041046875 0.83147203125
vt 0.29279953125 0.81037796875
vt 0.3330275 0.82999796875
vt 0.332461484375 0.83147203125
vt 0.29279953125 0.82600296875
vt 0.2485075 0.82600296875
vt 0.2485075 0.81037796875
vt 0.273258515625 0.8203125
vt 0.273258515625 0.8046875
vt 0.27168046875 0.8046875
vt 0.302748984375 0.8179685156250001
vt 0.302748984375 0.8023435156250001
vt 0.25799203125 0.8023435156250001
vt 0.282808984375 0.80468703125
vt 0.260215 0.80468703125
vt 0.260215 0.82031296875
vn 1.2246467991473532e-16 0 1
vn -0.9335802670709787 -0.3583683648645343 1.1433060858156054e-16
vn -1.2246467991473532e-16 0 -1
vn 0.9335807072682453 0.35836721811086863 -1.1433066249017787e-16
vn 0 -1 0
vn 0.9961947121261974 -0.08715558233299144 -1.2199866655328665e-16
vn 0 1 0
vn 1.2246467991473532e-16 0 1
vn 1.2246467991473532e-16 0 1
vn -0.9335802670709787 -0.3583683648645343 1.1433060858156054e-16
vn -1.2246467991473532e-16 0 -1
vn -1.2246467991473532e-16 0 -1
vn 0.9335807072682453 0.35836721811086863 -1.1433066249017787e-16
vn 0 -1 0
vn 0.9961947121261974 -0.08715558233299144 -1.2199866655328665e-16
vn 0 1 0
usemtl m_3326e610-1839-8a8f-4c19-b835e2dcf0dc
f 11/49/17 12/50/17 13/51/17
f 14/52/18 15/53/18 16/54/18
f 16/55/19 17/56/19 14/57/19
f 17/58/20 18/59/20 13/60/20
f 11/61/21 19/62/21 12/63/21
f 17/64/22 12/65/22 19/66/22
f 15/67/23 20/68/23 16/69/23
f 18/70/24 15/71/24 13/72/24
f 15/73/25 11/74/25 13/75/25
f 14/76/26 11/77/26 15/78/26
f 20/79/27 17/80/27 16/81/27
f 17/82/28 19/83/28 14/84/28
f 17/85/29 20/86/29 18/87/29
f 11/88/30 14/89/30 19/90/30
f 17/91/31 13/92/31 12/93/31
f 15/94/32 18/95/32 20/96/32