# Made in Blockbench 5.1.4
mtllib chevron_light.mtl

o light
v -0.21169125 5.228125 0.031263125
v 0.06152625 4.846875 0.031263125
v -0.065343125 4.846875 0.031263125
v 0.207875 5.228125 0.34370125
v -0.065343125 4.846875 0.34370125
v 0.06152625 4.846875 0.34370125
v 0.207875 5.228125 0.031263125
v -0.21169125 5.228125 0.34370125
vt 0.203159765625 0.5386310937500001
vt 0.16243765625 0.492578125
vt 0.181346953125 0.492578125
vt 0.132847265625 0.5390217187499999
vt 0.0921253125 0.4921875
vt 0.111034453125 0.4921875
vt 0.1328125 0.54765625
vt 0.07059703125 0.5843129687499999
vt 0.1328125 0.5843129687499999
vt 0.18554046875 0.593970234375
vt 0.146743515625 0.54792796875
vt 0.146743515625 0.593970234375
vt 0.01732375 0.5931027343749999
vt 0.05533953125 0.5473825
vt 0.01732375 0.5473825
vt 0.07812671875 0.48607203125
vt 0.11718125 0.46734125000000004
vt 0.07812671875 0.46734125000000004
vt 0.203159765625 0.5386310937500001
vt 0.140625 0.5386310937500001
vt 0.16243765625 0.492578125
vt 0.132847265625 0.5390217187499999
vt 0.0703125 0.5390217187499999
vt 0.0921253125 0.4921875
vt 0.1328125 0.54765625
vt 0.0705971875 0.54765625
vt 0.07059703125 0.5843129687499999
vt 0.18554046875 0.593970234375
vt 0.18554046875 0.54792796875
vt 0.146743515625 0.54792796875
vt 0.01732375 0.5931027343749999
vt 0.05533953125 0.5931027343749999
vt 0.05533953125 0.5473825
vt 0.07812671875 0.48607203125
vt 0.11718125 0.48607203125
vt 0.11718125 0.46734125000000004
vn 0 0 -1
vn 0 0 1
vn 0 1 0
vn 0.9335799458825284 -0.3583692015868209 0
vn -0.9335804579218369 -0.35836786768131673 0
vn 0 -1 0
vn 0 0 -1
vn 0 0 1
vn 0 1 0
vn 0.9335799458825284 -0.3583692015868209 0
vn -0.9335804579218369 -0.35836786768131673 0
vn 0 -1 0
usemtl m_513ee14e-1d87-07eb-fa66-43d866145574
f 1/1/1 2/2/1 3/3/1
f 4/4/2 5/5/2 6/6/2
f 7/7/3 8/8/3 4/9/3
f 4/10/4 2/11/4 7/12/4
f 8/13/5 3/14/5 5/15/5
f 2/16/6 5/17/6 3/18/6
f 1/19/7 7/20/7 2/21/7
f 4/22/8 8/23/8 5/24/8
f 7/25/9 1/26/9 8/27/9
f 4/28/10 6/29/10 2/30/10
f 8/31/11 1/32/11 3/33/11
f 2/34/12 6/35/12 5/36/12
o back
v 0.21169125000000003 5.228125 0.03123687499999997
v -0.06152625 4.846875 0.03123687500000001
v 0.065343125 4.846875 0.031236874999999983
v -0.20787500000000003 5.228125 -0.28120124999999996
v 0.06534312499999996 4.846875 -0.28120125
v -0.06152625000000003 4.846875 -0.28120125
v -0.20787499999999998 5.228125 0.031236875000000025
v 0.21169124999999997 5.228125 -0.28120125000000007
vt 0.321066015625 0.631578984375
vt 0.28222296875 0.583963515625
vt 0.32315453125 0.583963515625
vt 0.3250625 0.623766484375
vt 0.28622046875 0.583963515625
vt 0.327151015625 0.583963515625
vt 0.325675 0.58438703125
vt 0.27127203125 0.6233875
vt 0.325675 0.6233875
vt 0.31054046875 0.682251484375
vt 0.277993515625 0.64949046875
vt 0.277993515625 0.682251484375
vt 0.2727925 0.6829464843749999
vt 0.30533953125 0.6505075
vt 0.2727925 0.6505075
vt 0.24922046875 0.68138453125
vt 0.3273375 0.6649975
vt 0.24922046875 0.6649975
vt 0.321066015625 0.631578984375
vt 0.260875 0.631578984375
vt 0.28222296875 0.583963515625
vt 0.3250625 0.623766484375
vt 0.272683984375 0.623766484375
vt 0.28622046875 0.583963515625
vt 0.325675 0.58438703125
vt 0.27127296875 0.58438703125
vt 0.27127203125 0.6233875
vt 0.31054046875 0.682251484375
vt 0.31054046875 0.64949046875
vt 0.277993515625 0.64949046875
vt 0.2727925 0.6829464843749999
vt 0.30533953125 0.6829464843749999
vt 0.30533953125 0.6505075
vt 0.24922046875 0.68138453125
vt 0.3273375 0.68138453125
vt 0.3273375 0.6649975
vn 1.2246467991473532e-16 0 1
vn -1.2246467991473532e-16 0 -1
vn 0 1 0
vn -0.9335799458825284 -0.3583692015868209 1.1433056924731975e-16
vn 0.9335804579218369 -0.35836786768131673 -1.1433063195404977e-16
vn 0 -1 0
vn 1.2246467991473532e-16 0 1
vn -1.2246467991473532e-16 0 -1
vn 0 1 0
vn -0.9335799458825284 -0.3583692015868209 1.1433056924731975e-16
vn 0.9335804579218369 -0.35836786768131673 -1.1433063195404977e-16
vn 0 -1 0
usemtl m_513ee14e-1d87-07eb-fa66-43d866145574
f 9/37/13 10/38/13 11/39/13
f 12/40/14 13/41/14 14/42/14
f 15/43/15 16/44/15 12/45/15
f 12/46/16 10/47/16 15/48/16
f 16/49/17 11/50/17 13/51/17
f 10/52/18 13/53/18 11/54/18
f 9/55/19 15/56/19 10/57/19
f 12/58/20 16/59/20 13/60/20
f 15/61/21 9/62/21 16/63/21
f 12/64/22 14/65/22 10/66/22
f 16/67/23 9/68/23 11/69/23
f 10/70/24 14/71/24 13/72/24