# Made in Blockbench 5.1.4
mtllib chevron_frame_standard.mtl

o right
v -0.05822375 4.70625 -0.281236875
v -0.21169125 5.228125 -0.281236875
v -0.011361875 4.70625 -0.281236875
v -0.21169125 5.228125 0.34370125
v -0.011361875 4.70625 0.34370125
v -0.05822375 4.70625 0.34370125
v -0.258553125 5.228125 0.34370125
v -0.258553125 5.228125 -0.281236875
vt 0.247656015625 0.788313984375
vt 0.24218796875 0.8313839843749999
vt 0.24218796875 0.78698
vt 0.32031203125 0.78698
vt 0.242195 0.8313839843749999
vt 0.242195 0.78698
vt 0.244531015625 0.788313984375
vt 0.25 0.8313839843749999
vt 0.244531015625 0.83271796875
vt 0.244141015625 0.788313984375
vt 0.32225796875 0.83271796875
vt 0.244141015625 0.83271796875
vt 0.31272 0.83436296875
vt 0.283203125 0.787109375
vt 0.283881015625 0.83436203125
vt 0.31814796875 0.78751296875
vt 0.24159453125 0.834325
vt 0.32596046875 0.834325
vt 0.247656015625 0.788313984375
vt 0.247656015625 0.83271796875
vt 0.24218796875 0.8313839843749999
vt 0.32031203125 0.78698
vt 0.32031203125 0.8313839843749999
vt 0.242195 0.8313839843749999
vt 0.244531015625 0.788313984375
vt 0.25 0.78698
vt 0.25 0.8313839843749999
vt 0.244141015625 0.788313984375
vt 0.32225796875 0.788313984375
vt 0.32225796875 0.83271796875
vt 0.3205325 0.83436296875
vt 0.3203125 0.787109375
vt 0.244140625 0.787109375
vt 0.31814796875 0.78751296875
vt 0.24159453125 0.78751296875
vt 0.24159453125 0.834325
vn 0 0 -1
vn 0.9335802279642298 0.3583684667409466 0
vn 0 0 1
vn -0.9335802279642298 -0.3583684667409466 0
vn 0 -1 0
vn 0 1 0
vn 0 0 -1
vn 0.9335802279642298 0.3583684667409466 0
vn 0 0 1
vn -0.9335802279642298 -0.3583684667409466 0
vn 0 -1 0
vn 0 1 0
usemtl m_3326e610-1839-8a8f-4c19-b835e2dcf0dc
f 1/1/1 2/2/1 3/3/1
f 3/4/2 4/5/2 5/6/2
f 6/7/3 4/8/3 7/9/3
f 1/10/4 7/11/4 8/12/4
f 3/13/5 6/14/5 1/15/5
f 2/16/6 7/17/6 4/18/6
f 1/19/7 8/20/7 2/21/7
f 3/22/8 2/23/8 4/24/8
f 6/25/9 5/26/9 4/27/9
f 1/28/10 6/29/10 7/30/10
f 3/31/11 5/32/11 6/33/11
f 2/34/12 8/35/12 7/36/12
o bottom
v 0.06152625 4.846875 -0.28124875
v -0.011361875 4.70625 -0.28124875
v -0.065343125 4.846875 -0.28124875
v -0.011361875 4.70625 0.34375125
v 0.06152625 4.846875 0.34375125
v -0.065343125 4.846875 0.34375125
v 0.00754625 4.70625 0.34375125
v -0.011361875 4.70625 -0.021285
v 0.00754625 4.70625 -0.03146625
v 0.00754625 4.70625 -0.28124875
vt 0.25416203125 0.828125
vt 0.26357703125 0.81054703125
vt 0.270548984375 0.828125
vt 0.259861015625 0.81054703125
vt 0.269275 0.828125
vt 0.25288796875 0.828125
vt 0.241406015625 0.82982203125
vt 0.319531015625 0.813435
vt 0.319531015625 0.82982203125
vt 0.241406015625 0.82480296875
vt 0.287036015625 0.822361015625
vt 0.28830796875 0.82480296875
vt 0.319531015625 0.822361015625
vt 0.28830796875 0.82480296875
vt 0.287036015625 0.822361015625
vt 0.30273 0.79792796875
vt 0.283188984375 0.785843984375
vt 0.27018 0.79792796875
vt 0.29752796875 0.798945
vt 0.29752796875 0.78698
vt 0.283988984375 0.78698
vt 0.25416203125 0.828125
vt 0.261135 0.81054703125
vt 0.26357703125 0.81054703125
vt 0.259861015625 0.81054703125
vt 0.26230296875 0.81054703125
vt 0.269275 0.828125
vt 0.241406015625 0.82982203125
vt 0.241406015625 0.813435
vt 0.319531015625 0.813435
vt 0.241406015625 0.82480296875
vt 0.241406015625 0.822361015625
vt 0.287036015625 0.822361015625
vt 0.319531015625 0.822361015625
vt 0.319531015625 0.82480296875
vt 0.28830796875 0.82480296875
vt 0.30273 0.785843984375
vt 0.283188984375 0.785843984375
vt 0.30273 0.79792796875
vt 0.283188984375 0.785843984375
vt 0.27018 0.785843984375
vt 0.27018 0.79792796875
vt 0.283988984375 0.78698
vt 0.26497796875 0.78698
vt 0.26497796875 0.798945
vt 0.26497796875 0.798945
vt 0.29752796875 0.798945
vt 0.283988984375 0.78698
vn 0 0 -1
vn 0 0 1
vn 0 1 0
vn 0 -1 0
vn 0 -1 0
vn 0.933582380901902 -0.358362858105491 0
vn -0.9335796045222426 -0.35837009085593824 0
vn 0 0 -1
vn 0 0 1
vn 0 1 0
vn 0 -1 0
vn 0 -1 0
vn 0.9335823809019019 -0.35836285810549096 0
vn 0.933582380901902 -0.358362858105491 0
vn -0.9335796045222425 -0.3583700908559382 0
vn -0.9335796045222425 -0.3583700908559382 0
usemtl m_3326e610-1839-8a8f-4c19-b835e2dcf0dc
f 9/37/13 10/38/13 11/39/13
f 12/40/14 13/41/14 14/42/14
f 9/43/15 14/44/15 13/45/15
f 15/46/16 16/47/16 17/48/16
f 10/49/17 17/50/17 16/51/17
f 13/52/18 17/53/18 9/54/18
f 11/55/19 10/56/19 16/57/19
f 9/58/20 18/59/20 10/60/20
f 12/61/21 15/62/21 13/63/21
f 9/64/22 11/65/22 14/66/22
f 15/67/23 12/68/23 16/69/23
f 10/70/24 18/71/24 17/72/24
f 15/73/25 17/74/25 13/75/25
f 17/76/26 18/77/26 9/78/26
f 16/79/27 12/80/27 14/81/27
f 14/82/28 11/83/28 16/84/28
o left
v 0.054408125 4.70625 -0.281236875
v 0.207875 5.228125 -0.281236875
v 0.254736875 5.228125 -0.281236875
v 0.254736875 5.228125 0.34370125
v 0.054408125 4.70625 0.34370125
v 0.207875 5.228125 0.34370125
v 0.00754625 4.70625 0.34370125
v 0.00754625 4.70625 -0.281236875
vt 0.25 0.7871910156249999
vt 0.255468984375 0.830688984375
vt 0.25 0.8320370312500001
vt 0.32031203125 0.7871910156249999
vt 0.242195 0.8320370312500001
vt 0.242195 0.7871910156249999
vt 0.25 0.7871910156249999
vt 0.244531015625 0.830688984375
vt 0.244531015625 0.785843984375
vt 0.244141015625 0.785843984375
vt 0.32225796875 0.830688984375
vt 0.244141015625 0.830688984375
vt 0.29850546875 0.82655046875
vt 0.2696675 0.78755
vt 0.2696675 0.82654953125
vt 0.300665 0.78751203125
vt 0.263175 0.8265125
vt 0.300665 0.8265125
vt 0.25 0.7871910156249999
vt 0.255468984375 0.785843984375
vt 0.255468984375 0.830688984375
vt 0.32031203125 0.7871910156249999
vt 0.32031203125 0.8320370312500001
vt 0.242195 0.8320370312500001
vt 0.25 0.7871910156249999
vt 0.25 0.8320370312500001
vt 0.244531015625 0.830688984375
vt 0.244141015625 0.785843984375
vt 0.32225796875 0.785843984375
vt 0.32225796875 0.830688984375
vt 0.29850546875 0.82655046875
vt 0.298506484375 0.78755
vt 0.2696675 0.78755
vt 0.300665 0.78751203125
vt 0.263175 0.78751203125
vt 0.263175 0.8265125
vn 0 0 -1
vn 0.9335806020284656 -0.35836749227038994 0
vn 0 0 1
vn -0.9335806020284656 0.35836749227039 0
vn 0 -1 0
vn 0 1 0
vn 0 0 -1
vn 0.9335806020284656 -0.35836749227038994 0
vn 0 0 1
vn -0.9335806020284656 0.35836749227039 0
vn 0 -1 0
vn 0 1 0
usemtl m_3326e610-1839-8a8f-4c19-b835e2dcf0dc
f 19/85/29 20/86/29 21/87/29
f 19/88/30 22/89/30 23/90/30
f 23/91/31 24/92/31 25/93/31
f 26/94/32 24/95/32 20/96/32
f 19/97/33 25/98/33 26/99/33
f 21/100/34 24/101/34 22/102/34
f 19/103/35 26/104/35 20/105/35
f 19/106/36 21/107/36 22/108/36
f 23/109/37 22/110/37 24/111/37
f 26/112/38 25/113/38 24/114/38
f 19/115/39 23/116/39 25/117/39
f 21/118/40 20/119/40 24/120/40
o right_front
v -0.2 5.059375 -0.084375
v -0.2 5.07558875 -0.084375
v -0.202913125 5.083178125 -0.084375
v -1.13125 5.059375 -0.084375
v -1.13125 5.067561875 -0.246875
v -1.13125 5.059375 -0.246875
v -0.2 5.07558875 -0.09998875
v -0.2 5.059375 -0.246875
v -1.13125 5.067561875 -0.084375
v -0.25615125 5.22186625 -0.09071
v -0.202913125 5.083178125 -0.246875
v -0.2 5.07558875 -0.246875
v -0.25615125 5.22186625 -0.084375
v -0.25615125 5.22186625 -0.246875
vt 0.358593984375 0.8148439843749999
vt 0.358593984375 0.81687
vt 0.358228984375 0.817818984375
vt 0.292968984375 0.822656015625
vt 0.272656015625 0.82368
vt 0.272656015625 0.822656015625
vt 0.25 0.81687
vt 0.25 0.8148439843749999
vt 0.25195203125 0.81687
vt 0.36406203125 0.83671796875
vt 0.247656015625 0.83671796875
vt 0.247656015625 0.816406015625
vt 0.365545 0.816406015625
vt 0.25447 0.81719796875
vt 0.365545 0.83671796875
vt 0.358593984375 0.8148439843749999
vt 0.358228984375 0.817818984375
vt 0.358593984375 0.81687
vt 0.35938703125 0.835155
vt 0.366406015625 0.8148439843749999
vt 0.36604203125 0.817818984375
vt 0.25 0.81586703125
vt 0.25 0.8148439843749999
vt 0.366406015625 0.8148439843749999
vt 0.355468984375 0.8148439843749999
vt 0.355468984375 0.81586703125
vt 0.335156015625 0.81586703125
vt 0.27031203125 0.8148439843749999
vt 0.25195203125 0.81687
vt 0.25 0.8148439843749999
vt 0.366406015625 0.816406015625
vt 0.366406015625 0.83671796875
vt 0.25 0.816406015625
vt 0.36558 0.83671796875
vt 0.25447 0.81719796875
vt 0.254506015625 0.83671796875
vt 0.25 0.81586703125
vt 0.366406015625 0.8148439843749999
vt 0.25 0.8148439843749999
vt 0.366406015625 0.8148439843749999
vt 0.35938703125 0.835155
vt 0.36604203125 0.817818984375
vt 0.248436015625 0.820385
vt 0.248436015625 0.832185
vt 0.26679703125 0.819738984375
vt 0.365545 0.816406015625
vt 0.25447 0.816406015625
vt 0.25447 0.81719796875
vt 0.35938703125 0.835155
vt 0.25 0.81586703125
vt 0.366406015625 0.8148439843749999
vt 0.27031203125 0.8148439843749999
vt 0.27031203125 0.81687
vt 0.25195203125 0.81687
vt 0.366406015625 0.8148439843749999
vt 0.25 0.81586703125
vt 0.35938703125 0.835155
vt 0.248436015625 0.832185
vt 0.267956015625 0.832185
vt 0.26679703125 0.819738984375
vt 0.267956015625 0.832185
vt 0.26874796875 0.832185
vt 0.26874796875 0.820385
vt 0.26874796875 0.820385
vt 0.26874796875 0.819738984375
vt 0.26679703125 0.819738984375
vt 0.267956015625 0.832185
vt 0.26874796875 0.820385
vt 0.26679703125 0.819738984375
vt 0.26679703125 0.819738984375
vt 0.248436015625 0.819738984375
vt 0.248436015625 0.820385
vn 0 0 1
vn -1 0 0
vn 1 0 0
vn 0 -1 0
vn -0.17364911039574019 0.9848075885464979 0
vn 0 0 -1
vn 0 0 1
vn 0 0 1
vn -1 0 0
vn 1 0 0
vn 0 -1 0
vn -0.17364911039574016 0.9848075885464979 0
vn 0 0 -1
vn 0 0 -1
vn 0.9335787560262473 0.35837230123826325 0.0000012946757186349434
vn -0.17364911039574016 0.9848075885464979 0
vn 0 0 1
vn 1 0 0
vn 0 0 -1
vn 0.9335791909872392 0.3583711681422104 0
vn 0.9335787560270297 0.3583723012385636 0
vn 0.9335871392727643 0.3583504616775265 0
vn 0.9335789380525769 0.358371826853972 -0.000011915107872651458
vn 0.9335871392727642 0.3583504616775265 0
usemtl m_3326e610-1839-8a8f-4c19-b835e2dcf0dc
f 27/121/41 28/122/41 29/123/41
f 30/124/42 31/125/42 32/126/42
f 28/127/43 27/128/43 33/129/43
f 32/130/44 34/131/44 27/132/44
f 35/133/45 36/134/45 31/135/45
f 34/136/46 37/137/46 38/138/46
f 39/139/47 27/140/47 29/141/47
f 35/142/48 30/143/48 27/144/48
f 30/145/49 35/146/49 31/147/49
f 34/148/50 33/149/50 27/150/50
f 30/151/51 32/152/51 27/153/51
f 31/154/52 36/155/52 40/156/52
f 31/157/53 34/158/53 32/159/53
f 34/160/54 40/161/54 37/162/54
f 37/163/55 40/164/55 33/165/55
f 35/166/56 39/167/56 36/168/56
f 39/169/57 35/170/57 27/171/57
f 34/172/58 38/173/58 33/174/58
f 34/175/59 31/176/59 40/177/59
f 40/178/60 36/179/60 33/180/60
f 36/181/61 39/182/61 29/183/61
f 29/184/62 28/185/62 33/186/62
f 36/187/63 29/188/63 33/189/63
f 33/190/64 38/191/64 37/192/64
o left_front
v 0.2 5.08553 -0.246873125
v 0.2047 5.097773125 -0.246873125
v 0.2 5.059375 -0.246873125
v 1.13125 5.059375 -0.246873125
v 1.13125 5.067561875 -0.084373125
v 1.13125 5.059375 -0.084373125
v 0.2 5.08553 -0.22168625
v 0.2 5.059375 -0.084373125
v 0.25257625 5.22249625 -0.24117625
v 1.13125 5.067561875 -0.246873125
v 0.25257625 5.22249625 -0.246873125
v 0.2 5.08553 -0.084373125
v 0.2047 5.097773125 -0.084373125
v 0.25257625 5.22249625 -0.084373125
vt 0.366406015625 0.81811296875
vt 0.365818984375 0.81964296875
vt 0.366406015625 0.8148439843749999
vt 0.292968984375 0.8304689843749999
vt 0.272656015625 0.83149203125
vt 0.272656015625 0.8304689843749999
vt 0.25 0.8148439843749999
vt 0.25314796875 0.81811296875
vt 0.25 0.81811296875
vt 0.247656015625 0.83671796875
vt 0.247656015625 0.816406015625
vt 0.36406203125 0.83671796875
vt 0.254016015625 0.817118984375
vt 0.365545 0.816406015625
vt 0.254016015625 0.816406015625
vt 0.366406015625 0.81811296875
vt 0.366406015625 0.8148439843749999
vt 0.365818984375 0.81964296875
vt 0.359833984375 0.835233984375
vt 0.366406015625 0.8148439843749999
vt 0.365818984375 0.81964296875
vt 0.366406015625 0.822656015625
vt 0.25 0.82368
vt 0.25 0.822656015625
vt 0.347656015625 0.8148439843749999
vt 0.347656015625 0.81586703125
vt 0.327343984375 0.81586703125
vt 0.34689796875 0.81811296875
vt 0.36406203125 0.8148439843749999
vt 0.36406203125 0.81811296875
vt 0.247656015625 0.816406015625
vt 0.36406203125 0.816406015625
vt 0.36406203125 0.83671796875
vt 0.25405203125 0.83671796875
vt 0.36558 0.83671796875
vt 0.25405203125 0.817118984375
vt 0.366406015625 0.8148439843749999
vt 0.25 0.8148439843749999
vt 0.25 0.81586703125
vt 0.366406015625 0.8148439843749999
vt 0.359833984375 0.835233984375
vt 0.365818984375 0.81964296875
vt 0.315305 0.8315529687500001
vt 0.31601703125 0.820835
vt 0.312868984375 0.81978296875
vt 0.254016015625 0.817118984375
vt 0.365545 0.83671796875
vt 0.365545 0.816406015625
vt 0.359833984375 0.835233984375
vt 0.25 0.81586703125
vt 0.366406015625 0.8148439843749999
vt 0.34689796875 0.81811296875
vt 0.34375 0.8148439843749999
vt 0.36406203125 0.8148439843749999
vt 0.366406015625 0.8148439843749999
vt 0.25 0.81586703125
vt 0.359833984375 0.835233984375
vt 0.295705 0.81978296875
vt 0.295705 0.820835
vt 0.312868984375 0.81978296875
vt 0.295705 0.820835
vt 0.295705 0.8315529687500001
vt 0.312868984375 0.81978296875
vt 0.312868984375 0.81978296875
vt 0.295705 0.8315529687500001
vt 0.315305 0.8315529687500001
vt 0.315305 0.8315529687500001
vt 0.31601703125 0.8315529687500001
vt 0.31601703125 0.820835
vt 0.31601703125 0.820835
vt 0.31601703125 0.81978296875
vt 0.312868984375 0.81978296875
vn 0 0 -1
vn 1 0 0
vn -1 0 0
vn 0 -1 0
vn 0.173648705548364 0.984807659932323 0
vn 0 0 1
vn 0 0 -1
vn 0 0 -1
vn 1 0 0
vn -1 0 0
vn 0 -1 0
vn 0.173648705548364 0.9848076599323229 0
vn 0 0 1
vn 0 0 1
vn -0.9335814140253708 0.35836537670989227 -0.000012726596218170224
vn 0.173648705548364 0.9848076599323229 0
vn 0 0 -1
vn -1 0 0
vn 0 0 1
vn -0.9335726545415891 0.35838819552570467 0
vn -0.9335816085805789 0.35836487008969614 0.000002386226458567417
vn -0.9335808082170161 0.35836695512960354 0
vn -0.9335816085832368 0.35836487009071644 0
vn -0.9335726545415891 0.35838819552570467 0
usemtl m_3326e610-1839-8a8f-4c19-b835e2dcf0dc
f 41/193/65 42/194/65 43/195/65
f 44/196/66 45/197/66 46/198/66
f 43/199/67 47/200/67 41/201/67
f 48/202/68 43/203/68 46/204/68
f 49/205/69 50/206/69 51/207/69
f 52/208/70 48/209/70 53/210/70
f 51/211/71 43/212/71 42/213/71
f 43/214/72 50/215/72 44/216/72
f 44/217/73 50/218/73 45/219/73
f 47/220/74 48/221/74 52/222/74
f 43/223/75 44/224/75 46/225/75
f 54/226/76 45/227/76 49/228/76
f 48/229/77 46/230/77 45/231/77
f 48/232/78 54/233/78 53/234/78
f 49/235/79 42/236/79 47/237/79
f 49/238/80 45/239/80 50/240/80
f 51/241/81 50/242/81 43/243/81
f 47/244/82 43/245/82 48/246/82
f 48/247/83 45/248/83 54/249/83
f 52/250/84 53/251/84 47/252/84
f 53/253/85 54/254/85 47/255/85
f 47/256/86 54/257/86 49/258/86
f 49/259/87 51/260/87 42/261/87
f 42/262/88 41/263/88 47/264/88
o rigth_back
v -0.2 5.059375 0.246875
v -0.2 5.07558875 0.246875
v -0.202913125 5.083178125 0.246875
v -1.13125 5.059375 0.246875
v -1.13125 5.067561875 0.084375
v -1.13125 5.059375 0.084375
v -0.2 5.07558875 0.23126125
v -0.2 5.059375 0.084375
v -1.13125 5.067561875 0.246875
v -0.25615125 5.22186625 0.24054
v -0.202913125 5.083178125 0.084375
v -0.2 5.07558875 0.084375
v -0.25615125 5.22186625 0.246875
v -0.25615125 5.22186625 0.084375
vt 0.358593984375 0.8148439843749999
vt 0.358593984375 0.81687
vt 0.358228984375 0.817818984375
vt 0.332031015625 0.8304689843749999
vt 0.311718984375 0.83149203125
vt 0.311718984375 0.8304689843749999
vt 0.25781203125 0.8148439843749999
vt 0.259763984375 0.81687
vt 0.25781203125 0.81687
vt 0.36406203125 0.83671796875
vt 0.247656015625 0.83671796875
vt 0.247656015625 0.816406015625
vt 0.365545 0.816406015625
vt 0.25447 0.81719796875
vt 0.365545 0.83671796875
vt 0.366406015625 0.8148439843749999
vt 0.36604203125 0.817818984375
vt 0.366406015625 0.81687
vt 0.35938703125 0.835155
vt 0.366406015625 0.8148439843749999
vt 0.36604203125 0.817818984375
vt 0.25 0.81586703125
vt 0.25 0.8148439843749999
vt 0.366406015625 0.8148439843749999
vt 0.324218984375 0.822656015625
vt 0.324218984375 0.82368
vt 0.303906015625 0.82368
vt 0.28593703125 0.8148439843749999
vt 0.26757703125 0.81687
vt 0.265625 0.8148439843749999
vt 0.36406203125 0.816406015625
vt 0.36406203125 0.83671796875
vt 0.247656015625 0.816406015625
vt 0.365545 0.83671796875
vt 0.25447 0.81719796875
vt 0.25447 0.83671796875
vt 0.25 0.81586703125
vt 0.366406015625 0.8148439843749999
vt 0.25 0.8148439843749999
vt 0.366406015625 0.8148439843749999
vt 0.35938703125 0.835155
vt 0.36604203125 0.817818984375
vt 0.28984203125 0.832185
vt 0.30936296875 0.832185
vt 0.30820296875 0.819738984375
vt 0.365545 0.816406015625
vt 0.25447 0.816406015625
vt 0.25447 0.81719796875
vt 0.35938703125 0.835155
vt 0.25 0.81586703125
vt 0.366406015625 0.8148439843749999
vt 0.28593703125 0.8148439843749999
vt 0.28593703125 0.81687
vt 0.26757703125 0.81687
vt 0.366406015625 0.8148439843749999
vt 0.25 0.81586703125
vt 0.35938703125 0.835155
vt 0.310155 0.832185
vt 0.310155 0.820385
vt 0.30936296875 0.832185
vt 0.310155 0.820385
vt 0.310155 0.819738984375
vt 0.30820296875 0.819738984375
vt 0.30820296875 0.819738984375
vt 0.28984203125 0.819738984375
vt 0.28984203125 0.820385
vt 0.310155 0.820385
vt 0.30820296875 0.819738984375
vt 0.30936296875 0.832185
vt 0.28984203125 0.820385
vt 0.28984203125 0.832185
vt 0.30820296875 0.819738984375
vn 0 0 1
vn -1 0 0
vn 1 0 0
vn 0 -1 0
vn -0.17364911039574019 0.9848075885464979 0
vn 0 0 -1
vn 0 0 1
vn 0 0 1
vn -1 0 0
vn 1 0 0
vn 0 -1 0
vn -0.17364911039574016 0.9848075885464979 0
vn 0 0 -1
vn 0 0 -1
vn 0.9335791909872392 0.3583711681422104 0
vn -0.17364911039574016 0.984807588546498 0
vn 0 0 1
vn 1 0 0
vn 0 0 -1
vn 0.9335787560270297 0.3583723012385637 0
vn 0.9335871392727643 0.35835046167752654 0
vn 0.9335871392727642 0.3583504616775265 0
vn 0.9335789380525767 0.3583718268539719 -0.000011915107872514263
vn 0.9335787560262473 0.35837230123826325 0.0000012946757186349434
usemtl m_3326e610-1839-8a8f-4c19-b835e2dcf0dc
f 55/265/89 56/266/89 57/267/89
f 58/268/90 59/269/90 60/270/90
f 55/271/91 61/272/91 56/273/91
f 60/274/92 62/275/92 55/276/92
f 63/277/93 64/278/93 59/279/93
f 62/280/94 65/281/94 66/282/94
f 67/283/95 55/284/95 57/285/95
f 63/286/96 58/287/96 55/288/96
f 58/289/97 63/290/97 59/291/97
f 62/292/98 61/293/98 55/294/98
f 58/295/99 60/296/99 55/297/99
f 59/298/100 64/299/100 68/300/100
f 59/301/101 62/302/101 60/303/101
f 62/304/102 68/305/102 65/306/102
f 68/307/103 64/308/103 61/309/103
f 63/310/104 67/311/104 64/312/104
f 67/313/105 63/314/105 55/315/105
f 62/316/106 66/317/106 61/318/106
f 62/319/107 59/320/107 68/321/107
f 67/322/108 57/323/108 64/324/108
f 57/325/109 56/326/109 61/327/109
f 61/328/110 66/329/110 65/330/110
f 57/331/111 61/332/111 64/333/111
f 65/334/112 68/335/112 61/336/112
o left_back
v 0.2 5.08553 0.084376875
v 0.2047 5.097773125 0.084376875
v 0.2 5.059375 0.084376875
v 1.13125 5.059375 0.084376875
v 1.13125 5.067561875 0.246876875
v 1.13125 5.059375 0.246876875
v 0.2 5.08553 0.10956375
v 0.2 5.059375 0.246876875
v 0.25257625 5.22249625 0.09007375
v 1.13125 5.067561875 0.084376875
v 0.25257625 5.22249625 0.084376875
v 0.2 5.08553 0.246876875
v 0.2047 5.097773125 0.246876875
v 0.25257625 5.22249625 0.246876875
vt 0.335156015625 0.81811296875
vt 0.334568984375 0.81964296875
vt 0.335156015625 0.8148439843749999
vt 0.324218984375 0.822656015625
vt 0.303906015625 0.82368
vt 0.303906015625 0.822656015625
vt 0.28906203125 0.8148439843749999
vt 0.292211015625 0.81811296875
vt 0.28906203125 0.81811296875
vt 0.247656015625 0.83671796875
vt 0.247656015625 0.816406015625
vt 0.36406203125 0.83671796875
vt 0.254016015625 0.817118984375
vt 0.365545 0.816406015625
vt 0.254016015625 0.816406015625
vt 0.350781015625 0.81811296875
vt 0.350781015625 0.8148439843749999
vt 0.350193984375 0.81964296875
vt 0.366406015625 0.8148439843749999
vt 0.359833984375 0.835233984375
vt 0.25 0.81586703125
vt 0.366406015625 0.8148439843749999
vt 0.25 0.81586703125
vt 0.25 0.8148439843749999
vt 0.308593984375 0.822656015625
vt 0.308593984375 0.82368
vt 0.288281015625 0.82368
vt 0.309375 0.8148439843749999
vt 0.292211015625 0.81811296875
vt 0.28906203125 0.8148439843749999
vt 0.25 0.816406015625
vt 0.366406015625 0.816406015625
vt 0.366406015625 0.83671796875
vt 0.254016015625 0.83671796875
vt 0.365545 0.83671796875
vt 0.254016015625 0.817118984375
vt 0.366406015625 0.8148439843749999
vt 0.25 0.8148439843749999
vt 0.25 0.81586703125
vt 0.366406015625 0.8148439843749999
vt 0.359833984375 0.835233984375
vt 0.365818984375 0.81964296875
vt 0.273898984375 0.8315529687500001
vt 0.274611015625 0.820835
vt 0.27146203125 0.81978296875
vt 0.254016015625 0.817118984375
vt 0.365545 0.83671796875
vt 0.365545 0.816406015625
vt 0.366406015625 0.8148439843749999
vt 0.365818984375 0.81964296875
vt 0.359833984375 0.835233984375
vt 0.309375 0.8148439843749999
vt 0.309375 0.81811296875
vt 0.292211015625 0.81811296875
vt 0.366406015625 0.8148439843749999
vt 0.25 0.81586703125
vt 0.359833984375 0.835233984375
vt 0.273898984375 0.8315529687500001
vt 0.274611015625 0.8315529687500001
vt 0.274611015625 0.820835
vt 0.274611015625 0.820835
vt 0.274611015625 0.81978296875
vt 0.27146203125 0.81978296875
vt 0.27146203125 0.81978296875
vt 0.25429796875 0.81978296875
vt 0.25429796875 0.820835
vt 0.25429796875 0.820835
vt 0.25429796875 0.8315529687500001
vt 0.27146203125 0.81978296875
vt 0.25429796875 0.8315529687500001
vt 0.273898984375 0.8315529687500001
vt 0.27146203125 0.81978296875
vn 0 0 -1
vn 1 0 0
vn -1 0 0
vn 0 -1 0
vn 0.173648705548364 0.984807659932323 0
vn 0 0 1
vn 0 0 -1
vn 0 0 -1
vn 1 0 0
vn -1 0 0
vn 0 -1 0
vn 0.173648705548364 0.9848076599323229 0
vn 0 0 1
vn 0 0 1
vn -0.9335814140253708 0.35836537670989227 -0.000012726596218170224
vn 0.17364870554836398 0.9848076599323229 0
vn 0 0 -1
vn -1 0 0
vn 0 0 1
vn -0.9335816085832368 0.35836487009071644 0
vn -0.9335726545415891 0.35838819552570467 0
vn -0.9335726545415891 0.35838819552570467 0
vn -0.933581608580579 0.35836487008969614 0.000002386226458567418
vn -0.933580808217016 0.3583669551296034 0
usemtl m_3326e610-1839-8a8f-4c19-b835e2dcf0dc
f 69/337/113 70/338/113 71/339/113
f 72/340/114 73/341/114 74/342/114
f 71/343/115 75/344/115 69/345/115
f 76/346/116 71/347/116 74/348/116
f 77/349/117 78/350/117 79/351/117
f 80/352/118 76/353/118 81/354/118
f 71/355/119 79/356/119 78/357/119
f 71/358/120 78/359/120 72/360/120
f 72/361/121 78/362/121 73/363/121
f 76/364/122 75/365/122 71/366/122
f 71/367/123 72/368/123 74/369/123
f 82/370/124 73/371/124 77/372/124
f 76/373/125 74/374/125 73/375/125
f 76/376/126 82/377/126 81/378/126
f 77/379/127 70/380/127 75/381/127
f 77/382/128 73/383/128 78/384/128
f 71/385/129 70/386/129 79/387/129
f 76/388/130 80/389/130 75/390/130
f 76/391/131 73/392/131 82/393/131
f 77/394/132 79/395/132 70/396/132
f 70/397/133 69/398/133 75/399/133
f 75/400/134 80/401/134 81/402/134
f 81/403/135 82/404/135 75/405/135
f 82/406/136 77/407/136 75/408/136