# Blender v3.0.0 OBJ File: ''
# www.blender.org
mtllib stargate.mtl
o cube.003
v 0.221978 4.142574 0.190626
v 0.001007 4.363545 0.190626
v 0.001007 4.363545 0.196882
v 0.221978 4.142574 0.196882
v 0.199881 4.120477 0.196882
v -0.021090 4.341448 0.196882
v -0.021090 4.341448 0.190626
v 0.199881 4.120477 0.190626
v -0.205438 4.119340 0.190626
v 0.019952 4.344730 0.190626
v 0.019952 4.344730 0.196938
v -0.205438 4.119340 0.196938
v -0.227535 4.141437 0.196938
v -0.002145 4.366827 0.196938
v -0.002145 4.366827 0.190626
v -0.227535 4.141437 0.190626
v 0.244075 4.333238 0.190626
v 0.191042 4.386271 0.190626
v 0.191042 4.386271 0.196882
v 0.244075 4.333238 0.196882
v 0.191042 4.280205 0.196882
v 0.138009 4.333238 0.196882
v 0.138009 4.333238 0.190626
v 0.191042 4.280205 0.190626
v -0.137175 4.333238 0.190626
v -0.190208 4.386271 0.190626
v -0.190208 4.386271 0.196882
v -0.137175 4.333238 0.196882
v -0.190208 4.280205 0.196882
v -0.243241 4.333238 0.196882
v -0.243241 4.333238 0.190626
v -0.190208 4.280205 0.190626
vt 0.498437 1.000000
vt 0.497655 0.975000
vt 0.498437 0.975000
vt 0.496095 0.993750
vt 0.495313 0.968750
vt 0.496095 0.968750
vt 0.498437 0.977344
vt 0.494531 0.976562
vt 0.494531 0.977344
vt 0.497656 0.992188
vt 0.493750 0.991406
vt 0.497656 0.991406
vt 0.493750 1.000000
vt 0.493750 0.975000
vt 0.497805 1.000000
vt 0.493898 0.975000
vt 0.497805 0.975000
vt 0.498437 1.000000
vt 0.497648 0.975000
vt 0.498437 0.975000
vt 0.495320 1.000000
vt 0.494531 0.975000
vt 0.495320 0.975000
vt 0.498437 0.977344
vt 0.494531 0.976555
vt 0.494531 0.977344
vt 0.497656 0.992195
vt 0.493750 0.991406
vt 0.497656 0.991406
vt 0.497656 0.975000
vt 0.493750 1.000000
vt 0.493750 0.975000
vt 0.497805 0.975000
vt 0.493898 1.000000
vt 0.493898 0.975000
vt 0.498437 1.000000
vt 0.497655 0.975000
vt 0.498437 0.975000
vt 0.496095 0.993750
vt 0.495313 0.968750
vt 0.496095 0.968750
vt 0.498437 0.977344
vt 0.494531 0.976562
vt 0.494531 0.977344
vt 0.497656 0.992188
vt 0.493750 0.991406
vt 0.497656 0.991406
vt 0.497656 1.000000
vt 0.493750 0.975000
vt 0.497805 0.975000
vt 0.493898 1.000000
vt 0.493898 0.975000
vt 0.498437 1.000000
vt 0.497655 0.975000
vt 0.498437 0.975000
vt 0.496095 0.993750
vt 0.495313 0.968750
vt 0.496095 0.968750
vt 0.498437 0.977344
vt 0.494531 0.976562
vt 0.494531 0.977344
vt 0.497656 0.992188
vt 0.493750 0.991406
vt 0.497656 0.991406
vt 0.497656 1.000000
vt 0.493750 0.975000
vt 0.497805 0.975000
vt 0.493898 1.000000
vt 0.493898 0.975000
vt 0.497655 1.000000
vt 0.495313 0.993750
vt 0.498437 0.976562
vt 0.493750 0.992188
vt 0.493898 1.000000
vt 0.497648 1.000000
vt 0.494531 1.000000
vt 0.498437 0.976555
vt 0.493750 0.992195
vt 0.497656 1.000000
vt 0.497805 1.000000
vt 0.495313 0.993750
vt 0.498437 0.976562
vt 0.493750 0.992188
vt 0.493750 1.000000
vt 0.497805 1.000000
vt 0.495313 0.993750
vt 0.498437 0.976562
vt 0.493750 0.992188
vt 0.493750 1.000000
vt 0.497805 1.000000
vn 0.7071 0.7071 0.0000
vn -0.7071 -0.7071 0.0000
vn -0.7071 0.7071 0.0000
vn 0.7071 -0.7071 0.0000
vn -0.0000 -0.0000 1.0000
vn 0.0000 0.0000 -1.0000
usemtl m_3326e610-1839-8a8f-4c19-b835e2dcf0dc.003
s 1
f 2/1/1 4/2/1 1/3/1
f 6/4/2 8/5/2 5/6/2
f 2/7/3 6/8/3 3/9/3
f 4/10/4 8/11/4 1/12/4
f 4/2/5 6/13/5 5/14/5
f 7/15/6 1/16/6 8/17/6
f 10/18/4 12/19/4 9/20/4
f 14/21/3 16/22/3 13/23/3
f 10/24/1 14/25/1 11/26/1
f 12/27/2 16/28/2 9/29/2
f 12/30/5 14/31/5 13/32/5
f 16/33/6 10/34/6 9/35/6
f 18/36/1 20/37/1 17/38/1
f 22/39/2 24/40/2 21/41/2
f 18/42/3 22/43/3 19/44/3
f 20/45/4 24/46/4 17/47/4
f 19/48/5 21/49/5 20/37/5
f 24/50/6 18/51/6 17/52/6
f 26/53/1 28/54/1 25/55/1
f 30/56/2 32/57/2 29/58/2
f 26/59/3 30/60/3 27/61/3
f 28/62/4 32/63/4 25/64/4
f 27/65/5 29/66/5 28/54/5
f 32/67/6 26/68/6 25/69/6
f 2/1/1 3/70/1 4/2/1
f 6/4/2 7/71/2 8/5/2
f 2/7/3 7/72/3 6/8/3
f 4/10/4 5/73/4 8/11/4
f 4/2/5 3/70/5 6/13/5
f 7/15/6 2/74/6 1/16/6
f 10/18/4 11/75/4 12/19/4
f 14/21/3 15/76/3 16/22/3
f 10/24/1 15/77/1 14/25/1
f 12/27/2 13/78/2 16/28/2
f 12/30/5 11/79/5 14/31/5
f 16/33/6 15/80/6 10/34/6
f 18/36/1 19/48/1 20/37/1
f 22/39/2 23/81/2 24/40/2
f 18/42/3 23/82/3 22/43/3
f 20/45/4 21/83/4 24/46/4
f 19/48/5 22/84/5 21/49/5
f 24/50/6 23/85/6 18/51/6
f 26/53/1 27/65/1 28/54/1
f 30/56/2 31/86/2 32/57/2
f 26/59/3 31/87/3 30/60/3
f 28/62/4 29/88/4 32/63/4
f 27/65/5 30/89/5 29/66/5
f 32/67/6 31/90/6 26/68/6
