# Blender v3.0.0 OBJ File: ''
# www.blender.org
mtllib stargate.mtl
o cube.005
v 0.160327 4.104730 0.190626
v 0.138898 4.091854 0.190626
v -0.005957 4.332932 0.190626
v 0.015472 4.345808 0.190626
v 0.160327 4.104730 0.196938
v 0.015472 4.345808 0.196938
v 0.138898 4.091854 0.196938
v -0.005957 4.332932 0.196938
vt 0.493898 0.975000
vt 0.497805 1.000000
vt 0.493898 1.000000
vt 0.498437 0.975000
vt 0.497648 1.000000
vt 0.497648 0.975000
vt 0.497656 0.975000
vt 0.493750 1.000000
vt 0.493750 0.975000
vt 0.495320 0.975000
vt 0.494531 1.000000
vt 0.494531 0.975000
vt 0.494531 0.977344
vt 0.498437 0.976555
vt 0.494531 0.976555
vt 0.497656 0.991406
vt 0.493750 0.992195
vt 0.493750 0.991406
vt 0.497805 0.975000
vt 0.498437 1.000000
vt 0.497656 1.000000
vt 0.495320 1.000000
vt 0.498437 0.977344
vt 0.497656 0.992195
vn 0.0000 0.0000 -1.0000
vn 0.8572 0.5150 0.0000
vn 0.0000 -0.0000 1.0000
vn -0.8572 -0.5150 0.0000
vn -0.5150 0.8572 0.0000
vn 0.5150 -0.8572 0.0000
usemtl m_3326e610-1839-8a8f-4c19-b835e2dcf0dc.005
s 1
f 1/1/1 3/2/1 4/3/1
f 1/4/2 6/5/2 5/6/2
f 5/7/3 8/8/3 7/9/3
f 7/10/4 3/11/4 2/12/4
f 6/13/5 3/14/5 8/15/5
f 1/16/6 7/17/6 2/18/6
f 1/1/1 2/19/1 3/2/1
f 1/4/2 4/20/2 6/5/2
f 5/7/3 6/21/3 8/8/3
f 7/10/4 8/22/4 3/11/4
f 6/13/5 4/23/5 3/14/5
f 1/16/6 5/24/6 7/17/6
o cube.000
v -0.145000 4.100661 0.190626
v -0.165726 4.114641 0.190626
v -0.001463 4.358171 0.190626
v 0.019263 4.344191 0.190626
v -0.145000 4.100661 0.196938
v 0.019263 4.344191 0.196938
v -0.165726 4.114641 0.196938
v -0.001463 4.358171 0.196938
vt 0.493898 0.975000
vt 0.497805 1.000000
vt 0.493898 1.000000
vt 0.498437 0.975000
vt 0.497648 1.000000
vt 0.497648 0.975000
vt 0.493750 0.975000
vt 0.497656 1.000000
vt 0.493750 1.000000
vt 0.495320 0.975000
vt 0.494531 1.000000
vt 0.494531 0.975000
vt 0.494531 0.977344
vt 0.498437 0.976555
vt 0.494531 0.976555
vt 0.497656 0.991406
vt 0.493750 0.992195
vt 0.493750 0.991406
vt 0.497805 0.975000
vt 0.498437 1.000000
vt 0.497656 0.975000
vt 0.495320 1.000000
vt 0.498437 0.977344
vt 0.497656 0.992195
vn -0.0000 0.0000 -1.0000
vn 0.8290 -0.5592 0.0000
vn 0.0000 -0.0000 1.0000
vn -0.8290 0.5592 0.0000
vn 0.5592 0.8290 0.0000
vn -0.5592 -0.8290 0.0000
usemtl m_3326e610-1839-8a8f-4c19-b835e2dcf0dc.005
s 1
f 9/25/7 11/26/7 12/27/7
f 9/28/8 14/29/8 13/30/8
f 15/31/9 14/32/9 16/33/9
f 15/34/10 11/35/10 10/36/10
f 14/37/11 11/38/11 16/39/11
f 9/40/12 15/41/12 10/42/12
f 9/25/7 10/43/7 11/26/7
f 9/28/8 12/44/8 14/29/8
f 15/31/9 13/45/9 14/32/9
f 15/34/10 16/46/10 11/35/10
f 14/37/11 12/47/11 11/38/11
f 9/40/12 13/48/12 15/41/12
o cube.006
v 0.031250 4.393750 0.190626
v -0.025000 4.393750 0.190626
v -0.025000 4.450000 0.190626
v 0.031250 4.450000 0.190626
v 0.031250 4.393750 0.196938
v 0.031250 4.450000 0.196938
v -0.025000 4.393750 0.196938
v -0.025000 4.450000 0.196938
vt 0.497805 0.975000
vt 0.493898 1.000000
vt 0.493898 0.975000
vt 0.498437 0.975000
vt 0.497648 1.000000
vt 0.497648 0.975000
vt 0.497656 0.975000
vt 0.493750 1.000000
vt 0.493750 0.975000
vt 0.495320 0.975000
vt 0.494531 1.000000
vt 0.494531 0.975000
vt 0.494531 0.977344
vt 0.498437 0.976555
vt 0.494531 0.976555
vt 0.497656 0.991406
vt 0.493750 0.992195
vt 0.493750 0.991406
vt 0.497805 1.000000
vt 0.498437 1.000000
vt 0.497656 1.000000
vt 0.495320 1.000000
vt 0.498437 0.977344
vt 0.497656 0.992195
vn 0.0000 0.0000 -1.0000
vn 1.0000 0.0000 0.0000
vn 0.0000 -0.0000 1.0000
vn -1.0000 -0.0000 0.0000
vn 0.0000 1.0000 0.0000
vn 0.0000 -1.0000 0.0000
usemtl m_3326e610-1839-8a8f-4c19-b835e2dcf0dc.005
s 1
f 18/49/13 20/50/13 17/51/13
f 17/52/14 22/53/14 21/54/14
f 21/55/15 24/56/15 23/57/15
f 23/58/16 19/59/16 18/60/16
f 22/61/17 19/62/17 24/63/17
f 17/64/18 23/65/18 18/66/18
f 18/49/13 19/67/13 20/50/13
f 17/52/14 20/68/14 22/53/14
f 21/55/15 22/69/15 24/56/15
f 23/58/16 24/70/16 19/59/16
f 22/61/17 20/71/17 19/62/17
f 17/64/18 21/72/18 23/65/18
